%TF.GenerationSoftware,KiCad,Pcbnew,5.1.6-c6e7f7d~86~ubuntu18.04.1*%
%TF.CreationDate,2020-11-01T20:36:20-05:00*%
%TF.ProjectId,Senior-Design-Radar-Group,53656e69-6f72-42d4-9465-7369676e2d52,rev?*%
%TF.SameCoordinates,Original*%
%TF.FileFunction,Other,Fab,Top*%
%FSLAX46Y46*%
G04 Gerber Fmt 4.6, Leading zero omitted, Abs format (unit mm)*
G04 Created by KiCad (PCBNEW 5.1.6-c6e7f7d~86~ubuntu18.04.1) date 2020-11-01 20:36:20*
%MOMM*%
%LPD*%
G01*
G04 APERTURE LIST*
%ADD10C,0.100000*%
%ADD11C,0.150000*%
%ADD12C,0.105000*%
%ADD13C,0.120000*%
%ADD14C,0.080000*%
%ADD15C,0.075000*%
G04 APERTURE END LIST*
D10*
%TO.C,J3*%
X143789400Y-146685000D02*
G75*
G03*
X143789400Y-146685000I-3175000J0D01*
G01*
X137114400Y-143185000D02*
X144114400Y-143185000D01*
X137114400Y-143185000D02*
X137114400Y-150185000D01*
X137114400Y-150185000D02*
X144114400Y-150185000D01*
X144114400Y-143185000D02*
X144114400Y-150185000D01*
%TO.C,J8*%
X143886000Y-136010200D02*
G75*
G03*
X143886000Y-136010200I-3175000J0D01*
G01*
X144211000Y-132510200D02*
X144211000Y-139510200D01*
X144211000Y-132510200D02*
X137211000Y-132510200D01*
X137211000Y-132510200D02*
X137211000Y-139510200D01*
X144211000Y-139510200D02*
X137211000Y-139510200D01*
%TO.C,J6*%
X102133400Y-131089400D02*
G75*
G03*
X102133400Y-131089400I-3175000J0D01*
G01*
X95458400Y-127589400D02*
X102458400Y-127589400D01*
X95458400Y-127589400D02*
X95458400Y-134589400D01*
X95458400Y-134589400D02*
X102458400Y-134589400D01*
X102458400Y-127589400D02*
X102458400Y-134589400D01*
%TO.C,J4*%
X99288600Y-109270800D02*
G75*
G03*
X99288600Y-109270800I-3175000J0D01*
G01*
X92613600Y-105770800D02*
X99613600Y-105770800D01*
X92613600Y-105770800D02*
X92613600Y-112770800D01*
X92613600Y-112770800D02*
X99613600Y-112770800D01*
X99613600Y-105770800D02*
X99613600Y-112770800D01*
%TO.C,U7*%
X90058600Y-117438000D02*
X92983600Y-117438000D01*
X92983600Y-117438000D02*
X92983600Y-122338000D01*
X92983600Y-122338000D02*
X89083600Y-122338000D01*
X89083600Y-122338000D02*
X89083600Y-118413000D01*
X89083600Y-118413000D02*
X90058600Y-117438000D01*
%TO.C,U6*%
X65111800Y-125999600D02*
X65111800Y-128924600D01*
X65111800Y-128924600D02*
X60211800Y-128924600D01*
X60211800Y-128924600D02*
X60211800Y-125024600D01*
X60211800Y-125024600D02*
X64136800Y-125024600D01*
X64136800Y-125024600D02*
X65111800Y-125999600D01*
%TO.C,U5*%
X84369000Y-129604600D02*
X87294000Y-129604600D01*
X87294000Y-129604600D02*
X87294000Y-134504600D01*
X87294000Y-134504600D02*
X83394000Y-134504600D01*
X83394000Y-134504600D02*
X83394000Y-130579600D01*
X83394000Y-130579600D02*
X84369000Y-129604600D01*
D11*
%TO.C,U4*%
X121140600Y-101192200D02*
X123140600Y-101192200D01*
X123140600Y-101192200D02*
X123140600Y-104192200D01*
X123140600Y-104192200D02*
X120140600Y-104192200D01*
X120140600Y-104192200D02*
X120140600Y-102192200D01*
X120140600Y-102192200D02*
X121140600Y-101192200D01*
D10*
%TO.C,U3*%
X117031600Y-110068000D02*
X117031600Y-107143000D01*
X117031600Y-107143000D02*
X121931600Y-107143000D01*
X121931600Y-107143000D02*
X121931600Y-111043000D01*
X121931600Y-111043000D02*
X118006600Y-111043000D01*
X118006600Y-111043000D02*
X117031600Y-110068000D01*
%TO.C,U2*%
X143015200Y-121213000D02*
X144015200Y-122213000D01*
X143015200Y-121213000D02*
X137315200Y-121213000D01*
X144015200Y-122213000D02*
X144015200Y-124913000D01*
X137315200Y-121213000D02*
X137315200Y-124913000D01*
X144015200Y-124913000D02*
X137315200Y-124913000D01*
%TO.C,RV2*%
X66129200Y-132428600D02*
G75*
G03*
X66129200Y-132428600I-1095000J0D01*
G01*
X73294200Y-135988600D02*
X73294200Y-131158600D01*
X73294200Y-131158600D02*
X63764200Y-131158600D01*
X63764200Y-131158600D02*
X63764200Y-135988600D01*
X63764200Y-135988600D02*
X73294200Y-135988600D01*
X65034200Y-131343600D02*
X65033200Y-133512600D01*
X65034200Y-131343600D02*
X65033200Y-133512600D01*
%TO.C,RV1*%
X66180000Y-119271400D02*
G75*
G03*
X66180000Y-119271400I-1095000J0D01*
G01*
X73345000Y-122831400D02*
X73345000Y-118001400D01*
X73345000Y-118001400D02*
X63815000Y-118001400D01*
X63815000Y-118001400D02*
X63815000Y-122831400D01*
X63815000Y-122831400D02*
X73345000Y-122831400D01*
X65085000Y-118186400D02*
X65084000Y-120355400D01*
X65085000Y-118186400D02*
X65084000Y-120355400D01*
%TO.C,R22*%
X96662800Y-116722400D02*
X95462800Y-116722400D01*
X95462800Y-116722400D02*
X95462800Y-114722400D01*
X95462800Y-114722400D02*
X96662800Y-114722400D01*
X96662800Y-114722400D02*
X96662800Y-116722400D01*
%TO.C,R21*%
X95488200Y-118430800D02*
X96688200Y-118430800D01*
X96688200Y-118430800D02*
X96688200Y-120430800D01*
X96688200Y-120430800D02*
X95488200Y-120430800D01*
X95488200Y-120430800D02*
X95488200Y-118430800D01*
%TO.C,R20*%
X97935300Y-119091000D02*
X97935300Y-117891000D01*
X97935300Y-117891000D02*
X99935300Y-117891000D01*
X99935300Y-117891000D02*
X99935300Y-119091000D01*
X99935300Y-119091000D02*
X97935300Y-119091000D01*
%TO.C,R19*%
X96688200Y-123959100D02*
X95488200Y-123959100D01*
X95488200Y-123959100D02*
X95488200Y-121959100D01*
X95488200Y-121959100D02*
X96688200Y-121959100D01*
X96688200Y-121959100D02*
X96688200Y-123959100D01*
%TO.C,R18*%
X99958400Y-123428200D02*
X99958400Y-124628200D01*
X99958400Y-124628200D02*
X97958400Y-124628200D01*
X97958400Y-124628200D02*
X97958400Y-123428200D01*
X97958400Y-123428200D02*
X99958400Y-123428200D01*
%TO.C,R17*%
X91938600Y-124450400D02*
X91938600Y-123250400D01*
X91938600Y-123250400D02*
X93938600Y-123250400D01*
X93938600Y-123250400D02*
X93938600Y-124450400D01*
X93938600Y-124450400D02*
X91938600Y-124450400D01*
%TO.C,R16*%
X86020200Y-118830600D02*
X84820200Y-118830600D01*
X84820200Y-118830600D02*
X84820200Y-116830600D01*
X84820200Y-116830600D02*
X86020200Y-116830600D01*
X86020200Y-116830600D02*
X86020200Y-118830600D01*
%TO.C,R15*%
X88052400Y-124501200D02*
X88052400Y-123301200D01*
X88052400Y-123301200D02*
X90052400Y-123301200D01*
X90052400Y-123301200D02*
X90052400Y-124501200D01*
X90052400Y-124501200D02*
X88052400Y-124501200D01*
%TO.C,R14*%
X83423000Y-119948400D02*
X83423000Y-121148400D01*
X83423000Y-121148400D02*
X81423000Y-121148400D01*
X81423000Y-121148400D02*
X81423000Y-119948400D01*
X81423000Y-119948400D02*
X83423000Y-119948400D01*
%TO.C,R13*%
X78952800Y-120465100D02*
X80152800Y-120465100D01*
X80152800Y-120465100D02*
X80152800Y-122465100D01*
X80152800Y-122465100D02*
X78952800Y-122465100D01*
X78952800Y-122465100D02*
X78952800Y-120465100D01*
%TO.C,R12*%
X75657200Y-121148400D02*
X75657200Y-119948400D01*
X75657200Y-119948400D02*
X77657200Y-119948400D01*
X77657200Y-119948400D02*
X77657200Y-121148400D01*
X77657200Y-121148400D02*
X75657200Y-121148400D01*
%TO.C,R11*%
X62061600Y-131175200D02*
X62061600Y-132375200D01*
X62061600Y-132375200D02*
X60061600Y-132375200D01*
X60061600Y-132375200D02*
X60061600Y-131175200D01*
X60061600Y-131175200D02*
X62061600Y-131175200D01*
%TO.C,R10*%
X62671200Y-121320000D02*
X62671200Y-122520000D01*
X62671200Y-122520000D02*
X60671200Y-122520000D01*
X60671200Y-122520000D02*
X60671200Y-121320000D01*
X60671200Y-121320000D02*
X62671200Y-121320000D01*
%TO.C,R9*%
X59401000Y-129854200D02*
X58201000Y-129854200D01*
X58201000Y-129854200D02*
X58201000Y-127854200D01*
X58201000Y-127854200D02*
X59401000Y-127854200D01*
X59401000Y-127854200D02*
X59401000Y-129854200D01*
%TO.C,R8*%
X58201000Y-124272800D02*
X59401000Y-124272800D01*
X59401000Y-124272800D02*
X59401000Y-126272800D01*
X59401000Y-126272800D02*
X58201000Y-126272800D01*
X58201000Y-126272800D02*
X58201000Y-124272800D01*
%TO.C,R7*%
X90188300Y-135321600D02*
X90188300Y-134121600D01*
X90188300Y-134121600D02*
X92188300Y-134121600D01*
X92188300Y-134121600D02*
X92188300Y-135321600D01*
X92188300Y-135321600D02*
X90188300Y-135321600D01*
%TO.C,R6*%
X91678200Y-130876800D02*
X92878200Y-130876800D01*
X92878200Y-130876800D02*
X92878200Y-132876800D01*
X92878200Y-132876800D02*
X91678200Y-132876800D01*
X91678200Y-132876800D02*
X91678200Y-130876800D01*
%TO.C,R5*%
X88630000Y-135391600D02*
X88630000Y-136591600D01*
X88630000Y-136591600D02*
X86630000Y-136591600D01*
X86630000Y-136591600D02*
X86630000Y-135391600D01*
X86630000Y-135391600D02*
X88630000Y-135391600D01*
%TO.C,R4*%
X81118000Y-135518400D02*
X79918000Y-135518400D01*
X79918000Y-135518400D02*
X79918000Y-133518400D01*
X79918000Y-133518400D02*
X81118000Y-133518400D01*
X81118000Y-133518400D02*
X81118000Y-135518400D01*
%TO.C,R3*%
X79111400Y-133842000D02*
X77911400Y-133842000D01*
X77911400Y-133842000D02*
X77911400Y-131842000D01*
X77911400Y-131842000D02*
X79111400Y-131842000D01*
X79111400Y-131842000D02*
X79111400Y-133842000D01*
%TO.C,R2*%
X76751700Y-136845600D02*
X76751700Y-135645600D01*
X76751700Y-135645600D02*
X78751700Y-135645600D01*
X78751700Y-135645600D02*
X78751700Y-136845600D01*
X78751700Y-136845600D02*
X76751700Y-136845600D01*
%TO.C,R1*%
X124647400Y-100168200D02*
X125847400Y-100168200D01*
X125847400Y-100168200D02*
X125847400Y-102168200D01*
X125847400Y-102168200D02*
X124647400Y-102168200D01*
X124647400Y-102168200D02*
X124647400Y-100168200D01*
%TO.C,J7*%
X54262200Y-114655600D02*
G75*
G03*
X54262200Y-114655600I-1100000J0D01*
G01*
X56802200Y-114655600D02*
G75*
G03*
X56802200Y-114655600I-1100000J0D01*
G01*
X59342200Y-114655600D02*
G75*
G03*
X59342200Y-114655600I-1100000J0D01*
G01*
X61882200Y-114655600D02*
G75*
G03*
X61882200Y-114655600I-1100000J0D01*
G01*
X51662200Y-111555600D02*
X62282200Y-111555600D01*
X62282200Y-111555600D02*
X62282200Y-117755600D01*
X62282200Y-117755600D02*
X52162200Y-117755600D01*
X52162200Y-117755600D02*
X51662200Y-117255600D01*
X51662200Y-117255600D02*
X51662200Y-111555600D01*
X51662200Y-117255600D02*
X62282200Y-117255600D01*
X51662200Y-111955600D02*
X62282200Y-111955600D01*
X53997200Y-113955600D02*
X52461200Y-115490600D01*
X53863200Y-113820600D02*
X52327200Y-115355600D01*
X56537200Y-113955600D02*
X55002200Y-115490600D01*
X56403200Y-113820600D02*
X54868200Y-115355600D01*
X59077200Y-113955600D02*
X57542200Y-115490600D01*
X58943200Y-113820600D02*
X57408200Y-115355600D01*
X61617200Y-113955600D02*
X60082200Y-115490600D01*
X61483200Y-113820600D02*
X59948200Y-115355600D01*
%TO.C,J2*%
X47818800Y-127135200D02*
X48818800Y-126385200D01*
X48818800Y-127885200D02*
X47818800Y-127135200D01*
X46913800Y-130945200D02*
X37388800Y-130945200D01*
X37388800Y-130945200D02*
X37388800Y-123325200D01*
X37388800Y-123325200D02*
X46913800Y-123325200D01*
X46913800Y-122055200D02*
X46913800Y-123325200D01*
X46913800Y-130945200D02*
X46913800Y-132215200D01*
X53268800Y-132215200D02*
X46913800Y-132215200D01*
X53268800Y-132215200D02*
X53268800Y-130945200D01*
X53268800Y-130945200D02*
X48818800Y-130945200D01*
X48818800Y-130945200D02*
X48818800Y-123325200D01*
X48818800Y-123325200D02*
X53268800Y-123325200D01*
X53268800Y-123325200D02*
X53268800Y-122055200D01*
X53268800Y-122055200D02*
X46913800Y-122055200D01*
%TO.C,D3*%
X139722200Y-117373400D02*
X139972200Y-117373400D01*
X139722200Y-117723400D02*
X139222200Y-117373400D01*
X139722200Y-117023400D02*
X139722200Y-117723400D01*
X139222200Y-117373400D02*
X139722200Y-117023400D01*
X139222200Y-117373400D02*
X139022200Y-117373400D01*
X139222200Y-117023400D02*
X139222200Y-117723400D01*
X138622200Y-118073400D02*
X138622200Y-116673400D01*
X140422200Y-118073400D02*
X138622200Y-118073400D01*
X140422200Y-116673400D02*
X140422200Y-118073400D01*
X138622200Y-116673400D02*
X140422200Y-116673400D01*
%TO.C,D2*%
X140639800Y-129517800D02*
X140639800Y-129267800D01*
X140989800Y-129517800D02*
X140639800Y-130017800D01*
X140289800Y-129517800D02*
X140989800Y-129517800D01*
X140639800Y-130017800D02*
X140289800Y-129517800D01*
X140639800Y-130017800D02*
X140639800Y-130217800D01*
X140289800Y-130017800D02*
X140989800Y-130017800D01*
X141339800Y-130617800D02*
X139939800Y-130617800D01*
X141339800Y-128817800D02*
X141339800Y-130617800D01*
X139939800Y-128817800D02*
X141339800Y-128817800D01*
X139939800Y-130617800D02*
X139939800Y-128817800D01*
%TO.C,D1*%
X111983800Y-117886400D02*
X111983800Y-120336400D01*
X112533800Y-117316400D02*
X113383800Y-117316400D01*
X111983800Y-117886400D02*
X112533800Y-117316400D01*
X113383800Y-117316400D02*
X113383800Y-120356400D01*
X111983800Y-120356400D02*
X113383800Y-120356400D01*
%TO.C,C22*%
X81972159Y-114901400D02*
X81972159Y-113701400D01*
X81972159Y-113701400D02*
X83972159Y-113701400D01*
X83972159Y-113701400D02*
X83972159Y-114901400D01*
X83972159Y-114901400D02*
X81972159Y-114901400D01*
%TO.C,C21*%
X91735400Y-116551000D02*
X91735400Y-115351000D01*
X91735400Y-115351000D02*
X93735400Y-115351000D01*
X93735400Y-115351000D02*
X93735400Y-116551000D01*
X93735400Y-116551000D02*
X91735400Y-116551000D01*
%TO.C,C20*%
X87999559Y-116546800D02*
X87999559Y-115346800D01*
X87999559Y-115346800D02*
X89999559Y-115346800D01*
X89999559Y-115346800D02*
X89999559Y-116546800D01*
X89999559Y-116546800D02*
X87999559Y-116546800D01*
%TO.C,C19*%
X69531800Y-126025400D02*
X70731800Y-126025400D01*
X70731800Y-126025400D02*
X70731800Y-128025400D01*
X70731800Y-128025400D02*
X69531800Y-128025400D01*
X69531800Y-128025400D02*
X69531800Y-126025400D01*
%TO.C,C18*%
X67345000Y-126050800D02*
X68545000Y-126050800D01*
X68545000Y-126050800D02*
X68545000Y-128050800D01*
X68545000Y-128050800D02*
X67345000Y-128050800D01*
X67345000Y-128050800D02*
X67345000Y-126050800D01*
%TO.C,C17*%
X72761400Y-128025400D02*
X71561400Y-128025400D01*
X71561400Y-128025400D02*
X71561400Y-126025400D01*
X71561400Y-126025400D02*
X72761400Y-126025400D01*
X72761400Y-126025400D02*
X72761400Y-128025400D01*
%TO.C,C16*%
X98821800Y-122234200D02*
X97621800Y-122234200D01*
X97621800Y-122234200D02*
X97621800Y-120234200D01*
X97621800Y-120234200D02*
X98821800Y-120234200D01*
X98821800Y-120234200D02*
X98821800Y-122234200D01*
%TO.C,C15*%
X100066600Y-121732600D02*
X100066600Y-120532600D01*
X100066600Y-120532600D02*
X102066600Y-120532600D01*
X102066600Y-120532600D02*
X102066600Y-121732600D01*
X102066600Y-121732600D02*
X100066600Y-121732600D01*
%TO.C,C14*%
X81471500Y-118227400D02*
X81471500Y-117027400D01*
X81471500Y-117027400D02*
X83471500Y-117027400D01*
X83471500Y-117027400D02*
X83471500Y-118227400D01*
X83471500Y-118227400D02*
X81471500Y-118227400D01*
%TO.C,C13*%
X84871000Y-120485900D02*
X86071000Y-120485900D01*
X86071000Y-120485900D02*
X86071000Y-122485900D01*
X86071000Y-122485900D02*
X84871000Y-122485900D01*
X84871000Y-122485900D02*
X84871000Y-120485900D01*
%TO.C,C12*%
X85995000Y-128819200D02*
X85995000Y-127619200D01*
X85995000Y-127619200D02*
X87995000Y-127619200D01*
X87995000Y-127619200D02*
X87995000Y-128819200D01*
X87995000Y-128819200D02*
X85995000Y-128819200D01*
%TO.C,C11*%
X82258900Y-128844600D02*
X82258900Y-127644600D01*
X82258900Y-127644600D02*
X84258900Y-127644600D01*
X84258900Y-127644600D02*
X84258900Y-128844600D01*
X84258900Y-128844600D02*
X82258900Y-128844600D01*
%TO.C,C10*%
X84591400Y-135493200D02*
X84591400Y-136693200D01*
X84591400Y-136693200D02*
X82591400Y-136693200D01*
X82591400Y-136693200D02*
X82591400Y-135493200D01*
X82591400Y-135493200D02*
X84591400Y-135493200D01*
%TO.C,C9*%
X58353200Y-131149800D02*
X58353200Y-132349800D01*
X58353200Y-132349800D02*
X56353200Y-132349800D01*
X56353200Y-132349800D02*
X56353200Y-131149800D01*
X56353200Y-131149800D02*
X58353200Y-131149800D01*
%TO.C,C8*%
X58632600Y-121904200D02*
X58632600Y-123104200D01*
X58632600Y-123104200D02*
X56632600Y-123104200D01*
X56632600Y-123104200D02*
X56632600Y-121904200D01*
X56632600Y-121904200D02*
X58632600Y-121904200D01*
%TO.C,C7*%
X89671600Y-130902200D02*
X90871600Y-130902200D01*
X90871600Y-130902200D02*
X90871600Y-132902200D01*
X90871600Y-132902200D02*
X89671600Y-132902200D01*
X89671600Y-132902200D02*
X89671600Y-130902200D01*
%TO.C,C6*%
X89849400Y-136515600D02*
X91049400Y-136515600D01*
X91049400Y-136515600D02*
X91049400Y-138515600D01*
X91049400Y-138515600D02*
X89849400Y-138515600D01*
X89849400Y-138515600D02*
X89849400Y-136515600D01*
%TO.C,C5*%
X79918000Y-130013200D02*
X81118000Y-130013200D01*
X81118000Y-130013200D02*
X81118000Y-132013200D01*
X81118000Y-132013200D02*
X79918000Y-132013200D01*
X79918000Y-132013200D02*
X79918000Y-130013200D01*
%TO.C,C4*%
X79892600Y-136995900D02*
X81092600Y-136995900D01*
X81092600Y-136995900D02*
X81092600Y-138995900D01*
X81092600Y-138995900D02*
X79892600Y-138995900D01*
X79892600Y-138995900D02*
X79892600Y-136995900D01*
%TO.C,C3*%
X151460600Y-122194000D02*
G75*
G03*
X151460600Y-122194000I-3150000J0D01*
G01*
X146937100Y-124887972D02*
X146937100Y-124257972D01*
X146622100Y-124572972D02*
X147252100Y-124572972D01*
%TO.C,C2*%
X129134000Y-109276200D02*
G75*
G03*
X129134000Y-109276200I-3150000J0D01*
G01*
X127357500Y-106582228D02*
X127357500Y-107212228D01*
X127672500Y-106897228D02*
X127042500Y-106897228D01*
%TO.C,C1*%
X147492800Y-114122200D02*
G75*
G03*
X147492800Y-114122200I-3150000J0D01*
G01*
X141648828Y-112748700D02*
X142278828Y-112748700D01*
X141963828Y-112433700D02*
X141963828Y-113063700D01*
%TD*%
%TO.C,J3*%
D11*
X136423923Y-152042142D02*
X136376304Y-152089761D01*
X136233447Y-152137380D01*
X136138209Y-152137380D01*
X135995352Y-152089761D01*
X135900114Y-151994523D01*
X135852495Y-151899285D01*
X135804876Y-151708809D01*
X135804876Y-151565952D01*
X135852495Y-151375476D01*
X135900114Y-151280238D01*
X135995352Y-151185000D01*
X136138209Y-151137380D01*
X136233447Y-151137380D01*
X136376304Y-151185000D01*
X136423923Y-151232619D01*
X136995352Y-152137380D02*
X136900114Y-152089761D01*
X136852495Y-152042142D01*
X136804876Y-151946904D01*
X136804876Y-151661190D01*
X136852495Y-151565952D01*
X136900114Y-151518333D01*
X136995352Y-151470714D01*
X137138209Y-151470714D01*
X137233447Y-151518333D01*
X137281066Y-151565952D01*
X137328685Y-151661190D01*
X137328685Y-151946904D01*
X137281066Y-152042142D01*
X137233447Y-152089761D01*
X137138209Y-152137380D01*
X136995352Y-152137380D01*
X137757257Y-151470714D02*
X137757257Y-152137380D01*
X137757257Y-151565952D02*
X137804876Y-151518333D01*
X137900114Y-151470714D01*
X138042971Y-151470714D01*
X138138209Y-151518333D01*
X138185828Y-151613571D01*
X138185828Y-152137380D01*
X138662019Y-151470714D02*
X138662019Y-152137380D01*
X138662019Y-151565952D02*
X138709638Y-151518333D01*
X138804876Y-151470714D01*
X138947733Y-151470714D01*
X139042971Y-151518333D01*
X139090590Y-151613571D01*
X139090590Y-152137380D01*
X139328685Y-152232619D02*
X140090590Y-152232619D01*
X140900114Y-152042142D02*
X140852495Y-152089761D01*
X140709638Y-152137380D01*
X140614400Y-152137380D01*
X140471542Y-152089761D01*
X140376304Y-151994523D01*
X140328685Y-151899285D01*
X140281066Y-151708809D01*
X140281066Y-151565952D01*
X140328685Y-151375476D01*
X140376304Y-151280238D01*
X140471542Y-151185000D01*
X140614400Y-151137380D01*
X140709638Y-151137380D01*
X140852495Y-151185000D01*
X140900114Y-151232619D01*
X141471542Y-152137380D02*
X141376304Y-152089761D01*
X141328685Y-152042142D01*
X141281066Y-151946904D01*
X141281066Y-151661190D01*
X141328685Y-151565952D01*
X141376304Y-151518333D01*
X141471542Y-151470714D01*
X141614400Y-151470714D01*
X141709638Y-151518333D01*
X141757257Y-151565952D01*
X141804876Y-151661190D01*
X141804876Y-151946904D01*
X141757257Y-152042142D01*
X141709638Y-152089761D01*
X141614400Y-152137380D01*
X141471542Y-152137380D01*
X142662019Y-152137380D02*
X142662019Y-151613571D01*
X142614400Y-151518333D01*
X142519161Y-151470714D01*
X142328685Y-151470714D01*
X142233447Y-151518333D01*
X142662019Y-152089761D02*
X142566780Y-152137380D01*
X142328685Y-152137380D01*
X142233447Y-152089761D01*
X142185828Y-151994523D01*
X142185828Y-151899285D01*
X142233447Y-151804047D01*
X142328685Y-151756428D01*
X142566780Y-151756428D01*
X142662019Y-151708809D01*
X143042971Y-152137380D02*
X143566780Y-151470714D01*
X143042971Y-151470714D02*
X143566780Y-152137380D01*
X143947733Y-152137380D02*
X143947733Y-151470714D01*
X143947733Y-151137380D02*
X143900114Y-151185000D01*
X143947733Y-151232619D01*
X143995352Y-151185000D01*
X143947733Y-151137380D01*
X143947733Y-151232619D01*
X144852495Y-152137380D02*
X144852495Y-151613571D01*
X144804876Y-151518333D01*
X144709638Y-151470714D01*
X144519161Y-151470714D01*
X144423923Y-151518333D01*
X144852495Y-152089761D02*
X144757257Y-152137380D01*
X144519161Y-152137380D01*
X144423923Y-152089761D01*
X144376304Y-151994523D01*
X144376304Y-151899285D01*
X144423923Y-151804047D01*
X144519161Y-151756428D01*
X144757257Y-151756428D01*
X144852495Y-151708809D01*
X145471542Y-152137380D02*
X145376304Y-152089761D01*
X145328685Y-151994523D01*
X145328685Y-151137380D01*
X140281066Y-146137380D02*
X140281066Y-146851666D01*
X140233447Y-146994523D01*
X140138209Y-147089761D01*
X139995352Y-147137380D01*
X139900114Y-147137380D01*
X140662019Y-146137380D02*
X141281066Y-146137380D01*
X140947733Y-146518333D01*
X141090590Y-146518333D01*
X141185828Y-146565952D01*
X141233447Y-146613571D01*
X141281066Y-146708809D01*
X141281066Y-146946904D01*
X141233447Y-147042142D01*
X141185828Y-147089761D01*
X141090590Y-147137380D01*
X140804876Y-147137380D01*
X140709638Y-147089761D01*
X140662019Y-147042142D01*
%TO.C,J8*%
X136068142Y-140200676D02*
X136115761Y-140248295D01*
X136163380Y-140391152D01*
X136163380Y-140486390D01*
X136115761Y-140629247D01*
X136020523Y-140724485D01*
X135925285Y-140772104D01*
X135734809Y-140819723D01*
X135591952Y-140819723D01*
X135401476Y-140772104D01*
X135306238Y-140724485D01*
X135211000Y-140629247D01*
X135163380Y-140486390D01*
X135163380Y-140391152D01*
X135211000Y-140248295D01*
X135258619Y-140200676D01*
X136163380Y-139629247D02*
X136115761Y-139724485D01*
X136068142Y-139772104D01*
X135972904Y-139819723D01*
X135687190Y-139819723D01*
X135591952Y-139772104D01*
X135544333Y-139724485D01*
X135496714Y-139629247D01*
X135496714Y-139486390D01*
X135544333Y-139391152D01*
X135591952Y-139343533D01*
X135687190Y-139295914D01*
X135972904Y-139295914D01*
X136068142Y-139343533D01*
X136115761Y-139391152D01*
X136163380Y-139486390D01*
X136163380Y-139629247D01*
X135496714Y-138867342D02*
X136163380Y-138867342D01*
X135591952Y-138867342D02*
X135544333Y-138819723D01*
X135496714Y-138724485D01*
X135496714Y-138581628D01*
X135544333Y-138486390D01*
X135639571Y-138438771D01*
X136163380Y-138438771D01*
X135496714Y-137962580D02*
X136163380Y-137962580D01*
X135591952Y-137962580D02*
X135544333Y-137914961D01*
X135496714Y-137819723D01*
X135496714Y-137676866D01*
X135544333Y-137581628D01*
X135639571Y-137534009D01*
X136163380Y-137534009D01*
X136258619Y-137295914D02*
X136258619Y-136534009D01*
X136068142Y-135724485D02*
X136115761Y-135772104D01*
X136163380Y-135914961D01*
X136163380Y-136010200D01*
X136115761Y-136153057D01*
X136020523Y-136248295D01*
X135925285Y-136295914D01*
X135734809Y-136343533D01*
X135591952Y-136343533D01*
X135401476Y-136295914D01*
X135306238Y-136248295D01*
X135211000Y-136153057D01*
X135163380Y-136010200D01*
X135163380Y-135914961D01*
X135211000Y-135772104D01*
X135258619Y-135724485D01*
X136163380Y-135153057D02*
X136115761Y-135248295D01*
X136068142Y-135295914D01*
X135972904Y-135343533D01*
X135687190Y-135343533D01*
X135591952Y-135295914D01*
X135544333Y-135248295D01*
X135496714Y-135153057D01*
X135496714Y-135010200D01*
X135544333Y-134914961D01*
X135591952Y-134867342D01*
X135687190Y-134819723D01*
X135972904Y-134819723D01*
X136068142Y-134867342D01*
X136115761Y-134914961D01*
X136163380Y-135010200D01*
X136163380Y-135153057D01*
X136163380Y-133962580D02*
X135639571Y-133962580D01*
X135544333Y-134010200D01*
X135496714Y-134105438D01*
X135496714Y-134295914D01*
X135544333Y-134391152D01*
X136115761Y-133962580D02*
X136163380Y-134057819D01*
X136163380Y-134295914D01*
X136115761Y-134391152D01*
X136020523Y-134438771D01*
X135925285Y-134438771D01*
X135830047Y-134391152D01*
X135782428Y-134295914D01*
X135782428Y-134057819D01*
X135734809Y-133962580D01*
X136163380Y-133581628D02*
X135496714Y-133057819D01*
X135496714Y-133581628D02*
X136163380Y-133057819D01*
X136163380Y-132676866D02*
X135496714Y-132676866D01*
X135163380Y-132676866D02*
X135211000Y-132724485D01*
X135258619Y-132676866D01*
X135211000Y-132629247D01*
X135163380Y-132676866D01*
X135258619Y-132676866D01*
X136163380Y-131772104D02*
X135639571Y-131772104D01*
X135544333Y-131819723D01*
X135496714Y-131914961D01*
X135496714Y-132105438D01*
X135544333Y-132200676D01*
X136115761Y-131772104D02*
X136163380Y-131867342D01*
X136163380Y-132105438D01*
X136115761Y-132200676D01*
X136020523Y-132248295D01*
X135925285Y-132248295D01*
X135830047Y-132200676D01*
X135782428Y-132105438D01*
X135782428Y-131867342D01*
X135734809Y-131772104D01*
X136163380Y-131153057D02*
X136115761Y-131248295D01*
X136020523Y-131295914D01*
X135163380Y-131295914D01*
X140163380Y-136343533D02*
X140877666Y-136343533D01*
X141020523Y-136391152D01*
X141115761Y-136486390D01*
X141163380Y-136629247D01*
X141163380Y-136724485D01*
X140591952Y-135724485D02*
X140544333Y-135819723D01*
X140496714Y-135867342D01*
X140401476Y-135914961D01*
X140353857Y-135914961D01*
X140258619Y-135867342D01*
X140211000Y-135819723D01*
X140163380Y-135724485D01*
X140163380Y-135534009D01*
X140211000Y-135438771D01*
X140258619Y-135391152D01*
X140353857Y-135343533D01*
X140401476Y-135343533D01*
X140496714Y-135391152D01*
X140544333Y-135438771D01*
X140591952Y-135534009D01*
X140591952Y-135724485D01*
X140639571Y-135819723D01*
X140687190Y-135867342D01*
X140782428Y-135914961D01*
X140972904Y-135914961D01*
X141068142Y-135867342D01*
X141115761Y-135819723D01*
X141163380Y-135724485D01*
X141163380Y-135534009D01*
X141115761Y-135438771D01*
X141068142Y-135391152D01*
X140972904Y-135343533D01*
X140782428Y-135343533D01*
X140687190Y-135391152D01*
X140639571Y-135438771D01*
X140591952Y-135534009D01*
%TO.C,U1*%
X133640580Y-136438828D02*
X133640580Y-135867400D01*
X134640580Y-136153114D02*
X133640580Y-136153114D01*
X134592961Y-135153114D02*
X134640580Y-135248352D01*
X134640580Y-135438828D01*
X134592961Y-135534066D01*
X134497723Y-135581685D01*
X134116771Y-135581685D01*
X134021533Y-135534066D01*
X133973914Y-135438828D01*
X133973914Y-135248352D01*
X134021533Y-135153114D01*
X134116771Y-135105495D01*
X134212009Y-135105495D01*
X134307247Y-135581685D01*
X134592961Y-134295971D02*
X134640580Y-134391209D01*
X134640580Y-134581685D01*
X134592961Y-134676923D01*
X134497723Y-134724542D01*
X134116771Y-134724542D01*
X134021533Y-134676923D01*
X133973914Y-134581685D01*
X133973914Y-134391209D01*
X134021533Y-134295971D01*
X134116771Y-134248352D01*
X134212009Y-134248352D01*
X134307247Y-134724542D01*
X133973914Y-133819780D02*
X134640580Y-133819780D01*
X134069152Y-133819780D02*
X134021533Y-133772161D01*
X133973914Y-133676923D01*
X133973914Y-133534066D01*
X134021533Y-133438828D01*
X134116771Y-133391209D01*
X134640580Y-133391209D01*
X134592961Y-132962638D02*
X134640580Y-132867400D01*
X134640580Y-132676923D01*
X134592961Y-132581685D01*
X134497723Y-132534066D01*
X134450104Y-132534066D01*
X134354866Y-132581685D01*
X134307247Y-132676923D01*
X134307247Y-132819780D01*
X134259628Y-132915019D01*
X134164390Y-132962638D01*
X134116771Y-132962638D01*
X134021533Y-132915019D01*
X133973914Y-132819780D01*
X133973914Y-132676923D01*
X134021533Y-132581685D01*
X133973914Y-132200733D02*
X134640580Y-131962638D01*
X133973914Y-131724542D02*
X134640580Y-131962638D01*
X134878676Y-132057876D01*
X134926295Y-132105495D01*
X134973914Y-132200733D01*
X133973914Y-130915019D02*
X134640580Y-130915019D01*
X133592961Y-131153114D02*
X134307247Y-131391209D01*
X134307247Y-130772161D01*
X134545342Y-130391209D02*
X134592961Y-130343590D01*
X134640580Y-130391209D01*
X134592961Y-130438828D01*
X134545342Y-130391209D01*
X134640580Y-130391209D01*
X133640580Y-129724542D02*
X133640580Y-129629304D01*
X133688200Y-129534066D01*
X133735819Y-129486447D01*
X133831057Y-129438828D01*
X134021533Y-129391209D01*
X134259628Y-129391209D01*
X134450104Y-129438828D01*
X134545342Y-129486447D01*
X134592961Y-129534066D01*
X134640580Y-129629304D01*
X134640580Y-129724542D01*
X134592961Y-129819780D01*
X134545342Y-129867400D01*
X134450104Y-129915019D01*
X134259628Y-129962638D01*
X134021533Y-129962638D01*
X133831057Y-129915019D01*
X133735819Y-129867400D01*
X133688200Y-129819780D01*
X133640580Y-129724542D01*
%TO.C,J6*%
X94767923Y-136446542D02*
X94720304Y-136494161D01*
X94577447Y-136541780D01*
X94482209Y-136541780D01*
X94339352Y-136494161D01*
X94244114Y-136398923D01*
X94196495Y-136303685D01*
X94148876Y-136113209D01*
X94148876Y-135970352D01*
X94196495Y-135779876D01*
X94244114Y-135684638D01*
X94339352Y-135589400D01*
X94482209Y-135541780D01*
X94577447Y-135541780D01*
X94720304Y-135589400D01*
X94767923Y-135637019D01*
X95339352Y-136541780D02*
X95244114Y-136494161D01*
X95196495Y-136446542D01*
X95148876Y-136351304D01*
X95148876Y-136065590D01*
X95196495Y-135970352D01*
X95244114Y-135922733D01*
X95339352Y-135875114D01*
X95482209Y-135875114D01*
X95577447Y-135922733D01*
X95625066Y-135970352D01*
X95672685Y-136065590D01*
X95672685Y-136351304D01*
X95625066Y-136446542D01*
X95577447Y-136494161D01*
X95482209Y-136541780D01*
X95339352Y-136541780D01*
X96101257Y-135875114D02*
X96101257Y-136541780D01*
X96101257Y-135970352D02*
X96148876Y-135922733D01*
X96244114Y-135875114D01*
X96386971Y-135875114D01*
X96482209Y-135922733D01*
X96529828Y-136017971D01*
X96529828Y-136541780D01*
X97006019Y-135875114D02*
X97006019Y-136541780D01*
X97006019Y-135970352D02*
X97053638Y-135922733D01*
X97148876Y-135875114D01*
X97291733Y-135875114D01*
X97386971Y-135922733D01*
X97434590Y-136017971D01*
X97434590Y-136541780D01*
X97672685Y-136637019D02*
X98434590Y-136637019D01*
X99244114Y-136446542D02*
X99196495Y-136494161D01*
X99053638Y-136541780D01*
X98958400Y-136541780D01*
X98815542Y-136494161D01*
X98720304Y-136398923D01*
X98672685Y-136303685D01*
X98625066Y-136113209D01*
X98625066Y-135970352D01*
X98672685Y-135779876D01*
X98720304Y-135684638D01*
X98815542Y-135589400D01*
X98958400Y-135541780D01*
X99053638Y-135541780D01*
X99196495Y-135589400D01*
X99244114Y-135637019D01*
X99815542Y-136541780D02*
X99720304Y-136494161D01*
X99672685Y-136446542D01*
X99625066Y-136351304D01*
X99625066Y-136065590D01*
X99672685Y-135970352D01*
X99720304Y-135922733D01*
X99815542Y-135875114D01*
X99958400Y-135875114D01*
X100053638Y-135922733D01*
X100101257Y-135970352D01*
X100148876Y-136065590D01*
X100148876Y-136351304D01*
X100101257Y-136446542D01*
X100053638Y-136494161D01*
X99958400Y-136541780D01*
X99815542Y-136541780D01*
X101006019Y-136541780D02*
X101006019Y-136017971D01*
X100958400Y-135922733D01*
X100863161Y-135875114D01*
X100672685Y-135875114D01*
X100577447Y-135922733D01*
X101006019Y-136494161D02*
X100910780Y-136541780D01*
X100672685Y-136541780D01*
X100577447Y-136494161D01*
X100529828Y-136398923D01*
X100529828Y-136303685D01*
X100577447Y-136208447D01*
X100672685Y-136160828D01*
X100910780Y-136160828D01*
X101006019Y-136113209D01*
X101386971Y-136541780D02*
X101910780Y-135875114D01*
X101386971Y-135875114D02*
X101910780Y-136541780D01*
X102291733Y-136541780D02*
X102291733Y-135875114D01*
X102291733Y-135541780D02*
X102244114Y-135589400D01*
X102291733Y-135637019D01*
X102339352Y-135589400D01*
X102291733Y-135541780D01*
X102291733Y-135637019D01*
X103196495Y-136541780D02*
X103196495Y-136017971D01*
X103148876Y-135922733D01*
X103053638Y-135875114D01*
X102863161Y-135875114D01*
X102767923Y-135922733D01*
X103196495Y-136494161D02*
X103101257Y-136541780D01*
X102863161Y-136541780D01*
X102767923Y-136494161D01*
X102720304Y-136398923D01*
X102720304Y-136303685D01*
X102767923Y-136208447D01*
X102863161Y-136160828D01*
X103101257Y-136160828D01*
X103196495Y-136113209D01*
X103815542Y-136541780D02*
X103720304Y-136494161D01*
X103672685Y-136398923D01*
X103672685Y-135541780D01*
X98625066Y-130541780D02*
X98625066Y-131256066D01*
X98577447Y-131398923D01*
X98482209Y-131494161D01*
X98339352Y-131541780D01*
X98244114Y-131541780D01*
X99529828Y-130541780D02*
X99339352Y-130541780D01*
X99244114Y-130589400D01*
X99196495Y-130637019D01*
X99101257Y-130779876D01*
X99053638Y-130970352D01*
X99053638Y-131351304D01*
X99101257Y-131446542D01*
X99148876Y-131494161D01*
X99244114Y-131541780D01*
X99434590Y-131541780D01*
X99529828Y-131494161D01*
X99577447Y-131446542D01*
X99625066Y-131351304D01*
X99625066Y-131113209D01*
X99577447Y-131017971D01*
X99529828Y-130970352D01*
X99434590Y-130922733D01*
X99244114Y-130922733D01*
X99148876Y-130970352D01*
X99101257Y-131017971D01*
X99053638Y-131113209D01*
%TO.C,J4*%
X91923123Y-114627942D02*
X91875504Y-114675561D01*
X91732647Y-114723180D01*
X91637409Y-114723180D01*
X91494552Y-114675561D01*
X91399314Y-114580323D01*
X91351695Y-114485085D01*
X91304076Y-114294609D01*
X91304076Y-114151752D01*
X91351695Y-113961276D01*
X91399314Y-113866038D01*
X91494552Y-113770800D01*
X91637409Y-113723180D01*
X91732647Y-113723180D01*
X91875504Y-113770800D01*
X91923123Y-113818419D01*
X92494552Y-114723180D02*
X92399314Y-114675561D01*
X92351695Y-114627942D01*
X92304076Y-114532704D01*
X92304076Y-114246990D01*
X92351695Y-114151752D01*
X92399314Y-114104133D01*
X92494552Y-114056514D01*
X92637409Y-114056514D01*
X92732647Y-114104133D01*
X92780266Y-114151752D01*
X92827885Y-114246990D01*
X92827885Y-114532704D01*
X92780266Y-114627942D01*
X92732647Y-114675561D01*
X92637409Y-114723180D01*
X92494552Y-114723180D01*
X93256457Y-114056514D02*
X93256457Y-114723180D01*
X93256457Y-114151752D02*
X93304076Y-114104133D01*
X93399314Y-114056514D01*
X93542171Y-114056514D01*
X93637409Y-114104133D01*
X93685028Y-114199371D01*
X93685028Y-114723180D01*
X94161219Y-114056514D02*
X94161219Y-114723180D01*
X94161219Y-114151752D02*
X94208838Y-114104133D01*
X94304076Y-114056514D01*
X94446933Y-114056514D01*
X94542171Y-114104133D01*
X94589790Y-114199371D01*
X94589790Y-114723180D01*
X94827885Y-114818419D02*
X95589790Y-114818419D01*
X96399314Y-114627942D02*
X96351695Y-114675561D01*
X96208838Y-114723180D01*
X96113600Y-114723180D01*
X95970742Y-114675561D01*
X95875504Y-114580323D01*
X95827885Y-114485085D01*
X95780266Y-114294609D01*
X95780266Y-114151752D01*
X95827885Y-113961276D01*
X95875504Y-113866038D01*
X95970742Y-113770800D01*
X96113600Y-113723180D01*
X96208838Y-113723180D01*
X96351695Y-113770800D01*
X96399314Y-113818419D01*
X96970742Y-114723180D02*
X96875504Y-114675561D01*
X96827885Y-114627942D01*
X96780266Y-114532704D01*
X96780266Y-114246990D01*
X96827885Y-114151752D01*
X96875504Y-114104133D01*
X96970742Y-114056514D01*
X97113600Y-114056514D01*
X97208838Y-114104133D01*
X97256457Y-114151752D01*
X97304076Y-114246990D01*
X97304076Y-114532704D01*
X97256457Y-114627942D01*
X97208838Y-114675561D01*
X97113600Y-114723180D01*
X96970742Y-114723180D01*
X98161219Y-114723180D02*
X98161219Y-114199371D01*
X98113600Y-114104133D01*
X98018361Y-114056514D01*
X97827885Y-114056514D01*
X97732647Y-114104133D01*
X98161219Y-114675561D02*
X98065980Y-114723180D01*
X97827885Y-114723180D01*
X97732647Y-114675561D01*
X97685028Y-114580323D01*
X97685028Y-114485085D01*
X97732647Y-114389847D01*
X97827885Y-114342228D01*
X98065980Y-114342228D01*
X98161219Y-114294609D01*
X98542171Y-114723180D02*
X99065980Y-114056514D01*
X98542171Y-114056514D02*
X99065980Y-114723180D01*
X99446933Y-114723180D02*
X99446933Y-114056514D01*
X99446933Y-113723180D02*
X99399314Y-113770800D01*
X99446933Y-113818419D01*
X99494552Y-113770800D01*
X99446933Y-113723180D01*
X99446933Y-113818419D01*
X100351695Y-114723180D02*
X100351695Y-114199371D01*
X100304076Y-114104133D01*
X100208838Y-114056514D01*
X100018361Y-114056514D01*
X99923123Y-114104133D01*
X100351695Y-114675561D02*
X100256457Y-114723180D01*
X100018361Y-114723180D01*
X99923123Y-114675561D01*
X99875504Y-114580323D01*
X99875504Y-114485085D01*
X99923123Y-114389847D01*
X100018361Y-114342228D01*
X100256457Y-114342228D01*
X100351695Y-114294609D01*
X100970742Y-114723180D02*
X100875504Y-114675561D01*
X100827885Y-114580323D01*
X100827885Y-113723180D01*
X95780266Y-108723180D02*
X95780266Y-109437466D01*
X95732647Y-109580323D01*
X95637409Y-109675561D01*
X95494552Y-109723180D01*
X95399314Y-109723180D01*
X96685028Y-109056514D02*
X96685028Y-109723180D01*
X96446933Y-108675561D02*
X96208838Y-109389847D01*
X96827885Y-109389847D01*
%TO.C,U7*%
X87200266Y-122740380D02*
X87390742Y-122740380D01*
X87485980Y-122788000D01*
X87581219Y-122883238D01*
X87628838Y-123073714D01*
X87628838Y-123407047D01*
X87581219Y-123597523D01*
X87485980Y-123692761D01*
X87390742Y-123740380D01*
X87200266Y-123740380D01*
X87105028Y-123692761D01*
X87009790Y-123597523D01*
X86962171Y-123407047D01*
X86962171Y-123073714D01*
X87009790Y-122883238D01*
X87105028Y-122788000D01*
X87200266Y-122740380D01*
X88057409Y-123740380D02*
X88057409Y-122740380D01*
X88438361Y-122740380D01*
X88533600Y-122788000D01*
X88581219Y-122835619D01*
X88628838Y-122930857D01*
X88628838Y-123073714D01*
X88581219Y-123168952D01*
X88533600Y-123216571D01*
X88438361Y-123264190D01*
X88057409Y-123264190D01*
X89009790Y-123454666D02*
X89485980Y-123454666D01*
X88914552Y-123740380D02*
X89247885Y-122740380D01*
X89581219Y-123740380D01*
X89866933Y-122835619D02*
X89914552Y-122788000D01*
X90009790Y-122740380D01*
X90247885Y-122740380D01*
X90343123Y-122788000D01*
X90390742Y-122835619D01*
X90438361Y-122930857D01*
X90438361Y-123026095D01*
X90390742Y-123168952D01*
X89819314Y-123740380D01*
X90438361Y-123740380D01*
X91390742Y-123740380D02*
X90819314Y-123740380D01*
X91105028Y-123740380D02*
X91105028Y-122740380D01*
X91009790Y-122883238D01*
X90914552Y-122978476D01*
X90819314Y-123026095D01*
X92295504Y-122740380D02*
X91819314Y-122740380D01*
X91771695Y-123216571D01*
X91819314Y-123168952D01*
X91914552Y-123121333D01*
X92152647Y-123121333D01*
X92247885Y-123168952D01*
X92295504Y-123216571D01*
X92343123Y-123311809D01*
X92343123Y-123549904D01*
X92295504Y-123645142D01*
X92247885Y-123692761D01*
X92152647Y-123740380D01*
X91914552Y-123740380D01*
X91819314Y-123692761D01*
X91771695Y-123645142D01*
X93200266Y-122740380D02*
X93009790Y-122740380D01*
X92914552Y-122788000D01*
X92866933Y-122835619D01*
X92771695Y-122978476D01*
X92724076Y-123168952D01*
X92724076Y-123549904D01*
X92771695Y-123645142D01*
X92819314Y-123692761D01*
X92914552Y-123740380D01*
X93105028Y-123740380D01*
X93200266Y-123692761D01*
X93247885Y-123645142D01*
X93295504Y-123549904D01*
X93295504Y-123311809D01*
X93247885Y-123216571D01*
X93200266Y-123168952D01*
X93105028Y-123121333D01*
X92914552Y-123121333D01*
X92819314Y-123168952D01*
X92771695Y-123216571D01*
X92724076Y-123311809D01*
X93628838Y-123740380D02*
X94152647Y-123073714D01*
X93628838Y-123073714D02*
X94152647Y-123740380D01*
X94533600Y-123740380D02*
X94533600Y-122740380D01*
X94771695Y-122740380D01*
X94914552Y-122788000D01*
X95009790Y-122883238D01*
X95057409Y-122978476D01*
X95105028Y-123168952D01*
X95105028Y-123311809D01*
X95057409Y-123502285D01*
X95009790Y-123597523D01*
X94914552Y-123692761D01*
X94771695Y-123740380D01*
X94533600Y-123740380D01*
X90286933Y-119351333D02*
X90286933Y-120144666D01*
X90333600Y-120238000D01*
X90380266Y-120284666D01*
X90473600Y-120331333D01*
X90660266Y-120331333D01*
X90753600Y-120284666D01*
X90800266Y-120238000D01*
X90846933Y-120144666D01*
X90846933Y-119351333D01*
X91220266Y-119351333D02*
X91873600Y-119351333D01*
X91453600Y-120331333D01*
%TO.C,U6*%
X58714180Y-130807933D02*
X58714180Y-130617457D01*
X58761800Y-130522219D01*
X58857038Y-130426980D01*
X59047514Y-130379361D01*
X59380847Y-130379361D01*
X59571323Y-130426980D01*
X59666561Y-130522219D01*
X59714180Y-130617457D01*
X59714180Y-130807933D01*
X59666561Y-130903171D01*
X59571323Y-130998409D01*
X59380847Y-131046028D01*
X59047514Y-131046028D01*
X58857038Y-130998409D01*
X58761800Y-130903171D01*
X58714180Y-130807933D01*
X59714180Y-129950790D02*
X58714180Y-129950790D01*
X58714180Y-129569838D01*
X58761800Y-129474600D01*
X58809419Y-129426980D01*
X58904657Y-129379361D01*
X59047514Y-129379361D01*
X59142752Y-129426980D01*
X59190371Y-129474600D01*
X59237990Y-129569838D01*
X59237990Y-129950790D01*
X59428466Y-128998409D02*
X59428466Y-128522219D01*
X59714180Y-129093647D02*
X58714180Y-128760314D01*
X59714180Y-128426980D01*
X58809419Y-128141266D02*
X58761800Y-128093647D01*
X58714180Y-127998409D01*
X58714180Y-127760314D01*
X58761800Y-127665076D01*
X58809419Y-127617457D01*
X58904657Y-127569838D01*
X58999895Y-127569838D01*
X59142752Y-127617457D01*
X59714180Y-128188885D01*
X59714180Y-127569838D01*
X59714180Y-126617457D02*
X59714180Y-127188885D01*
X59714180Y-126903171D02*
X58714180Y-126903171D01*
X58857038Y-126998409D01*
X58952276Y-127093647D01*
X58999895Y-127188885D01*
X58714180Y-125712695D02*
X58714180Y-126188885D01*
X59190371Y-126236504D01*
X59142752Y-126188885D01*
X59095133Y-126093647D01*
X59095133Y-125855552D01*
X59142752Y-125760314D01*
X59190371Y-125712695D01*
X59285609Y-125665076D01*
X59523704Y-125665076D01*
X59618942Y-125712695D01*
X59666561Y-125760314D01*
X59714180Y-125855552D01*
X59714180Y-126093647D01*
X59666561Y-126188885D01*
X59618942Y-126236504D01*
X58714180Y-124807933D02*
X58714180Y-124998409D01*
X58761800Y-125093647D01*
X58809419Y-125141266D01*
X58952276Y-125236504D01*
X59142752Y-125284123D01*
X59523704Y-125284123D01*
X59618942Y-125236504D01*
X59666561Y-125188885D01*
X59714180Y-125093647D01*
X59714180Y-124903171D01*
X59666561Y-124807933D01*
X59618942Y-124760314D01*
X59523704Y-124712695D01*
X59285609Y-124712695D01*
X59190371Y-124760314D01*
X59142752Y-124807933D01*
X59095133Y-124903171D01*
X59095133Y-125093647D01*
X59142752Y-125188885D01*
X59190371Y-125236504D01*
X59285609Y-125284123D01*
X59714180Y-124379361D02*
X59047514Y-123855552D01*
X59047514Y-124379361D02*
X59714180Y-123855552D01*
X59714180Y-123474600D02*
X58714180Y-123474600D01*
X58714180Y-123236504D01*
X58761800Y-123093647D01*
X58857038Y-122998409D01*
X58952276Y-122950790D01*
X59142752Y-122903171D01*
X59285609Y-122903171D01*
X59476085Y-122950790D01*
X59571323Y-122998409D01*
X59666561Y-123093647D01*
X59714180Y-123236504D01*
X59714180Y-123474600D01*
X62125133Y-127721266D02*
X62918466Y-127721266D01*
X63011800Y-127674600D01*
X63058466Y-127627933D01*
X63105133Y-127534600D01*
X63105133Y-127347933D01*
X63058466Y-127254600D01*
X63011800Y-127207933D01*
X62918466Y-127161266D01*
X62125133Y-127161266D01*
X62125133Y-126274600D02*
X62125133Y-126461266D01*
X62171800Y-126554600D01*
X62218466Y-126601266D01*
X62358466Y-126694600D01*
X62545133Y-126741266D01*
X62918466Y-126741266D01*
X63011800Y-126694600D01*
X63058466Y-126647933D01*
X63105133Y-126554600D01*
X63105133Y-126367933D01*
X63058466Y-126274600D01*
X63011800Y-126227933D01*
X62918466Y-126181266D01*
X62685133Y-126181266D01*
X62591800Y-126227933D01*
X62545133Y-126274600D01*
X62498466Y-126367933D01*
X62498466Y-126554600D01*
X62545133Y-126647933D01*
X62591800Y-126694600D01*
X62685133Y-126741266D01*
%TO.C,U5*%
X81510666Y-134906980D02*
X81701142Y-134906980D01*
X81796380Y-134954600D01*
X81891619Y-135049838D01*
X81939238Y-135240314D01*
X81939238Y-135573647D01*
X81891619Y-135764123D01*
X81796380Y-135859361D01*
X81701142Y-135906980D01*
X81510666Y-135906980D01*
X81415428Y-135859361D01*
X81320190Y-135764123D01*
X81272571Y-135573647D01*
X81272571Y-135240314D01*
X81320190Y-135049838D01*
X81415428Y-134954600D01*
X81510666Y-134906980D01*
X82367809Y-135906980D02*
X82367809Y-134906980D01*
X82748761Y-134906980D01*
X82844000Y-134954600D01*
X82891619Y-135002219D01*
X82939238Y-135097457D01*
X82939238Y-135240314D01*
X82891619Y-135335552D01*
X82844000Y-135383171D01*
X82748761Y-135430790D01*
X82367809Y-135430790D01*
X83320190Y-135621266D02*
X83796380Y-135621266D01*
X83224952Y-135906980D02*
X83558285Y-134906980D01*
X83891619Y-135906980D01*
X84177333Y-135002219D02*
X84224952Y-134954600D01*
X84320190Y-134906980D01*
X84558285Y-134906980D01*
X84653523Y-134954600D01*
X84701142Y-135002219D01*
X84748761Y-135097457D01*
X84748761Y-135192695D01*
X84701142Y-135335552D01*
X84129714Y-135906980D01*
X84748761Y-135906980D01*
X85701142Y-135906980D02*
X85129714Y-135906980D01*
X85415428Y-135906980D02*
X85415428Y-134906980D01*
X85320190Y-135049838D01*
X85224952Y-135145076D01*
X85129714Y-135192695D01*
X86605904Y-134906980D02*
X86129714Y-134906980D01*
X86082095Y-135383171D01*
X86129714Y-135335552D01*
X86224952Y-135287933D01*
X86463047Y-135287933D01*
X86558285Y-135335552D01*
X86605904Y-135383171D01*
X86653523Y-135478409D01*
X86653523Y-135716504D01*
X86605904Y-135811742D01*
X86558285Y-135859361D01*
X86463047Y-135906980D01*
X86224952Y-135906980D01*
X86129714Y-135859361D01*
X86082095Y-135811742D01*
X87510666Y-134906980D02*
X87320190Y-134906980D01*
X87224952Y-134954600D01*
X87177333Y-135002219D01*
X87082095Y-135145076D01*
X87034476Y-135335552D01*
X87034476Y-135716504D01*
X87082095Y-135811742D01*
X87129714Y-135859361D01*
X87224952Y-135906980D01*
X87415428Y-135906980D01*
X87510666Y-135859361D01*
X87558285Y-135811742D01*
X87605904Y-135716504D01*
X87605904Y-135478409D01*
X87558285Y-135383171D01*
X87510666Y-135335552D01*
X87415428Y-135287933D01*
X87224952Y-135287933D01*
X87129714Y-135335552D01*
X87082095Y-135383171D01*
X87034476Y-135478409D01*
X87939238Y-135906980D02*
X88463047Y-135240314D01*
X87939238Y-135240314D02*
X88463047Y-135906980D01*
X88844000Y-135906980D02*
X88844000Y-134906980D01*
X89082095Y-134906980D01*
X89224952Y-134954600D01*
X89320190Y-135049838D01*
X89367809Y-135145076D01*
X89415428Y-135335552D01*
X89415428Y-135478409D01*
X89367809Y-135668885D01*
X89320190Y-135764123D01*
X89224952Y-135859361D01*
X89082095Y-135906980D01*
X88844000Y-135906980D01*
X84597333Y-131517933D02*
X84597333Y-132311266D01*
X84644000Y-132404600D01*
X84690666Y-132451266D01*
X84784000Y-132497933D01*
X84970666Y-132497933D01*
X85064000Y-132451266D01*
X85110666Y-132404600D01*
X85157333Y-132311266D01*
X85157333Y-131517933D01*
X86090666Y-131517933D02*
X85624000Y-131517933D01*
X85577333Y-131984600D01*
X85624000Y-131937933D01*
X85717333Y-131891266D01*
X85950666Y-131891266D01*
X86044000Y-131937933D01*
X86090666Y-131984600D01*
X86137333Y-132077933D01*
X86137333Y-132311266D01*
X86090666Y-132404600D01*
X86044000Y-132451266D01*
X85950666Y-132497933D01*
X85717333Y-132497933D01*
X85624000Y-132451266D01*
X85577333Y-132404600D01*
%TO.C,U4*%
X117021552Y-105433866D02*
X117497742Y-105433866D01*
X116926314Y-105719580D02*
X117259647Y-104719580D01*
X117592980Y-105719580D01*
X117926314Y-105719580D02*
X117926314Y-104719580D01*
X118164409Y-104719580D01*
X118307266Y-104767200D01*
X118402504Y-104862438D01*
X118450123Y-104957676D01*
X118497742Y-105148152D01*
X118497742Y-105291009D01*
X118450123Y-105481485D01*
X118402504Y-105576723D01*
X118307266Y-105671961D01*
X118164409Y-105719580D01*
X117926314Y-105719580D01*
X118831076Y-104719580D02*
X119497742Y-104719580D01*
X119069171Y-105719580D01*
X120402504Y-105719580D02*
X119831076Y-105719580D01*
X120116790Y-105719580D02*
X120116790Y-104719580D01*
X120021552Y-104862438D01*
X119926314Y-104957676D01*
X119831076Y-105005295D01*
X120735838Y-104719580D02*
X121402504Y-104719580D01*
X120973933Y-105719580D01*
X122307266Y-105719580D02*
X121735838Y-105719580D01*
X122021552Y-105719580D02*
X122021552Y-104719580D01*
X121926314Y-104862438D01*
X121831076Y-104957676D01*
X121735838Y-105005295D01*
X123069171Y-105195771D02*
X123212028Y-105243390D01*
X123259647Y-105291009D01*
X123307266Y-105386247D01*
X123307266Y-105529104D01*
X123259647Y-105624342D01*
X123212028Y-105671961D01*
X123116790Y-105719580D01*
X122735838Y-105719580D01*
X122735838Y-104719580D01*
X123069171Y-104719580D01*
X123164409Y-104767200D01*
X123212028Y-104814819D01*
X123259647Y-104910057D01*
X123259647Y-105005295D01*
X123212028Y-105100533D01*
X123164409Y-105148152D01*
X123069171Y-105195771D01*
X122735838Y-105195771D01*
X124307266Y-105624342D02*
X124259647Y-105671961D01*
X124116790Y-105719580D01*
X124021552Y-105719580D01*
X123878695Y-105671961D01*
X123783457Y-105576723D01*
X123735838Y-105481485D01*
X123688219Y-105291009D01*
X123688219Y-105148152D01*
X123735838Y-104957676D01*
X123783457Y-104862438D01*
X123878695Y-104767200D01*
X124021552Y-104719580D01*
X124116790Y-104719580D01*
X124259647Y-104767200D01*
X124307266Y-104814819D01*
X124735838Y-105719580D02*
X124735838Y-104719580D01*
X125116790Y-104719580D01*
X125212028Y-104767200D01*
X125259647Y-104814819D01*
X125307266Y-104910057D01*
X125307266Y-105052914D01*
X125259647Y-105148152D01*
X125212028Y-105195771D01*
X125116790Y-105243390D01*
X124735838Y-105243390D01*
X125640600Y-104719580D02*
X126307266Y-104719580D01*
X125640600Y-105719580D01*
X126307266Y-105719580D01*
D12*
X121107266Y-102308866D02*
X121107266Y-102875533D01*
X121140600Y-102942200D01*
X121173933Y-102975533D01*
X121240600Y-103008866D01*
X121373933Y-103008866D01*
X121440600Y-102975533D01*
X121473933Y-102942200D01*
X121507266Y-102875533D01*
X121507266Y-102308866D01*
X122140600Y-102542200D02*
X122140600Y-103008866D01*
X121973933Y-102275533D02*
X121807266Y-102775533D01*
X122240600Y-102775533D01*
%TO.C,U3*%
D11*
X123048266Y-112235857D02*
X123048266Y-111759666D01*
X123333980Y-112331095D02*
X122333980Y-111997761D01*
X123333980Y-111664428D01*
X123333980Y-111331095D02*
X122333980Y-111331095D01*
X122333980Y-111093000D01*
X122381600Y-110950142D01*
X122476838Y-110854904D01*
X122572076Y-110807285D01*
X122762552Y-110759666D01*
X122905409Y-110759666D01*
X123095885Y-110807285D01*
X123191123Y-110854904D01*
X123286361Y-110950142D01*
X123333980Y-111093000D01*
X123333980Y-111331095D01*
X123333980Y-109759666D02*
X122857790Y-110093000D01*
X123333980Y-110331095D02*
X122333980Y-110331095D01*
X122333980Y-109950142D01*
X122381600Y-109854904D01*
X122429219Y-109807285D01*
X122524457Y-109759666D01*
X122667314Y-109759666D01*
X122762552Y-109807285D01*
X122810171Y-109854904D01*
X122857790Y-109950142D01*
X122857790Y-110331095D01*
X122667314Y-108902523D02*
X123333980Y-108902523D01*
X122286361Y-109140619D02*
X123000647Y-109378714D01*
X123000647Y-108759666D01*
X122333980Y-107902523D02*
X122333980Y-108378714D01*
X122810171Y-108426333D01*
X122762552Y-108378714D01*
X122714933Y-108283476D01*
X122714933Y-108045380D01*
X122762552Y-107950142D01*
X122810171Y-107902523D01*
X122905409Y-107854904D01*
X123143504Y-107854904D01*
X123238742Y-107902523D01*
X123286361Y-107950142D01*
X123333980Y-108045380D01*
X123333980Y-108283476D01*
X123286361Y-108378714D01*
X123238742Y-108426333D01*
X122429219Y-107473952D02*
X122381600Y-107426333D01*
X122333980Y-107331095D01*
X122333980Y-107093000D01*
X122381600Y-106997761D01*
X122429219Y-106950142D01*
X122524457Y-106902523D01*
X122619695Y-106902523D01*
X122762552Y-106950142D01*
X123333980Y-107521571D01*
X123333980Y-106902523D01*
X122333980Y-105997761D02*
X122333980Y-106473952D01*
X122810171Y-106521571D01*
X122762552Y-106473952D01*
X122714933Y-106378714D01*
X122714933Y-106140619D01*
X122762552Y-106045380D01*
X122810171Y-105997761D01*
X122905409Y-105950142D01*
X123143504Y-105950142D01*
X123238742Y-105997761D01*
X123286361Y-106045380D01*
X123333980Y-106140619D01*
X123333980Y-106378714D01*
X123286361Y-106473952D01*
X123238742Y-106521571D01*
X118944933Y-109839666D02*
X119738266Y-109839666D01*
X119831600Y-109793000D01*
X119878266Y-109746333D01*
X119924933Y-109653000D01*
X119924933Y-109466333D01*
X119878266Y-109373000D01*
X119831600Y-109326333D01*
X119738266Y-109279666D01*
X118944933Y-109279666D01*
X118944933Y-108906333D02*
X118944933Y-108299666D01*
X119318266Y-108626333D01*
X119318266Y-108486333D01*
X119364933Y-108393000D01*
X119411600Y-108346333D01*
X119504933Y-108299666D01*
X119738266Y-108299666D01*
X119831600Y-108346333D01*
X119878266Y-108393000D01*
X119924933Y-108486333D01*
X119924933Y-108766333D01*
X119878266Y-108859666D01*
X119831600Y-108906333D01*
%TO.C,U2*%
X136617580Y-127039190D02*
X136617580Y-127515380D01*
X135617580Y-127515380D01*
X136617580Y-126705857D02*
X135617580Y-126705857D01*
X136331866Y-126372523D01*
X135617580Y-126039190D01*
X136617580Y-126039190D01*
X136617580Y-125039190D02*
X136617580Y-125610619D01*
X136617580Y-125324904D02*
X135617580Y-125324904D01*
X135760438Y-125420142D01*
X135855676Y-125515380D01*
X135903295Y-125610619D01*
X136617580Y-124086809D02*
X136617580Y-124658238D01*
X136617580Y-124372523D02*
X135617580Y-124372523D01*
X135760438Y-124467761D01*
X135855676Y-124563000D01*
X135903295Y-124658238D01*
X136617580Y-123134428D02*
X136617580Y-123705857D01*
X136617580Y-123420142D02*
X135617580Y-123420142D01*
X135760438Y-123515380D01*
X135855676Y-123610619D01*
X135903295Y-123705857D01*
X135617580Y-122801095D02*
X135617580Y-122134428D01*
X136617580Y-122563000D01*
X136236628Y-121753476D02*
X136236628Y-120991571D01*
X135617580Y-120610619D02*
X135617580Y-119991571D01*
X135998533Y-120324904D01*
X135998533Y-120182047D01*
X136046152Y-120086809D01*
X136093771Y-120039190D01*
X136189009Y-119991571D01*
X136427104Y-119991571D01*
X136522342Y-120039190D01*
X136569961Y-120086809D01*
X136617580Y-120182047D01*
X136617580Y-120467761D01*
X136569961Y-120563000D01*
X136522342Y-120610619D01*
X136522342Y-119563000D02*
X136569961Y-119515380D01*
X136617580Y-119563000D01*
X136569961Y-119610619D01*
X136522342Y-119563000D01*
X136617580Y-119563000D01*
X135617580Y-119182047D02*
X135617580Y-118563000D01*
X135998533Y-118896333D01*
X135998533Y-118753476D01*
X136046152Y-118658238D01*
X136093771Y-118610619D01*
X136189009Y-118563000D01*
X136427104Y-118563000D01*
X136522342Y-118610619D01*
X136569961Y-118658238D01*
X136617580Y-118753476D01*
X136617580Y-119039190D01*
X136569961Y-119134428D01*
X136522342Y-119182047D01*
D13*
X140055676Y-122624904D02*
X140055676Y-123272523D01*
X140093771Y-123348714D01*
X140131866Y-123386809D01*
X140208057Y-123424904D01*
X140360438Y-123424904D01*
X140436628Y-123386809D01*
X140474723Y-123348714D01*
X140512819Y-123272523D01*
X140512819Y-122624904D01*
X140855676Y-122701095D02*
X140893771Y-122663000D01*
X140969961Y-122624904D01*
X141160438Y-122624904D01*
X141236628Y-122663000D01*
X141274723Y-122701095D01*
X141312819Y-122777285D01*
X141312819Y-122853476D01*
X141274723Y-122967761D01*
X140817580Y-123424904D01*
X141312819Y-123424904D01*
%TO.C,RV2*%
D11*
X67053009Y-130360980D02*
X66719676Y-129884790D01*
X66481580Y-130360980D02*
X66481580Y-129360980D01*
X66862533Y-129360980D01*
X66957771Y-129408600D01*
X67005390Y-129456219D01*
X67053009Y-129551457D01*
X67053009Y-129694314D01*
X67005390Y-129789552D01*
X66957771Y-129837171D01*
X66862533Y-129884790D01*
X66481580Y-129884790D01*
X67243485Y-130456219D02*
X68005390Y-130456219D01*
X68243485Y-130360980D02*
X68243485Y-129360980D01*
X68624438Y-129360980D01*
X68719676Y-129408600D01*
X68767295Y-129456219D01*
X68814914Y-129551457D01*
X68814914Y-129694314D01*
X68767295Y-129789552D01*
X68719676Y-129837171D01*
X68624438Y-129884790D01*
X68243485Y-129884790D01*
X69433961Y-129360980D02*
X69624438Y-129360980D01*
X69719676Y-129408600D01*
X69814914Y-129503838D01*
X69862533Y-129694314D01*
X69862533Y-130027647D01*
X69814914Y-130218123D01*
X69719676Y-130313361D01*
X69624438Y-130360980D01*
X69433961Y-130360980D01*
X69338723Y-130313361D01*
X69243485Y-130218123D01*
X69195866Y-130027647D01*
X69195866Y-129694314D01*
X69243485Y-129503838D01*
X69338723Y-129408600D01*
X69433961Y-129360980D01*
X70148247Y-129360980D02*
X70719676Y-129360980D01*
X70433961Y-130360980D02*
X70433961Y-129360980D01*
X68568961Y-134025980D02*
X68235628Y-133549790D01*
X67997533Y-134025980D02*
X67997533Y-133025980D01*
X68378485Y-133025980D01*
X68473723Y-133073600D01*
X68521342Y-133121219D01*
X68568961Y-133216457D01*
X68568961Y-133359314D01*
X68521342Y-133454552D01*
X68473723Y-133502171D01*
X68378485Y-133549790D01*
X67997533Y-133549790D01*
X68854676Y-133025980D02*
X69188009Y-134025980D01*
X69521342Y-133025980D01*
X69807057Y-133121219D02*
X69854676Y-133073600D01*
X69949914Y-133025980D01*
X70188009Y-133025980D01*
X70283247Y-133073600D01*
X70330866Y-133121219D01*
X70378485Y-133216457D01*
X70378485Y-133311695D01*
X70330866Y-133454552D01*
X69759438Y-134025980D01*
X70378485Y-134025980D01*
%TO.C,RV1*%
X67103809Y-117203780D02*
X66770476Y-116727590D01*
X66532380Y-117203780D02*
X66532380Y-116203780D01*
X66913333Y-116203780D01*
X67008571Y-116251400D01*
X67056190Y-116299019D01*
X67103809Y-116394257D01*
X67103809Y-116537114D01*
X67056190Y-116632352D01*
X67008571Y-116679971D01*
X66913333Y-116727590D01*
X66532380Y-116727590D01*
X67294285Y-117299019D02*
X68056190Y-117299019D01*
X68294285Y-117203780D02*
X68294285Y-116203780D01*
X68675238Y-116203780D01*
X68770476Y-116251400D01*
X68818095Y-116299019D01*
X68865714Y-116394257D01*
X68865714Y-116537114D01*
X68818095Y-116632352D01*
X68770476Y-116679971D01*
X68675238Y-116727590D01*
X68294285Y-116727590D01*
X69484761Y-116203780D02*
X69675238Y-116203780D01*
X69770476Y-116251400D01*
X69865714Y-116346638D01*
X69913333Y-116537114D01*
X69913333Y-116870447D01*
X69865714Y-117060923D01*
X69770476Y-117156161D01*
X69675238Y-117203780D01*
X69484761Y-117203780D01*
X69389523Y-117156161D01*
X69294285Y-117060923D01*
X69246666Y-116870447D01*
X69246666Y-116537114D01*
X69294285Y-116346638D01*
X69389523Y-116251400D01*
X69484761Y-116203780D01*
X70199047Y-116203780D02*
X70770476Y-116203780D01*
X70484761Y-117203780D02*
X70484761Y-116203780D01*
X68619761Y-120868780D02*
X68286428Y-120392590D01*
X68048333Y-120868780D02*
X68048333Y-119868780D01*
X68429285Y-119868780D01*
X68524523Y-119916400D01*
X68572142Y-119964019D01*
X68619761Y-120059257D01*
X68619761Y-120202114D01*
X68572142Y-120297352D01*
X68524523Y-120344971D01*
X68429285Y-120392590D01*
X68048333Y-120392590D01*
X68905476Y-119868780D02*
X69238809Y-120868780D01*
X69572142Y-119868780D01*
X70429285Y-120868780D02*
X69857857Y-120868780D01*
X70143571Y-120868780D02*
X70143571Y-119868780D01*
X70048333Y-120011638D01*
X69953095Y-120106876D01*
X69857857Y-120154495D01*
%TO.C,R22*%
X97498514Y-116412876D02*
X98165180Y-116412876D01*
X97117561Y-116650971D02*
X97831847Y-116889066D01*
X97831847Y-116270019D01*
X97165180Y-115984304D02*
X97165180Y-115317638D01*
X98165180Y-115746209D01*
X98165180Y-114936685D02*
X97165180Y-114936685D01*
X97784228Y-114841447D02*
X98165180Y-114555733D01*
X97498514Y-114555733D02*
X97879466Y-114936685D01*
D14*
X96288990Y-116043828D02*
X96050895Y-116210495D01*
X96288990Y-116329542D02*
X95788990Y-116329542D01*
X95788990Y-116139066D01*
X95812800Y-116091447D01*
X95836609Y-116067638D01*
X95884228Y-116043828D01*
X95955657Y-116043828D01*
X96003276Y-116067638D01*
X96027085Y-116091447D01*
X96050895Y-116139066D01*
X96050895Y-116329542D01*
X95836609Y-115853352D02*
X95812800Y-115829542D01*
X95788990Y-115781923D01*
X95788990Y-115662876D01*
X95812800Y-115615257D01*
X95836609Y-115591447D01*
X95884228Y-115567638D01*
X95931847Y-115567638D01*
X96003276Y-115591447D01*
X96288990Y-115877161D01*
X96288990Y-115567638D01*
X95836609Y-115377161D02*
X95812800Y-115353352D01*
X95788990Y-115305733D01*
X95788990Y-115186685D01*
X95812800Y-115139066D01*
X95836609Y-115115257D01*
X95884228Y-115091447D01*
X95931847Y-115091447D01*
X96003276Y-115115257D01*
X96288990Y-115400971D01*
X96288990Y-115091447D01*
%TO.C,R21*%
D11*
X94890580Y-120978419D02*
X94890580Y-121549847D01*
X94890580Y-121264133D02*
X93890580Y-121264133D01*
X94033438Y-121359371D01*
X94128676Y-121454609D01*
X94176295Y-121549847D01*
X94890580Y-120549847D02*
X93890580Y-120549847D01*
X94509628Y-120454609D02*
X94890580Y-120168895D01*
X94223914Y-120168895D02*
X94604866Y-120549847D01*
X94890580Y-118454609D02*
X94890580Y-119026038D01*
X94890580Y-118740323D02*
X93890580Y-118740323D01*
X94033438Y-118835561D01*
X94128676Y-118930800D01*
X94176295Y-119026038D01*
X94890580Y-118073657D02*
X93890580Y-117311752D01*
X93890580Y-117930800D02*
X93938200Y-117835561D01*
X94033438Y-117787942D01*
X94128676Y-117835561D01*
X94176295Y-117930800D01*
X94128676Y-118026038D01*
X94033438Y-118073657D01*
X93938200Y-118026038D01*
X93890580Y-117930800D01*
X94842961Y-117359371D02*
X94747723Y-117311752D01*
X94652485Y-117359371D01*
X94604866Y-117454609D01*
X94652485Y-117549847D01*
X94747723Y-117597466D01*
X94842961Y-117549847D01*
X94890580Y-117454609D01*
X94842961Y-117359371D01*
D14*
X96314390Y-119752228D02*
X96076295Y-119918895D01*
X96314390Y-120037942D02*
X95814390Y-120037942D01*
X95814390Y-119847466D01*
X95838200Y-119799847D01*
X95862009Y-119776038D01*
X95909628Y-119752228D01*
X95981057Y-119752228D01*
X96028676Y-119776038D01*
X96052485Y-119799847D01*
X96076295Y-119847466D01*
X96076295Y-120037942D01*
X95862009Y-119561752D02*
X95838200Y-119537942D01*
X95814390Y-119490323D01*
X95814390Y-119371276D01*
X95838200Y-119323657D01*
X95862009Y-119299847D01*
X95909628Y-119276038D01*
X95957247Y-119276038D01*
X96028676Y-119299847D01*
X96314390Y-119585561D01*
X96314390Y-119276038D01*
X96314390Y-118799847D02*
X96314390Y-119085561D01*
X96314390Y-118942704D02*
X95814390Y-118942704D01*
X95885819Y-118990323D01*
X95933438Y-119037942D01*
X95957247Y-119085561D01*
%TO.C,R20*%
D11*
X96197204Y-120593380D02*
X95625776Y-120593380D01*
X95911490Y-120593380D02*
X95911490Y-119593380D01*
X95816252Y-119736238D01*
X95721014Y-119831476D01*
X95625776Y-119879095D01*
X96625776Y-120498142D02*
X96673395Y-120545761D01*
X96625776Y-120593380D01*
X96578157Y-120545761D01*
X96625776Y-120498142D01*
X96625776Y-120593380D01*
X97530538Y-119593380D02*
X97340061Y-119593380D01*
X97244823Y-119641000D01*
X97197204Y-119688619D01*
X97101966Y-119831476D01*
X97054347Y-120021952D01*
X97054347Y-120402904D01*
X97101966Y-120498142D01*
X97149585Y-120545761D01*
X97244823Y-120593380D01*
X97435300Y-120593380D01*
X97530538Y-120545761D01*
X97578157Y-120498142D01*
X97625776Y-120402904D01*
X97625776Y-120164809D01*
X97578157Y-120069571D01*
X97530538Y-120021952D01*
X97435300Y-119974333D01*
X97244823Y-119974333D01*
X97149585Y-120021952D01*
X97101966Y-120069571D01*
X97054347Y-120164809D01*
X98006728Y-119688619D02*
X98054347Y-119641000D01*
X98149585Y-119593380D01*
X98387680Y-119593380D01*
X98482919Y-119641000D01*
X98530538Y-119688619D01*
X98578157Y-119783857D01*
X98578157Y-119879095D01*
X98530538Y-120021952D01*
X97959109Y-120593380D01*
X98578157Y-120593380D01*
X99006728Y-120593380D02*
X99006728Y-119593380D01*
X99101966Y-120212428D02*
X99387680Y-120593380D01*
X99387680Y-119926714D02*
X99006728Y-120307666D01*
X101101966Y-120593380D02*
X100530538Y-120593380D01*
X100816252Y-120593380D02*
X100816252Y-119593380D01*
X100721014Y-119736238D01*
X100625776Y-119831476D01*
X100530538Y-119879095D01*
X101482919Y-120593380D02*
X102244823Y-119593380D01*
X101625776Y-119593380D02*
X101721014Y-119641000D01*
X101768633Y-119736238D01*
X101721014Y-119831476D01*
X101625776Y-119879095D01*
X101530538Y-119831476D01*
X101482919Y-119736238D01*
X101530538Y-119641000D01*
X101625776Y-119593380D01*
X102197204Y-120545761D02*
X102244823Y-120450523D01*
X102197204Y-120355285D01*
X102101966Y-120307666D01*
X102006728Y-120355285D01*
X101959109Y-120450523D01*
X102006728Y-120545761D01*
X102101966Y-120593380D01*
X102197204Y-120545761D01*
D14*
X98613871Y-118717190D02*
X98447204Y-118479095D01*
X98328157Y-118717190D02*
X98328157Y-118217190D01*
X98518633Y-118217190D01*
X98566252Y-118241000D01*
X98590061Y-118264809D01*
X98613871Y-118312428D01*
X98613871Y-118383857D01*
X98590061Y-118431476D01*
X98566252Y-118455285D01*
X98518633Y-118479095D01*
X98328157Y-118479095D01*
X98804347Y-118264809D02*
X98828157Y-118241000D01*
X98875776Y-118217190D01*
X98994823Y-118217190D01*
X99042442Y-118241000D01*
X99066252Y-118264809D01*
X99090061Y-118312428D01*
X99090061Y-118360047D01*
X99066252Y-118431476D01*
X98780538Y-118717190D01*
X99090061Y-118717190D01*
X99399585Y-118217190D02*
X99447204Y-118217190D01*
X99494823Y-118241000D01*
X99518633Y-118264809D01*
X99542442Y-118312428D01*
X99566252Y-118407666D01*
X99566252Y-118526714D01*
X99542442Y-118621952D01*
X99518633Y-118669571D01*
X99494823Y-118693380D01*
X99447204Y-118717190D01*
X99399585Y-118717190D01*
X99351966Y-118693380D01*
X99328157Y-118669571D01*
X99304347Y-118621952D01*
X99280538Y-118526714D01*
X99280538Y-118407666D01*
X99304347Y-118312428D01*
X99328157Y-118264809D01*
X99351966Y-118241000D01*
X99399585Y-118217190D01*
%TO.C,R19*%
D11*
X97523914Y-125792433D02*
X98190580Y-125792433D01*
X97142961Y-126030528D02*
X97857247Y-126268623D01*
X97857247Y-125649576D01*
X98095342Y-125268623D02*
X98142961Y-125221004D01*
X98190580Y-125268623D01*
X98142961Y-125316242D01*
X98095342Y-125268623D01*
X98190580Y-125268623D01*
X98190580Y-124268623D02*
X98190580Y-124840052D01*
X98190580Y-124554338D02*
X97190580Y-124554338D01*
X97333438Y-124649576D01*
X97428676Y-124744814D01*
X97476295Y-124840052D01*
X97285819Y-123887671D02*
X97238200Y-123840052D01*
X97190580Y-123744814D01*
X97190580Y-123506719D01*
X97238200Y-123411480D01*
X97285819Y-123363861D01*
X97381057Y-123316242D01*
X97476295Y-123316242D01*
X97619152Y-123363861D01*
X98190580Y-123935290D01*
X98190580Y-123316242D01*
X98190580Y-122887671D02*
X97190580Y-122887671D01*
X97809628Y-122792433D02*
X98190580Y-122506719D01*
X97523914Y-122506719D02*
X97904866Y-122887671D01*
X98190580Y-120792433D02*
X98190580Y-121363861D01*
X98190580Y-121078147D02*
X97190580Y-121078147D01*
X97333438Y-121173385D01*
X97428676Y-121268623D01*
X97476295Y-121363861D01*
X98190580Y-120411480D02*
X97190580Y-119649576D01*
X97190580Y-120268623D02*
X97238200Y-120173385D01*
X97333438Y-120125766D01*
X97428676Y-120173385D01*
X97476295Y-120268623D01*
X97428676Y-120363861D01*
X97333438Y-120411480D01*
X97238200Y-120363861D01*
X97190580Y-120268623D01*
X98142961Y-119697195D02*
X98047723Y-119649576D01*
X97952485Y-119697195D01*
X97904866Y-119792433D01*
X97952485Y-119887671D01*
X98047723Y-119935290D01*
X98142961Y-119887671D01*
X98190580Y-119792433D01*
X98142961Y-119697195D01*
D14*
X96314390Y-123280528D02*
X96076295Y-123447195D01*
X96314390Y-123566242D02*
X95814390Y-123566242D01*
X95814390Y-123375766D01*
X95838200Y-123328147D01*
X95862009Y-123304338D01*
X95909628Y-123280528D01*
X95981057Y-123280528D01*
X96028676Y-123304338D01*
X96052485Y-123328147D01*
X96076295Y-123375766D01*
X96076295Y-123566242D01*
X96314390Y-122804338D02*
X96314390Y-123090052D01*
X96314390Y-122947195D02*
X95814390Y-122947195D01*
X95885819Y-122994814D01*
X95933438Y-123042433D01*
X95957247Y-123090052D01*
X96314390Y-122566242D02*
X96314390Y-122471004D01*
X96290580Y-122423385D01*
X96266771Y-122399576D01*
X96195342Y-122351957D01*
X96100104Y-122328147D01*
X95909628Y-122328147D01*
X95862009Y-122351957D01*
X95838200Y-122375766D01*
X95814390Y-122423385D01*
X95814390Y-122518623D01*
X95838200Y-122566242D01*
X95862009Y-122590052D01*
X95909628Y-122613861D01*
X96028676Y-122613861D01*
X96076295Y-122590052D01*
X96100104Y-122566242D01*
X96123914Y-122518623D01*
X96123914Y-122423385D01*
X96100104Y-122375766D01*
X96076295Y-122351957D01*
X96028676Y-122328147D01*
%TO.C,R18*%
D11*
X96363161Y-121925819D02*
X96410780Y-121878200D01*
X96506019Y-121830580D01*
X96744114Y-121830580D01*
X96839352Y-121878200D01*
X96886971Y-121925819D01*
X96934590Y-122021057D01*
X96934590Y-122116295D01*
X96886971Y-122259152D01*
X96315542Y-122830580D01*
X96934590Y-122830580D01*
X97506019Y-122259152D02*
X97410780Y-122211533D01*
X97363161Y-122163914D01*
X97315542Y-122068676D01*
X97315542Y-122021057D01*
X97363161Y-121925819D01*
X97410780Y-121878200D01*
X97506019Y-121830580D01*
X97696495Y-121830580D01*
X97791733Y-121878200D01*
X97839352Y-121925819D01*
X97886971Y-122021057D01*
X97886971Y-122068676D01*
X97839352Y-122163914D01*
X97791733Y-122211533D01*
X97696495Y-122259152D01*
X97506019Y-122259152D01*
X97410780Y-122306771D01*
X97363161Y-122354390D01*
X97315542Y-122449628D01*
X97315542Y-122640104D01*
X97363161Y-122735342D01*
X97410780Y-122782961D01*
X97506019Y-122830580D01*
X97696495Y-122830580D01*
X97791733Y-122782961D01*
X97839352Y-122735342D01*
X97886971Y-122640104D01*
X97886971Y-122449628D01*
X97839352Y-122354390D01*
X97791733Y-122306771D01*
X97696495Y-122259152D01*
X98315542Y-122830580D02*
X98315542Y-121830580D01*
X98410780Y-122449628D02*
X98696495Y-122830580D01*
X98696495Y-122163914D02*
X98315542Y-122544866D01*
X100410780Y-122830580D02*
X99839352Y-122830580D01*
X100125066Y-122830580D02*
X100125066Y-121830580D01*
X100029828Y-121973438D01*
X99934590Y-122068676D01*
X99839352Y-122116295D01*
X100791733Y-122830580D02*
X101553638Y-121830580D01*
X100934590Y-121830580D02*
X101029828Y-121878200D01*
X101077447Y-121973438D01*
X101029828Y-122068676D01*
X100934590Y-122116295D01*
X100839352Y-122068676D01*
X100791733Y-121973438D01*
X100839352Y-121878200D01*
X100934590Y-121830580D01*
X101506019Y-122782961D02*
X101553638Y-122687723D01*
X101506019Y-122592485D01*
X101410780Y-122544866D01*
X101315542Y-122592485D01*
X101267923Y-122687723D01*
X101315542Y-122782961D01*
X101410780Y-122830580D01*
X101506019Y-122782961D01*
D14*
X98636971Y-124254390D02*
X98470304Y-124016295D01*
X98351257Y-124254390D02*
X98351257Y-123754390D01*
X98541733Y-123754390D01*
X98589352Y-123778200D01*
X98613161Y-123802009D01*
X98636971Y-123849628D01*
X98636971Y-123921057D01*
X98613161Y-123968676D01*
X98589352Y-123992485D01*
X98541733Y-124016295D01*
X98351257Y-124016295D01*
X99113161Y-124254390D02*
X98827447Y-124254390D01*
X98970304Y-124254390D02*
X98970304Y-123754390D01*
X98922685Y-123825819D01*
X98875066Y-123873438D01*
X98827447Y-123897247D01*
X99398876Y-123968676D02*
X99351257Y-123944866D01*
X99327447Y-123921057D01*
X99303638Y-123873438D01*
X99303638Y-123849628D01*
X99327447Y-123802009D01*
X99351257Y-123778200D01*
X99398876Y-123754390D01*
X99494114Y-123754390D01*
X99541733Y-123778200D01*
X99565542Y-123802009D01*
X99589352Y-123849628D01*
X99589352Y-123873438D01*
X99565542Y-123921057D01*
X99541733Y-123944866D01*
X99494114Y-123968676D01*
X99398876Y-123968676D01*
X99351257Y-123992485D01*
X99327447Y-124016295D01*
X99303638Y-124063914D01*
X99303638Y-124159152D01*
X99327447Y-124206771D01*
X99351257Y-124230580D01*
X99398876Y-124254390D01*
X99494114Y-124254390D01*
X99541733Y-124230580D01*
X99565542Y-124206771D01*
X99589352Y-124159152D01*
X99589352Y-124063914D01*
X99565542Y-124016295D01*
X99541733Y-123992485D01*
X99494114Y-123968676D01*
%TO.C,R17*%
D11*
X90200504Y-125952780D02*
X89629076Y-125952780D01*
X89914790Y-125952780D02*
X89914790Y-124952780D01*
X89819552Y-125095638D01*
X89724314Y-125190876D01*
X89629076Y-125238495D01*
X90533838Y-124952780D02*
X91200504Y-124952780D01*
X90771933Y-125952780D01*
X91581457Y-125857542D02*
X91629076Y-125905161D01*
X91581457Y-125952780D01*
X91533838Y-125905161D01*
X91581457Y-125857542D01*
X91581457Y-125952780D01*
X92486219Y-125286114D02*
X92486219Y-125952780D01*
X92248123Y-124905161D02*
X92010028Y-125619447D01*
X92629076Y-125619447D01*
X93010028Y-125952780D02*
X93010028Y-124952780D01*
X93105266Y-125571828D02*
X93390980Y-125952780D01*
X93390980Y-125286114D02*
X93010028Y-125667066D01*
X95105266Y-125952780D02*
X94533838Y-125952780D01*
X94819552Y-125952780D02*
X94819552Y-124952780D01*
X94724314Y-125095638D01*
X94629076Y-125190876D01*
X94533838Y-125238495D01*
X95486219Y-125952780D02*
X96248123Y-124952780D01*
X95629076Y-124952780D02*
X95724314Y-125000400D01*
X95771933Y-125095638D01*
X95724314Y-125190876D01*
X95629076Y-125238495D01*
X95533838Y-125190876D01*
X95486219Y-125095638D01*
X95533838Y-125000400D01*
X95629076Y-124952780D01*
X96200504Y-125905161D02*
X96248123Y-125809923D01*
X96200504Y-125714685D01*
X96105266Y-125667066D01*
X96010028Y-125714685D01*
X95962409Y-125809923D01*
X96010028Y-125905161D01*
X96105266Y-125952780D01*
X96200504Y-125905161D01*
D14*
X92617171Y-124076590D02*
X92450504Y-123838495D01*
X92331457Y-124076590D02*
X92331457Y-123576590D01*
X92521933Y-123576590D01*
X92569552Y-123600400D01*
X92593361Y-123624209D01*
X92617171Y-123671828D01*
X92617171Y-123743257D01*
X92593361Y-123790876D01*
X92569552Y-123814685D01*
X92521933Y-123838495D01*
X92331457Y-123838495D01*
X93093361Y-124076590D02*
X92807647Y-124076590D01*
X92950504Y-124076590D02*
X92950504Y-123576590D01*
X92902885Y-123648019D01*
X92855266Y-123695638D01*
X92807647Y-123719447D01*
X93260028Y-123576590D02*
X93593361Y-123576590D01*
X93379076Y-124076590D01*
%TO.C,R16*%
D11*
X87522580Y-117521076D02*
X87046390Y-117854409D01*
X87522580Y-118092504D02*
X86522580Y-118092504D01*
X86522580Y-117711552D01*
X86570200Y-117616314D01*
X86617819Y-117568695D01*
X86713057Y-117521076D01*
X86855914Y-117521076D01*
X86951152Y-117568695D01*
X86998771Y-117616314D01*
X87046390Y-117711552D01*
X87046390Y-118092504D01*
D14*
X85646390Y-118152028D02*
X85408295Y-118318695D01*
X85646390Y-118437742D02*
X85146390Y-118437742D01*
X85146390Y-118247266D01*
X85170200Y-118199647D01*
X85194009Y-118175838D01*
X85241628Y-118152028D01*
X85313057Y-118152028D01*
X85360676Y-118175838D01*
X85384485Y-118199647D01*
X85408295Y-118247266D01*
X85408295Y-118437742D01*
X85646390Y-117675838D02*
X85646390Y-117961552D01*
X85646390Y-117818695D02*
X85146390Y-117818695D01*
X85217819Y-117866314D01*
X85265438Y-117913933D01*
X85289247Y-117961552D01*
X85146390Y-117247266D02*
X85146390Y-117342504D01*
X85170200Y-117390123D01*
X85194009Y-117413933D01*
X85265438Y-117461552D01*
X85360676Y-117485361D01*
X85551152Y-117485361D01*
X85598771Y-117461552D01*
X85622580Y-117437742D01*
X85646390Y-117390123D01*
X85646390Y-117294885D01*
X85622580Y-117247266D01*
X85598771Y-117223457D01*
X85551152Y-117199647D01*
X85432104Y-117199647D01*
X85384485Y-117223457D01*
X85360676Y-117247266D01*
X85336866Y-117294885D01*
X85336866Y-117390123D01*
X85360676Y-117437742D01*
X85384485Y-117461552D01*
X85432104Y-117485361D01*
%TO.C,R15*%
D11*
X89361923Y-126003580D02*
X89028590Y-125527390D01*
X88790495Y-126003580D02*
X88790495Y-125003580D01*
X89171447Y-125003580D01*
X89266685Y-125051200D01*
X89314304Y-125098819D01*
X89361923Y-125194057D01*
X89361923Y-125336914D01*
X89314304Y-125432152D01*
X89266685Y-125479771D01*
X89171447Y-125527390D01*
X88790495Y-125527390D01*
D14*
X88730971Y-124127390D02*
X88564304Y-123889295D01*
X88445257Y-124127390D02*
X88445257Y-123627390D01*
X88635733Y-123627390D01*
X88683352Y-123651200D01*
X88707161Y-123675009D01*
X88730971Y-123722628D01*
X88730971Y-123794057D01*
X88707161Y-123841676D01*
X88683352Y-123865485D01*
X88635733Y-123889295D01*
X88445257Y-123889295D01*
X89207161Y-124127390D02*
X88921447Y-124127390D01*
X89064304Y-124127390D02*
X89064304Y-123627390D01*
X89016685Y-123698819D01*
X88969066Y-123746438D01*
X88921447Y-123770247D01*
X89659542Y-123627390D02*
X89421447Y-123627390D01*
X89397638Y-123865485D01*
X89421447Y-123841676D01*
X89469066Y-123817866D01*
X89588114Y-123817866D01*
X89635733Y-123841676D01*
X89659542Y-123865485D01*
X89683352Y-123913104D01*
X89683352Y-124032152D01*
X89659542Y-124079771D01*
X89635733Y-124103580D01*
X89588114Y-124127390D01*
X89469066Y-124127390D01*
X89421447Y-124103580D01*
X89397638Y-124079771D01*
%TO.C,R14*%
D11*
X79065857Y-118350780D02*
X79732523Y-118350780D01*
X79303952Y-119350780D01*
X80113476Y-119255542D02*
X80161095Y-119303161D01*
X80113476Y-119350780D01*
X80065857Y-119303161D01*
X80113476Y-119255542D01*
X80113476Y-119350780D01*
X81113476Y-119350780D02*
X80542047Y-119350780D01*
X80827761Y-119350780D02*
X80827761Y-118350780D01*
X80732523Y-118493638D01*
X80637285Y-118588876D01*
X80542047Y-118636495D01*
X82018238Y-118350780D02*
X81542047Y-118350780D01*
X81494428Y-118826971D01*
X81542047Y-118779352D01*
X81637285Y-118731733D01*
X81875380Y-118731733D01*
X81970619Y-118779352D01*
X82018238Y-118826971D01*
X82065857Y-118922209D01*
X82065857Y-119160304D01*
X82018238Y-119255542D01*
X81970619Y-119303161D01*
X81875380Y-119350780D01*
X81637285Y-119350780D01*
X81542047Y-119303161D01*
X81494428Y-119255542D01*
X82494428Y-119350780D02*
X82494428Y-118350780D01*
X82589666Y-118969828D02*
X82875380Y-119350780D01*
X82875380Y-118684114D02*
X82494428Y-119065066D01*
X84589666Y-119350780D02*
X84018238Y-119350780D01*
X84303952Y-119350780D02*
X84303952Y-118350780D01*
X84208714Y-118493638D01*
X84113476Y-118588876D01*
X84018238Y-118636495D01*
X84970619Y-119350780D02*
X85732523Y-118350780D01*
X85113476Y-118350780D02*
X85208714Y-118398400D01*
X85256333Y-118493638D01*
X85208714Y-118588876D01*
X85113476Y-118636495D01*
X85018238Y-118588876D01*
X84970619Y-118493638D01*
X85018238Y-118398400D01*
X85113476Y-118350780D01*
X85684904Y-119303161D02*
X85732523Y-119207923D01*
X85684904Y-119112685D01*
X85589666Y-119065066D01*
X85494428Y-119112685D01*
X85446809Y-119207923D01*
X85494428Y-119303161D01*
X85589666Y-119350780D01*
X85684904Y-119303161D01*
D14*
X82101571Y-120774590D02*
X81934904Y-120536495D01*
X81815857Y-120774590D02*
X81815857Y-120274590D01*
X82006333Y-120274590D01*
X82053952Y-120298400D01*
X82077761Y-120322209D01*
X82101571Y-120369828D01*
X82101571Y-120441257D01*
X82077761Y-120488876D01*
X82053952Y-120512685D01*
X82006333Y-120536495D01*
X81815857Y-120536495D01*
X82577761Y-120774590D02*
X82292047Y-120774590D01*
X82434904Y-120774590D02*
X82434904Y-120274590D01*
X82387285Y-120346019D01*
X82339666Y-120393638D01*
X82292047Y-120417447D01*
X83006333Y-120441257D02*
X83006333Y-120774590D01*
X82887285Y-120250780D02*
X82768238Y-120607923D01*
X83077761Y-120607923D01*
%TO.C,R13*%
D11*
X78355180Y-123965100D02*
X78355180Y-124536528D01*
X78355180Y-124250814D02*
X77355180Y-124250814D01*
X77498038Y-124346052D01*
X77593276Y-124441290D01*
X77640895Y-124536528D01*
X77355180Y-123346052D02*
X77355180Y-123250814D01*
X77402800Y-123155576D01*
X77450419Y-123107957D01*
X77545657Y-123060338D01*
X77736133Y-123012719D01*
X77974228Y-123012719D01*
X78164704Y-123060338D01*
X78259942Y-123107957D01*
X78307561Y-123155576D01*
X78355180Y-123250814D01*
X78355180Y-123346052D01*
X78307561Y-123441290D01*
X78259942Y-123488909D01*
X78164704Y-123536528D01*
X77974228Y-123584147D01*
X77736133Y-123584147D01*
X77545657Y-123536528D01*
X77450419Y-123488909D01*
X77402800Y-123441290D01*
X77355180Y-123346052D01*
X77450419Y-122631766D02*
X77402800Y-122584147D01*
X77355180Y-122488909D01*
X77355180Y-122250814D01*
X77402800Y-122155576D01*
X77450419Y-122107957D01*
X77545657Y-122060338D01*
X77640895Y-122060338D01*
X77783752Y-122107957D01*
X78355180Y-122679385D01*
X78355180Y-122060338D01*
X78355180Y-121631766D02*
X77355180Y-121631766D01*
X77974228Y-121536528D02*
X78355180Y-121250814D01*
X77688514Y-121250814D02*
X78069466Y-121631766D01*
X78355180Y-119536528D02*
X78355180Y-120107957D01*
X78355180Y-119822242D02*
X77355180Y-119822242D01*
X77498038Y-119917480D01*
X77593276Y-120012719D01*
X77640895Y-120107957D01*
X78355180Y-119155576D02*
X77355180Y-118393671D01*
X77355180Y-119012719D02*
X77402800Y-118917480D01*
X77498038Y-118869861D01*
X77593276Y-118917480D01*
X77640895Y-119012719D01*
X77593276Y-119107957D01*
X77498038Y-119155576D01*
X77402800Y-119107957D01*
X77355180Y-119012719D01*
X78307561Y-118441290D02*
X78212323Y-118393671D01*
X78117085Y-118441290D01*
X78069466Y-118536528D01*
X78117085Y-118631766D01*
X78212323Y-118679385D01*
X78307561Y-118631766D01*
X78355180Y-118536528D01*
X78307561Y-118441290D01*
D14*
X79778990Y-121786528D02*
X79540895Y-121953195D01*
X79778990Y-122072242D02*
X79278990Y-122072242D01*
X79278990Y-121881766D01*
X79302800Y-121834147D01*
X79326609Y-121810338D01*
X79374228Y-121786528D01*
X79445657Y-121786528D01*
X79493276Y-121810338D01*
X79517085Y-121834147D01*
X79540895Y-121881766D01*
X79540895Y-122072242D01*
X79778990Y-121310338D02*
X79778990Y-121596052D01*
X79778990Y-121453195D02*
X79278990Y-121453195D01*
X79350419Y-121500814D01*
X79398038Y-121548433D01*
X79421847Y-121596052D01*
X79278990Y-121143671D02*
X79278990Y-120834147D01*
X79469466Y-121000814D01*
X79469466Y-120929385D01*
X79493276Y-120881766D01*
X79517085Y-120857957D01*
X79564704Y-120834147D01*
X79683752Y-120834147D01*
X79731371Y-120857957D01*
X79755180Y-120881766D01*
X79778990Y-120929385D01*
X79778990Y-121072242D01*
X79755180Y-121119861D01*
X79731371Y-121143671D01*
%TO.C,R12*%
D11*
X73538152Y-122079352D02*
X73442914Y-122031733D01*
X73395295Y-121984114D01*
X73347676Y-121888876D01*
X73347676Y-121841257D01*
X73395295Y-121746019D01*
X73442914Y-121698400D01*
X73538152Y-121650780D01*
X73728628Y-121650780D01*
X73823866Y-121698400D01*
X73871485Y-121746019D01*
X73919104Y-121841257D01*
X73919104Y-121888876D01*
X73871485Y-121984114D01*
X73823866Y-122031733D01*
X73728628Y-122079352D01*
X73538152Y-122079352D01*
X73442914Y-122126971D01*
X73395295Y-122174590D01*
X73347676Y-122269828D01*
X73347676Y-122460304D01*
X73395295Y-122555542D01*
X73442914Y-122603161D01*
X73538152Y-122650780D01*
X73728628Y-122650780D01*
X73823866Y-122603161D01*
X73871485Y-122555542D01*
X73919104Y-122460304D01*
X73919104Y-122269828D01*
X73871485Y-122174590D01*
X73823866Y-122126971D01*
X73728628Y-122079352D01*
X74347676Y-122555542D02*
X74395295Y-122603161D01*
X74347676Y-122650780D01*
X74300057Y-122603161D01*
X74347676Y-122555542D01*
X74347676Y-122650780D01*
X75252438Y-121984114D02*
X75252438Y-122650780D01*
X75014342Y-121603161D02*
X74776247Y-122317447D01*
X75395295Y-122317447D01*
X76252438Y-121650780D02*
X75776247Y-121650780D01*
X75728628Y-122126971D01*
X75776247Y-122079352D01*
X75871485Y-122031733D01*
X76109580Y-122031733D01*
X76204819Y-122079352D01*
X76252438Y-122126971D01*
X76300057Y-122222209D01*
X76300057Y-122460304D01*
X76252438Y-122555542D01*
X76204819Y-122603161D01*
X76109580Y-122650780D01*
X75871485Y-122650780D01*
X75776247Y-122603161D01*
X75728628Y-122555542D01*
X76728628Y-122650780D02*
X76728628Y-121650780D01*
X76823866Y-122269828D02*
X77109580Y-122650780D01*
X77109580Y-121984114D02*
X76728628Y-122365066D01*
X78823866Y-122650780D02*
X78252438Y-122650780D01*
X78538152Y-122650780D02*
X78538152Y-121650780D01*
X78442914Y-121793638D01*
X78347676Y-121888876D01*
X78252438Y-121936495D01*
X79204819Y-122650780D02*
X79966723Y-121650780D01*
X79347676Y-121650780D02*
X79442914Y-121698400D01*
X79490533Y-121793638D01*
X79442914Y-121888876D01*
X79347676Y-121936495D01*
X79252438Y-121888876D01*
X79204819Y-121793638D01*
X79252438Y-121698400D01*
X79347676Y-121650780D01*
X79919104Y-122603161D02*
X79966723Y-122507923D01*
X79919104Y-122412685D01*
X79823866Y-122365066D01*
X79728628Y-122412685D01*
X79681009Y-122507923D01*
X79728628Y-122603161D01*
X79823866Y-122650780D01*
X79919104Y-122603161D01*
D14*
X76335771Y-120774590D02*
X76169104Y-120536495D01*
X76050057Y-120774590D02*
X76050057Y-120274590D01*
X76240533Y-120274590D01*
X76288152Y-120298400D01*
X76311961Y-120322209D01*
X76335771Y-120369828D01*
X76335771Y-120441257D01*
X76311961Y-120488876D01*
X76288152Y-120512685D01*
X76240533Y-120536495D01*
X76050057Y-120536495D01*
X76811961Y-120774590D02*
X76526247Y-120774590D01*
X76669104Y-120774590D02*
X76669104Y-120274590D01*
X76621485Y-120346019D01*
X76573866Y-120393638D01*
X76526247Y-120417447D01*
X77002438Y-120322209D02*
X77026247Y-120298400D01*
X77073866Y-120274590D01*
X77192914Y-120274590D01*
X77240533Y-120298400D01*
X77264342Y-120322209D01*
X77288152Y-120369828D01*
X77288152Y-120417447D01*
X77264342Y-120488876D01*
X76978628Y-120774590D01*
X77288152Y-120774590D01*
%TO.C,R11*%
D11*
X59823504Y-129672819D02*
X59871123Y-129625200D01*
X59966361Y-129577580D01*
X60204457Y-129577580D01*
X60299695Y-129625200D01*
X60347314Y-129672819D01*
X60394933Y-129768057D01*
X60394933Y-129863295D01*
X60347314Y-130006152D01*
X59775885Y-130577580D01*
X60394933Y-130577580D01*
X60775885Y-129672819D02*
X60823504Y-129625200D01*
X60918742Y-129577580D01*
X61156838Y-129577580D01*
X61252076Y-129625200D01*
X61299695Y-129672819D01*
X61347314Y-129768057D01*
X61347314Y-129863295D01*
X61299695Y-130006152D01*
X60728266Y-130577580D01*
X61347314Y-130577580D01*
X61966361Y-129577580D02*
X62061600Y-129577580D01*
X62156838Y-129625200D01*
X62204457Y-129672819D01*
X62252076Y-129768057D01*
X62299695Y-129958533D01*
X62299695Y-130196628D01*
X62252076Y-130387104D01*
X62204457Y-130482342D01*
X62156838Y-130529961D01*
X62061600Y-130577580D01*
X61966361Y-130577580D01*
X61871123Y-130529961D01*
X61823504Y-130482342D01*
X61775885Y-130387104D01*
X61728266Y-130196628D01*
X61728266Y-129958533D01*
X61775885Y-129768057D01*
X61823504Y-129672819D01*
X61871123Y-129625200D01*
X61966361Y-129577580D01*
D14*
X60740171Y-132001390D02*
X60573504Y-131763295D01*
X60454457Y-132001390D02*
X60454457Y-131501390D01*
X60644933Y-131501390D01*
X60692552Y-131525200D01*
X60716361Y-131549009D01*
X60740171Y-131596628D01*
X60740171Y-131668057D01*
X60716361Y-131715676D01*
X60692552Y-131739485D01*
X60644933Y-131763295D01*
X60454457Y-131763295D01*
X61216361Y-132001390D02*
X60930647Y-132001390D01*
X61073504Y-132001390D02*
X61073504Y-131501390D01*
X61025885Y-131572819D01*
X60978266Y-131620438D01*
X60930647Y-131644247D01*
X61692552Y-132001390D02*
X61406838Y-132001390D01*
X61549695Y-132001390D02*
X61549695Y-131501390D01*
X61502076Y-131572819D01*
X61454457Y-131620438D01*
X61406838Y-131644247D01*
%TO.C,R10*%
D11*
X60433104Y-119817619D02*
X60480723Y-119770000D01*
X60575961Y-119722380D01*
X60814057Y-119722380D01*
X60909295Y-119770000D01*
X60956914Y-119817619D01*
X61004533Y-119912857D01*
X61004533Y-120008095D01*
X60956914Y-120150952D01*
X60385485Y-120722380D01*
X61004533Y-120722380D01*
X61385485Y-119817619D02*
X61433104Y-119770000D01*
X61528342Y-119722380D01*
X61766438Y-119722380D01*
X61861676Y-119770000D01*
X61909295Y-119817619D01*
X61956914Y-119912857D01*
X61956914Y-120008095D01*
X61909295Y-120150952D01*
X61337866Y-120722380D01*
X61956914Y-120722380D01*
X62575961Y-119722380D02*
X62671200Y-119722380D01*
X62766438Y-119770000D01*
X62814057Y-119817619D01*
X62861676Y-119912857D01*
X62909295Y-120103333D01*
X62909295Y-120341428D01*
X62861676Y-120531904D01*
X62814057Y-120627142D01*
X62766438Y-120674761D01*
X62671200Y-120722380D01*
X62575961Y-120722380D01*
X62480723Y-120674761D01*
X62433104Y-120627142D01*
X62385485Y-120531904D01*
X62337866Y-120341428D01*
X62337866Y-120103333D01*
X62385485Y-119912857D01*
X62433104Y-119817619D01*
X62480723Y-119770000D01*
X62575961Y-119722380D01*
D14*
X61349771Y-122146190D02*
X61183104Y-121908095D01*
X61064057Y-122146190D02*
X61064057Y-121646190D01*
X61254533Y-121646190D01*
X61302152Y-121670000D01*
X61325961Y-121693809D01*
X61349771Y-121741428D01*
X61349771Y-121812857D01*
X61325961Y-121860476D01*
X61302152Y-121884285D01*
X61254533Y-121908095D01*
X61064057Y-121908095D01*
X61825961Y-122146190D02*
X61540247Y-122146190D01*
X61683104Y-122146190D02*
X61683104Y-121646190D01*
X61635485Y-121717619D01*
X61587866Y-121765238D01*
X61540247Y-121789047D01*
X62135485Y-121646190D02*
X62183104Y-121646190D01*
X62230723Y-121670000D01*
X62254533Y-121693809D01*
X62278342Y-121741428D01*
X62302152Y-121836666D01*
X62302152Y-121955714D01*
X62278342Y-122050952D01*
X62254533Y-122098571D01*
X62230723Y-122122380D01*
X62183104Y-122146190D01*
X62135485Y-122146190D01*
X62087866Y-122122380D01*
X62064057Y-122098571D01*
X62040247Y-122050952D01*
X62016438Y-121955714D01*
X62016438Y-121836666D01*
X62040247Y-121741428D01*
X62064057Y-121693809D01*
X62087866Y-121670000D01*
X62135485Y-121646190D01*
%TO.C,R9*%
D11*
X60903380Y-129449438D02*
X60903380Y-130020866D01*
X60903380Y-129735152D02*
X59903380Y-129735152D01*
X60046238Y-129830390D01*
X60141476Y-129925628D01*
X60189095Y-130020866D01*
X59903380Y-128830390D02*
X59903380Y-128735152D01*
X59951000Y-128639914D01*
X59998619Y-128592295D01*
X60093857Y-128544676D01*
X60284333Y-128497057D01*
X60522428Y-128497057D01*
X60712904Y-128544676D01*
X60808142Y-128592295D01*
X60855761Y-128639914D01*
X60903380Y-128735152D01*
X60903380Y-128830390D01*
X60855761Y-128925628D01*
X60808142Y-128973247D01*
X60712904Y-129020866D01*
X60522428Y-129068485D01*
X60284333Y-129068485D01*
X60093857Y-129020866D01*
X59998619Y-128973247D01*
X59951000Y-128925628D01*
X59903380Y-128830390D01*
X60903380Y-128068485D02*
X59903380Y-128068485D01*
X60522428Y-127973247D02*
X60903380Y-127687533D01*
X60236714Y-127687533D02*
X60617666Y-128068485D01*
D14*
X59027190Y-128937533D02*
X58789095Y-129104200D01*
X59027190Y-129223247D02*
X58527190Y-129223247D01*
X58527190Y-129032771D01*
X58551000Y-128985152D01*
X58574809Y-128961342D01*
X58622428Y-128937533D01*
X58693857Y-128937533D01*
X58741476Y-128961342D01*
X58765285Y-128985152D01*
X58789095Y-129032771D01*
X58789095Y-129223247D01*
X59027190Y-128699438D02*
X59027190Y-128604200D01*
X59003380Y-128556580D01*
X58979571Y-128532771D01*
X58908142Y-128485152D01*
X58812904Y-128461342D01*
X58622428Y-128461342D01*
X58574809Y-128485152D01*
X58551000Y-128508961D01*
X58527190Y-128556580D01*
X58527190Y-128651819D01*
X58551000Y-128699438D01*
X58574809Y-128723247D01*
X58622428Y-128747057D01*
X58741476Y-128747057D01*
X58789095Y-128723247D01*
X58812904Y-128699438D01*
X58836714Y-128651819D01*
X58836714Y-128556580D01*
X58812904Y-128508961D01*
X58789095Y-128485152D01*
X58741476Y-128461342D01*
%TO.C,R8*%
D11*
X57603380Y-125868038D02*
X57603380Y-126439466D01*
X57603380Y-126153752D02*
X56603380Y-126153752D01*
X56746238Y-126248990D01*
X56841476Y-126344228D01*
X56889095Y-126439466D01*
X56603380Y-125248990D02*
X56603380Y-125153752D01*
X56651000Y-125058514D01*
X56698619Y-125010895D01*
X56793857Y-124963276D01*
X56984333Y-124915657D01*
X57222428Y-124915657D01*
X57412904Y-124963276D01*
X57508142Y-125010895D01*
X57555761Y-125058514D01*
X57603380Y-125153752D01*
X57603380Y-125248990D01*
X57555761Y-125344228D01*
X57508142Y-125391847D01*
X57412904Y-125439466D01*
X57222428Y-125487085D01*
X56984333Y-125487085D01*
X56793857Y-125439466D01*
X56698619Y-125391847D01*
X56651000Y-125344228D01*
X56603380Y-125248990D01*
X57603380Y-124487085D02*
X56603380Y-124487085D01*
X57222428Y-124391847D02*
X57603380Y-124106133D01*
X56936714Y-124106133D02*
X57317666Y-124487085D01*
D14*
X59027190Y-125356133D02*
X58789095Y-125522800D01*
X59027190Y-125641847D02*
X58527190Y-125641847D01*
X58527190Y-125451371D01*
X58551000Y-125403752D01*
X58574809Y-125379942D01*
X58622428Y-125356133D01*
X58693857Y-125356133D01*
X58741476Y-125379942D01*
X58765285Y-125403752D01*
X58789095Y-125451371D01*
X58789095Y-125641847D01*
X58741476Y-125070419D02*
X58717666Y-125118038D01*
X58693857Y-125141847D01*
X58646238Y-125165657D01*
X58622428Y-125165657D01*
X58574809Y-125141847D01*
X58551000Y-125118038D01*
X58527190Y-125070419D01*
X58527190Y-124975180D01*
X58551000Y-124927561D01*
X58574809Y-124903752D01*
X58622428Y-124879942D01*
X58646238Y-124879942D01*
X58693857Y-124903752D01*
X58717666Y-124927561D01*
X58741476Y-124975180D01*
X58741476Y-125070419D01*
X58765285Y-125118038D01*
X58789095Y-125141847D01*
X58836714Y-125165657D01*
X58931952Y-125165657D01*
X58979571Y-125141847D01*
X59003380Y-125118038D01*
X59027190Y-125070419D01*
X59027190Y-124975180D01*
X59003380Y-124927561D01*
X58979571Y-124903752D01*
X58931952Y-124879942D01*
X58836714Y-124879942D01*
X58789095Y-124903752D01*
X58765285Y-124927561D01*
X58741476Y-124975180D01*
%TO.C,R7*%
D11*
X90497823Y-136157314D02*
X90497823Y-136823980D01*
X90259728Y-135776361D02*
X90021633Y-136490647D01*
X90640680Y-136490647D01*
X90926395Y-135823980D02*
X91593061Y-135823980D01*
X91164490Y-136823980D01*
X91974014Y-136823980D02*
X91974014Y-135823980D01*
X92069252Y-136443028D02*
X92354966Y-136823980D01*
X92354966Y-136157314D02*
X91974014Y-136538266D01*
D14*
X91104966Y-134947790D02*
X90938300Y-134709695D01*
X90819252Y-134947790D02*
X90819252Y-134447790D01*
X91009728Y-134447790D01*
X91057347Y-134471600D01*
X91081157Y-134495409D01*
X91104966Y-134543028D01*
X91104966Y-134614457D01*
X91081157Y-134662076D01*
X91057347Y-134685885D01*
X91009728Y-134709695D01*
X90819252Y-134709695D01*
X91271633Y-134447790D02*
X91604966Y-134447790D01*
X91390680Y-134947790D01*
%TO.C,R6*%
D11*
X90413914Y-132567276D02*
X91080580Y-132567276D01*
X90032961Y-132805371D02*
X90747247Y-133043466D01*
X90747247Y-132424419D01*
X90080580Y-132138704D02*
X90080580Y-131472038D01*
X91080580Y-131900609D01*
X91080580Y-131091085D02*
X90080580Y-131091085D01*
X90699628Y-130995847D02*
X91080580Y-130710133D01*
X90413914Y-130710133D02*
X90794866Y-131091085D01*
D14*
X92504390Y-131960133D02*
X92266295Y-132126800D01*
X92504390Y-132245847D02*
X92004390Y-132245847D01*
X92004390Y-132055371D01*
X92028200Y-132007752D01*
X92052009Y-131983942D01*
X92099628Y-131960133D01*
X92171057Y-131960133D01*
X92218676Y-131983942D01*
X92242485Y-132007752D01*
X92266295Y-132055371D01*
X92266295Y-132245847D01*
X92004390Y-131531561D02*
X92004390Y-131626800D01*
X92028200Y-131674419D01*
X92052009Y-131698228D01*
X92123438Y-131745847D01*
X92218676Y-131769657D01*
X92409152Y-131769657D01*
X92456771Y-131745847D01*
X92480580Y-131722038D01*
X92504390Y-131674419D01*
X92504390Y-131579180D01*
X92480580Y-131531561D01*
X92456771Y-131507752D01*
X92409152Y-131483942D01*
X92290104Y-131483942D01*
X92242485Y-131507752D01*
X92218676Y-131531561D01*
X92194866Y-131579180D01*
X92194866Y-131674419D01*
X92218676Y-131722038D01*
X92242485Y-131745847D01*
X92290104Y-131769657D01*
%TO.C,R5*%
D11*
X86939523Y-134127314D02*
X86939523Y-134793980D01*
X86701428Y-133746361D02*
X86463333Y-134460647D01*
X87082380Y-134460647D01*
X87368095Y-133793980D02*
X88034761Y-133793980D01*
X87606190Y-134793980D01*
X88415714Y-134793980D02*
X88415714Y-133793980D01*
X88510952Y-134413028D02*
X88796666Y-134793980D01*
X88796666Y-134127314D02*
X88415714Y-134508266D01*
D14*
X87546666Y-136217790D02*
X87380000Y-135979695D01*
X87260952Y-136217790D02*
X87260952Y-135717790D01*
X87451428Y-135717790D01*
X87499047Y-135741600D01*
X87522857Y-135765409D01*
X87546666Y-135813028D01*
X87546666Y-135884457D01*
X87522857Y-135932076D01*
X87499047Y-135955885D01*
X87451428Y-135979695D01*
X87260952Y-135979695D01*
X87999047Y-135717790D02*
X87760952Y-135717790D01*
X87737142Y-135955885D01*
X87760952Y-135932076D01*
X87808571Y-135908266D01*
X87927619Y-135908266D01*
X87975238Y-135932076D01*
X87999047Y-135955885D01*
X88022857Y-136003504D01*
X88022857Y-136122552D01*
X87999047Y-136170171D01*
X87975238Y-136193980D01*
X87927619Y-136217790D01*
X87808571Y-136217790D01*
X87760952Y-136193980D01*
X87737142Y-136170171D01*
%TO.C,R4*%
D11*
X81953714Y-135208876D02*
X82620380Y-135208876D01*
X81572761Y-135446971D02*
X82287047Y-135685066D01*
X82287047Y-135066019D01*
X81620380Y-134780304D02*
X81620380Y-134113638D01*
X82620380Y-134542209D01*
X82620380Y-133732685D02*
X81620380Y-133732685D01*
X82239428Y-133637447D02*
X82620380Y-133351733D01*
X81953714Y-133351733D02*
X82334666Y-133732685D01*
D14*
X80744190Y-134601733D02*
X80506095Y-134768400D01*
X80744190Y-134887447D02*
X80244190Y-134887447D01*
X80244190Y-134696971D01*
X80268000Y-134649352D01*
X80291809Y-134625542D01*
X80339428Y-134601733D01*
X80410857Y-134601733D01*
X80458476Y-134625542D01*
X80482285Y-134649352D01*
X80506095Y-134696971D01*
X80506095Y-134887447D01*
X80410857Y-134173161D02*
X80744190Y-134173161D01*
X80220380Y-134292209D02*
X80577523Y-134411257D01*
X80577523Y-134101733D01*
%TO.C,R3*%
D11*
X79947114Y-133532476D02*
X80613780Y-133532476D01*
X79566161Y-133770571D02*
X80280447Y-134008666D01*
X80280447Y-133389619D01*
X79613780Y-133103904D02*
X79613780Y-132437238D01*
X80613780Y-132865809D01*
X80613780Y-132056285D02*
X79613780Y-132056285D01*
X80232828Y-131961047D02*
X80613780Y-131675333D01*
X79947114Y-131675333D02*
X80328066Y-132056285D01*
D14*
X78737590Y-132925333D02*
X78499495Y-133092000D01*
X78737590Y-133211047D02*
X78237590Y-133211047D01*
X78237590Y-133020571D01*
X78261400Y-132972952D01*
X78285209Y-132949142D01*
X78332828Y-132925333D01*
X78404257Y-132925333D01*
X78451876Y-132949142D01*
X78475685Y-132972952D01*
X78499495Y-133020571D01*
X78499495Y-133211047D01*
X78237590Y-132758666D02*
X78237590Y-132449142D01*
X78428066Y-132615809D01*
X78428066Y-132544380D01*
X78451876Y-132496761D01*
X78475685Y-132472952D01*
X78523304Y-132449142D01*
X78642352Y-132449142D01*
X78689971Y-132472952D01*
X78713780Y-132496761D01*
X78737590Y-132544380D01*
X78737590Y-132687238D01*
X78713780Y-132734857D01*
X78689971Y-132758666D01*
%TO.C,R2*%
D11*
X77061223Y-137681314D02*
X77061223Y-138347980D01*
X76823128Y-137300361D02*
X76585033Y-138014647D01*
X77204080Y-138014647D01*
X77489795Y-137347980D02*
X78156461Y-137347980D01*
X77727890Y-138347980D01*
X78537414Y-138347980D02*
X78537414Y-137347980D01*
X78632652Y-137967028D02*
X78918366Y-138347980D01*
X78918366Y-137681314D02*
X78537414Y-138062266D01*
D14*
X77668366Y-136471790D02*
X77501700Y-136233695D01*
X77382652Y-136471790D02*
X77382652Y-135971790D01*
X77573128Y-135971790D01*
X77620747Y-135995600D01*
X77644557Y-136019409D01*
X77668366Y-136067028D01*
X77668366Y-136138457D01*
X77644557Y-136186076D01*
X77620747Y-136209885D01*
X77573128Y-136233695D01*
X77382652Y-136233695D01*
X77858842Y-136019409D02*
X77882652Y-135995600D01*
X77930271Y-135971790D01*
X78049319Y-135971790D01*
X78096938Y-135995600D01*
X78120747Y-136019409D01*
X78144557Y-136067028D01*
X78144557Y-136114647D01*
X78120747Y-136186076D01*
X77835033Y-136471790D01*
X78144557Y-136471790D01*
%TO.C,R1*%
D11*
X124049780Y-102715819D02*
X124049780Y-103287247D01*
X124049780Y-103001533D02*
X123049780Y-103001533D01*
X123192638Y-103096771D01*
X123287876Y-103192009D01*
X123335495Y-103287247D01*
X124049780Y-102287247D02*
X123049780Y-102287247D01*
X123668828Y-102192009D02*
X124049780Y-101906295D01*
X123383114Y-101906295D02*
X123764066Y-102287247D01*
X124049780Y-100192009D02*
X124049780Y-100763438D01*
X124049780Y-100477723D02*
X123049780Y-100477723D01*
X123192638Y-100572961D01*
X123287876Y-100668200D01*
X123335495Y-100763438D01*
X124049780Y-99811057D02*
X123049780Y-99049152D01*
X123049780Y-99668200D02*
X123097400Y-99572961D01*
X123192638Y-99525342D01*
X123287876Y-99572961D01*
X123335495Y-99668200D01*
X123287876Y-99763438D01*
X123192638Y-99811057D01*
X123097400Y-99763438D01*
X123049780Y-99668200D01*
X124002161Y-99096771D02*
X123906923Y-99049152D01*
X123811685Y-99096771D01*
X123764066Y-99192009D01*
X123811685Y-99287247D01*
X123906923Y-99334866D01*
X124002161Y-99287247D01*
X124049780Y-99192009D01*
X124002161Y-99096771D01*
D14*
X125473590Y-101251533D02*
X125235495Y-101418200D01*
X125473590Y-101537247D02*
X124973590Y-101537247D01*
X124973590Y-101346771D01*
X124997400Y-101299152D01*
X125021209Y-101275342D01*
X125068828Y-101251533D01*
X125140257Y-101251533D01*
X125187876Y-101275342D01*
X125211685Y-101299152D01*
X125235495Y-101346771D01*
X125235495Y-101537247D01*
X125473590Y-100775342D02*
X125473590Y-101061057D01*
X125473590Y-100918200D02*
X124973590Y-100918200D01*
X125045019Y-100965819D01*
X125092638Y-101013438D01*
X125116447Y-101061057D01*
%TO.C,JP4*%
D11*
X100506971Y-133330780D02*
X100506971Y-134045066D01*
X100459352Y-134187923D01*
X100364114Y-134283161D01*
X100221257Y-134330780D01*
X100126019Y-134330780D01*
X101411733Y-133664114D02*
X101411733Y-134330780D01*
X100983161Y-133664114D02*
X100983161Y-134187923D01*
X101030780Y-134283161D01*
X101126019Y-134330780D01*
X101268876Y-134330780D01*
X101364114Y-134283161D01*
X101411733Y-134235542D01*
X101887923Y-134330780D02*
X101887923Y-133664114D01*
X101887923Y-133759352D02*
X101935542Y-133711733D01*
X102030780Y-133664114D01*
X102173638Y-133664114D01*
X102268876Y-133711733D01*
X102316495Y-133806971D01*
X102316495Y-134330780D01*
X102316495Y-133806971D02*
X102364114Y-133711733D01*
X102459352Y-133664114D01*
X102602209Y-133664114D01*
X102697447Y-133711733D01*
X102745066Y-133806971D01*
X102745066Y-134330780D01*
X103221257Y-133664114D02*
X103221257Y-134664114D01*
X103221257Y-133711733D02*
X103316495Y-133664114D01*
X103506971Y-133664114D01*
X103602209Y-133711733D01*
X103649828Y-133759352D01*
X103697447Y-133854590D01*
X103697447Y-134140304D01*
X103649828Y-134235542D01*
X103602209Y-134283161D01*
X103506971Y-134330780D01*
X103316495Y-134330780D01*
X103221257Y-134283161D01*
X104506971Y-134283161D02*
X104411733Y-134330780D01*
X104221257Y-134330780D01*
X104126019Y-134283161D01*
X104078400Y-134187923D01*
X104078400Y-133806971D01*
X104126019Y-133711733D01*
X104221257Y-133664114D01*
X104411733Y-133664114D01*
X104506971Y-133711733D01*
X104554590Y-133806971D01*
X104554590Y-133902209D01*
X104078400Y-133997447D01*
X104983161Y-134330780D02*
X104983161Y-133664114D01*
X104983161Y-133854590D02*
X105030780Y-133759352D01*
X105078400Y-133711733D01*
X105173638Y-133664114D01*
X105268876Y-133664114D01*
X105364114Y-134426019D02*
X106126019Y-134426019D01*
X106364114Y-134330780D02*
X106364114Y-133330780D01*
X106935542Y-134330780D01*
X106935542Y-133330780D01*
X107983161Y-134235542D02*
X107935542Y-134283161D01*
X107792685Y-134330780D01*
X107697447Y-134330780D01*
X107554590Y-134283161D01*
X107459352Y-134187923D01*
X107411733Y-134092685D01*
X107364114Y-133902209D01*
X107364114Y-133759352D01*
X107411733Y-133568876D01*
X107459352Y-133473638D01*
X107554590Y-133378400D01*
X107697447Y-133330780D01*
X107792685Y-133330780D01*
X107935542Y-133378400D01*
X107983161Y-133426019D01*
X108173638Y-134426019D02*
X108935542Y-134426019D01*
X109126019Y-134283161D02*
X109268876Y-134330780D01*
X109506971Y-134330780D01*
X109602209Y-134283161D01*
X109649828Y-134235542D01*
X109697447Y-134140304D01*
X109697447Y-134045066D01*
X109649828Y-133949828D01*
X109602209Y-133902209D01*
X109506971Y-133854590D01*
X109316495Y-133806971D01*
X109221257Y-133759352D01*
X109173638Y-133711733D01*
X109126019Y-133616495D01*
X109126019Y-133521257D01*
X109173638Y-133426019D01*
X109221257Y-133378400D01*
X109316495Y-133330780D01*
X109554590Y-133330780D01*
X109697447Y-133378400D01*
X110126019Y-134330780D02*
X110126019Y-133664114D01*
X110126019Y-133759352D02*
X110173638Y-133711733D01*
X110268876Y-133664114D01*
X110411733Y-133664114D01*
X110506971Y-133711733D01*
X110554590Y-133806971D01*
X110554590Y-134330780D01*
X110554590Y-133806971D02*
X110602209Y-133711733D01*
X110697447Y-133664114D01*
X110840304Y-133664114D01*
X110935542Y-133711733D01*
X110983161Y-133806971D01*
X110983161Y-134330780D01*
X111887923Y-134330780D02*
X111887923Y-133806971D01*
X111840304Y-133711733D01*
X111745066Y-133664114D01*
X111554590Y-133664114D01*
X111459352Y-133711733D01*
X111887923Y-134283161D02*
X111792685Y-134330780D01*
X111554590Y-134330780D01*
X111459352Y-134283161D01*
X111411733Y-134187923D01*
X111411733Y-134092685D01*
X111459352Y-133997447D01*
X111554590Y-133949828D01*
X111792685Y-133949828D01*
X111887923Y-133902209D01*
X112506971Y-134330780D02*
X112411733Y-134283161D01*
X112364114Y-134187923D01*
X112364114Y-133330780D01*
X113030780Y-134330780D02*
X112935542Y-134283161D01*
X112887923Y-134187923D01*
X112887923Y-133330780D01*
%TO.C,JP3*%
X100521971Y-129571580D02*
X100521971Y-130285866D01*
X100474352Y-130428723D01*
X100379114Y-130523961D01*
X100236257Y-130571580D01*
X100141019Y-130571580D01*
X101426733Y-129904914D02*
X101426733Y-130571580D01*
X100998161Y-129904914D02*
X100998161Y-130428723D01*
X101045780Y-130523961D01*
X101141019Y-130571580D01*
X101283876Y-130571580D01*
X101379114Y-130523961D01*
X101426733Y-130476342D01*
X101902923Y-130571580D02*
X101902923Y-129904914D01*
X101902923Y-130000152D02*
X101950542Y-129952533D01*
X102045780Y-129904914D01*
X102188638Y-129904914D01*
X102283876Y-129952533D01*
X102331495Y-130047771D01*
X102331495Y-130571580D01*
X102331495Y-130047771D02*
X102379114Y-129952533D01*
X102474352Y-129904914D01*
X102617209Y-129904914D01*
X102712447Y-129952533D01*
X102760066Y-130047771D01*
X102760066Y-130571580D01*
X103236257Y-129904914D02*
X103236257Y-130904914D01*
X103236257Y-129952533D02*
X103331495Y-129904914D01*
X103521971Y-129904914D01*
X103617209Y-129952533D01*
X103664828Y-130000152D01*
X103712447Y-130095390D01*
X103712447Y-130381104D01*
X103664828Y-130476342D01*
X103617209Y-130523961D01*
X103521971Y-130571580D01*
X103331495Y-130571580D01*
X103236257Y-130523961D01*
X104521971Y-130523961D02*
X104426733Y-130571580D01*
X104236257Y-130571580D01*
X104141019Y-130523961D01*
X104093400Y-130428723D01*
X104093400Y-130047771D01*
X104141019Y-129952533D01*
X104236257Y-129904914D01*
X104426733Y-129904914D01*
X104521971Y-129952533D01*
X104569590Y-130047771D01*
X104569590Y-130143009D01*
X104093400Y-130238247D01*
X104998161Y-130571580D02*
X104998161Y-129904914D01*
X104998161Y-130095390D02*
X105045780Y-130000152D01*
X105093400Y-129952533D01*
X105188638Y-129904914D01*
X105283876Y-129904914D01*
X105379114Y-130666819D02*
X106141019Y-130666819D01*
X106379114Y-130571580D02*
X106379114Y-129571580D01*
X106950542Y-130571580D01*
X106950542Y-129571580D01*
X107998161Y-130476342D02*
X107950542Y-130523961D01*
X107807685Y-130571580D01*
X107712447Y-130571580D01*
X107569590Y-130523961D01*
X107474352Y-130428723D01*
X107426733Y-130333485D01*
X107379114Y-130143009D01*
X107379114Y-130000152D01*
X107426733Y-129809676D01*
X107474352Y-129714438D01*
X107569590Y-129619200D01*
X107712447Y-129571580D01*
X107807685Y-129571580D01*
X107950542Y-129619200D01*
X107998161Y-129666819D01*
X108188638Y-130666819D02*
X108950542Y-130666819D01*
X109141019Y-130523961D02*
X109283876Y-130571580D01*
X109521971Y-130571580D01*
X109617209Y-130523961D01*
X109664828Y-130476342D01*
X109712447Y-130381104D01*
X109712447Y-130285866D01*
X109664828Y-130190628D01*
X109617209Y-130143009D01*
X109521971Y-130095390D01*
X109331495Y-130047771D01*
X109236257Y-130000152D01*
X109188638Y-129952533D01*
X109141019Y-129857295D01*
X109141019Y-129762057D01*
X109188638Y-129666819D01*
X109236257Y-129619200D01*
X109331495Y-129571580D01*
X109569590Y-129571580D01*
X109712447Y-129619200D01*
X110141019Y-130571580D02*
X110141019Y-129904914D01*
X110141019Y-130000152D02*
X110188638Y-129952533D01*
X110283876Y-129904914D01*
X110426733Y-129904914D01*
X110521971Y-129952533D01*
X110569590Y-130047771D01*
X110569590Y-130571580D01*
X110569590Y-130047771D02*
X110617209Y-129952533D01*
X110712447Y-129904914D01*
X110855304Y-129904914D01*
X110950542Y-129952533D01*
X110998161Y-130047771D01*
X110998161Y-130571580D01*
X111902923Y-130571580D02*
X111902923Y-130047771D01*
X111855304Y-129952533D01*
X111760066Y-129904914D01*
X111569590Y-129904914D01*
X111474352Y-129952533D01*
X111902923Y-130523961D02*
X111807685Y-130571580D01*
X111569590Y-130571580D01*
X111474352Y-130523961D01*
X111426733Y-130428723D01*
X111426733Y-130333485D01*
X111474352Y-130238247D01*
X111569590Y-130190628D01*
X111807685Y-130190628D01*
X111902923Y-130143009D01*
X112521971Y-130571580D02*
X112426733Y-130523961D01*
X112379114Y-130428723D01*
X112379114Y-129571580D01*
X113045780Y-130571580D02*
X112950542Y-130523961D01*
X112902923Y-130428723D01*
X112902923Y-129571580D01*
%TO.C,JP2*%
X98820171Y-111080380D02*
X98820171Y-111794666D01*
X98772552Y-111937523D01*
X98677314Y-112032761D01*
X98534457Y-112080380D01*
X98439219Y-112080380D01*
X99724933Y-111413714D02*
X99724933Y-112080380D01*
X99296361Y-111413714D02*
X99296361Y-111937523D01*
X99343980Y-112032761D01*
X99439219Y-112080380D01*
X99582076Y-112080380D01*
X99677314Y-112032761D01*
X99724933Y-111985142D01*
X100201123Y-112080380D02*
X100201123Y-111413714D01*
X100201123Y-111508952D02*
X100248742Y-111461333D01*
X100343980Y-111413714D01*
X100486838Y-111413714D01*
X100582076Y-111461333D01*
X100629695Y-111556571D01*
X100629695Y-112080380D01*
X100629695Y-111556571D02*
X100677314Y-111461333D01*
X100772552Y-111413714D01*
X100915409Y-111413714D01*
X101010647Y-111461333D01*
X101058266Y-111556571D01*
X101058266Y-112080380D01*
X101534457Y-111413714D02*
X101534457Y-112413714D01*
X101534457Y-111461333D02*
X101629695Y-111413714D01*
X101820171Y-111413714D01*
X101915409Y-111461333D01*
X101963028Y-111508952D01*
X102010647Y-111604190D01*
X102010647Y-111889904D01*
X101963028Y-111985142D01*
X101915409Y-112032761D01*
X101820171Y-112080380D01*
X101629695Y-112080380D01*
X101534457Y-112032761D01*
X102820171Y-112032761D02*
X102724933Y-112080380D01*
X102534457Y-112080380D01*
X102439219Y-112032761D01*
X102391600Y-111937523D01*
X102391600Y-111556571D01*
X102439219Y-111461333D01*
X102534457Y-111413714D01*
X102724933Y-111413714D01*
X102820171Y-111461333D01*
X102867790Y-111556571D01*
X102867790Y-111651809D01*
X102391600Y-111747047D01*
X103296361Y-112080380D02*
X103296361Y-111413714D01*
X103296361Y-111604190D02*
X103343980Y-111508952D01*
X103391600Y-111461333D01*
X103486838Y-111413714D01*
X103582076Y-111413714D01*
X103677314Y-112175619D02*
X104439219Y-112175619D01*
X104677314Y-112080380D02*
X104677314Y-111080380D01*
X105248742Y-112080380D01*
X105248742Y-111080380D01*
X106296361Y-111985142D02*
X106248742Y-112032761D01*
X106105885Y-112080380D01*
X106010647Y-112080380D01*
X105867790Y-112032761D01*
X105772552Y-111937523D01*
X105724933Y-111842285D01*
X105677314Y-111651809D01*
X105677314Y-111508952D01*
X105724933Y-111318476D01*
X105772552Y-111223238D01*
X105867790Y-111128000D01*
X106010647Y-111080380D01*
X106105885Y-111080380D01*
X106248742Y-111128000D01*
X106296361Y-111175619D01*
X106486838Y-112175619D02*
X107248742Y-112175619D01*
X107439219Y-112032761D02*
X107582076Y-112080380D01*
X107820171Y-112080380D01*
X107915409Y-112032761D01*
X107963028Y-111985142D01*
X108010647Y-111889904D01*
X108010647Y-111794666D01*
X107963028Y-111699428D01*
X107915409Y-111651809D01*
X107820171Y-111604190D01*
X107629695Y-111556571D01*
X107534457Y-111508952D01*
X107486838Y-111461333D01*
X107439219Y-111366095D01*
X107439219Y-111270857D01*
X107486838Y-111175619D01*
X107534457Y-111128000D01*
X107629695Y-111080380D01*
X107867790Y-111080380D01*
X108010647Y-111128000D01*
X108439219Y-112080380D02*
X108439219Y-111413714D01*
X108439219Y-111508952D02*
X108486838Y-111461333D01*
X108582076Y-111413714D01*
X108724933Y-111413714D01*
X108820171Y-111461333D01*
X108867790Y-111556571D01*
X108867790Y-112080380D01*
X108867790Y-111556571D02*
X108915409Y-111461333D01*
X109010647Y-111413714D01*
X109153504Y-111413714D01*
X109248742Y-111461333D01*
X109296361Y-111556571D01*
X109296361Y-112080380D01*
X110201123Y-112080380D02*
X110201123Y-111556571D01*
X110153504Y-111461333D01*
X110058266Y-111413714D01*
X109867790Y-111413714D01*
X109772552Y-111461333D01*
X110201123Y-112032761D02*
X110105885Y-112080380D01*
X109867790Y-112080380D01*
X109772552Y-112032761D01*
X109724933Y-111937523D01*
X109724933Y-111842285D01*
X109772552Y-111747047D01*
X109867790Y-111699428D01*
X110105885Y-111699428D01*
X110201123Y-111651809D01*
X110820171Y-112080380D02*
X110724933Y-112032761D01*
X110677314Y-111937523D01*
X110677314Y-111080380D01*
X111343980Y-112080380D02*
X111248742Y-112032761D01*
X111201123Y-111937523D01*
X111201123Y-111080380D01*
%TO.C,JP1*%
X98805171Y-108184780D02*
X98805171Y-108899066D01*
X98757552Y-109041923D01*
X98662314Y-109137161D01*
X98519457Y-109184780D01*
X98424219Y-109184780D01*
X99709933Y-108518114D02*
X99709933Y-109184780D01*
X99281361Y-108518114D02*
X99281361Y-109041923D01*
X99328980Y-109137161D01*
X99424219Y-109184780D01*
X99567076Y-109184780D01*
X99662314Y-109137161D01*
X99709933Y-109089542D01*
X100186123Y-109184780D02*
X100186123Y-108518114D01*
X100186123Y-108613352D02*
X100233742Y-108565733D01*
X100328980Y-108518114D01*
X100471838Y-108518114D01*
X100567076Y-108565733D01*
X100614695Y-108660971D01*
X100614695Y-109184780D01*
X100614695Y-108660971D02*
X100662314Y-108565733D01*
X100757552Y-108518114D01*
X100900409Y-108518114D01*
X100995647Y-108565733D01*
X101043266Y-108660971D01*
X101043266Y-109184780D01*
X101519457Y-108518114D02*
X101519457Y-109518114D01*
X101519457Y-108565733D02*
X101614695Y-108518114D01*
X101805171Y-108518114D01*
X101900409Y-108565733D01*
X101948028Y-108613352D01*
X101995647Y-108708590D01*
X101995647Y-108994304D01*
X101948028Y-109089542D01*
X101900409Y-109137161D01*
X101805171Y-109184780D01*
X101614695Y-109184780D01*
X101519457Y-109137161D01*
X102805171Y-109137161D02*
X102709933Y-109184780D01*
X102519457Y-109184780D01*
X102424219Y-109137161D01*
X102376600Y-109041923D01*
X102376600Y-108660971D01*
X102424219Y-108565733D01*
X102519457Y-108518114D01*
X102709933Y-108518114D01*
X102805171Y-108565733D01*
X102852790Y-108660971D01*
X102852790Y-108756209D01*
X102376600Y-108851447D01*
X103281361Y-109184780D02*
X103281361Y-108518114D01*
X103281361Y-108708590D02*
X103328980Y-108613352D01*
X103376600Y-108565733D01*
X103471838Y-108518114D01*
X103567076Y-108518114D01*
X103662314Y-109280019D02*
X104424219Y-109280019D01*
X104662314Y-109184780D02*
X104662314Y-108184780D01*
X105233742Y-109184780D01*
X105233742Y-108184780D01*
X106281361Y-109089542D02*
X106233742Y-109137161D01*
X106090885Y-109184780D01*
X105995647Y-109184780D01*
X105852790Y-109137161D01*
X105757552Y-109041923D01*
X105709933Y-108946685D01*
X105662314Y-108756209D01*
X105662314Y-108613352D01*
X105709933Y-108422876D01*
X105757552Y-108327638D01*
X105852790Y-108232400D01*
X105995647Y-108184780D01*
X106090885Y-108184780D01*
X106233742Y-108232400D01*
X106281361Y-108280019D01*
X106471838Y-109280019D02*
X107233742Y-109280019D01*
X107424219Y-109137161D02*
X107567076Y-109184780D01*
X107805171Y-109184780D01*
X107900409Y-109137161D01*
X107948028Y-109089542D01*
X107995647Y-108994304D01*
X107995647Y-108899066D01*
X107948028Y-108803828D01*
X107900409Y-108756209D01*
X107805171Y-108708590D01*
X107614695Y-108660971D01*
X107519457Y-108613352D01*
X107471838Y-108565733D01*
X107424219Y-108470495D01*
X107424219Y-108375257D01*
X107471838Y-108280019D01*
X107519457Y-108232400D01*
X107614695Y-108184780D01*
X107852790Y-108184780D01*
X107995647Y-108232400D01*
X108424219Y-109184780D02*
X108424219Y-108518114D01*
X108424219Y-108613352D02*
X108471838Y-108565733D01*
X108567076Y-108518114D01*
X108709933Y-108518114D01*
X108805171Y-108565733D01*
X108852790Y-108660971D01*
X108852790Y-109184780D01*
X108852790Y-108660971D02*
X108900409Y-108565733D01*
X108995647Y-108518114D01*
X109138504Y-108518114D01*
X109233742Y-108565733D01*
X109281361Y-108660971D01*
X109281361Y-109184780D01*
X110186123Y-109184780D02*
X110186123Y-108660971D01*
X110138504Y-108565733D01*
X110043266Y-108518114D01*
X109852790Y-108518114D01*
X109757552Y-108565733D01*
X110186123Y-109137161D02*
X110090885Y-109184780D01*
X109852790Y-109184780D01*
X109757552Y-109137161D01*
X109709933Y-109041923D01*
X109709933Y-108946685D01*
X109757552Y-108851447D01*
X109852790Y-108803828D01*
X110090885Y-108803828D01*
X110186123Y-108756209D01*
X110805171Y-109184780D02*
X110709933Y-109137161D01*
X110662314Y-109041923D01*
X110662314Y-108184780D01*
X111328980Y-109184780D02*
X111233742Y-109137161D01*
X111186123Y-109041923D01*
X111186123Y-108184780D01*
%TO.C,J7*%
X53234104Y-119172742D02*
X53186485Y-119220361D01*
X53043628Y-119267980D01*
X52948390Y-119267980D01*
X52805533Y-119220361D01*
X52710295Y-119125123D01*
X52662676Y-119029885D01*
X52615057Y-118839409D01*
X52615057Y-118696552D01*
X52662676Y-118506076D01*
X52710295Y-118410838D01*
X52805533Y-118315600D01*
X52948390Y-118267980D01*
X53043628Y-118267980D01*
X53186485Y-118315600D01*
X53234104Y-118363219D01*
X53805533Y-119267980D02*
X53710295Y-119220361D01*
X53662676Y-119172742D01*
X53615057Y-119077504D01*
X53615057Y-118791790D01*
X53662676Y-118696552D01*
X53710295Y-118648933D01*
X53805533Y-118601314D01*
X53948390Y-118601314D01*
X54043628Y-118648933D01*
X54091247Y-118696552D01*
X54138866Y-118791790D01*
X54138866Y-119077504D01*
X54091247Y-119172742D01*
X54043628Y-119220361D01*
X53948390Y-119267980D01*
X53805533Y-119267980D01*
X54567438Y-118601314D02*
X54567438Y-119267980D01*
X54567438Y-118696552D02*
X54615057Y-118648933D01*
X54710295Y-118601314D01*
X54853152Y-118601314D01*
X54948390Y-118648933D01*
X54996009Y-118744171D01*
X54996009Y-119267980D01*
X55472200Y-118601314D02*
X55472200Y-119267980D01*
X55472200Y-118696552D02*
X55519819Y-118648933D01*
X55615057Y-118601314D01*
X55757914Y-118601314D01*
X55853152Y-118648933D01*
X55900771Y-118744171D01*
X55900771Y-119267980D01*
X56138866Y-119363219D02*
X56900771Y-119363219D01*
X57329342Y-118267980D02*
X57424580Y-118267980D01*
X57519819Y-118315600D01*
X57567438Y-118363219D01*
X57615057Y-118458457D01*
X57662676Y-118648933D01*
X57662676Y-118887028D01*
X57615057Y-119077504D01*
X57567438Y-119172742D01*
X57519819Y-119220361D01*
X57424580Y-119267980D01*
X57329342Y-119267980D01*
X57234104Y-119220361D01*
X57186485Y-119172742D01*
X57138866Y-119077504D01*
X57091247Y-118887028D01*
X57091247Y-118648933D01*
X57138866Y-118458457D01*
X57186485Y-118363219D01*
X57234104Y-118315600D01*
X57329342Y-118267980D01*
X58615057Y-119267980D02*
X58043628Y-119267980D01*
X58329342Y-119267980D02*
X58329342Y-118267980D01*
X58234104Y-118410838D01*
X58138866Y-118506076D01*
X58043628Y-118553695D01*
X58948390Y-119267980D02*
X59472200Y-118601314D01*
X58948390Y-118601314D02*
X59472200Y-119267980D01*
X60043628Y-118267980D02*
X60138866Y-118267980D01*
X60234104Y-118315600D01*
X60281723Y-118363219D01*
X60329342Y-118458457D01*
X60376961Y-118648933D01*
X60376961Y-118887028D01*
X60329342Y-119077504D01*
X60281723Y-119172742D01*
X60234104Y-119220361D01*
X60138866Y-119267980D01*
X60043628Y-119267980D01*
X59948390Y-119220361D01*
X59900771Y-119172742D01*
X59853152Y-119077504D01*
X59805533Y-118887028D01*
X59805533Y-118648933D01*
X59853152Y-118458457D01*
X59900771Y-118363219D01*
X59948390Y-118315600D01*
X60043628Y-118267980D01*
X61234104Y-118601314D02*
X61234104Y-119267980D01*
X60996009Y-118220361D02*
X60757914Y-118934647D01*
X61376961Y-118934647D01*
X56638866Y-116107980D02*
X56638866Y-116822266D01*
X56591247Y-116965123D01*
X56496009Y-117060361D01*
X56353152Y-117107980D01*
X56257914Y-117107980D01*
X57019819Y-116107980D02*
X57686485Y-116107980D01*
X57257914Y-117107980D01*
%TO.C,J2*%
X42168323Y-121492342D02*
X42120704Y-121539961D01*
X41977847Y-121587580D01*
X41882609Y-121587580D01*
X41739752Y-121539961D01*
X41644514Y-121444723D01*
X41596895Y-121349485D01*
X41549276Y-121159009D01*
X41549276Y-121016152D01*
X41596895Y-120825676D01*
X41644514Y-120730438D01*
X41739752Y-120635200D01*
X41882609Y-120587580D01*
X41977847Y-120587580D01*
X42120704Y-120635200D01*
X42168323Y-120682819D01*
X42739752Y-121587580D02*
X42644514Y-121539961D01*
X42596895Y-121492342D01*
X42549276Y-121397104D01*
X42549276Y-121111390D01*
X42596895Y-121016152D01*
X42644514Y-120968533D01*
X42739752Y-120920914D01*
X42882609Y-120920914D01*
X42977847Y-120968533D01*
X43025466Y-121016152D01*
X43073085Y-121111390D01*
X43073085Y-121397104D01*
X43025466Y-121492342D01*
X42977847Y-121539961D01*
X42882609Y-121587580D01*
X42739752Y-121587580D01*
X43501657Y-120920914D02*
X43501657Y-121587580D01*
X43501657Y-121016152D02*
X43549276Y-120968533D01*
X43644514Y-120920914D01*
X43787371Y-120920914D01*
X43882609Y-120968533D01*
X43930228Y-121063771D01*
X43930228Y-121587580D01*
X44406419Y-120920914D02*
X44406419Y-121587580D01*
X44406419Y-121016152D02*
X44454038Y-120968533D01*
X44549276Y-120920914D01*
X44692133Y-120920914D01*
X44787371Y-120968533D01*
X44834990Y-121063771D01*
X44834990Y-121587580D01*
X45073085Y-121682819D02*
X45834990Y-121682819D01*
X46644514Y-121492342D02*
X46596895Y-121539961D01*
X46454038Y-121587580D01*
X46358800Y-121587580D01*
X46215942Y-121539961D01*
X46120704Y-121444723D01*
X46073085Y-121349485D01*
X46025466Y-121159009D01*
X46025466Y-121016152D01*
X46073085Y-120825676D01*
X46120704Y-120730438D01*
X46215942Y-120635200D01*
X46358800Y-120587580D01*
X46454038Y-120587580D01*
X46596895Y-120635200D01*
X46644514Y-120682819D01*
X47215942Y-121587580D02*
X47120704Y-121539961D01*
X47073085Y-121492342D01*
X47025466Y-121397104D01*
X47025466Y-121111390D01*
X47073085Y-121016152D01*
X47120704Y-120968533D01*
X47215942Y-120920914D01*
X47358800Y-120920914D01*
X47454038Y-120968533D01*
X47501657Y-121016152D01*
X47549276Y-121111390D01*
X47549276Y-121397104D01*
X47501657Y-121492342D01*
X47454038Y-121539961D01*
X47358800Y-121587580D01*
X47215942Y-121587580D01*
X48406419Y-121587580D02*
X48406419Y-121063771D01*
X48358800Y-120968533D01*
X48263561Y-120920914D01*
X48073085Y-120920914D01*
X47977847Y-120968533D01*
X48406419Y-121539961D02*
X48311180Y-121587580D01*
X48073085Y-121587580D01*
X47977847Y-121539961D01*
X47930228Y-121444723D01*
X47930228Y-121349485D01*
X47977847Y-121254247D01*
X48073085Y-121206628D01*
X48311180Y-121206628D01*
X48406419Y-121159009D01*
X48787371Y-121587580D02*
X49311180Y-120920914D01*
X48787371Y-120920914D02*
X49311180Y-121587580D01*
X49692133Y-121587580D02*
X49692133Y-120920914D01*
X49692133Y-120587580D02*
X49644514Y-120635200D01*
X49692133Y-120682819D01*
X49739752Y-120635200D01*
X49692133Y-120587580D01*
X49692133Y-120682819D01*
X50596895Y-121587580D02*
X50596895Y-121063771D01*
X50549276Y-120968533D01*
X50454038Y-120920914D01*
X50263561Y-120920914D01*
X50168323Y-120968533D01*
X50596895Y-121539961D02*
X50501657Y-121587580D01*
X50263561Y-121587580D01*
X50168323Y-121539961D01*
X50120704Y-121444723D01*
X50120704Y-121349485D01*
X50168323Y-121254247D01*
X50263561Y-121206628D01*
X50501657Y-121206628D01*
X50596895Y-121159009D01*
X51215942Y-121587580D02*
X51120704Y-121539961D01*
X51073085Y-121444723D01*
X51073085Y-120587580D01*
X46021180Y-127468533D02*
X46735466Y-127468533D01*
X46878323Y-127516152D01*
X46973561Y-127611390D01*
X47021180Y-127754247D01*
X47021180Y-127849485D01*
X46116419Y-127039961D02*
X46068800Y-126992342D01*
X46021180Y-126897104D01*
X46021180Y-126659009D01*
X46068800Y-126563771D01*
X46116419Y-126516152D01*
X46211657Y-126468533D01*
X46306895Y-126468533D01*
X46449752Y-126516152D01*
X47021180Y-127087580D01*
X47021180Y-126468533D01*
%TO.C,D3*%
X137360295Y-119201971D02*
X137503152Y-119249590D01*
X137550771Y-119297209D01*
X137598390Y-119392447D01*
X137598390Y-119535304D01*
X137550771Y-119630542D01*
X137503152Y-119678161D01*
X137407914Y-119725780D01*
X137026961Y-119725780D01*
X137026961Y-118725780D01*
X137360295Y-118725780D01*
X137455533Y-118773400D01*
X137503152Y-118821019D01*
X137550771Y-118916257D01*
X137550771Y-119011495D01*
X137503152Y-119106733D01*
X137455533Y-119154352D01*
X137360295Y-119201971D01*
X137026961Y-119201971D01*
X137979342Y-119440066D02*
X138455533Y-119440066D01*
X137884104Y-119725780D02*
X138217438Y-118725780D01*
X138550771Y-119725780D01*
X138836485Y-119678161D02*
X138979342Y-119725780D01*
X139217438Y-119725780D01*
X139312676Y-119678161D01*
X139360295Y-119630542D01*
X139407914Y-119535304D01*
X139407914Y-119440066D01*
X139360295Y-119344828D01*
X139312676Y-119297209D01*
X139217438Y-119249590D01*
X139026961Y-119201971D01*
X138931723Y-119154352D01*
X138884104Y-119106733D01*
X138836485Y-119011495D01*
X138836485Y-118916257D01*
X138884104Y-118821019D01*
X138931723Y-118773400D01*
X139026961Y-118725780D01*
X139265057Y-118725780D01*
X139407914Y-118773400D01*
X139741247Y-118725780D02*
X140360295Y-118725780D01*
X140026961Y-119106733D01*
X140169819Y-119106733D01*
X140265057Y-119154352D01*
X140312676Y-119201971D01*
X140360295Y-119297209D01*
X140360295Y-119535304D01*
X140312676Y-119630542D01*
X140265057Y-119678161D01*
X140169819Y-119725780D01*
X139884104Y-119725780D01*
X139788866Y-119678161D01*
X139741247Y-119630542D01*
X141312676Y-119725780D02*
X140741247Y-119725780D01*
X141026961Y-119725780D02*
X141026961Y-118725780D01*
X140931723Y-118868638D01*
X140836485Y-118963876D01*
X140741247Y-119011495D01*
X142169819Y-118725780D02*
X141979342Y-118725780D01*
X141884104Y-118773400D01*
X141836485Y-118821019D01*
X141741247Y-118963876D01*
X141693628Y-119154352D01*
X141693628Y-119535304D01*
X141741247Y-119630542D01*
X141788866Y-119678161D01*
X141884104Y-119725780D01*
X142074580Y-119725780D01*
X142169819Y-119678161D01*
X142217438Y-119630542D01*
X142265057Y-119535304D01*
X142265057Y-119297209D01*
X142217438Y-119201971D01*
X142169819Y-119154352D01*
X142074580Y-119106733D01*
X141884104Y-119106733D01*
X141788866Y-119154352D01*
X141741247Y-119201971D01*
X141693628Y-119297209D01*
X138784104Y-115975780D02*
X138784104Y-114975780D01*
X139022200Y-114975780D01*
X139165057Y-115023400D01*
X139260295Y-115118638D01*
X139307914Y-115213876D01*
X139355533Y-115404352D01*
X139355533Y-115547209D01*
X139307914Y-115737685D01*
X139260295Y-115832923D01*
X139165057Y-115928161D01*
X139022200Y-115975780D01*
X138784104Y-115975780D01*
X139688866Y-114975780D02*
X140307914Y-114975780D01*
X139974580Y-115356733D01*
X140117438Y-115356733D01*
X140212676Y-115404352D01*
X140260295Y-115451971D01*
X140307914Y-115547209D01*
X140307914Y-115785304D01*
X140260295Y-115880542D01*
X140212676Y-115928161D01*
X140117438Y-115975780D01*
X139831723Y-115975780D01*
X139736485Y-115928161D01*
X139688866Y-115880542D01*
%TO.C,D2*%
X142468371Y-131879704D02*
X142515990Y-131736847D01*
X142563609Y-131689228D01*
X142658847Y-131641609D01*
X142801704Y-131641609D01*
X142896942Y-131689228D01*
X142944561Y-131736847D01*
X142992180Y-131832085D01*
X142992180Y-132213038D01*
X141992180Y-132213038D01*
X141992180Y-131879704D01*
X142039800Y-131784466D01*
X142087419Y-131736847D01*
X142182657Y-131689228D01*
X142277895Y-131689228D01*
X142373133Y-131736847D01*
X142420752Y-131784466D01*
X142468371Y-131879704D01*
X142468371Y-132213038D01*
X142706466Y-131260657D02*
X142706466Y-130784466D01*
X142992180Y-131355895D02*
X141992180Y-131022561D01*
X142992180Y-130689228D01*
X142944561Y-130403514D02*
X142992180Y-130260657D01*
X142992180Y-130022561D01*
X142944561Y-129927323D01*
X142896942Y-129879704D01*
X142801704Y-129832085D01*
X142706466Y-129832085D01*
X142611228Y-129879704D01*
X142563609Y-129927323D01*
X142515990Y-130022561D01*
X142468371Y-130213038D01*
X142420752Y-130308276D01*
X142373133Y-130355895D01*
X142277895Y-130403514D01*
X142182657Y-130403514D01*
X142087419Y-130355895D01*
X142039800Y-130308276D01*
X141992180Y-130213038D01*
X141992180Y-129974942D01*
X142039800Y-129832085D01*
X141992180Y-129498752D02*
X141992180Y-128879704D01*
X142373133Y-129213038D01*
X142373133Y-129070180D01*
X142420752Y-128974942D01*
X142468371Y-128927323D01*
X142563609Y-128879704D01*
X142801704Y-128879704D01*
X142896942Y-128927323D01*
X142944561Y-128974942D01*
X142992180Y-129070180D01*
X142992180Y-129355895D01*
X142944561Y-129451133D01*
X142896942Y-129498752D01*
X142992180Y-127927323D02*
X142992180Y-128498752D01*
X142992180Y-128213038D02*
X141992180Y-128213038D01*
X142135038Y-128308276D01*
X142230276Y-128403514D01*
X142277895Y-128498752D01*
X141992180Y-127070180D02*
X141992180Y-127260657D01*
X142039800Y-127355895D01*
X142087419Y-127403514D01*
X142230276Y-127498752D01*
X142420752Y-127546371D01*
X142801704Y-127546371D01*
X142896942Y-127498752D01*
X142944561Y-127451133D01*
X142992180Y-127355895D01*
X142992180Y-127165419D01*
X142944561Y-127070180D01*
X142896942Y-127022561D01*
X142801704Y-126974942D01*
X142563609Y-126974942D01*
X142468371Y-127022561D01*
X142420752Y-127070180D01*
X142373133Y-127165419D01*
X142373133Y-127355895D01*
X142420752Y-127451133D01*
X142468371Y-127498752D01*
X142563609Y-127546371D01*
X139242180Y-130455895D02*
X138242180Y-130455895D01*
X138242180Y-130217800D01*
X138289800Y-130074942D01*
X138385038Y-129979704D01*
X138480276Y-129932085D01*
X138670752Y-129884466D01*
X138813609Y-129884466D01*
X139004085Y-129932085D01*
X139099323Y-129979704D01*
X139194561Y-130074942D01*
X139242180Y-130217800D01*
X139242180Y-130455895D01*
X138337419Y-129503514D02*
X138289800Y-129455895D01*
X138242180Y-129360657D01*
X138242180Y-129122561D01*
X138289800Y-129027323D01*
X138337419Y-128979704D01*
X138432657Y-128932085D01*
X138527895Y-128932085D01*
X138670752Y-128979704D01*
X139242180Y-129551133D01*
X139242180Y-128932085D01*
%TO.C,D1*%
X110945704Y-121264971D02*
X111088561Y-121312590D01*
X111136180Y-121360209D01*
X111183800Y-121455447D01*
X111183800Y-121598304D01*
X111136180Y-121693542D01*
X111088561Y-121741161D01*
X110993323Y-121788780D01*
X110612371Y-121788780D01*
X110612371Y-120788780D01*
X110945704Y-120788780D01*
X111040942Y-120836400D01*
X111088561Y-120884019D01*
X111136180Y-120979257D01*
X111136180Y-121074495D01*
X111088561Y-121169733D01*
X111040942Y-121217352D01*
X110945704Y-121264971D01*
X110612371Y-121264971D01*
X111564752Y-121503066D02*
X112040942Y-121503066D01*
X111469514Y-121788780D02*
X111802847Y-120788780D01*
X112136180Y-121788780D01*
X112326657Y-120788780D02*
X112659990Y-121788780D01*
X112993323Y-120788780D01*
X113374276Y-121788780D02*
X113564752Y-121788780D01*
X113659990Y-121741161D01*
X113707609Y-121693542D01*
X113802847Y-121550685D01*
X113850466Y-121360209D01*
X113850466Y-120979257D01*
X113802847Y-120884019D01*
X113755228Y-120836400D01*
X113659990Y-120788780D01*
X113469514Y-120788780D01*
X113374276Y-120836400D01*
X113326657Y-120884019D01*
X113279038Y-120979257D01*
X113279038Y-121217352D01*
X113326657Y-121312590D01*
X113374276Y-121360209D01*
X113469514Y-121407828D01*
X113659990Y-121407828D01*
X113755228Y-121360209D01*
X113802847Y-121312590D01*
X113850466Y-121217352D01*
X114326657Y-121788780D02*
X114517133Y-121788780D01*
X114612371Y-121741161D01*
X114659990Y-121693542D01*
X114755228Y-121550685D01*
X114802847Y-121360209D01*
X114802847Y-120979257D01*
X114755228Y-120884019D01*
X114707609Y-120836400D01*
X114612371Y-120788780D01*
X114421895Y-120788780D01*
X114326657Y-120836400D01*
X114279038Y-120884019D01*
X114231419Y-120979257D01*
X114231419Y-121217352D01*
X114279038Y-121312590D01*
X114326657Y-121360209D01*
X114421895Y-121407828D01*
X114612371Y-121407828D01*
X114707609Y-121360209D01*
X114755228Y-121312590D01*
X114802847Y-121217352D01*
D15*
X112909990Y-119205447D02*
X112409990Y-119205447D01*
X112409990Y-119086400D01*
X112433800Y-119014971D01*
X112481419Y-118967352D01*
X112529038Y-118943542D01*
X112624276Y-118919733D01*
X112695704Y-118919733D01*
X112790942Y-118943542D01*
X112838561Y-118967352D01*
X112886180Y-119014971D01*
X112909990Y-119086400D01*
X112909990Y-119205447D01*
X112909990Y-118443542D02*
X112909990Y-118729257D01*
X112909990Y-118586400D02*
X112409990Y-118586400D01*
X112481419Y-118634019D01*
X112529038Y-118681638D01*
X112552847Y-118729257D01*
%TO.C,C22*%
D11*
X82519778Y-116403780D02*
X81948349Y-116403780D01*
X82234063Y-116403780D02*
X82234063Y-115403780D01*
X82138825Y-115546638D01*
X82043587Y-115641876D01*
X81948349Y-115689495D01*
X83376920Y-115737114D02*
X83376920Y-116403780D01*
X82948349Y-115737114D02*
X82948349Y-116260923D01*
X82995968Y-116356161D01*
X83091206Y-116403780D01*
X83234063Y-116403780D01*
X83329301Y-116356161D01*
X83376920Y-116308542D01*
X83710254Y-115737114D02*
X84091206Y-115737114D01*
X83853111Y-116403780D02*
X83853111Y-115546638D01*
X83900730Y-115451400D01*
X83995968Y-115403780D01*
X84091206Y-115403780D01*
D14*
X82650730Y-114479971D02*
X82626920Y-114503780D01*
X82555492Y-114527590D01*
X82507873Y-114527590D01*
X82436444Y-114503780D01*
X82388825Y-114456161D01*
X82365016Y-114408542D01*
X82341206Y-114313304D01*
X82341206Y-114241876D01*
X82365016Y-114146638D01*
X82388825Y-114099019D01*
X82436444Y-114051400D01*
X82507873Y-114027590D01*
X82555492Y-114027590D01*
X82626920Y-114051400D01*
X82650730Y-114075209D01*
X82841206Y-114075209D02*
X82865016Y-114051400D01*
X82912635Y-114027590D01*
X83031682Y-114027590D01*
X83079301Y-114051400D01*
X83103111Y-114075209D01*
X83126920Y-114122828D01*
X83126920Y-114170447D01*
X83103111Y-114241876D01*
X82817397Y-114527590D01*
X83126920Y-114527590D01*
X83317397Y-114075209D02*
X83341206Y-114051400D01*
X83388825Y-114027590D01*
X83507873Y-114027590D01*
X83555492Y-114051400D01*
X83579301Y-114075209D01*
X83603111Y-114122828D01*
X83603111Y-114170447D01*
X83579301Y-114241876D01*
X83293587Y-114527590D01*
X83603111Y-114527590D01*
%TO.C,C21*%
D11*
X91806828Y-118053380D02*
X91235400Y-118053380D01*
X91521114Y-118053380D02*
X91521114Y-117053380D01*
X91425876Y-117196238D01*
X91330638Y-117291476D01*
X91235400Y-117339095D01*
X92425876Y-117053380D02*
X92521114Y-117053380D01*
X92616352Y-117101000D01*
X92663971Y-117148619D01*
X92711590Y-117243857D01*
X92759209Y-117434333D01*
X92759209Y-117672428D01*
X92711590Y-117862904D01*
X92663971Y-117958142D01*
X92616352Y-118005761D01*
X92521114Y-118053380D01*
X92425876Y-118053380D01*
X92330638Y-118005761D01*
X92283019Y-117958142D01*
X92235400Y-117862904D01*
X92187780Y-117672428D01*
X92187780Y-117434333D01*
X92235400Y-117243857D01*
X92283019Y-117148619D01*
X92330638Y-117101000D01*
X92425876Y-117053380D01*
X93616352Y-117386714D02*
X93616352Y-118053380D01*
X93187780Y-117386714D02*
X93187780Y-117910523D01*
X93235400Y-118005761D01*
X93330638Y-118053380D01*
X93473495Y-118053380D01*
X93568733Y-118005761D01*
X93616352Y-117958142D01*
X93949685Y-117386714D02*
X94330638Y-117386714D01*
X94092542Y-118053380D02*
X94092542Y-117196238D01*
X94140161Y-117101000D01*
X94235400Y-117053380D01*
X94330638Y-117053380D01*
D14*
X92413971Y-116129571D02*
X92390161Y-116153380D01*
X92318733Y-116177190D01*
X92271114Y-116177190D01*
X92199685Y-116153380D01*
X92152066Y-116105761D01*
X92128257Y-116058142D01*
X92104447Y-115962904D01*
X92104447Y-115891476D01*
X92128257Y-115796238D01*
X92152066Y-115748619D01*
X92199685Y-115701000D01*
X92271114Y-115677190D01*
X92318733Y-115677190D01*
X92390161Y-115701000D01*
X92413971Y-115724809D01*
X92604447Y-115724809D02*
X92628257Y-115701000D01*
X92675876Y-115677190D01*
X92794923Y-115677190D01*
X92842542Y-115701000D01*
X92866352Y-115724809D01*
X92890161Y-115772428D01*
X92890161Y-115820047D01*
X92866352Y-115891476D01*
X92580638Y-116177190D01*
X92890161Y-116177190D01*
X93366352Y-116177190D02*
X93080638Y-116177190D01*
X93223495Y-116177190D02*
X93223495Y-115677190D01*
X93175876Y-115748619D01*
X93128257Y-115796238D01*
X93080638Y-115820047D01*
%TO.C,C20*%
D11*
X87499559Y-117049180D02*
X87594797Y-117049180D01*
X87690035Y-117096800D01*
X87737654Y-117144419D01*
X87785273Y-117239657D01*
X87832892Y-117430133D01*
X87832892Y-117668228D01*
X87785273Y-117858704D01*
X87737654Y-117953942D01*
X87690035Y-118001561D01*
X87594797Y-118049180D01*
X87499559Y-118049180D01*
X87404320Y-118001561D01*
X87356701Y-117953942D01*
X87309082Y-117858704D01*
X87261463Y-117668228D01*
X87261463Y-117430133D01*
X87309082Y-117239657D01*
X87356701Y-117144419D01*
X87404320Y-117096800D01*
X87499559Y-117049180D01*
X88261463Y-117953942D02*
X88309082Y-118001561D01*
X88261463Y-118049180D01*
X88213844Y-118001561D01*
X88261463Y-117953942D01*
X88261463Y-118049180D01*
X89261463Y-118049180D02*
X88690035Y-118049180D01*
X88975749Y-118049180D02*
X88975749Y-117049180D01*
X88880511Y-117192038D01*
X88785273Y-117287276D01*
X88690035Y-117334895D01*
X90118606Y-117382514D02*
X90118606Y-118049180D01*
X89690035Y-117382514D02*
X89690035Y-117906323D01*
X89737654Y-118001561D01*
X89832892Y-118049180D01*
X89975749Y-118049180D01*
X90070987Y-118001561D01*
X90118606Y-117953942D01*
X90451939Y-117382514D02*
X90832892Y-117382514D01*
X90594797Y-118049180D02*
X90594797Y-117192038D01*
X90642416Y-117096800D01*
X90737654Y-117049180D01*
X90832892Y-117049180D01*
D14*
X88678130Y-116125371D02*
X88654320Y-116149180D01*
X88582892Y-116172990D01*
X88535273Y-116172990D01*
X88463844Y-116149180D01*
X88416225Y-116101561D01*
X88392416Y-116053942D01*
X88368606Y-115958704D01*
X88368606Y-115887276D01*
X88392416Y-115792038D01*
X88416225Y-115744419D01*
X88463844Y-115696800D01*
X88535273Y-115672990D01*
X88582892Y-115672990D01*
X88654320Y-115696800D01*
X88678130Y-115720609D01*
X88868606Y-115720609D02*
X88892416Y-115696800D01*
X88940035Y-115672990D01*
X89059082Y-115672990D01*
X89106701Y-115696800D01*
X89130511Y-115720609D01*
X89154320Y-115768228D01*
X89154320Y-115815847D01*
X89130511Y-115887276D01*
X88844797Y-116172990D01*
X89154320Y-116172990D01*
X89463844Y-115672990D02*
X89511463Y-115672990D01*
X89559082Y-115696800D01*
X89582892Y-115720609D01*
X89606701Y-115768228D01*
X89630511Y-115863466D01*
X89630511Y-115982514D01*
X89606701Y-116077752D01*
X89582892Y-116125371D01*
X89559082Y-116149180D01*
X89511463Y-116172990D01*
X89463844Y-116172990D01*
X89416225Y-116149180D01*
X89392416Y-116125371D01*
X89368606Y-116077752D01*
X89344797Y-115982514D01*
X89344797Y-115863466D01*
X89368606Y-115768228D01*
X89392416Y-115720609D01*
X89416225Y-115696800D01*
X89463844Y-115672990D01*
%TO.C,C19*%
D11*
X68934180Y-127477780D02*
X68934180Y-128049209D01*
X68934180Y-127763495D02*
X67934180Y-127763495D01*
X68077038Y-127858733D01*
X68172276Y-127953971D01*
X68219895Y-128049209D01*
X68267514Y-126620638D02*
X68934180Y-126620638D01*
X68267514Y-127049209D02*
X68791323Y-127049209D01*
X68886561Y-127001590D01*
X68934180Y-126906352D01*
X68934180Y-126763495D01*
X68886561Y-126668257D01*
X68838942Y-126620638D01*
X68267514Y-126287304D02*
X68267514Y-125906352D01*
X68934180Y-126144447D02*
X68077038Y-126144447D01*
X67981800Y-126096828D01*
X67934180Y-126001590D01*
X67934180Y-125906352D01*
D14*
X70310371Y-127346828D02*
X70334180Y-127370638D01*
X70357990Y-127442066D01*
X70357990Y-127489685D01*
X70334180Y-127561114D01*
X70286561Y-127608733D01*
X70238942Y-127632542D01*
X70143704Y-127656352D01*
X70072276Y-127656352D01*
X69977038Y-127632542D01*
X69929419Y-127608733D01*
X69881800Y-127561114D01*
X69857990Y-127489685D01*
X69857990Y-127442066D01*
X69881800Y-127370638D01*
X69905609Y-127346828D01*
X70357990Y-126870638D02*
X70357990Y-127156352D01*
X70357990Y-127013495D02*
X69857990Y-127013495D01*
X69929419Y-127061114D01*
X69977038Y-127108733D01*
X70000847Y-127156352D01*
X70357990Y-126632542D02*
X70357990Y-126537304D01*
X70334180Y-126489685D01*
X70310371Y-126465876D01*
X70238942Y-126418257D01*
X70143704Y-126394447D01*
X69953228Y-126394447D01*
X69905609Y-126418257D01*
X69881800Y-126442066D01*
X69857990Y-126489685D01*
X69857990Y-126584923D01*
X69881800Y-126632542D01*
X69905609Y-126656352D01*
X69953228Y-126680161D01*
X70072276Y-126680161D01*
X70119895Y-126656352D01*
X70143704Y-126632542D01*
X70167514Y-126584923D01*
X70167514Y-126489685D01*
X70143704Y-126442066D01*
X70119895Y-126418257D01*
X70072276Y-126394447D01*
%TO.C,C18*%
D11*
X66747380Y-127979371D02*
X66747380Y-128550800D01*
X66747380Y-128265085D02*
X65747380Y-128265085D01*
X65890238Y-128360323D01*
X65985476Y-128455561D01*
X66033095Y-128550800D01*
X65747380Y-127360323D02*
X65747380Y-127265085D01*
X65795000Y-127169847D01*
X65842619Y-127122228D01*
X65937857Y-127074609D01*
X66128333Y-127026990D01*
X66366428Y-127026990D01*
X66556904Y-127074609D01*
X66652142Y-127122228D01*
X66699761Y-127169847D01*
X66747380Y-127265085D01*
X66747380Y-127360323D01*
X66699761Y-127455561D01*
X66652142Y-127503180D01*
X66556904Y-127550800D01*
X66366428Y-127598419D01*
X66128333Y-127598419D01*
X65937857Y-127550800D01*
X65842619Y-127503180D01*
X65795000Y-127455561D01*
X65747380Y-127360323D01*
X66080714Y-126169847D02*
X66747380Y-126169847D01*
X66080714Y-126598419D02*
X66604523Y-126598419D01*
X66699761Y-126550800D01*
X66747380Y-126455561D01*
X66747380Y-126312704D01*
X66699761Y-126217466D01*
X66652142Y-126169847D01*
X66080714Y-125836514D02*
X66080714Y-125455561D01*
X66747380Y-125693657D02*
X65890238Y-125693657D01*
X65795000Y-125646038D01*
X65747380Y-125550800D01*
X65747380Y-125455561D01*
D14*
X68123571Y-127372228D02*
X68147380Y-127396038D01*
X68171190Y-127467466D01*
X68171190Y-127515085D01*
X68147380Y-127586514D01*
X68099761Y-127634133D01*
X68052142Y-127657942D01*
X67956904Y-127681752D01*
X67885476Y-127681752D01*
X67790238Y-127657942D01*
X67742619Y-127634133D01*
X67695000Y-127586514D01*
X67671190Y-127515085D01*
X67671190Y-127467466D01*
X67695000Y-127396038D01*
X67718809Y-127372228D01*
X68171190Y-126896038D02*
X68171190Y-127181752D01*
X68171190Y-127038895D02*
X67671190Y-127038895D01*
X67742619Y-127086514D01*
X67790238Y-127134133D01*
X67814047Y-127181752D01*
X67885476Y-126610323D02*
X67861666Y-126657942D01*
X67837857Y-126681752D01*
X67790238Y-126705561D01*
X67766428Y-126705561D01*
X67718809Y-126681752D01*
X67695000Y-126657942D01*
X67671190Y-126610323D01*
X67671190Y-126515085D01*
X67695000Y-126467466D01*
X67718809Y-126443657D01*
X67766428Y-126419847D01*
X67790238Y-126419847D01*
X67837857Y-126443657D01*
X67861666Y-126467466D01*
X67885476Y-126515085D01*
X67885476Y-126610323D01*
X67909285Y-126657942D01*
X67933095Y-126681752D01*
X67980714Y-126705561D01*
X68075952Y-126705561D01*
X68123571Y-126681752D01*
X68147380Y-126657942D01*
X68171190Y-126610323D01*
X68171190Y-126515085D01*
X68147380Y-126467466D01*
X68123571Y-126443657D01*
X68075952Y-126419847D01*
X67980714Y-126419847D01*
X67933095Y-126443657D01*
X67909285Y-126467466D01*
X67885476Y-126515085D01*
%TO.C,C17*%
D11*
X73263780Y-128525400D02*
X73263780Y-128430161D01*
X73311400Y-128334923D01*
X73359019Y-128287304D01*
X73454257Y-128239685D01*
X73644733Y-128192066D01*
X73882828Y-128192066D01*
X74073304Y-128239685D01*
X74168542Y-128287304D01*
X74216161Y-128334923D01*
X74263780Y-128430161D01*
X74263780Y-128525400D01*
X74216161Y-128620638D01*
X74168542Y-128668257D01*
X74073304Y-128715876D01*
X73882828Y-128763495D01*
X73644733Y-128763495D01*
X73454257Y-128715876D01*
X73359019Y-128668257D01*
X73311400Y-128620638D01*
X73263780Y-128525400D01*
X74168542Y-127763495D02*
X74216161Y-127715876D01*
X74263780Y-127763495D01*
X74216161Y-127811114D01*
X74168542Y-127763495D01*
X74263780Y-127763495D01*
X74263780Y-126763495D02*
X74263780Y-127334923D01*
X74263780Y-127049209D02*
X73263780Y-127049209D01*
X73406638Y-127144447D01*
X73501876Y-127239685D01*
X73549495Y-127334923D01*
X73597114Y-125906352D02*
X74263780Y-125906352D01*
X73597114Y-126334923D02*
X74120923Y-126334923D01*
X74216161Y-126287304D01*
X74263780Y-126192066D01*
X74263780Y-126049209D01*
X74216161Y-125953971D01*
X74168542Y-125906352D01*
X73597114Y-125573019D02*
X73597114Y-125192066D01*
X74263780Y-125430161D02*
X73406638Y-125430161D01*
X73311400Y-125382542D01*
X73263780Y-125287304D01*
X73263780Y-125192066D01*
D14*
X72339971Y-127346828D02*
X72363780Y-127370638D01*
X72387590Y-127442066D01*
X72387590Y-127489685D01*
X72363780Y-127561114D01*
X72316161Y-127608733D01*
X72268542Y-127632542D01*
X72173304Y-127656352D01*
X72101876Y-127656352D01*
X72006638Y-127632542D01*
X71959019Y-127608733D01*
X71911400Y-127561114D01*
X71887590Y-127489685D01*
X71887590Y-127442066D01*
X71911400Y-127370638D01*
X71935209Y-127346828D01*
X72387590Y-126870638D02*
X72387590Y-127156352D01*
X72387590Y-127013495D02*
X71887590Y-127013495D01*
X71959019Y-127061114D01*
X72006638Y-127108733D01*
X72030447Y-127156352D01*
X71887590Y-126703971D02*
X71887590Y-126370638D01*
X72387590Y-126584923D01*
%TO.C,C16*%
D11*
X100324180Y-121686580D02*
X100324180Y-122258009D01*
X100324180Y-121972295D02*
X99324180Y-121972295D01*
X99467038Y-122067533D01*
X99562276Y-122162771D01*
X99609895Y-122258009D01*
X99657514Y-121258009D02*
X100324180Y-121258009D01*
X99752752Y-121258009D02*
X99705133Y-121210390D01*
X99657514Y-121115152D01*
X99657514Y-120972295D01*
X99705133Y-120877057D01*
X99800371Y-120829438D01*
X100324180Y-120829438D01*
X99657514Y-120496104D02*
X99657514Y-120115152D01*
X100324180Y-120353247D02*
X99467038Y-120353247D01*
X99371800Y-120305628D01*
X99324180Y-120210390D01*
X99324180Y-120115152D01*
D14*
X98400371Y-121555628D02*
X98424180Y-121579438D01*
X98447990Y-121650866D01*
X98447990Y-121698485D01*
X98424180Y-121769914D01*
X98376561Y-121817533D01*
X98328942Y-121841342D01*
X98233704Y-121865152D01*
X98162276Y-121865152D01*
X98067038Y-121841342D01*
X98019419Y-121817533D01*
X97971800Y-121769914D01*
X97947990Y-121698485D01*
X97947990Y-121650866D01*
X97971800Y-121579438D01*
X97995609Y-121555628D01*
X98447990Y-121079438D02*
X98447990Y-121365152D01*
X98447990Y-121222295D02*
X97947990Y-121222295D01*
X98019419Y-121269914D01*
X98067038Y-121317533D01*
X98090847Y-121365152D01*
X97947990Y-120650866D02*
X97947990Y-120746104D01*
X97971800Y-120793723D01*
X97995609Y-120817533D01*
X98067038Y-120865152D01*
X98162276Y-120888961D01*
X98352752Y-120888961D01*
X98400371Y-120865152D01*
X98424180Y-120841342D01*
X98447990Y-120793723D01*
X98447990Y-120698485D01*
X98424180Y-120650866D01*
X98400371Y-120627057D01*
X98352752Y-120603247D01*
X98233704Y-120603247D01*
X98186085Y-120627057D01*
X98162276Y-120650866D01*
X98138466Y-120698485D01*
X98138466Y-120793723D01*
X98162276Y-120841342D01*
X98186085Y-120865152D01*
X98233704Y-120888961D01*
%TO.C,C15*%
D11*
X100614219Y-123234980D02*
X100042790Y-123234980D01*
X100328504Y-123234980D02*
X100328504Y-122234980D01*
X100233266Y-122377838D01*
X100138028Y-122473076D01*
X100042790Y-122520695D01*
X101042790Y-122568314D02*
X101042790Y-123234980D01*
X101042790Y-122663552D02*
X101090409Y-122615933D01*
X101185647Y-122568314D01*
X101328504Y-122568314D01*
X101423742Y-122615933D01*
X101471361Y-122711171D01*
X101471361Y-123234980D01*
X101804695Y-122568314D02*
X102185647Y-122568314D01*
X101947552Y-123234980D02*
X101947552Y-122377838D01*
X101995171Y-122282600D01*
X102090409Y-122234980D01*
X102185647Y-122234980D01*
D14*
X100745171Y-121311171D02*
X100721361Y-121334980D01*
X100649933Y-121358790D01*
X100602314Y-121358790D01*
X100530885Y-121334980D01*
X100483266Y-121287361D01*
X100459457Y-121239742D01*
X100435647Y-121144504D01*
X100435647Y-121073076D01*
X100459457Y-120977838D01*
X100483266Y-120930219D01*
X100530885Y-120882600D01*
X100602314Y-120858790D01*
X100649933Y-120858790D01*
X100721361Y-120882600D01*
X100745171Y-120906409D01*
X101221361Y-121358790D02*
X100935647Y-121358790D01*
X101078504Y-121358790D02*
X101078504Y-120858790D01*
X101030885Y-120930219D01*
X100983266Y-120977838D01*
X100935647Y-121001647D01*
X101673742Y-120858790D02*
X101435647Y-120858790D01*
X101411838Y-121096885D01*
X101435647Y-121073076D01*
X101483266Y-121049266D01*
X101602314Y-121049266D01*
X101649933Y-121073076D01*
X101673742Y-121096885D01*
X101697552Y-121144504D01*
X101697552Y-121263552D01*
X101673742Y-121311171D01*
X101649933Y-121334980D01*
X101602314Y-121358790D01*
X101483266Y-121358790D01*
X101435647Y-121334980D01*
X101411838Y-121311171D01*
%TO.C,C14*%
D11*
X82019119Y-119729780D02*
X81447690Y-119729780D01*
X81733404Y-119729780D02*
X81733404Y-118729780D01*
X81638166Y-118872638D01*
X81542928Y-118967876D01*
X81447690Y-119015495D01*
X82447690Y-119063114D02*
X82447690Y-119729780D01*
X82447690Y-119158352D02*
X82495309Y-119110733D01*
X82590547Y-119063114D01*
X82733404Y-119063114D01*
X82828642Y-119110733D01*
X82876261Y-119205971D01*
X82876261Y-119729780D01*
X83209595Y-119063114D02*
X83590547Y-119063114D01*
X83352452Y-119729780D02*
X83352452Y-118872638D01*
X83400071Y-118777400D01*
X83495309Y-118729780D01*
X83590547Y-118729780D01*
D14*
X82150071Y-117805971D02*
X82126261Y-117829780D01*
X82054833Y-117853590D01*
X82007214Y-117853590D01*
X81935785Y-117829780D01*
X81888166Y-117782161D01*
X81864357Y-117734542D01*
X81840547Y-117639304D01*
X81840547Y-117567876D01*
X81864357Y-117472638D01*
X81888166Y-117425019D01*
X81935785Y-117377400D01*
X82007214Y-117353590D01*
X82054833Y-117353590D01*
X82126261Y-117377400D01*
X82150071Y-117401209D01*
X82626261Y-117853590D02*
X82340547Y-117853590D01*
X82483404Y-117853590D02*
X82483404Y-117353590D01*
X82435785Y-117425019D01*
X82388166Y-117472638D01*
X82340547Y-117496447D01*
X83054833Y-117520257D02*
X83054833Y-117853590D01*
X82935785Y-117329780D02*
X82816738Y-117686923D01*
X83126261Y-117686923D01*
%TO.C,C13*%
D11*
X84273380Y-121938280D02*
X84273380Y-122509709D01*
X84273380Y-122223995D02*
X83273380Y-122223995D01*
X83416238Y-122319233D01*
X83511476Y-122414471D01*
X83559095Y-122509709D01*
X83606714Y-121509709D02*
X84273380Y-121509709D01*
X83701952Y-121509709D02*
X83654333Y-121462090D01*
X83606714Y-121366852D01*
X83606714Y-121223995D01*
X83654333Y-121128757D01*
X83749571Y-121081138D01*
X84273380Y-121081138D01*
X83606714Y-120747804D02*
X83606714Y-120366852D01*
X84273380Y-120604947D02*
X83416238Y-120604947D01*
X83321000Y-120557328D01*
X83273380Y-120462090D01*
X83273380Y-120366852D01*
D14*
X85649571Y-121807328D02*
X85673380Y-121831138D01*
X85697190Y-121902566D01*
X85697190Y-121950185D01*
X85673380Y-122021614D01*
X85625761Y-122069233D01*
X85578142Y-122093042D01*
X85482904Y-122116852D01*
X85411476Y-122116852D01*
X85316238Y-122093042D01*
X85268619Y-122069233D01*
X85221000Y-122021614D01*
X85197190Y-121950185D01*
X85197190Y-121902566D01*
X85221000Y-121831138D01*
X85244809Y-121807328D01*
X85697190Y-121331138D02*
X85697190Y-121616852D01*
X85697190Y-121473995D02*
X85197190Y-121473995D01*
X85268619Y-121521614D01*
X85316238Y-121569233D01*
X85340047Y-121616852D01*
X85197190Y-121164471D02*
X85197190Y-120854947D01*
X85387666Y-121021614D01*
X85387666Y-120950185D01*
X85411476Y-120902566D01*
X85435285Y-120878757D01*
X85482904Y-120854947D01*
X85601952Y-120854947D01*
X85649571Y-120878757D01*
X85673380Y-120902566D01*
X85697190Y-120950185D01*
X85697190Y-121093042D01*
X85673380Y-121140661D01*
X85649571Y-121164471D01*
%TO.C,C12*%
D11*
X86542619Y-130321580D02*
X85971190Y-130321580D01*
X86256904Y-130321580D02*
X86256904Y-129321580D01*
X86161666Y-129464438D01*
X86066428Y-129559676D01*
X85971190Y-129607295D01*
X87399761Y-129654914D02*
X87399761Y-130321580D01*
X86971190Y-129654914D02*
X86971190Y-130178723D01*
X87018809Y-130273961D01*
X87114047Y-130321580D01*
X87256904Y-130321580D01*
X87352142Y-130273961D01*
X87399761Y-130226342D01*
X87733095Y-129654914D02*
X88114047Y-129654914D01*
X87875952Y-130321580D02*
X87875952Y-129464438D01*
X87923571Y-129369200D01*
X88018809Y-129321580D01*
X88114047Y-129321580D01*
D14*
X86673571Y-128397771D02*
X86649761Y-128421580D01*
X86578333Y-128445390D01*
X86530714Y-128445390D01*
X86459285Y-128421580D01*
X86411666Y-128373961D01*
X86387857Y-128326342D01*
X86364047Y-128231104D01*
X86364047Y-128159676D01*
X86387857Y-128064438D01*
X86411666Y-128016819D01*
X86459285Y-127969200D01*
X86530714Y-127945390D01*
X86578333Y-127945390D01*
X86649761Y-127969200D01*
X86673571Y-127993009D01*
X87149761Y-128445390D02*
X86864047Y-128445390D01*
X87006904Y-128445390D02*
X87006904Y-127945390D01*
X86959285Y-128016819D01*
X86911666Y-128064438D01*
X86864047Y-128088247D01*
X87340238Y-127993009D02*
X87364047Y-127969200D01*
X87411666Y-127945390D01*
X87530714Y-127945390D01*
X87578333Y-127969200D01*
X87602142Y-127993009D01*
X87625952Y-128040628D01*
X87625952Y-128088247D01*
X87602142Y-128159676D01*
X87316428Y-128445390D01*
X87625952Y-128445390D01*
%TO.C,C11*%
D11*
X82330328Y-130346980D02*
X81758900Y-130346980D01*
X82044614Y-130346980D02*
X82044614Y-129346980D01*
X81949376Y-129489838D01*
X81854138Y-129585076D01*
X81758900Y-129632695D01*
X82949376Y-129346980D02*
X83044614Y-129346980D01*
X83139852Y-129394600D01*
X83187471Y-129442219D01*
X83235090Y-129537457D01*
X83282709Y-129727933D01*
X83282709Y-129966028D01*
X83235090Y-130156504D01*
X83187471Y-130251742D01*
X83139852Y-130299361D01*
X83044614Y-130346980D01*
X82949376Y-130346980D01*
X82854138Y-130299361D01*
X82806519Y-130251742D01*
X82758900Y-130156504D01*
X82711280Y-129966028D01*
X82711280Y-129727933D01*
X82758900Y-129537457D01*
X82806519Y-129442219D01*
X82854138Y-129394600D01*
X82949376Y-129346980D01*
X84139852Y-129680314D02*
X84139852Y-130346980D01*
X83711280Y-129680314D02*
X83711280Y-130204123D01*
X83758900Y-130299361D01*
X83854138Y-130346980D01*
X83996995Y-130346980D01*
X84092233Y-130299361D01*
X84139852Y-130251742D01*
X84473185Y-129680314D02*
X84854138Y-129680314D01*
X84616042Y-130346980D02*
X84616042Y-129489838D01*
X84663661Y-129394600D01*
X84758900Y-129346980D01*
X84854138Y-129346980D01*
D14*
X82937471Y-128423171D02*
X82913661Y-128446980D01*
X82842233Y-128470790D01*
X82794614Y-128470790D01*
X82723185Y-128446980D01*
X82675566Y-128399361D01*
X82651757Y-128351742D01*
X82627947Y-128256504D01*
X82627947Y-128185076D01*
X82651757Y-128089838D01*
X82675566Y-128042219D01*
X82723185Y-127994600D01*
X82794614Y-127970790D01*
X82842233Y-127970790D01*
X82913661Y-127994600D01*
X82937471Y-128018409D01*
X83413661Y-128470790D02*
X83127947Y-128470790D01*
X83270804Y-128470790D02*
X83270804Y-127970790D01*
X83223185Y-128042219D01*
X83175566Y-128089838D01*
X83127947Y-128113647D01*
X83889852Y-128470790D02*
X83604138Y-128470790D01*
X83746995Y-128470790D02*
X83746995Y-127970790D01*
X83699376Y-128042219D01*
X83651757Y-128089838D01*
X83604138Y-128113647D01*
%TO.C,C10*%
D11*
X82091400Y-133895580D02*
X82186638Y-133895580D01*
X82281876Y-133943200D01*
X82329495Y-133990819D01*
X82377114Y-134086057D01*
X82424733Y-134276533D01*
X82424733Y-134514628D01*
X82377114Y-134705104D01*
X82329495Y-134800342D01*
X82281876Y-134847961D01*
X82186638Y-134895580D01*
X82091400Y-134895580D01*
X81996161Y-134847961D01*
X81948542Y-134800342D01*
X81900923Y-134705104D01*
X81853304Y-134514628D01*
X81853304Y-134276533D01*
X81900923Y-134086057D01*
X81948542Y-133990819D01*
X81996161Y-133943200D01*
X82091400Y-133895580D01*
X82853304Y-134800342D02*
X82900923Y-134847961D01*
X82853304Y-134895580D01*
X82805685Y-134847961D01*
X82853304Y-134800342D01*
X82853304Y-134895580D01*
X83853304Y-134895580D02*
X83281876Y-134895580D01*
X83567590Y-134895580D02*
X83567590Y-133895580D01*
X83472352Y-134038438D01*
X83377114Y-134133676D01*
X83281876Y-134181295D01*
X84710447Y-134228914D02*
X84710447Y-134895580D01*
X84281876Y-134228914D02*
X84281876Y-134752723D01*
X84329495Y-134847961D01*
X84424733Y-134895580D01*
X84567590Y-134895580D01*
X84662828Y-134847961D01*
X84710447Y-134800342D01*
X85043780Y-134228914D02*
X85424733Y-134228914D01*
X85186638Y-134895580D02*
X85186638Y-134038438D01*
X85234257Y-133943200D01*
X85329495Y-133895580D01*
X85424733Y-133895580D01*
D14*
X83269971Y-136271771D02*
X83246161Y-136295580D01*
X83174733Y-136319390D01*
X83127114Y-136319390D01*
X83055685Y-136295580D01*
X83008066Y-136247961D01*
X82984257Y-136200342D01*
X82960447Y-136105104D01*
X82960447Y-136033676D01*
X82984257Y-135938438D01*
X83008066Y-135890819D01*
X83055685Y-135843200D01*
X83127114Y-135819390D01*
X83174733Y-135819390D01*
X83246161Y-135843200D01*
X83269971Y-135867009D01*
X83746161Y-136319390D02*
X83460447Y-136319390D01*
X83603304Y-136319390D02*
X83603304Y-135819390D01*
X83555685Y-135890819D01*
X83508066Y-135938438D01*
X83460447Y-135962247D01*
X84055685Y-135819390D02*
X84103304Y-135819390D01*
X84150923Y-135843200D01*
X84174733Y-135867009D01*
X84198542Y-135914628D01*
X84222352Y-136009866D01*
X84222352Y-136128914D01*
X84198542Y-136224152D01*
X84174733Y-136271771D01*
X84150923Y-136295580D01*
X84103304Y-136319390D01*
X84055685Y-136319390D01*
X84008066Y-136295580D01*
X83984257Y-136271771D01*
X83960447Y-136224152D01*
X83936638Y-136128914D01*
X83936638Y-136009866D01*
X83960447Y-135914628D01*
X83984257Y-135867009D01*
X84008066Y-135843200D01*
X84055685Y-135819390D01*
%TO.C,C9*%
D11*
X56900819Y-130552180D02*
X56329390Y-130552180D01*
X56615104Y-130552180D02*
X56615104Y-129552180D01*
X56519866Y-129695038D01*
X56424628Y-129790276D01*
X56329390Y-129837895D01*
X57757961Y-129885514D02*
X57757961Y-130552180D01*
X57329390Y-129885514D02*
X57329390Y-130409323D01*
X57377009Y-130504561D01*
X57472247Y-130552180D01*
X57615104Y-130552180D01*
X57710342Y-130504561D01*
X57757961Y-130456942D01*
X58091295Y-129885514D02*
X58472247Y-129885514D01*
X58234152Y-130552180D02*
X58234152Y-129695038D01*
X58281771Y-129599800D01*
X58377009Y-129552180D01*
X58472247Y-129552180D01*
D14*
X57269866Y-131928371D02*
X57246057Y-131952180D01*
X57174628Y-131975990D01*
X57127009Y-131975990D01*
X57055580Y-131952180D01*
X57007961Y-131904561D01*
X56984152Y-131856942D01*
X56960342Y-131761704D01*
X56960342Y-131690276D01*
X56984152Y-131595038D01*
X57007961Y-131547419D01*
X57055580Y-131499800D01*
X57127009Y-131475990D01*
X57174628Y-131475990D01*
X57246057Y-131499800D01*
X57269866Y-131523609D01*
X57507961Y-131975990D02*
X57603200Y-131975990D01*
X57650819Y-131952180D01*
X57674628Y-131928371D01*
X57722247Y-131856942D01*
X57746057Y-131761704D01*
X57746057Y-131571228D01*
X57722247Y-131523609D01*
X57698438Y-131499800D01*
X57650819Y-131475990D01*
X57555580Y-131475990D01*
X57507961Y-131499800D01*
X57484152Y-131523609D01*
X57460342Y-131571228D01*
X57460342Y-131690276D01*
X57484152Y-131737895D01*
X57507961Y-131761704D01*
X57555580Y-131785514D01*
X57650819Y-131785514D01*
X57698438Y-131761704D01*
X57722247Y-131737895D01*
X57746057Y-131690276D01*
%TO.C,C8*%
D11*
X57180219Y-121306580D02*
X56608790Y-121306580D01*
X56894504Y-121306580D02*
X56894504Y-120306580D01*
X56799266Y-120449438D01*
X56704028Y-120544676D01*
X56608790Y-120592295D01*
X58037361Y-120639914D02*
X58037361Y-121306580D01*
X57608790Y-120639914D02*
X57608790Y-121163723D01*
X57656409Y-121258961D01*
X57751647Y-121306580D01*
X57894504Y-121306580D01*
X57989742Y-121258961D01*
X58037361Y-121211342D01*
X58370695Y-120639914D02*
X58751647Y-120639914D01*
X58513552Y-121306580D02*
X58513552Y-120449438D01*
X58561171Y-120354200D01*
X58656409Y-120306580D01*
X58751647Y-120306580D01*
D14*
X57549266Y-122682771D02*
X57525457Y-122706580D01*
X57454028Y-122730390D01*
X57406409Y-122730390D01*
X57334980Y-122706580D01*
X57287361Y-122658961D01*
X57263552Y-122611342D01*
X57239742Y-122516104D01*
X57239742Y-122444676D01*
X57263552Y-122349438D01*
X57287361Y-122301819D01*
X57334980Y-122254200D01*
X57406409Y-122230390D01*
X57454028Y-122230390D01*
X57525457Y-122254200D01*
X57549266Y-122278009D01*
X57834980Y-122444676D02*
X57787361Y-122420866D01*
X57763552Y-122397057D01*
X57739742Y-122349438D01*
X57739742Y-122325628D01*
X57763552Y-122278009D01*
X57787361Y-122254200D01*
X57834980Y-122230390D01*
X57930219Y-122230390D01*
X57977838Y-122254200D01*
X58001647Y-122278009D01*
X58025457Y-122325628D01*
X58025457Y-122349438D01*
X58001647Y-122397057D01*
X57977838Y-122420866D01*
X57930219Y-122444676D01*
X57834980Y-122444676D01*
X57787361Y-122468485D01*
X57763552Y-122492295D01*
X57739742Y-122539914D01*
X57739742Y-122635152D01*
X57763552Y-122682771D01*
X57787361Y-122706580D01*
X57834980Y-122730390D01*
X57930219Y-122730390D01*
X57977838Y-122706580D01*
X58001647Y-122682771D01*
X58025457Y-122635152D01*
X58025457Y-122539914D01*
X58001647Y-122492295D01*
X57977838Y-122468485D01*
X57930219Y-122444676D01*
%TO.C,C7*%
D11*
X89073980Y-132354580D02*
X89073980Y-132926009D01*
X89073980Y-132640295D02*
X88073980Y-132640295D01*
X88216838Y-132735533D01*
X88312076Y-132830771D01*
X88359695Y-132926009D01*
X88407314Y-131926009D02*
X89073980Y-131926009D01*
X88502552Y-131926009D02*
X88454933Y-131878390D01*
X88407314Y-131783152D01*
X88407314Y-131640295D01*
X88454933Y-131545057D01*
X88550171Y-131497438D01*
X89073980Y-131497438D01*
X88407314Y-131164104D02*
X88407314Y-130783152D01*
X89073980Y-131021247D02*
X88216838Y-131021247D01*
X88121600Y-130973628D01*
X88073980Y-130878390D01*
X88073980Y-130783152D01*
D14*
X90450171Y-131985533D02*
X90473980Y-132009342D01*
X90497790Y-132080771D01*
X90497790Y-132128390D01*
X90473980Y-132199819D01*
X90426361Y-132247438D01*
X90378742Y-132271247D01*
X90283504Y-132295057D01*
X90212076Y-132295057D01*
X90116838Y-132271247D01*
X90069219Y-132247438D01*
X90021600Y-132199819D01*
X89997790Y-132128390D01*
X89997790Y-132080771D01*
X90021600Y-132009342D01*
X90045409Y-131985533D01*
X89997790Y-131818866D02*
X89997790Y-131485533D01*
X90497790Y-131699819D01*
%TO.C,C6*%
D11*
X89251780Y-137967980D02*
X89251780Y-138539409D01*
X89251780Y-138253695D02*
X88251780Y-138253695D01*
X88394638Y-138348933D01*
X88489876Y-138444171D01*
X88537495Y-138539409D01*
X88585114Y-137539409D02*
X89251780Y-137539409D01*
X88680352Y-137539409D02*
X88632733Y-137491790D01*
X88585114Y-137396552D01*
X88585114Y-137253695D01*
X88632733Y-137158457D01*
X88727971Y-137110838D01*
X89251780Y-137110838D01*
X88585114Y-136777504D02*
X88585114Y-136396552D01*
X89251780Y-136634647D02*
X88394638Y-136634647D01*
X88299400Y-136587028D01*
X88251780Y-136491790D01*
X88251780Y-136396552D01*
D14*
X90627971Y-137598933D02*
X90651780Y-137622742D01*
X90675590Y-137694171D01*
X90675590Y-137741790D01*
X90651780Y-137813219D01*
X90604161Y-137860838D01*
X90556542Y-137884647D01*
X90461304Y-137908457D01*
X90389876Y-137908457D01*
X90294638Y-137884647D01*
X90247019Y-137860838D01*
X90199400Y-137813219D01*
X90175590Y-137741790D01*
X90175590Y-137694171D01*
X90199400Y-137622742D01*
X90223209Y-137598933D01*
X90175590Y-137170361D02*
X90175590Y-137265600D01*
X90199400Y-137313219D01*
X90223209Y-137337028D01*
X90294638Y-137384647D01*
X90389876Y-137408457D01*
X90580352Y-137408457D01*
X90627971Y-137384647D01*
X90651780Y-137360838D01*
X90675590Y-137313219D01*
X90675590Y-137217980D01*
X90651780Y-137170361D01*
X90627971Y-137146552D01*
X90580352Y-137122742D01*
X90461304Y-137122742D01*
X90413685Y-137146552D01*
X90389876Y-137170361D01*
X90366066Y-137217980D01*
X90366066Y-137313219D01*
X90389876Y-137360838D01*
X90413685Y-137384647D01*
X90461304Y-137408457D01*
%TO.C,C5*%
D11*
X79320380Y-131465580D02*
X79320380Y-132037009D01*
X79320380Y-131751295D02*
X78320380Y-131751295D01*
X78463238Y-131846533D01*
X78558476Y-131941771D01*
X78606095Y-132037009D01*
X78653714Y-131037009D02*
X79320380Y-131037009D01*
X78748952Y-131037009D02*
X78701333Y-130989390D01*
X78653714Y-130894152D01*
X78653714Y-130751295D01*
X78701333Y-130656057D01*
X78796571Y-130608438D01*
X79320380Y-130608438D01*
X78653714Y-130275104D02*
X78653714Y-129894152D01*
X79320380Y-130132247D02*
X78463238Y-130132247D01*
X78368000Y-130084628D01*
X78320380Y-129989390D01*
X78320380Y-129894152D01*
D14*
X80696571Y-131096533D02*
X80720380Y-131120342D01*
X80744190Y-131191771D01*
X80744190Y-131239390D01*
X80720380Y-131310819D01*
X80672761Y-131358438D01*
X80625142Y-131382247D01*
X80529904Y-131406057D01*
X80458476Y-131406057D01*
X80363238Y-131382247D01*
X80315619Y-131358438D01*
X80268000Y-131310819D01*
X80244190Y-131239390D01*
X80244190Y-131191771D01*
X80268000Y-131120342D01*
X80291809Y-131096533D01*
X80244190Y-130644152D02*
X80244190Y-130882247D01*
X80482285Y-130906057D01*
X80458476Y-130882247D01*
X80434666Y-130834628D01*
X80434666Y-130715580D01*
X80458476Y-130667961D01*
X80482285Y-130644152D01*
X80529904Y-130620342D01*
X80648952Y-130620342D01*
X80696571Y-130644152D01*
X80720380Y-130667961D01*
X80744190Y-130715580D01*
X80744190Y-130834628D01*
X80720380Y-130882247D01*
X80696571Y-130906057D01*
%TO.C,C4*%
D11*
X79294980Y-138448280D02*
X79294980Y-139019709D01*
X79294980Y-138733995D02*
X78294980Y-138733995D01*
X78437838Y-138829233D01*
X78533076Y-138924471D01*
X78580695Y-139019709D01*
X78628314Y-138019709D02*
X79294980Y-138019709D01*
X78723552Y-138019709D02*
X78675933Y-137972090D01*
X78628314Y-137876852D01*
X78628314Y-137733995D01*
X78675933Y-137638757D01*
X78771171Y-137591138D01*
X79294980Y-137591138D01*
X78628314Y-137257804D02*
X78628314Y-136876852D01*
X79294980Y-137114947D02*
X78437838Y-137114947D01*
X78342600Y-137067328D01*
X78294980Y-136972090D01*
X78294980Y-136876852D01*
D14*
X80671171Y-138079233D02*
X80694980Y-138103042D01*
X80718790Y-138174471D01*
X80718790Y-138222090D01*
X80694980Y-138293519D01*
X80647361Y-138341138D01*
X80599742Y-138364947D01*
X80504504Y-138388757D01*
X80433076Y-138388757D01*
X80337838Y-138364947D01*
X80290219Y-138341138D01*
X80242600Y-138293519D01*
X80218790Y-138222090D01*
X80218790Y-138174471D01*
X80242600Y-138103042D01*
X80266409Y-138079233D01*
X80385457Y-137650661D02*
X80718790Y-137650661D01*
X80194980Y-137769709D02*
X80552123Y-137888757D01*
X80552123Y-137579233D01*
%TO.C,C3*%
D11*
X153162980Y-123598761D02*
X153162980Y-124170190D01*
X153162980Y-123884476D02*
X152162980Y-123884476D01*
X152305838Y-123979714D01*
X152401076Y-124074952D01*
X152448695Y-124170190D01*
X152162980Y-122979714D02*
X152162980Y-122884476D01*
X152210600Y-122789238D01*
X152258219Y-122741619D01*
X152353457Y-122694000D01*
X152543933Y-122646380D01*
X152782028Y-122646380D01*
X152972504Y-122694000D01*
X153067742Y-122741619D01*
X153115361Y-122789238D01*
X153162980Y-122884476D01*
X153162980Y-122979714D01*
X153115361Y-123074952D01*
X153067742Y-123122571D01*
X152972504Y-123170190D01*
X152782028Y-123217809D01*
X152543933Y-123217809D01*
X152353457Y-123170190D01*
X152258219Y-123122571D01*
X152210600Y-123074952D01*
X152162980Y-122979714D01*
X152162980Y-122027333D02*
X152162980Y-121932095D01*
X152210600Y-121836857D01*
X152258219Y-121789238D01*
X152353457Y-121741619D01*
X152543933Y-121694000D01*
X152782028Y-121694000D01*
X152972504Y-121741619D01*
X153067742Y-121789238D01*
X153115361Y-121836857D01*
X153162980Y-121932095D01*
X153162980Y-122027333D01*
X153115361Y-122122571D01*
X153067742Y-122170190D01*
X152972504Y-122217809D01*
X152782028Y-122265428D01*
X152543933Y-122265428D01*
X152353457Y-122217809D01*
X152258219Y-122170190D01*
X152210600Y-122122571D01*
X152162980Y-122027333D01*
X152496314Y-120836857D02*
X153162980Y-120836857D01*
X152496314Y-121265428D02*
X153020123Y-121265428D01*
X153115361Y-121217809D01*
X153162980Y-121122571D01*
X153162980Y-120979714D01*
X153115361Y-120884476D01*
X153067742Y-120836857D01*
X152496314Y-120503523D02*
X152496314Y-120122571D01*
X153162980Y-120360666D02*
X152305838Y-120360666D01*
X152210600Y-120313047D01*
X152162980Y-120217809D01*
X152162980Y-120122571D01*
X148667742Y-122360666D02*
X148715361Y-122408285D01*
X148762980Y-122551142D01*
X148762980Y-122646380D01*
X148715361Y-122789238D01*
X148620123Y-122884476D01*
X148524885Y-122932095D01*
X148334409Y-122979714D01*
X148191552Y-122979714D01*
X148001076Y-122932095D01*
X147905838Y-122884476D01*
X147810600Y-122789238D01*
X147762980Y-122646380D01*
X147762980Y-122551142D01*
X147810600Y-122408285D01*
X147858219Y-122360666D01*
X147762980Y-122027333D02*
X147762980Y-121408285D01*
X148143933Y-121741619D01*
X148143933Y-121598761D01*
X148191552Y-121503523D01*
X148239171Y-121455904D01*
X148334409Y-121408285D01*
X148572504Y-121408285D01*
X148667742Y-121455904D01*
X148715361Y-121503523D01*
X148762980Y-121598761D01*
X148762980Y-121884476D01*
X148715361Y-121979714D01*
X148667742Y-122027333D01*
%TO.C,C2*%
X122036380Y-110680961D02*
X122036380Y-111252390D01*
X122036380Y-110966676D02*
X121036380Y-110966676D01*
X121179238Y-111061914D01*
X121274476Y-111157152D01*
X121322095Y-111252390D01*
X121036380Y-110061914D02*
X121036380Y-109966676D01*
X121084000Y-109871438D01*
X121131619Y-109823819D01*
X121226857Y-109776200D01*
X121417333Y-109728580D01*
X121655428Y-109728580D01*
X121845904Y-109776200D01*
X121941142Y-109823819D01*
X121988761Y-109871438D01*
X122036380Y-109966676D01*
X122036380Y-110061914D01*
X121988761Y-110157152D01*
X121941142Y-110204771D01*
X121845904Y-110252390D01*
X121655428Y-110300009D01*
X121417333Y-110300009D01*
X121226857Y-110252390D01*
X121131619Y-110204771D01*
X121084000Y-110157152D01*
X121036380Y-110061914D01*
X121036380Y-109109533D02*
X121036380Y-109014295D01*
X121084000Y-108919057D01*
X121131619Y-108871438D01*
X121226857Y-108823819D01*
X121417333Y-108776200D01*
X121655428Y-108776200D01*
X121845904Y-108823819D01*
X121941142Y-108871438D01*
X121988761Y-108919057D01*
X122036380Y-109014295D01*
X122036380Y-109109533D01*
X121988761Y-109204771D01*
X121941142Y-109252390D01*
X121845904Y-109300009D01*
X121655428Y-109347628D01*
X121417333Y-109347628D01*
X121226857Y-109300009D01*
X121131619Y-109252390D01*
X121084000Y-109204771D01*
X121036380Y-109109533D01*
X121369714Y-107919057D02*
X122036380Y-107919057D01*
X121369714Y-108347628D02*
X121893523Y-108347628D01*
X121988761Y-108300009D01*
X122036380Y-108204771D01*
X122036380Y-108061914D01*
X121988761Y-107966676D01*
X121941142Y-107919057D01*
X121369714Y-107585723D02*
X121369714Y-107204771D01*
X122036380Y-107442866D02*
X121179238Y-107442866D01*
X121084000Y-107395247D01*
X121036380Y-107300009D01*
X121036380Y-107204771D01*
X126341142Y-109442866D02*
X126388761Y-109490485D01*
X126436380Y-109633342D01*
X126436380Y-109728580D01*
X126388761Y-109871438D01*
X126293523Y-109966676D01*
X126198285Y-110014295D01*
X126007809Y-110061914D01*
X125864952Y-110061914D01*
X125674476Y-110014295D01*
X125579238Y-109966676D01*
X125484000Y-109871438D01*
X125436380Y-109728580D01*
X125436380Y-109633342D01*
X125484000Y-109490485D01*
X125531619Y-109442866D01*
X125531619Y-109061914D02*
X125484000Y-109014295D01*
X125436380Y-108919057D01*
X125436380Y-108680961D01*
X125484000Y-108585723D01*
X125531619Y-108538104D01*
X125626857Y-108490485D01*
X125722095Y-108490485D01*
X125864952Y-108538104D01*
X126436380Y-109109533D01*
X126436380Y-108490485D01*
%TO.C,C1*%
X142938038Y-118974580D02*
X142366609Y-118974580D01*
X142652323Y-118974580D02*
X142652323Y-117974580D01*
X142557085Y-118117438D01*
X142461847Y-118212676D01*
X142366609Y-118260295D01*
X143557085Y-117974580D02*
X143652323Y-117974580D01*
X143747561Y-118022200D01*
X143795180Y-118069819D01*
X143842800Y-118165057D01*
X143890419Y-118355533D01*
X143890419Y-118593628D01*
X143842800Y-118784104D01*
X143795180Y-118879342D01*
X143747561Y-118926961D01*
X143652323Y-118974580D01*
X143557085Y-118974580D01*
X143461847Y-118926961D01*
X143414228Y-118879342D01*
X143366609Y-118784104D01*
X143318990Y-118593628D01*
X143318990Y-118355533D01*
X143366609Y-118165057D01*
X143414228Y-118069819D01*
X143461847Y-118022200D01*
X143557085Y-117974580D01*
X144509466Y-117974580D02*
X144604704Y-117974580D01*
X144699942Y-118022200D01*
X144747561Y-118069819D01*
X144795180Y-118165057D01*
X144842800Y-118355533D01*
X144842800Y-118593628D01*
X144795180Y-118784104D01*
X144747561Y-118879342D01*
X144699942Y-118926961D01*
X144604704Y-118974580D01*
X144509466Y-118974580D01*
X144414228Y-118926961D01*
X144366609Y-118879342D01*
X144318990Y-118784104D01*
X144271371Y-118593628D01*
X144271371Y-118355533D01*
X144318990Y-118165057D01*
X144366609Y-118069819D01*
X144414228Y-118022200D01*
X144509466Y-117974580D01*
X145699942Y-118307914D02*
X145699942Y-118974580D01*
X145271371Y-118307914D02*
X145271371Y-118831723D01*
X145318990Y-118926961D01*
X145414228Y-118974580D01*
X145557085Y-118974580D01*
X145652323Y-118926961D01*
X145699942Y-118879342D01*
X146033276Y-118307914D02*
X146414228Y-118307914D01*
X146176133Y-118974580D02*
X146176133Y-118117438D01*
X146223752Y-118022200D01*
X146318990Y-117974580D01*
X146414228Y-117974580D01*
X144176133Y-114479342D02*
X144128514Y-114526961D01*
X143985657Y-114574580D01*
X143890419Y-114574580D01*
X143747561Y-114526961D01*
X143652323Y-114431723D01*
X143604704Y-114336485D01*
X143557085Y-114146009D01*
X143557085Y-114003152D01*
X143604704Y-113812676D01*
X143652323Y-113717438D01*
X143747561Y-113622200D01*
X143890419Y-113574580D01*
X143985657Y-113574580D01*
X144128514Y-113622200D01*
X144176133Y-113669819D01*
X145128514Y-114574580D02*
X144557085Y-114574580D01*
X144842800Y-114574580D02*
X144842800Y-113574580D01*
X144747561Y-113717438D01*
X144652323Y-113812676D01*
X144557085Y-113860295D01*
%TD*%
M02*
