%TF.GenerationSoftware,KiCad,Pcbnew,5.1.6-c6e7f7d~86~ubuntu18.04.1*%
%TF.CreationDate,2020-11-01T20:36:20-05:00*%
%TF.ProjectId,Senior-Design-Radar-Group,53656e69-6f72-42d4-9465-7369676e2d52,rev?*%
%TF.SameCoordinates,Original*%
%TF.FileFunction,Copper,L2,Bot*%
%TF.FilePolarity,Positive*%
%FSLAX46Y46*%
G04 Gerber Fmt 4.6, Leading zero omitted, Abs format (unit mm)*
G04 Created by KiCad (PCBNEW 5.1.6-c6e7f7d~86~ubuntu18.04.1) date 2020-11-01 20:36:20*
%MOMM*%
%LPD*%
G01*
G04 APERTURE LIST*
%TA.AperFunction,ComponentPad*%
%ADD10C,2.250000*%
%TD*%
%TA.AperFunction,ComponentPad*%
%ADD11C,2.050000*%
%TD*%
%TA.AperFunction,ComponentPad*%
%ADD12C,1.600000*%
%TD*%
%TA.AperFunction,ComponentPad*%
%ADD13C,1.440000*%
%TD*%
%TA.AperFunction,ComponentPad*%
%ADD14C,2.200000*%
%TD*%
%TA.AperFunction,ComponentPad*%
%ADD15R,2.200000X2.200000*%
%TD*%
%TA.AperFunction,SMDPad,CuDef*%
%ADD16R,5.080000X1.500000*%
%TD*%
%TA.AperFunction,ComponentPad*%
%ADD17R,1.600000X1.600000*%
%TD*%
%TA.AperFunction,ViaPad*%
%ADD18C,0.800000*%
%TD*%
%TA.AperFunction,Conductor*%
%ADD19C,0.762000*%
%TD*%
%TA.AperFunction,Conductor*%
%ADD20C,0.508000*%
%TD*%
%TA.AperFunction,Conductor*%
%ADD21C,0.254000*%
%TD*%
%TA.AperFunction,Conductor*%
%ADD22C,0.250000*%
%TD*%
G04 APERTURE END LIST*
D10*
%TO.P,J3,2*%
%TO.N,GND*%
X138074400Y-149225000D03*
X138074400Y-144145000D03*
X143154400Y-144145000D03*
X143154400Y-149225000D03*
D11*
%TO.P,J3,1*%
%TO.N,/DAC*%
X140614400Y-146685000D03*
%TD*%
D10*
%TO.P,J8,2*%
%TO.N,GND*%
X138171000Y-133470200D03*
X143251000Y-133470200D03*
X143251000Y-138550200D03*
X138171000Y-138550200D03*
D11*
%TO.P,J8,1*%
%TO.N,Net-(D2-Pad1)*%
X140711000Y-136010200D03*
%TD*%
D12*
%TO.P,U1,44*%
%TO.N,Net-(U1-Pad44)*%
X129108200Y-123977400D03*
%TO.P,U1,43*%
%TO.N,Net-(U1-Pad43)*%
X129108200Y-121437400D03*
%TO.P,U1,42*%
%TO.N,Net-(U1-Pad42)*%
X126568200Y-123977400D03*
%TO.P,U1,41*%
%TO.N,Net-(U1-Pad41)*%
X126568200Y-121437400D03*
%TO.P,U1,40*%
%TO.N,Net-(U1-Pad40)*%
X124028200Y-123977400D03*
%TO.P,U1,39*%
%TO.N,Net-(U1-Pad39)*%
X124028200Y-121437400D03*
%TO.P,U1,38*%
%TO.N,Net-(U1-Pad38)*%
X121488200Y-123977400D03*
%TO.P,U1,37*%
%TO.N,Net-(U1-Pad37)*%
X121488200Y-121437400D03*
%TO.P,U1,36*%
%TO.N,Net-(U1-Pad36)*%
X118948200Y-123977400D03*
%TO.P,U1,35*%
%TO.N,Net-(U1-Pad35)*%
X118948200Y-121437400D03*
%TO.P,U1,1*%
%TO.N,GND*%
X131648200Y-149377400D03*
%TO.P,U1,2*%
%TO.N,/DAC*%
X131648200Y-146837400D03*
%TO.P,U1,3*%
%TO.N,Net-(U1-Pad3)*%
X131648200Y-144297400D03*
%TO.P,U1,4*%
%TO.N,Net-(U1-Pad4)*%
X131648200Y-141757400D03*
%TO.P,U1,5*%
%TO.N,Net-(U1-Pad5)*%
X131648200Y-139217400D03*
%TO.P,U1,6*%
%TO.N,Net-(U1-Pad6)*%
X131648200Y-136677400D03*
%TO.P,U1,7*%
%TO.N,Net-(U1-Pad7)*%
X131648200Y-134137400D03*
%TO.P,U1,8*%
%TO.N,Net-(U1-Pad8)*%
X131648200Y-131597400D03*
%TO.P,U1,9*%
%TO.N,Net-(U1-Pad9)*%
X131648200Y-129057400D03*
%TO.P,U1,10*%
%TO.N,Net-(U1-Pad10)*%
X131648200Y-126517400D03*
%TO.P,U1,11*%
%TO.N,Net-(U1-Pad11)*%
X131648200Y-123977400D03*
%TO.P,U1,12*%
%TO.N,/!CS*%
X131648200Y-121437400D03*
%TO.P,U1,13*%
%TO.N,Net-(U1-Pad13)*%
X131648200Y-118897400D03*
%TO.P,U1,34*%
%TO.N,Net-(U1-Pad34)*%
X118948200Y-146837400D03*
%TO.P,U1,33*%
%TO.N,Net-(U1-Pad33)*%
X116408200Y-149377400D03*
%TO.P,U1,32*%
%TO.N,Net-(U1-Pad32)*%
X116408200Y-146837400D03*
%TO.P,U1,31*%
%TO.N,Net-(U1-Pad31)*%
X116408200Y-144297400D03*
%TO.P,U1,30*%
%TO.N,Net-(U1-Pad30)*%
X116408200Y-141757400D03*
%TO.P,U1,29*%
%TO.N,Net-(U1-Pad29)*%
X116408200Y-139217400D03*
%TO.P,U1,28*%
%TO.N,Net-(U1-Pad28)*%
X116408200Y-136677400D03*
%TO.P,U1,27*%
%TO.N,Net-(U1-Pad27)*%
X116408200Y-134137400D03*
%TO.P,U1,26*%
%TO.N,Net-(U1-Pad26)*%
X116408200Y-131597400D03*
%TO.P,U1,25*%
%TO.N,Net-(U1-Pad25)*%
X116408200Y-129057400D03*
%TO.P,U1,24*%
%TO.N,Net-(U1-Pad24)*%
X116408200Y-126517400D03*
%TO.P,U1,23*%
%TO.N,Net-(U1-Pad23)*%
X116408200Y-123977400D03*
%TO.P,U1,22*%
%TO.N,Net-(U1-Pad22)*%
X116408200Y-121437400D03*
%TO.P,U1,21*%
%TO.N,/Signal*%
X116408200Y-118897400D03*
%TO.P,U1,14*%
%TO.N,/SDO*%
X131648200Y-116357400D03*
%TO.P,U1,15*%
%TO.N,Net-(U1-Pad15)*%
X129108200Y-116357400D03*
%TO.P,U1,16*%
%TO.N,Net-(U1-Pad16)*%
X126568200Y-116357400D03*
%TO.P,U1,20*%
%TO.N,/SCK*%
X116408200Y-116357400D03*
%TO.P,U1,19*%
%TO.N,Net-(U1-Pad19)*%
X118948200Y-116357400D03*
%TO.P,U1,18*%
%TO.N,Net-(U1-Pad18)*%
X121488200Y-116357400D03*
%TO.P,U1,17*%
%TO.N,Net-(U1-Pad17)*%
X124028200Y-116357400D03*
%TD*%
D10*
%TO.P,J6,2*%
%TO.N,GND*%
X96418400Y-133629400D03*
X96418400Y-128549400D03*
X101498400Y-128549400D03*
X101498400Y-133629400D03*
D11*
%TO.P,J6,1*%
%TO.N,/Filter2/SIGNAL_OUT*%
X98958400Y-131089400D03*
%TD*%
D10*
%TO.P,J4,2*%
%TO.N,GND*%
X93573600Y-111810800D03*
X93573600Y-106730800D03*
X98653600Y-106730800D03*
X98653600Y-111810800D03*
D11*
%TO.P,J4,1*%
%TO.N,/filter1/Signal_OUT*%
X96113600Y-109270800D03*
%TD*%
D13*
%TO.P,RV2,3*%
%TO.N,Net-(RV2-Pad3)*%
X71069200Y-133578600D03*
%TO.P,RV2,2*%
%TO.N,/PostAMP/SIGNAL_OUT2*%
X68529200Y-133578600D03*
%TO.P,RV2,1*%
%TO.N,Net-(R11-Pad1)*%
X65989200Y-133578600D03*
%TD*%
%TO.P,RV1,3*%
%TO.N,Net-(RV1-Pad3)*%
X71120000Y-120421400D03*
%TO.P,RV1,2*%
%TO.N,/filter1/SIGNAL_IN*%
X68580000Y-120421400D03*
%TO.P,RV1,1*%
%TO.N,Net-(R10-Pad1)*%
X66040000Y-120421400D03*
%TD*%
D14*
%TO.P,J7,4*%
%TO.N,GND*%
X60782200Y-114655600D03*
%TO.P,J7,3*%
%TO.N,GND1*%
X58242200Y-114655600D03*
%TO.P,J7,2*%
%TO.N,+5V*%
X55702200Y-114655600D03*
D15*
%TO.P,J7,1*%
%TO.N,Vio*%
X53162200Y-114655600D03*
%TD*%
D16*
%TO.P,J2,2*%
%TO.N,GND*%
X51358800Y-131385200D03*
X51358800Y-122885200D03*
%TD*%
D12*
%TO.P,C3,2*%
%TO.N,GND*%
X148310600Y-120944000D03*
D17*
%TO.P,C3,1*%
%TO.N,+3V3*%
X148310600Y-123444000D03*
%TD*%
D12*
%TO.P,C2,2*%
%TO.N,GND*%
X125984000Y-110526200D03*
D17*
%TO.P,C2,1*%
%TO.N,+3V3*%
X125984000Y-108026200D03*
%TD*%
D12*
%TO.P,C1,2*%
%TO.N,GND*%
X145592800Y-114122200D03*
D17*
%TO.P,C1,1*%
%TO.N,+5V*%
X143092800Y-114122200D03*
%TD*%
D18*
%TO.N,GND*%
X90816860Y-117190955D03*
X81026000Y-123444000D03*
X82296000Y-123444000D03*
X83566000Y-123444000D03*
X83566000Y-124714000D03*
X82296000Y-124714000D03*
X81026000Y-124714000D03*
X81026000Y-125984000D03*
X82296000Y-125984000D03*
X83566000Y-125984000D03*
X77110111Y-123338111D03*
X76962000Y-122428000D03*
X75692000Y-122428000D03*
X74422000Y-122428000D03*
X74422000Y-123698000D03*
X75692000Y-123698000D03*
X86614000Y-124460000D03*
X86614000Y-125730000D03*
X87884000Y-125730000D03*
X89662000Y-125730000D03*
X90932000Y-125730000D03*
%TO.N,+3V3*%
X114554000Y-119786400D03*
%TO.N,GND1*%
X56896000Y-126847600D03*
X59156600Y-133375400D03*
X59969400Y-120777000D03*
X58293000Y-117398800D03*
X84388400Y-132816600D03*
X84485000Y-138933400D03*
X86350400Y-133400800D03*
X86771000Y-138933400D03*
X79502000Y-128524000D03*
X82757800Y-138933400D03*
X104216200Y-127711200D03*
X79552800Y-124891800D03*
X82757800Y-138933400D03*
X78998600Y-138933400D03*
%TO.N,Vio*%
X63906400Y-127228600D03*
X85369400Y-126720600D03*
X91313000Y-118059200D03*
X86029800Y-137566400D03*
%TO.N,/Signal*%
X107213400Y-106908600D03*
X110253299Y-119778299D03*
%TO.N,/Signal2*%
X108432600Y-132130800D03*
X107340400Y-109956600D03*
%TO.N,/SCK*%
X118510528Y-100974064D03*
%TO.N,/SDO*%
X118643400Y-101965200D03*
%TD*%
D19*
%TO.N,+5V*%
X102866455Y-99993063D02*
X128963663Y-99993063D01*
X57383201Y-116336601D02*
X86522917Y-116336601D01*
X128963663Y-99993063D02*
X143092800Y-114122200D01*
X86522917Y-116336601D02*
X102866455Y-99993063D01*
X55702200Y-114655600D02*
X57383201Y-116336601D01*
D20*
%TO.N,+3V3*%
X117694199Y-115008001D02*
X124676000Y-108026200D01*
X117694199Y-116959321D02*
X117694199Y-115008001D01*
X124676000Y-108026200D02*
X125984000Y-108026200D01*
X117010121Y-117643399D02*
X117694199Y-116959321D01*
X115806279Y-117643399D02*
X117010121Y-117643399D01*
X114554000Y-118895678D02*
X115806279Y-117643399D01*
X114554000Y-119786400D02*
X114554000Y-118895678D01*
D19*
%TO.N,GND1*%
X58242200Y-114655600D02*
X56561199Y-112974599D01*
X51597399Y-112974599D02*
X51481199Y-113090799D01*
X51481199Y-113090799D02*
X51481199Y-118740399D01*
X51481199Y-118740399D02*
X56896000Y-124155200D01*
X56561199Y-112974599D02*
X51597399Y-112974599D01*
X56896000Y-124155200D02*
X56896000Y-126847600D01*
X56896000Y-126847600D02*
X56896000Y-131114800D01*
X56896000Y-131114800D02*
X59156600Y-133375400D01*
X59969400Y-120777000D02*
X59969400Y-119075200D01*
X59969400Y-119075200D02*
X58293000Y-117398800D01*
D20*
X84388400Y-138836800D02*
X84485000Y-138933400D01*
X84388400Y-132816600D02*
X84388400Y-138836800D01*
X86883801Y-138820599D02*
X86771000Y-138933400D01*
X86883801Y-133934201D02*
X86883801Y-138820599D01*
X86350400Y-133400800D02*
X86883801Y-133934201D01*
X82757800Y-131779800D02*
X82757800Y-138933400D01*
X79502000Y-128524000D02*
X82757800Y-131779800D01*
X104216200Y-133248522D02*
X98531322Y-138933400D01*
X98531322Y-138933400D02*
X86771000Y-138933400D01*
X104216200Y-127711200D02*
X104216200Y-133248522D01*
X59969400Y-120777000D02*
X64084200Y-124891800D01*
X64084200Y-124891800D02*
X79552800Y-124891800D01*
X59156600Y-133375400D02*
X64714600Y-138933400D01*
X64714600Y-138933400D02*
X78998600Y-138933400D01*
X78998600Y-138933400D02*
X82757800Y-138933400D01*
D19*
%TO.N,Vio*%
X53162200Y-114655600D02*
X53162200Y-116484400D01*
X53162200Y-116484400D02*
X63906400Y-127228600D01*
X63906400Y-127228600D02*
X84861400Y-127228600D01*
X84861400Y-127228600D02*
X85369400Y-126720600D01*
X85369400Y-126720600D02*
X85369400Y-124002800D01*
X85369400Y-124002800D02*
X91313000Y-118059200D01*
X85369400Y-136906000D02*
X85369400Y-126720600D01*
X86029800Y-137566400D02*
X85369400Y-136906000D01*
D21*
%TO.N,/Signal*%
X110253299Y-109948499D02*
X110253299Y-119778299D01*
X107213400Y-106908600D02*
X110253299Y-109948499D01*
%TO.N,/Signal2*%
X108432600Y-132130800D02*
X107340400Y-131038600D01*
X107340400Y-131038600D02*
X107340400Y-109956600D01*
D22*
%TO.N,/SCK*%
X116408200Y-116357400D02*
X116408200Y-103076392D01*
X116408200Y-103076392D02*
X118510528Y-100974064D01*
%TO.N,/SDO*%
X118643400Y-101965200D02*
X121554800Y-104876600D01*
X131648200Y-111505398D02*
X131648200Y-116357400D01*
X125019402Y-104876600D02*
X131648200Y-111505398D01*
X121554800Y-104876600D02*
X125019402Y-104876600D01*
%TD*%
D21*
%TO.N,GND*%
G36*
X151892401Y-147084372D02*
G01*
X151892400Y-147084382D01*
X151892401Y-151790800D01*
X49377200Y-151790800D01*
X49377200Y-132772511D01*
X51073050Y-132770200D01*
X51231800Y-132611450D01*
X51231800Y-131512200D01*
X51485800Y-131512200D01*
X51485800Y-132611450D01*
X51644550Y-132770200D01*
X53898800Y-132773272D01*
X54023282Y-132761012D01*
X54142980Y-132724702D01*
X54253294Y-132665737D01*
X54349985Y-132586385D01*
X54429337Y-132489694D01*
X54488302Y-132379380D01*
X54524612Y-132259682D01*
X54536872Y-132135200D01*
X54533800Y-131670950D01*
X54375050Y-131512200D01*
X51485800Y-131512200D01*
X51231800Y-131512200D01*
X51211800Y-131512200D01*
X51211800Y-131258200D01*
X51231800Y-131258200D01*
X51231800Y-130158950D01*
X51485800Y-130158950D01*
X51485800Y-131258200D01*
X54375050Y-131258200D01*
X54533800Y-131099450D01*
X54536872Y-130635200D01*
X54524612Y-130510718D01*
X54488302Y-130391020D01*
X54429337Y-130280706D01*
X54349985Y-130184015D01*
X54253294Y-130104663D01*
X54142980Y-130045698D01*
X54023282Y-130009388D01*
X53898800Y-129997128D01*
X51644550Y-130000200D01*
X51485800Y-130158950D01*
X51231800Y-130158950D01*
X51073050Y-130000200D01*
X49377200Y-129997889D01*
X49377200Y-124272511D01*
X51073050Y-124270200D01*
X51231800Y-124111450D01*
X51231800Y-123012200D01*
X51211800Y-123012200D01*
X51211800Y-122758200D01*
X51231800Y-122758200D01*
X51231800Y-121658950D01*
X51073050Y-121500200D01*
X49377200Y-121497889D01*
X49377200Y-113090799D01*
X50460284Y-113090799D01*
X50465199Y-113140701D01*
X50465200Y-118690487D01*
X50460284Y-118740399D01*
X50479901Y-118939569D01*
X50519453Y-119069952D01*
X50537998Y-119131086D01*
X50632340Y-119307589D01*
X50759304Y-119462295D01*
X50798067Y-119494107D01*
X52802582Y-121498622D01*
X51644550Y-121500200D01*
X51485800Y-121658950D01*
X51485800Y-122758200D01*
X51505800Y-122758200D01*
X51505800Y-123012200D01*
X51485800Y-123012200D01*
X51485800Y-124111450D01*
X51644550Y-124270200D01*
X53898800Y-124273272D01*
X54023282Y-124261012D01*
X54142980Y-124224702D01*
X54253294Y-124165737D01*
X54349985Y-124086385D01*
X54429337Y-123989694D01*
X54488302Y-123879380D01*
X54524612Y-123759682D01*
X54536872Y-123635200D01*
X54534192Y-123230233D01*
X55880000Y-124576041D01*
X55880001Y-126650136D01*
X55861000Y-126745661D01*
X55861000Y-126949539D01*
X55880000Y-127045059D01*
X55880001Y-131064888D01*
X55875085Y-131114800D01*
X55894702Y-131313970D01*
X55942345Y-131471026D01*
X55952799Y-131505487D01*
X56047141Y-131681990D01*
X56174105Y-131836696D01*
X56212868Y-131868508D01*
X58298556Y-133954197D01*
X58352663Y-134035174D01*
X58496826Y-134179337D01*
X58666344Y-134292605D01*
X58854702Y-134370626D01*
X58904495Y-134380530D01*
X64055106Y-139531142D01*
X64082941Y-139565059D01*
X64116858Y-139592894D01*
X64116859Y-139592895D01*
X64159154Y-139627606D01*
X64218309Y-139676153D01*
X64372749Y-139758703D01*
X64467358Y-139787402D01*
X64540325Y-139809536D01*
X64556925Y-139811171D01*
X64670933Y-139822400D01*
X64670940Y-139822400D01*
X64714600Y-139826700D01*
X64758260Y-139822400D01*
X78466132Y-139822400D01*
X78508344Y-139850605D01*
X78696702Y-139928626D01*
X78896661Y-139968400D01*
X79100539Y-139968400D01*
X79300498Y-139928626D01*
X79488856Y-139850605D01*
X79531068Y-139822400D01*
X82225332Y-139822400D01*
X82267544Y-139850605D01*
X82455902Y-139928626D01*
X82655861Y-139968400D01*
X82859739Y-139968400D01*
X83059698Y-139928626D01*
X83248056Y-139850605D01*
X83417574Y-139737337D01*
X83561737Y-139593174D01*
X83621400Y-139503882D01*
X83681063Y-139593174D01*
X83825226Y-139737337D01*
X83994744Y-139850605D01*
X84183102Y-139928626D01*
X84383061Y-139968400D01*
X84586939Y-139968400D01*
X84786898Y-139928626D01*
X84975256Y-139850605D01*
X85144774Y-139737337D01*
X85288937Y-139593174D01*
X85402205Y-139423656D01*
X85480226Y-139235298D01*
X85520000Y-139035339D01*
X85520000Y-138831461D01*
X85480226Y-138631502D01*
X85402205Y-138443144D01*
X85320394Y-138320705D01*
X85370026Y-138370337D01*
X85539544Y-138483605D01*
X85727902Y-138561626D01*
X85798871Y-138575742D01*
X85775774Y-138631502D01*
X85736000Y-138831461D01*
X85736000Y-139035339D01*
X85775774Y-139235298D01*
X85853795Y-139423656D01*
X85967063Y-139593174D01*
X86111226Y-139737337D01*
X86280744Y-139850605D01*
X86469102Y-139928626D01*
X86669061Y-139968400D01*
X86872939Y-139968400D01*
X87072898Y-139928626D01*
X87261256Y-139850605D01*
X87303468Y-139822400D01*
X98487662Y-139822400D01*
X98531322Y-139826700D01*
X98574982Y-139822400D01*
X98574989Y-139822400D01*
X98705596Y-139809536D01*
X98873173Y-139758703D01*
X99027613Y-139676153D01*
X99162981Y-139565059D01*
X99190821Y-139531136D01*
X104813942Y-133908016D01*
X104847859Y-133880181D01*
X104958953Y-133744813D01*
X105041503Y-133590373D01*
X105087751Y-133437911D01*
X105092336Y-133422797D01*
X105109501Y-133248522D01*
X105105200Y-133204854D01*
X105105200Y-128243668D01*
X105133405Y-128201456D01*
X105211426Y-128013098D01*
X105251200Y-127813139D01*
X105251200Y-127609261D01*
X105211426Y-127409302D01*
X105133405Y-127220944D01*
X105020137Y-127051426D01*
X104875974Y-126907263D01*
X104706456Y-126793995D01*
X104518098Y-126715974D01*
X104318139Y-126676200D01*
X104114261Y-126676200D01*
X103914302Y-126715974D01*
X103725944Y-126793995D01*
X103556426Y-126907263D01*
X103412263Y-127051426D01*
X103298995Y-127220944D01*
X103220974Y-127409302D01*
X103181200Y-127609261D01*
X103181200Y-127813139D01*
X103220974Y-128013098D01*
X103298995Y-128201456D01*
X103327200Y-128243668D01*
X103327201Y-132880285D01*
X103159632Y-133047854D01*
X103109366Y-132899715D01*
X103000114Y-132695321D01*
X102722931Y-132584474D01*
X101678005Y-133629400D01*
X101692148Y-133643543D01*
X101512543Y-133823148D01*
X101498400Y-133809005D01*
X100453474Y-134853931D01*
X100564321Y-135131114D01*
X100875240Y-135284489D01*
X100912901Y-135294585D01*
X98163087Y-138044400D01*
X87772801Y-138044400D01*
X87772801Y-134853931D01*
X95373474Y-134853931D01*
X95484321Y-135131114D01*
X95795240Y-135284489D01*
X96130105Y-135374260D01*
X96476050Y-135396976D01*
X96819780Y-135351766D01*
X97148085Y-135240366D01*
X97352479Y-135131114D01*
X97463326Y-134853931D01*
X96418400Y-133809005D01*
X95373474Y-134853931D01*
X87772801Y-134853931D01*
X87772801Y-133977861D01*
X87777101Y-133934201D01*
X87772801Y-133890541D01*
X87772801Y-133890534D01*
X87759937Y-133759927D01*
X87755353Y-133744813D01*
X87737831Y-133687050D01*
X94650824Y-133687050D01*
X94696034Y-134030780D01*
X94807434Y-134359085D01*
X94916686Y-134563479D01*
X95193869Y-134674326D01*
X96238795Y-133629400D01*
X96598005Y-133629400D01*
X97642931Y-134674326D01*
X97920114Y-134563479D01*
X98073489Y-134252560D01*
X98163260Y-133917695D01*
X98178404Y-133687050D01*
X99730824Y-133687050D01*
X99776034Y-134030780D01*
X99887434Y-134359085D01*
X99996686Y-134563479D01*
X100273869Y-134674326D01*
X101318795Y-133629400D01*
X100273869Y-132584474D01*
X99996686Y-132695321D01*
X99843311Y-133006240D01*
X99753540Y-133341105D01*
X99730824Y-133687050D01*
X98178404Y-133687050D01*
X98185976Y-133571750D01*
X98140766Y-133228020D01*
X98029366Y-132899715D01*
X97920114Y-132695321D01*
X97642931Y-132584474D01*
X96598005Y-133629400D01*
X96238795Y-133629400D01*
X95193869Y-132584474D01*
X94916686Y-132695321D01*
X94763311Y-133006240D01*
X94673540Y-133341105D01*
X94650824Y-133687050D01*
X87737831Y-133687050D01*
X87709103Y-133592348D01*
X87643813Y-133470200D01*
X87626554Y-133437910D01*
X87515460Y-133302542D01*
X87481538Y-133274703D01*
X87355530Y-133148695D01*
X87345626Y-133098902D01*
X87267605Y-132910544D01*
X87154337Y-132741026D01*
X87010174Y-132596863D01*
X86840656Y-132483595D01*
X86652298Y-132405574D01*
X86648754Y-132404869D01*
X95373474Y-132404869D01*
X96418400Y-133449795D01*
X97463326Y-132404869D01*
X97352479Y-132127686D01*
X97041560Y-131974311D01*
X96706695Y-131884540D01*
X96360750Y-131861824D01*
X96017020Y-131907034D01*
X95688715Y-132018434D01*
X95484321Y-132127686D01*
X95373474Y-132404869D01*
X86648754Y-132404869D01*
X86452339Y-132365800D01*
X86385400Y-132365800D01*
X86385400Y-130925904D01*
X97298400Y-130925904D01*
X97298400Y-131252896D01*
X97362193Y-131573604D01*
X97487327Y-131875705D01*
X97668994Y-132147588D01*
X97900212Y-132378806D01*
X98172095Y-132560473D01*
X98474196Y-132685607D01*
X98794904Y-132749400D01*
X99121896Y-132749400D01*
X99442604Y-132685607D01*
X99744705Y-132560473D01*
X99977582Y-132404869D01*
X100453474Y-132404869D01*
X101498400Y-133449795D01*
X102543326Y-132404869D01*
X102432479Y-132127686D01*
X102121560Y-131974311D01*
X101786695Y-131884540D01*
X101440750Y-131861824D01*
X101097020Y-131907034D01*
X100768715Y-132018434D01*
X100564321Y-132127686D01*
X100453474Y-132404869D01*
X99977582Y-132404869D01*
X100016588Y-132378806D01*
X100247806Y-132147588D01*
X100429473Y-131875705D01*
X100554607Y-131573604D01*
X100618400Y-131252896D01*
X100618400Y-130925904D01*
X100554607Y-130605196D01*
X100429473Y-130303095D01*
X100247806Y-130031212D01*
X100016588Y-129799994D01*
X99977583Y-129773931D01*
X100453474Y-129773931D01*
X100564321Y-130051114D01*
X100875240Y-130204489D01*
X101210105Y-130294260D01*
X101556050Y-130316976D01*
X101899780Y-130271766D01*
X102228085Y-130160366D01*
X102432479Y-130051114D01*
X102543326Y-129773931D01*
X101498400Y-128729005D01*
X100453474Y-129773931D01*
X99977583Y-129773931D01*
X99744705Y-129618327D01*
X99442604Y-129493193D01*
X99121896Y-129429400D01*
X98794904Y-129429400D01*
X98474196Y-129493193D01*
X98172095Y-129618327D01*
X97900212Y-129799994D01*
X97668994Y-130031212D01*
X97487327Y-130303095D01*
X97362193Y-130605196D01*
X97298400Y-130925904D01*
X86385400Y-130925904D01*
X86385400Y-129773931D01*
X95373474Y-129773931D01*
X95484321Y-130051114D01*
X95795240Y-130204489D01*
X96130105Y-130294260D01*
X96476050Y-130316976D01*
X96819780Y-130271766D01*
X97148085Y-130160366D01*
X97352479Y-130051114D01*
X97463326Y-129773931D01*
X96418400Y-128729005D01*
X95373474Y-129773931D01*
X86385400Y-129773931D01*
X86385400Y-128607050D01*
X94650824Y-128607050D01*
X94696034Y-128950780D01*
X94807434Y-129279085D01*
X94916686Y-129483479D01*
X95193869Y-129594326D01*
X96238795Y-128549400D01*
X96598005Y-128549400D01*
X97642931Y-129594326D01*
X97920114Y-129483479D01*
X98073489Y-129172560D01*
X98163260Y-128837695D01*
X98178404Y-128607050D01*
X99730824Y-128607050D01*
X99776034Y-128950780D01*
X99887434Y-129279085D01*
X99996686Y-129483479D01*
X100273869Y-129594326D01*
X101318795Y-128549400D01*
X101678005Y-128549400D01*
X102722931Y-129594326D01*
X103000114Y-129483479D01*
X103153489Y-129172560D01*
X103243260Y-128837695D01*
X103265976Y-128491750D01*
X103220766Y-128148020D01*
X103109366Y-127819715D01*
X103000114Y-127615321D01*
X102722931Y-127504474D01*
X101678005Y-128549400D01*
X101318795Y-128549400D01*
X100273869Y-127504474D01*
X99996686Y-127615321D01*
X99843311Y-127926240D01*
X99753540Y-128261105D01*
X99730824Y-128607050D01*
X98178404Y-128607050D01*
X98185976Y-128491750D01*
X98140766Y-128148020D01*
X98029366Y-127819715D01*
X97920114Y-127615321D01*
X97642931Y-127504474D01*
X96598005Y-128549400D01*
X96238795Y-128549400D01*
X95193869Y-127504474D01*
X94916686Y-127615321D01*
X94763311Y-127926240D01*
X94673540Y-128261105D01*
X94650824Y-128607050D01*
X86385400Y-128607050D01*
X86385400Y-127324869D01*
X95373474Y-127324869D01*
X96418400Y-128369795D01*
X97463326Y-127324869D01*
X100453474Y-127324869D01*
X101498400Y-128369795D01*
X102543326Y-127324869D01*
X102432479Y-127047686D01*
X102121560Y-126894311D01*
X101786695Y-126804540D01*
X101440750Y-126781824D01*
X101097020Y-126827034D01*
X100768715Y-126938434D01*
X100564321Y-127047686D01*
X100453474Y-127324869D01*
X97463326Y-127324869D01*
X97352479Y-127047686D01*
X97041560Y-126894311D01*
X96706695Y-126804540D01*
X96360750Y-126781824D01*
X96017020Y-126827034D01*
X95688715Y-126938434D01*
X95484321Y-127047686D01*
X95373474Y-127324869D01*
X86385400Y-127324869D01*
X86385400Y-126918059D01*
X86404400Y-126822539D01*
X86404400Y-126618661D01*
X86385400Y-126523141D01*
X86385400Y-124423640D01*
X91891797Y-118917244D01*
X91972774Y-118863137D01*
X92116937Y-118718974D01*
X92230205Y-118549456D01*
X92308226Y-118361098D01*
X92348000Y-118161139D01*
X92348000Y-117957261D01*
X92308226Y-117757302D01*
X92230205Y-117568944D01*
X92116937Y-117399426D01*
X91972774Y-117255263D01*
X91803256Y-117141995D01*
X91614898Y-117063974D01*
X91414939Y-117024200D01*
X91211061Y-117024200D01*
X91011102Y-117063974D01*
X90822744Y-117141995D01*
X90653226Y-117255263D01*
X90509063Y-117399426D01*
X90454956Y-117480403D01*
X84686268Y-123249092D01*
X84647505Y-123280904D01*
X84520541Y-123435610D01*
X84501056Y-123472065D01*
X84426199Y-123612113D01*
X84368102Y-123803630D01*
X84348485Y-124002800D01*
X84353401Y-124052711D01*
X84353400Y-126212600D01*
X64327241Y-126212600D01*
X63870669Y-125756028D01*
X63909925Y-125767936D01*
X63926525Y-125769571D01*
X64040533Y-125780800D01*
X64040540Y-125780800D01*
X64084200Y-125785100D01*
X64127860Y-125780800D01*
X79020332Y-125780800D01*
X79062544Y-125809005D01*
X79250902Y-125887026D01*
X79450861Y-125926800D01*
X79654739Y-125926800D01*
X79854698Y-125887026D01*
X80043056Y-125809005D01*
X80212574Y-125695737D01*
X80356737Y-125551574D01*
X80470005Y-125382056D01*
X80548026Y-125193698D01*
X80587800Y-124993739D01*
X80587800Y-124789861D01*
X80548026Y-124589902D01*
X80470005Y-124401544D01*
X80356737Y-124232026D01*
X80212574Y-124087863D01*
X80043056Y-123974595D01*
X79854698Y-123896574D01*
X79654739Y-123856800D01*
X79450861Y-123856800D01*
X79250902Y-123896574D01*
X79062544Y-123974595D01*
X79020332Y-124002800D01*
X64452436Y-124002800D01*
X60985400Y-120535765D01*
X60985400Y-120287944D01*
X64685000Y-120287944D01*
X64685000Y-120554856D01*
X64737072Y-120816639D01*
X64839215Y-121063233D01*
X64987503Y-121285162D01*
X65176238Y-121473897D01*
X65398167Y-121622185D01*
X65644761Y-121724328D01*
X65906544Y-121776400D01*
X66173456Y-121776400D01*
X66435239Y-121724328D01*
X66681833Y-121622185D01*
X66903762Y-121473897D01*
X67092497Y-121285162D01*
X67240785Y-121063233D01*
X67310000Y-120896134D01*
X67379215Y-121063233D01*
X67527503Y-121285162D01*
X67716238Y-121473897D01*
X67938167Y-121622185D01*
X68184761Y-121724328D01*
X68446544Y-121776400D01*
X68713456Y-121776400D01*
X68975239Y-121724328D01*
X69221833Y-121622185D01*
X69443762Y-121473897D01*
X69632497Y-121285162D01*
X69780785Y-121063233D01*
X69850000Y-120896134D01*
X69919215Y-121063233D01*
X70067503Y-121285162D01*
X70256238Y-121473897D01*
X70478167Y-121622185D01*
X70724761Y-121724328D01*
X70986544Y-121776400D01*
X71253456Y-121776400D01*
X71515239Y-121724328D01*
X71761833Y-121622185D01*
X71983762Y-121473897D01*
X72172497Y-121285162D01*
X72320785Y-121063233D01*
X72422928Y-120816639D01*
X72475000Y-120554856D01*
X72475000Y-120287944D01*
X72422928Y-120026161D01*
X72320785Y-119779567D01*
X72172497Y-119557638D01*
X71983762Y-119368903D01*
X71761833Y-119220615D01*
X71515239Y-119118472D01*
X71253456Y-119066400D01*
X70986544Y-119066400D01*
X70724761Y-119118472D01*
X70478167Y-119220615D01*
X70256238Y-119368903D01*
X70067503Y-119557638D01*
X69919215Y-119779567D01*
X69850000Y-119946666D01*
X69780785Y-119779567D01*
X69632497Y-119557638D01*
X69443762Y-119368903D01*
X69221833Y-119220615D01*
X68975239Y-119118472D01*
X68713456Y-119066400D01*
X68446544Y-119066400D01*
X68184761Y-119118472D01*
X67938167Y-119220615D01*
X67716238Y-119368903D01*
X67527503Y-119557638D01*
X67379215Y-119779567D01*
X67310000Y-119946666D01*
X67240785Y-119779567D01*
X67092497Y-119557638D01*
X66903762Y-119368903D01*
X66681833Y-119220615D01*
X66435239Y-119118472D01*
X66173456Y-119066400D01*
X65906544Y-119066400D01*
X65644761Y-119118472D01*
X65398167Y-119220615D01*
X65176238Y-119368903D01*
X64987503Y-119557638D01*
X64839215Y-119779567D01*
X64737072Y-120026161D01*
X64685000Y-120287944D01*
X60985400Y-120287944D01*
X60985400Y-119125102D01*
X60990315Y-119075200D01*
X60970698Y-118876029D01*
X60912602Y-118684513D01*
X60818260Y-118508010D01*
X60786000Y-118468701D01*
X60691296Y-118353304D01*
X60652533Y-118321492D01*
X59683641Y-117352601D01*
X86473015Y-117352601D01*
X86522917Y-117357516D01*
X86572819Y-117352601D01*
X86722088Y-117337899D01*
X86913604Y-117279803D01*
X87090107Y-117185461D01*
X87244813Y-117058497D01*
X87276629Y-117019729D01*
X91261027Y-113035331D01*
X92528674Y-113035331D01*
X92639521Y-113312514D01*
X92950440Y-113465889D01*
X93285305Y-113555660D01*
X93631250Y-113578376D01*
X93974980Y-113533166D01*
X94303285Y-113421766D01*
X94507679Y-113312514D01*
X94618526Y-113035331D01*
X97608674Y-113035331D01*
X97719521Y-113312514D01*
X98030440Y-113465889D01*
X98365305Y-113555660D01*
X98711250Y-113578376D01*
X99054980Y-113533166D01*
X99383285Y-113421766D01*
X99587679Y-113312514D01*
X99698526Y-113035331D01*
X98653600Y-111990405D01*
X97608674Y-113035331D01*
X94618526Y-113035331D01*
X93573600Y-111990405D01*
X92528674Y-113035331D01*
X91261027Y-113035331D01*
X91910251Y-112386107D01*
X91962634Y-112540485D01*
X92071886Y-112744879D01*
X92349069Y-112855726D01*
X93393995Y-111810800D01*
X93753205Y-111810800D01*
X94798131Y-112855726D01*
X95075314Y-112744879D01*
X95228689Y-112433960D01*
X95318460Y-112099095D01*
X95333604Y-111868450D01*
X96886024Y-111868450D01*
X96931234Y-112212180D01*
X97042634Y-112540485D01*
X97151886Y-112744879D01*
X97429069Y-112855726D01*
X98473995Y-111810800D01*
X98833205Y-111810800D01*
X99878131Y-112855726D01*
X100155314Y-112744879D01*
X100308689Y-112433960D01*
X100398460Y-112099095D01*
X100421176Y-111753150D01*
X100375966Y-111409420D01*
X100264566Y-111081115D01*
X100155314Y-110876721D01*
X99878131Y-110765874D01*
X98833205Y-111810800D01*
X98473995Y-111810800D01*
X97429069Y-110765874D01*
X97151886Y-110876721D01*
X96998511Y-111187640D01*
X96908740Y-111522505D01*
X96886024Y-111868450D01*
X95333604Y-111868450D01*
X95341176Y-111753150D01*
X95295966Y-111409420D01*
X95184566Y-111081115D01*
X95075314Y-110876721D01*
X94798131Y-110765874D01*
X93753205Y-111810800D01*
X93393995Y-111810800D01*
X93379853Y-111796658D01*
X93559458Y-111617053D01*
X93573600Y-111631195D01*
X94618526Y-110586269D01*
X94507679Y-110309086D01*
X94196760Y-110155711D01*
X94152510Y-110143848D01*
X94524411Y-109771947D01*
X94642527Y-110057105D01*
X94824194Y-110328988D01*
X95055412Y-110560206D01*
X95327295Y-110741873D01*
X95629396Y-110867007D01*
X95950104Y-110930800D01*
X96277096Y-110930800D01*
X96597804Y-110867007D01*
X96899905Y-110741873D01*
X97132782Y-110586269D01*
X97608674Y-110586269D01*
X98653600Y-111631195D01*
X99698526Y-110586269D01*
X99587679Y-110309086D01*
X99276760Y-110155711D01*
X98941895Y-110065940D01*
X98595950Y-110043224D01*
X98252220Y-110088434D01*
X97923915Y-110199834D01*
X97719521Y-110309086D01*
X97608674Y-110586269D01*
X97132782Y-110586269D01*
X97171788Y-110560206D01*
X97403006Y-110328988D01*
X97584673Y-110057105D01*
X97668527Y-109854661D01*
X106305400Y-109854661D01*
X106305400Y-110058539D01*
X106345174Y-110258498D01*
X106423195Y-110446856D01*
X106536463Y-110616374D01*
X106578401Y-110658312D01*
X106578400Y-131001177D01*
X106574714Y-131038600D01*
X106578400Y-131076023D01*
X106578400Y-131076025D01*
X106589426Y-131187977D01*
X106632998Y-131331614D01*
X106632999Y-131331615D01*
X106703755Y-131463992D01*
X106709528Y-131471026D01*
X106798978Y-131580022D01*
X106828054Y-131603884D01*
X107397600Y-132173431D01*
X107397600Y-132232739D01*
X107437374Y-132432698D01*
X107515395Y-132621056D01*
X107628663Y-132790574D01*
X107772826Y-132934737D01*
X107942344Y-133048005D01*
X108130702Y-133126026D01*
X108330661Y-133165800D01*
X108534539Y-133165800D01*
X108734498Y-133126026D01*
X108922856Y-133048005D01*
X109092374Y-132934737D01*
X109236537Y-132790574D01*
X109349805Y-132621056D01*
X109427826Y-132432698D01*
X109467600Y-132232739D01*
X109467600Y-132028861D01*
X109427826Y-131828902D01*
X109349805Y-131640544D01*
X109236537Y-131471026D01*
X109092374Y-131326863D01*
X108922856Y-131213595D01*
X108734498Y-131135574D01*
X108534539Y-131095800D01*
X108475231Y-131095800D01*
X108102400Y-130722970D01*
X108102400Y-110658311D01*
X108144337Y-110616374D01*
X108257605Y-110446856D01*
X108335626Y-110258498D01*
X108375400Y-110058539D01*
X108375400Y-109854661D01*
X108335626Y-109654702D01*
X108257605Y-109466344D01*
X108144337Y-109296826D01*
X108000174Y-109152663D01*
X107830656Y-109039395D01*
X107642298Y-108961374D01*
X107442339Y-108921600D01*
X107238461Y-108921600D01*
X107038502Y-108961374D01*
X106850144Y-109039395D01*
X106680626Y-109152663D01*
X106536463Y-109296826D01*
X106423195Y-109466344D01*
X106345174Y-109654702D01*
X106305400Y-109854661D01*
X97668527Y-109854661D01*
X97709807Y-109755004D01*
X97773600Y-109434296D01*
X97773600Y-109107304D01*
X97709807Y-108786596D01*
X97584673Y-108484495D01*
X97403006Y-108212612D01*
X97171788Y-107981394D01*
X97132783Y-107955331D01*
X97608674Y-107955331D01*
X97719521Y-108232514D01*
X98030440Y-108385889D01*
X98365305Y-108475660D01*
X98711250Y-108498376D01*
X99054980Y-108453166D01*
X99383285Y-108341766D01*
X99587679Y-108232514D01*
X99698526Y-107955331D01*
X98653600Y-106910405D01*
X97608674Y-107955331D01*
X97132783Y-107955331D01*
X96899905Y-107799727D01*
X96614747Y-107681611D01*
X96990251Y-107306108D01*
X97042634Y-107460485D01*
X97151886Y-107664879D01*
X97429069Y-107775726D01*
X98473995Y-106730800D01*
X98833205Y-106730800D01*
X99878131Y-107775726D01*
X100155314Y-107664879D01*
X100308689Y-107353960D01*
X100398460Y-107019095D01*
X100412409Y-106806661D01*
X106178400Y-106806661D01*
X106178400Y-107010539D01*
X106218174Y-107210498D01*
X106296195Y-107398856D01*
X106409463Y-107568374D01*
X106553626Y-107712537D01*
X106723144Y-107825805D01*
X106911502Y-107903826D01*
X107111461Y-107943600D01*
X107170770Y-107943600D01*
X109491299Y-110264130D01*
X109491300Y-119076587D01*
X109449362Y-119118525D01*
X109336094Y-119288043D01*
X109258073Y-119476401D01*
X109218299Y-119676360D01*
X109218299Y-119880238D01*
X109258073Y-120080197D01*
X109336094Y-120268555D01*
X109449362Y-120438073D01*
X109593525Y-120582236D01*
X109763043Y-120695504D01*
X109951401Y-120773525D01*
X110151360Y-120813299D01*
X110355238Y-120813299D01*
X110555197Y-120773525D01*
X110743555Y-120695504D01*
X110913073Y-120582236D01*
X111057236Y-120438073D01*
X111170504Y-120268555D01*
X111248525Y-120080197D01*
X111288299Y-119880238D01*
X111288299Y-119676360D01*
X111248525Y-119476401D01*
X111170504Y-119288043D01*
X111057236Y-119118525D01*
X111015299Y-119076588D01*
X111015299Y-109985921D01*
X111018985Y-109948498D01*
X111009743Y-109854661D01*
X111004273Y-109799121D01*
X110960701Y-109655484D01*
X110889944Y-109523107D01*
X110794721Y-109407077D01*
X110765652Y-109383221D01*
X108248400Y-106865970D01*
X108248400Y-106806661D01*
X108208626Y-106606702D01*
X108130605Y-106418344D01*
X108017337Y-106248826D01*
X107873174Y-106104663D01*
X107703656Y-105991395D01*
X107515298Y-105913374D01*
X107315339Y-105873600D01*
X107111461Y-105873600D01*
X106911502Y-105913374D01*
X106723144Y-105991395D01*
X106553626Y-106104663D01*
X106409463Y-106248826D01*
X106296195Y-106418344D01*
X106218174Y-106606702D01*
X106178400Y-106806661D01*
X100412409Y-106806661D01*
X100421176Y-106673150D01*
X100375966Y-106329420D01*
X100264566Y-106001115D01*
X100155314Y-105796721D01*
X99878131Y-105685874D01*
X98833205Y-106730800D01*
X98473995Y-106730800D01*
X98459853Y-106716658D01*
X98639458Y-106537053D01*
X98653600Y-106551195D01*
X99698526Y-105506269D01*
X99587679Y-105229086D01*
X99276760Y-105075711D01*
X99232510Y-105063848D01*
X103287296Y-101009063D01*
X117400727Y-101009063D01*
X115897198Y-102512593D01*
X115868200Y-102536391D01*
X115844402Y-102565389D01*
X115844401Y-102565390D01*
X115773226Y-102652116D01*
X115702654Y-102784146D01*
X115659198Y-102927407D01*
X115644524Y-103076392D01*
X115648201Y-103113724D01*
X115648200Y-115139357D01*
X115493441Y-115242763D01*
X115293563Y-115442641D01*
X115136520Y-115677673D01*
X115028347Y-115938826D01*
X114973200Y-116216065D01*
X114973200Y-116498735D01*
X115028347Y-116775974D01*
X115136520Y-117037127D01*
X115144048Y-117048394D01*
X113956259Y-118236184D01*
X113922342Y-118264019D01*
X113894507Y-118297936D01*
X113894505Y-118297938D01*
X113811248Y-118399387D01*
X113728698Y-118553826D01*
X113677864Y-118721404D01*
X113670302Y-118798181D01*
X113665000Y-118852011D01*
X113665000Y-118852018D01*
X113660700Y-118895678D01*
X113665000Y-118939338D01*
X113665000Y-119253932D01*
X113636795Y-119296144D01*
X113558774Y-119484502D01*
X113519000Y-119684461D01*
X113519000Y-119888339D01*
X113558774Y-120088298D01*
X113636795Y-120276656D01*
X113750063Y-120446174D01*
X113894226Y-120590337D01*
X114063744Y-120703605D01*
X114252102Y-120781626D01*
X114452061Y-120821400D01*
X114655939Y-120821400D01*
X114855898Y-120781626D01*
X115044256Y-120703605D01*
X115213774Y-120590337D01*
X115357937Y-120446174D01*
X115471205Y-120276656D01*
X115549226Y-120088298D01*
X115556071Y-120053885D01*
X115725959Y-120167400D01*
X115493441Y-120322763D01*
X115293563Y-120522641D01*
X115136520Y-120757673D01*
X115028347Y-121018826D01*
X114973200Y-121296065D01*
X114973200Y-121578735D01*
X115028347Y-121855974D01*
X115136520Y-122117127D01*
X115293563Y-122352159D01*
X115493441Y-122552037D01*
X115725959Y-122707400D01*
X115493441Y-122862763D01*
X115293563Y-123062641D01*
X115136520Y-123297673D01*
X115028347Y-123558826D01*
X114973200Y-123836065D01*
X114973200Y-124118735D01*
X115028347Y-124395974D01*
X115136520Y-124657127D01*
X115293563Y-124892159D01*
X115493441Y-125092037D01*
X115725959Y-125247400D01*
X115493441Y-125402763D01*
X115293563Y-125602641D01*
X115136520Y-125837673D01*
X115028347Y-126098826D01*
X114973200Y-126376065D01*
X114973200Y-126658735D01*
X115028347Y-126935974D01*
X115136520Y-127197127D01*
X115293563Y-127432159D01*
X115493441Y-127632037D01*
X115725959Y-127787400D01*
X115493441Y-127942763D01*
X115293563Y-128142641D01*
X115136520Y-128377673D01*
X115028347Y-128638826D01*
X114973200Y-128916065D01*
X114973200Y-129198735D01*
X115028347Y-129475974D01*
X115136520Y-129737127D01*
X115293563Y-129972159D01*
X115493441Y-130172037D01*
X115725959Y-130327400D01*
X115493441Y-130482763D01*
X115293563Y-130682641D01*
X115136520Y-130917673D01*
X115028347Y-131178826D01*
X114973200Y-131456065D01*
X114973200Y-131738735D01*
X115028347Y-132015974D01*
X115136520Y-132277127D01*
X115293563Y-132512159D01*
X115493441Y-132712037D01*
X115725959Y-132867400D01*
X115493441Y-133022763D01*
X115293563Y-133222641D01*
X115136520Y-133457673D01*
X115028347Y-133718826D01*
X114973200Y-133996065D01*
X114973200Y-134278735D01*
X115028347Y-134555974D01*
X115136520Y-134817127D01*
X115293563Y-135052159D01*
X115493441Y-135252037D01*
X115725959Y-135407400D01*
X115493441Y-135562763D01*
X115293563Y-135762641D01*
X115136520Y-135997673D01*
X115028347Y-136258826D01*
X114973200Y-136536065D01*
X114973200Y-136818735D01*
X115028347Y-137095974D01*
X115136520Y-137357127D01*
X115293563Y-137592159D01*
X115493441Y-137792037D01*
X115725959Y-137947400D01*
X115493441Y-138102763D01*
X115293563Y-138302641D01*
X115136520Y-138537673D01*
X115028347Y-138798826D01*
X114973200Y-139076065D01*
X114973200Y-139358735D01*
X115028347Y-139635974D01*
X115136520Y-139897127D01*
X115293563Y-140132159D01*
X115493441Y-140332037D01*
X115725959Y-140487400D01*
X115493441Y-140642763D01*
X115293563Y-140842641D01*
X115136520Y-141077673D01*
X115028347Y-141338826D01*
X114973200Y-141616065D01*
X114973200Y-141898735D01*
X115028347Y-142175974D01*
X115136520Y-142437127D01*
X115293563Y-142672159D01*
X115493441Y-142872037D01*
X115725959Y-143027400D01*
X115493441Y-143182763D01*
X115293563Y-143382641D01*
X115136520Y-143617673D01*
X115028347Y-143878826D01*
X114973200Y-144156065D01*
X114973200Y-144438735D01*
X115028347Y-144715974D01*
X115136520Y-144977127D01*
X115293563Y-145212159D01*
X115493441Y-145412037D01*
X115725959Y-145567400D01*
X115493441Y-145722763D01*
X115293563Y-145922641D01*
X115136520Y-146157673D01*
X115028347Y-146418826D01*
X114973200Y-146696065D01*
X114973200Y-146978735D01*
X115028347Y-147255974D01*
X115136520Y-147517127D01*
X115293563Y-147752159D01*
X115493441Y-147952037D01*
X115725959Y-148107400D01*
X115493441Y-148262763D01*
X115293563Y-148462641D01*
X115136520Y-148697673D01*
X115028347Y-148958826D01*
X114973200Y-149236065D01*
X114973200Y-149518735D01*
X115028347Y-149795974D01*
X115136520Y-150057127D01*
X115293563Y-150292159D01*
X115493441Y-150492037D01*
X115728473Y-150649080D01*
X115989626Y-150757253D01*
X116266865Y-150812400D01*
X116549535Y-150812400D01*
X116826774Y-150757253D01*
X117087927Y-150649080D01*
X117322959Y-150492037D01*
X117444894Y-150370102D01*
X130835103Y-150370102D01*
X130906686Y-150614071D01*
X131162196Y-150734971D01*
X131436384Y-150803700D01*
X131718712Y-150817617D01*
X131998330Y-150776187D01*
X132264492Y-150681003D01*
X132389714Y-150614071D01*
X132437991Y-150449531D01*
X137029474Y-150449531D01*
X137140321Y-150726714D01*
X137451240Y-150880089D01*
X137786105Y-150969860D01*
X138132050Y-150992576D01*
X138475780Y-150947366D01*
X138804085Y-150835966D01*
X139008479Y-150726714D01*
X139119326Y-150449531D01*
X142109474Y-150449531D01*
X142220321Y-150726714D01*
X142531240Y-150880089D01*
X142866105Y-150969860D01*
X143212050Y-150992576D01*
X143555780Y-150947366D01*
X143884085Y-150835966D01*
X144088479Y-150726714D01*
X144199326Y-150449531D01*
X143154400Y-149404605D01*
X142109474Y-150449531D01*
X139119326Y-150449531D01*
X138074400Y-149404605D01*
X137029474Y-150449531D01*
X132437991Y-150449531D01*
X132461297Y-150370102D01*
X131648200Y-149557005D01*
X130835103Y-150370102D01*
X117444894Y-150370102D01*
X117522837Y-150292159D01*
X117679880Y-150057127D01*
X117788053Y-149795974D01*
X117843200Y-149518735D01*
X117843200Y-149447912D01*
X130207983Y-149447912D01*
X130249413Y-149727530D01*
X130344597Y-149993692D01*
X130411529Y-150118914D01*
X130655498Y-150190497D01*
X131468595Y-149377400D01*
X131827805Y-149377400D01*
X132640902Y-150190497D01*
X132884871Y-150118914D01*
X133005771Y-149863404D01*
X133074500Y-149589216D01*
X133088417Y-149306888D01*
X133084826Y-149282650D01*
X136306824Y-149282650D01*
X136352034Y-149626380D01*
X136463434Y-149954685D01*
X136572686Y-150159079D01*
X136849869Y-150269926D01*
X137894795Y-149225000D01*
X138254005Y-149225000D01*
X139298931Y-150269926D01*
X139576114Y-150159079D01*
X139729489Y-149848160D01*
X139819260Y-149513295D01*
X139834404Y-149282650D01*
X141386824Y-149282650D01*
X141432034Y-149626380D01*
X141543434Y-149954685D01*
X141652686Y-150159079D01*
X141929869Y-150269926D01*
X142974795Y-149225000D01*
X143334005Y-149225000D01*
X144378931Y-150269926D01*
X144656114Y-150159079D01*
X144809489Y-149848160D01*
X144899260Y-149513295D01*
X144921976Y-149167350D01*
X144876766Y-148823620D01*
X144765366Y-148495315D01*
X144656114Y-148290921D01*
X144378931Y-148180074D01*
X143334005Y-149225000D01*
X142974795Y-149225000D01*
X141929869Y-148180074D01*
X141652686Y-148290921D01*
X141499311Y-148601840D01*
X141409540Y-148936705D01*
X141386824Y-149282650D01*
X139834404Y-149282650D01*
X139841976Y-149167350D01*
X139796766Y-148823620D01*
X139685366Y-148495315D01*
X139576114Y-148290921D01*
X139298931Y-148180074D01*
X138254005Y-149225000D01*
X137894795Y-149225000D01*
X136849869Y-148180074D01*
X136572686Y-148290921D01*
X136419311Y-148601840D01*
X136329540Y-148936705D01*
X136306824Y-149282650D01*
X133084826Y-149282650D01*
X133046987Y-149027270D01*
X132951803Y-148761108D01*
X132884871Y-148635886D01*
X132640902Y-148564303D01*
X131827805Y-149377400D01*
X131468595Y-149377400D01*
X130655498Y-148564303D01*
X130411529Y-148635886D01*
X130290629Y-148891396D01*
X130221900Y-149165584D01*
X130207983Y-149447912D01*
X117843200Y-149447912D01*
X117843200Y-149236065D01*
X117788053Y-148958826D01*
X117679880Y-148697673D01*
X117522837Y-148462641D01*
X117322959Y-148262763D01*
X117090441Y-148107400D01*
X117322959Y-147952037D01*
X117522837Y-147752159D01*
X117678200Y-147519641D01*
X117833563Y-147752159D01*
X118033441Y-147952037D01*
X118268473Y-148109080D01*
X118529626Y-148217253D01*
X118806865Y-148272400D01*
X119089535Y-148272400D01*
X119366774Y-148217253D01*
X119627927Y-148109080D01*
X119862959Y-147952037D01*
X120062837Y-147752159D01*
X120219880Y-147517127D01*
X120328053Y-147255974D01*
X120383200Y-146978735D01*
X120383200Y-146696065D01*
X120328053Y-146418826D01*
X120219880Y-146157673D01*
X120062837Y-145922641D01*
X119862959Y-145722763D01*
X119627927Y-145565720D01*
X119366774Y-145457547D01*
X119089535Y-145402400D01*
X118806865Y-145402400D01*
X118529626Y-145457547D01*
X118268473Y-145565720D01*
X118033441Y-145722763D01*
X117833563Y-145922641D01*
X117678200Y-146155159D01*
X117522837Y-145922641D01*
X117322959Y-145722763D01*
X117090441Y-145567400D01*
X117322959Y-145412037D01*
X117522837Y-145212159D01*
X117679880Y-144977127D01*
X117788053Y-144715974D01*
X117843200Y-144438735D01*
X117843200Y-144156065D01*
X117788053Y-143878826D01*
X117679880Y-143617673D01*
X117522837Y-143382641D01*
X117322959Y-143182763D01*
X117090441Y-143027400D01*
X117322959Y-142872037D01*
X117522837Y-142672159D01*
X117679880Y-142437127D01*
X117788053Y-142175974D01*
X117843200Y-141898735D01*
X117843200Y-141616065D01*
X117788053Y-141338826D01*
X117679880Y-141077673D01*
X117522837Y-140842641D01*
X117322959Y-140642763D01*
X117090441Y-140487400D01*
X117322959Y-140332037D01*
X117522837Y-140132159D01*
X117679880Y-139897127D01*
X117788053Y-139635974D01*
X117843200Y-139358735D01*
X117843200Y-139076065D01*
X117788053Y-138798826D01*
X117679880Y-138537673D01*
X117522837Y-138302641D01*
X117322959Y-138102763D01*
X117090441Y-137947400D01*
X117322959Y-137792037D01*
X117522837Y-137592159D01*
X117679880Y-137357127D01*
X117788053Y-137095974D01*
X117843200Y-136818735D01*
X117843200Y-136536065D01*
X117788053Y-136258826D01*
X117679880Y-135997673D01*
X117522837Y-135762641D01*
X117322959Y-135562763D01*
X117090441Y-135407400D01*
X117322959Y-135252037D01*
X117522837Y-135052159D01*
X117679880Y-134817127D01*
X117788053Y-134555974D01*
X117843200Y-134278735D01*
X117843200Y-133996065D01*
X117788053Y-133718826D01*
X117679880Y-133457673D01*
X117522837Y-133222641D01*
X117322959Y-133022763D01*
X117090441Y-132867400D01*
X117322959Y-132712037D01*
X117522837Y-132512159D01*
X117679880Y-132277127D01*
X117788053Y-132015974D01*
X117843200Y-131738735D01*
X117843200Y-131456065D01*
X117788053Y-131178826D01*
X117679880Y-130917673D01*
X117522837Y-130682641D01*
X117322959Y-130482763D01*
X117090441Y-130327400D01*
X117322959Y-130172037D01*
X117522837Y-129972159D01*
X117679880Y-129737127D01*
X117788053Y-129475974D01*
X117843200Y-129198735D01*
X117843200Y-128916065D01*
X117788053Y-128638826D01*
X117679880Y-128377673D01*
X117522837Y-128142641D01*
X117322959Y-127942763D01*
X117090441Y-127787400D01*
X117322959Y-127632037D01*
X117522837Y-127432159D01*
X117679880Y-127197127D01*
X117788053Y-126935974D01*
X117843200Y-126658735D01*
X117843200Y-126376065D01*
X117788053Y-126098826D01*
X117679880Y-125837673D01*
X117522837Y-125602641D01*
X117322959Y-125402763D01*
X117090441Y-125247400D01*
X117322959Y-125092037D01*
X117522837Y-124892159D01*
X117678200Y-124659641D01*
X117833563Y-124892159D01*
X118033441Y-125092037D01*
X118268473Y-125249080D01*
X118529626Y-125357253D01*
X118806865Y-125412400D01*
X119089535Y-125412400D01*
X119366774Y-125357253D01*
X119627927Y-125249080D01*
X119862959Y-125092037D01*
X120062837Y-124892159D01*
X120218200Y-124659641D01*
X120373563Y-124892159D01*
X120573441Y-125092037D01*
X120808473Y-125249080D01*
X121069626Y-125357253D01*
X121346865Y-125412400D01*
X121629535Y-125412400D01*
X121906774Y-125357253D01*
X122167927Y-125249080D01*
X122402959Y-125092037D01*
X122602837Y-124892159D01*
X122758200Y-124659641D01*
X122913563Y-124892159D01*
X123113441Y-125092037D01*
X123348473Y-125249080D01*
X123609626Y-125357253D01*
X123886865Y-125412400D01*
X124169535Y-125412400D01*
X124446774Y-125357253D01*
X124707927Y-125249080D01*
X124942959Y-125092037D01*
X125142837Y-124892159D01*
X125298200Y-124659641D01*
X125453563Y-124892159D01*
X125653441Y-125092037D01*
X125888473Y-125249080D01*
X126149626Y-125357253D01*
X126426865Y-125412400D01*
X126709535Y-125412400D01*
X126986774Y-125357253D01*
X127247927Y-125249080D01*
X127482959Y-125092037D01*
X127682837Y-124892159D01*
X127838200Y-124659641D01*
X127993563Y-124892159D01*
X128193441Y-125092037D01*
X128428473Y-125249080D01*
X128689626Y-125357253D01*
X128966865Y-125412400D01*
X129249535Y-125412400D01*
X129526774Y-125357253D01*
X129787927Y-125249080D01*
X130022959Y-125092037D01*
X130222837Y-124892159D01*
X130378200Y-124659641D01*
X130533563Y-124892159D01*
X130733441Y-125092037D01*
X130965959Y-125247400D01*
X130733441Y-125402763D01*
X130533563Y-125602641D01*
X130376520Y-125837673D01*
X130268347Y-126098826D01*
X130213200Y-126376065D01*
X130213200Y-126658735D01*
X130268347Y-126935974D01*
X130376520Y-127197127D01*
X130533563Y-127432159D01*
X130733441Y-127632037D01*
X130965959Y-127787400D01*
X130733441Y-127942763D01*
X130533563Y-128142641D01*
X130376520Y-128377673D01*
X130268347Y-128638826D01*
X130213200Y-128916065D01*
X130213200Y-129198735D01*
X130268347Y-129475974D01*
X130376520Y-129737127D01*
X130533563Y-129972159D01*
X130733441Y-130172037D01*
X130965959Y-130327400D01*
X130733441Y-130482763D01*
X130533563Y-130682641D01*
X130376520Y-130917673D01*
X130268347Y-131178826D01*
X130213200Y-131456065D01*
X130213200Y-131738735D01*
X130268347Y-132015974D01*
X130376520Y-132277127D01*
X130533563Y-132512159D01*
X130733441Y-132712037D01*
X130965959Y-132867400D01*
X130733441Y-133022763D01*
X130533563Y-133222641D01*
X130376520Y-133457673D01*
X130268347Y-133718826D01*
X130213200Y-133996065D01*
X130213200Y-134278735D01*
X130268347Y-134555974D01*
X130376520Y-134817127D01*
X130533563Y-135052159D01*
X130733441Y-135252037D01*
X130965959Y-135407400D01*
X130733441Y-135562763D01*
X130533563Y-135762641D01*
X130376520Y-135997673D01*
X130268347Y-136258826D01*
X130213200Y-136536065D01*
X130213200Y-136818735D01*
X130268347Y-137095974D01*
X130376520Y-137357127D01*
X130533563Y-137592159D01*
X130733441Y-137792037D01*
X130965959Y-137947400D01*
X130733441Y-138102763D01*
X130533563Y-138302641D01*
X130376520Y-138537673D01*
X130268347Y-138798826D01*
X130213200Y-139076065D01*
X130213200Y-139358735D01*
X130268347Y-139635974D01*
X130376520Y-139897127D01*
X130533563Y-140132159D01*
X130733441Y-140332037D01*
X130965959Y-140487400D01*
X130733441Y-140642763D01*
X130533563Y-140842641D01*
X130376520Y-141077673D01*
X130268347Y-141338826D01*
X130213200Y-141616065D01*
X130213200Y-141898735D01*
X130268347Y-142175974D01*
X130376520Y-142437127D01*
X130533563Y-142672159D01*
X130733441Y-142872037D01*
X130965959Y-143027400D01*
X130733441Y-143182763D01*
X130533563Y-143382641D01*
X130376520Y-143617673D01*
X130268347Y-143878826D01*
X130213200Y-144156065D01*
X130213200Y-144438735D01*
X130268347Y-144715974D01*
X130376520Y-144977127D01*
X130533563Y-145212159D01*
X130733441Y-145412037D01*
X130965959Y-145567400D01*
X130733441Y-145722763D01*
X130533563Y-145922641D01*
X130376520Y-146157673D01*
X130268347Y-146418826D01*
X130213200Y-146696065D01*
X130213200Y-146978735D01*
X130268347Y-147255974D01*
X130376520Y-147517127D01*
X130533563Y-147752159D01*
X130733441Y-147952037D01*
X130967328Y-148108315D01*
X130906686Y-148140729D01*
X130835103Y-148384698D01*
X131648200Y-149197795D01*
X132461297Y-148384698D01*
X132389714Y-148140729D01*
X132325208Y-148110206D01*
X132327927Y-148109080D01*
X132490475Y-148000469D01*
X137029474Y-148000469D01*
X138074400Y-149045395D01*
X139119326Y-148000469D01*
X139008479Y-147723286D01*
X138697560Y-147569911D01*
X138362695Y-147480140D01*
X138016750Y-147457424D01*
X137673020Y-147502634D01*
X137344715Y-147614034D01*
X137140321Y-147723286D01*
X137029474Y-148000469D01*
X132490475Y-148000469D01*
X132562959Y-147952037D01*
X132762837Y-147752159D01*
X132919880Y-147517127D01*
X133028053Y-147255974D01*
X133083200Y-146978735D01*
X133083200Y-146696065D01*
X133048478Y-146521504D01*
X138954400Y-146521504D01*
X138954400Y-146848496D01*
X139018193Y-147169204D01*
X139143327Y-147471305D01*
X139324994Y-147743188D01*
X139556212Y-147974406D01*
X139828095Y-148156073D01*
X140130196Y-148281207D01*
X140450904Y-148345000D01*
X140777896Y-148345000D01*
X141098604Y-148281207D01*
X141400705Y-148156073D01*
X141633582Y-148000469D01*
X142109474Y-148000469D01*
X143154400Y-149045395D01*
X144199326Y-148000469D01*
X144088479Y-147723286D01*
X143777560Y-147569911D01*
X143442695Y-147480140D01*
X143096750Y-147457424D01*
X142753020Y-147502634D01*
X142424715Y-147614034D01*
X142220321Y-147723286D01*
X142109474Y-148000469D01*
X141633582Y-148000469D01*
X141672588Y-147974406D01*
X141903806Y-147743188D01*
X142085473Y-147471305D01*
X142210607Y-147169204D01*
X142274400Y-146848496D01*
X142274400Y-146521504D01*
X142210607Y-146200796D01*
X142085473Y-145898695D01*
X141903806Y-145626812D01*
X141672588Y-145395594D01*
X141633583Y-145369531D01*
X142109474Y-145369531D01*
X142220321Y-145646714D01*
X142531240Y-145800089D01*
X142866105Y-145889860D01*
X143212050Y-145912576D01*
X143555780Y-145867366D01*
X143884085Y-145755966D01*
X144088479Y-145646714D01*
X144199326Y-145369531D01*
X143154400Y-144324605D01*
X142109474Y-145369531D01*
X141633583Y-145369531D01*
X141400705Y-145213927D01*
X141098604Y-145088793D01*
X140777896Y-145025000D01*
X140450904Y-145025000D01*
X140130196Y-145088793D01*
X139828095Y-145213927D01*
X139556212Y-145395594D01*
X139324994Y-145626812D01*
X139143327Y-145898695D01*
X139018193Y-146200796D01*
X138954400Y-146521504D01*
X133048478Y-146521504D01*
X133028053Y-146418826D01*
X132919880Y-146157673D01*
X132762837Y-145922641D01*
X132562959Y-145722763D01*
X132330441Y-145567400D01*
X132562959Y-145412037D01*
X132605465Y-145369531D01*
X137029474Y-145369531D01*
X137140321Y-145646714D01*
X137451240Y-145800089D01*
X137786105Y-145889860D01*
X138132050Y-145912576D01*
X138475780Y-145867366D01*
X138804085Y-145755966D01*
X139008479Y-145646714D01*
X139119326Y-145369531D01*
X138074400Y-144324605D01*
X137029474Y-145369531D01*
X132605465Y-145369531D01*
X132762837Y-145212159D01*
X132919880Y-144977127D01*
X133028053Y-144715974D01*
X133083200Y-144438735D01*
X133083200Y-144202650D01*
X136306824Y-144202650D01*
X136352034Y-144546380D01*
X136463434Y-144874685D01*
X136572686Y-145079079D01*
X136849869Y-145189926D01*
X137894795Y-144145000D01*
X138254005Y-144145000D01*
X139298931Y-145189926D01*
X139576114Y-145079079D01*
X139729489Y-144768160D01*
X139819260Y-144433295D01*
X139834404Y-144202650D01*
X141386824Y-144202650D01*
X141432034Y-144546380D01*
X141543434Y-144874685D01*
X141652686Y-145079079D01*
X141929869Y-145189926D01*
X142974795Y-144145000D01*
X143334005Y-144145000D01*
X144378931Y-145189926D01*
X144656114Y-145079079D01*
X144809489Y-144768160D01*
X144899260Y-144433295D01*
X144921976Y-144087350D01*
X144876766Y-143743620D01*
X144765366Y-143415315D01*
X144656114Y-143210921D01*
X144378931Y-143100074D01*
X143334005Y-144145000D01*
X142974795Y-144145000D01*
X141929869Y-143100074D01*
X141652686Y-143210921D01*
X141499311Y-143521840D01*
X141409540Y-143856705D01*
X141386824Y-144202650D01*
X139834404Y-144202650D01*
X139841976Y-144087350D01*
X139796766Y-143743620D01*
X139685366Y-143415315D01*
X139576114Y-143210921D01*
X139298931Y-143100074D01*
X138254005Y-144145000D01*
X137894795Y-144145000D01*
X136849869Y-143100074D01*
X136572686Y-143210921D01*
X136419311Y-143521840D01*
X136329540Y-143856705D01*
X136306824Y-144202650D01*
X133083200Y-144202650D01*
X133083200Y-144156065D01*
X133028053Y-143878826D01*
X132919880Y-143617673D01*
X132762837Y-143382641D01*
X132562959Y-143182763D01*
X132330441Y-143027400D01*
X132490475Y-142920469D01*
X137029474Y-142920469D01*
X138074400Y-143965395D01*
X139119326Y-142920469D01*
X142109474Y-142920469D01*
X143154400Y-143965395D01*
X144199326Y-142920469D01*
X144088479Y-142643286D01*
X143777560Y-142489911D01*
X143442695Y-142400140D01*
X143096750Y-142377424D01*
X142753020Y-142422634D01*
X142424715Y-142534034D01*
X142220321Y-142643286D01*
X142109474Y-142920469D01*
X139119326Y-142920469D01*
X139008479Y-142643286D01*
X138697560Y-142489911D01*
X138362695Y-142400140D01*
X138016750Y-142377424D01*
X137673020Y-142422634D01*
X137344715Y-142534034D01*
X137140321Y-142643286D01*
X137029474Y-142920469D01*
X132490475Y-142920469D01*
X132562959Y-142872037D01*
X132762837Y-142672159D01*
X132919880Y-142437127D01*
X133028053Y-142175974D01*
X133083200Y-141898735D01*
X133083200Y-141616065D01*
X133028053Y-141338826D01*
X132919880Y-141077673D01*
X132762837Y-140842641D01*
X132562959Y-140642763D01*
X132330441Y-140487400D01*
X132562959Y-140332037D01*
X132762837Y-140132159D01*
X132919880Y-139897127D01*
X132970578Y-139774731D01*
X137126074Y-139774731D01*
X137236921Y-140051914D01*
X137547840Y-140205289D01*
X137882705Y-140295060D01*
X138228650Y-140317776D01*
X138572380Y-140272566D01*
X138900685Y-140161166D01*
X139105079Y-140051914D01*
X139215926Y-139774731D01*
X142206074Y-139774731D01*
X142316921Y-140051914D01*
X142627840Y-140205289D01*
X142962705Y-140295060D01*
X143308650Y-140317776D01*
X143652380Y-140272566D01*
X143980685Y-140161166D01*
X144185079Y-140051914D01*
X144295926Y-139774731D01*
X143251000Y-138729805D01*
X142206074Y-139774731D01*
X139215926Y-139774731D01*
X138171000Y-138729805D01*
X137126074Y-139774731D01*
X132970578Y-139774731D01*
X133028053Y-139635974D01*
X133083200Y-139358735D01*
X133083200Y-139076065D01*
X133028053Y-138798826D01*
X132948949Y-138607850D01*
X136403424Y-138607850D01*
X136448634Y-138951580D01*
X136560034Y-139279885D01*
X136669286Y-139484279D01*
X136946469Y-139595126D01*
X137991395Y-138550200D01*
X138350605Y-138550200D01*
X139395531Y-139595126D01*
X139672714Y-139484279D01*
X139826089Y-139173360D01*
X139915860Y-138838495D01*
X139931004Y-138607850D01*
X141483424Y-138607850D01*
X141528634Y-138951580D01*
X141640034Y-139279885D01*
X141749286Y-139484279D01*
X142026469Y-139595126D01*
X143071395Y-138550200D01*
X143430605Y-138550200D01*
X144475531Y-139595126D01*
X144752714Y-139484279D01*
X144906089Y-139173360D01*
X144995860Y-138838495D01*
X145018576Y-138492550D01*
X144973366Y-138148820D01*
X144861966Y-137820515D01*
X144752714Y-137616121D01*
X144475531Y-137505274D01*
X143430605Y-138550200D01*
X143071395Y-138550200D01*
X142026469Y-137505274D01*
X141749286Y-137616121D01*
X141595911Y-137927040D01*
X141506140Y-138261905D01*
X141483424Y-138607850D01*
X139931004Y-138607850D01*
X139938576Y-138492550D01*
X139893366Y-138148820D01*
X139781966Y-137820515D01*
X139672714Y-137616121D01*
X139395531Y-137505274D01*
X138350605Y-138550200D01*
X137991395Y-138550200D01*
X136946469Y-137505274D01*
X136669286Y-137616121D01*
X136515911Y-137927040D01*
X136426140Y-138261905D01*
X136403424Y-138607850D01*
X132948949Y-138607850D01*
X132919880Y-138537673D01*
X132762837Y-138302641D01*
X132562959Y-138102763D01*
X132330441Y-137947400D01*
X132562959Y-137792037D01*
X132762837Y-137592159D01*
X132919880Y-137357127D01*
X132932910Y-137325669D01*
X137126074Y-137325669D01*
X138171000Y-138370595D01*
X139215926Y-137325669D01*
X139105079Y-137048486D01*
X138794160Y-136895111D01*
X138459295Y-136805340D01*
X138113350Y-136782624D01*
X137769620Y-136827834D01*
X137441315Y-136939234D01*
X137236921Y-137048486D01*
X137126074Y-137325669D01*
X132932910Y-137325669D01*
X133028053Y-137095974D01*
X133083200Y-136818735D01*
X133083200Y-136536065D01*
X133028053Y-136258826D01*
X132919880Y-135997673D01*
X132819006Y-135846704D01*
X139051000Y-135846704D01*
X139051000Y-136173696D01*
X139114793Y-136494404D01*
X139239927Y-136796505D01*
X139421594Y-137068388D01*
X139652812Y-137299606D01*
X139924695Y-137481273D01*
X140226796Y-137606407D01*
X140547504Y-137670200D01*
X140874496Y-137670200D01*
X141195204Y-137606407D01*
X141497305Y-137481273D01*
X141730182Y-137325669D01*
X142206074Y-137325669D01*
X143251000Y-138370595D01*
X144295926Y-137325669D01*
X144185079Y-137048486D01*
X143874160Y-136895111D01*
X143539295Y-136805340D01*
X143193350Y-136782624D01*
X142849620Y-136827834D01*
X142521315Y-136939234D01*
X142316921Y-137048486D01*
X142206074Y-137325669D01*
X141730182Y-137325669D01*
X141769188Y-137299606D01*
X142000406Y-137068388D01*
X142182073Y-136796505D01*
X142307207Y-136494404D01*
X142371000Y-136173696D01*
X142371000Y-135846704D01*
X142307207Y-135525996D01*
X142182073Y-135223895D01*
X142000406Y-134952012D01*
X141769188Y-134720794D01*
X141730183Y-134694731D01*
X142206074Y-134694731D01*
X142316921Y-134971914D01*
X142627840Y-135125289D01*
X142962705Y-135215060D01*
X143308650Y-135237776D01*
X143652380Y-135192566D01*
X143980685Y-135081166D01*
X144185079Y-134971914D01*
X144295926Y-134694731D01*
X143251000Y-133649805D01*
X142206074Y-134694731D01*
X141730183Y-134694731D01*
X141497305Y-134539127D01*
X141195204Y-134413993D01*
X140874496Y-134350200D01*
X140547504Y-134350200D01*
X140226796Y-134413993D01*
X139924695Y-134539127D01*
X139652812Y-134720794D01*
X139421594Y-134952012D01*
X139239927Y-135223895D01*
X139114793Y-135525996D01*
X139051000Y-135846704D01*
X132819006Y-135846704D01*
X132762837Y-135762641D01*
X132562959Y-135562763D01*
X132330441Y-135407400D01*
X132562959Y-135252037D01*
X132762837Y-135052159D01*
X132919880Y-134817127D01*
X132970578Y-134694731D01*
X137126074Y-134694731D01*
X137236921Y-134971914D01*
X137547840Y-135125289D01*
X137882705Y-135215060D01*
X138228650Y-135237776D01*
X138572380Y-135192566D01*
X138900685Y-135081166D01*
X139105079Y-134971914D01*
X139215926Y-134694731D01*
X138171000Y-133649805D01*
X137126074Y-134694731D01*
X132970578Y-134694731D01*
X133028053Y-134555974D01*
X133083200Y-134278735D01*
X133083200Y-133996065D01*
X133028053Y-133718826D01*
X132948949Y-133527850D01*
X136403424Y-133527850D01*
X136448634Y-133871580D01*
X136560034Y-134199885D01*
X136669286Y-134404279D01*
X136946469Y-134515126D01*
X137991395Y-133470200D01*
X138350605Y-133470200D01*
X139395531Y-134515126D01*
X139672714Y-134404279D01*
X139826089Y-134093360D01*
X139915860Y-133758495D01*
X139931004Y-133527850D01*
X141483424Y-133527850D01*
X141528634Y-133871580D01*
X141640034Y-134199885D01*
X141749286Y-134404279D01*
X142026469Y-134515126D01*
X143071395Y-133470200D01*
X143430605Y-133470200D01*
X144475531Y-134515126D01*
X144752714Y-134404279D01*
X144906089Y-134093360D01*
X144995860Y-133758495D01*
X145018576Y-133412550D01*
X144973366Y-133068820D01*
X144861966Y-132740515D01*
X144752714Y-132536121D01*
X144475531Y-132425274D01*
X143430605Y-133470200D01*
X143071395Y-133470200D01*
X142026469Y-132425274D01*
X141749286Y-132536121D01*
X141595911Y-132847040D01*
X141506140Y-133181905D01*
X141483424Y-133527850D01*
X139931004Y-133527850D01*
X139938576Y-133412550D01*
X139893366Y-133068820D01*
X139781966Y-132740515D01*
X139672714Y-132536121D01*
X139395531Y-132425274D01*
X138350605Y-133470200D01*
X137991395Y-133470200D01*
X136946469Y-132425274D01*
X136669286Y-132536121D01*
X136515911Y-132847040D01*
X136426140Y-133181905D01*
X136403424Y-133527850D01*
X132948949Y-133527850D01*
X132919880Y-133457673D01*
X132762837Y-133222641D01*
X132562959Y-133022763D01*
X132330441Y-132867400D01*
X132562959Y-132712037D01*
X132762837Y-132512159D01*
X132919880Y-132277127D01*
X132932910Y-132245669D01*
X137126074Y-132245669D01*
X138171000Y-133290595D01*
X139215926Y-132245669D01*
X142206074Y-132245669D01*
X143251000Y-133290595D01*
X144295926Y-132245669D01*
X144185079Y-131968486D01*
X143874160Y-131815111D01*
X143539295Y-131725340D01*
X143193350Y-131702624D01*
X142849620Y-131747834D01*
X142521315Y-131859234D01*
X142316921Y-131968486D01*
X142206074Y-132245669D01*
X139215926Y-132245669D01*
X139105079Y-131968486D01*
X138794160Y-131815111D01*
X138459295Y-131725340D01*
X138113350Y-131702624D01*
X137769620Y-131747834D01*
X137441315Y-131859234D01*
X137236921Y-131968486D01*
X137126074Y-132245669D01*
X132932910Y-132245669D01*
X133028053Y-132015974D01*
X133083200Y-131738735D01*
X133083200Y-131456065D01*
X133028053Y-131178826D01*
X132919880Y-130917673D01*
X132762837Y-130682641D01*
X132562959Y-130482763D01*
X132330441Y-130327400D01*
X132562959Y-130172037D01*
X132762837Y-129972159D01*
X132919880Y-129737127D01*
X133028053Y-129475974D01*
X133083200Y-129198735D01*
X133083200Y-128916065D01*
X133028053Y-128638826D01*
X132919880Y-128377673D01*
X132762837Y-128142641D01*
X132562959Y-127942763D01*
X132330441Y-127787400D01*
X132562959Y-127632037D01*
X132762837Y-127432159D01*
X132919880Y-127197127D01*
X133028053Y-126935974D01*
X133083200Y-126658735D01*
X133083200Y-126376065D01*
X133028053Y-126098826D01*
X132919880Y-125837673D01*
X132762837Y-125602641D01*
X132562959Y-125402763D01*
X132330441Y-125247400D01*
X132562959Y-125092037D01*
X132762837Y-124892159D01*
X132919880Y-124657127D01*
X133028053Y-124395974D01*
X133083200Y-124118735D01*
X133083200Y-123836065D01*
X133028053Y-123558826D01*
X132919880Y-123297673D01*
X132762837Y-123062641D01*
X132562959Y-122862763D01*
X132330441Y-122707400D01*
X132425326Y-122644000D01*
X146872528Y-122644000D01*
X146872528Y-124244000D01*
X146884788Y-124368482D01*
X146921098Y-124488180D01*
X146980063Y-124598494D01*
X147059415Y-124695185D01*
X147156106Y-124774537D01*
X147266420Y-124833502D01*
X147386118Y-124869812D01*
X147510600Y-124882072D01*
X149110600Y-124882072D01*
X149235082Y-124869812D01*
X149354780Y-124833502D01*
X149465094Y-124774537D01*
X149561785Y-124695185D01*
X149641137Y-124598494D01*
X149700102Y-124488180D01*
X149736412Y-124368482D01*
X149748672Y-124244000D01*
X149748672Y-122644000D01*
X149736412Y-122519518D01*
X149700102Y-122399820D01*
X149641137Y-122289506D01*
X149561785Y-122192815D01*
X149465094Y-122113463D01*
X149354780Y-122054498D01*
X149235082Y-122018188D01*
X149110600Y-122005928D01*
X149103385Y-122005928D01*
X149123697Y-121936702D01*
X148310600Y-121123605D01*
X147497503Y-121936702D01*
X147517815Y-122005928D01*
X147510600Y-122005928D01*
X147386118Y-122018188D01*
X147266420Y-122054498D01*
X147156106Y-122113463D01*
X147059415Y-122192815D01*
X146980063Y-122289506D01*
X146921098Y-122399820D01*
X146884788Y-122519518D01*
X146872528Y-122644000D01*
X132425326Y-122644000D01*
X132562959Y-122552037D01*
X132762837Y-122352159D01*
X132919880Y-122117127D01*
X133028053Y-121855974D01*
X133083200Y-121578735D01*
X133083200Y-121296065D01*
X133028053Y-121018826D01*
X133026267Y-121014512D01*
X146870383Y-121014512D01*
X146911813Y-121294130D01*
X147006997Y-121560292D01*
X147073929Y-121685514D01*
X147317898Y-121757097D01*
X148130995Y-120944000D01*
X148490205Y-120944000D01*
X149303302Y-121757097D01*
X149547271Y-121685514D01*
X149668171Y-121430004D01*
X149736900Y-121155816D01*
X149750817Y-120873488D01*
X149709387Y-120593870D01*
X149614203Y-120327708D01*
X149547271Y-120202486D01*
X149303302Y-120130903D01*
X148490205Y-120944000D01*
X148130995Y-120944000D01*
X147317898Y-120130903D01*
X147073929Y-120202486D01*
X146953029Y-120457996D01*
X146884300Y-120732184D01*
X146870383Y-121014512D01*
X133026267Y-121014512D01*
X132919880Y-120757673D01*
X132762837Y-120522641D01*
X132562959Y-120322763D01*
X132330441Y-120167400D01*
X132562959Y-120012037D01*
X132623698Y-119951298D01*
X147497503Y-119951298D01*
X148310600Y-120764395D01*
X149123697Y-119951298D01*
X149052114Y-119707329D01*
X148796604Y-119586429D01*
X148522416Y-119517700D01*
X148240088Y-119503783D01*
X147960470Y-119545213D01*
X147694308Y-119640397D01*
X147569086Y-119707329D01*
X147497503Y-119951298D01*
X132623698Y-119951298D01*
X132762837Y-119812159D01*
X132919880Y-119577127D01*
X133028053Y-119315974D01*
X133083200Y-119038735D01*
X133083200Y-118756065D01*
X133028053Y-118478826D01*
X132919880Y-118217673D01*
X132762837Y-117982641D01*
X132562959Y-117782763D01*
X132330441Y-117627400D01*
X132562959Y-117472037D01*
X132762837Y-117272159D01*
X132919880Y-117037127D01*
X133028053Y-116775974D01*
X133083200Y-116498735D01*
X133083200Y-116216065D01*
X133028053Y-115938826D01*
X132919880Y-115677673D01*
X132762837Y-115442641D01*
X132562959Y-115242763D01*
X132408200Y-115139357D01*
X132408200Y-111542720D01*
X132411876Y-111505397D01*
X132408200Y-111468074D01*
X132408200Y-111468065D01*
X132397203Y-111356412D01*
X132353746Y-111213151D01*
X132340110Y-111187640D01*
X132283174Y-111081121D01*
X132211999Y-110994395D01*
X132188201Y-110965397D01*
X132159204Y-110941600D01*
X125583206Y-104365603D01*
X125559403Y-104336599D01*
X125443678Y-104241626D01*
X125311649Y-104171054D01*
X125168388Y-104127597D01*
X125056735Y-104116600D01*
X125056724Y-104116600D01*
X125019402Y-104112924D01*
X124982080Y-104116600D01*
X121869602Y-104116600D01*
X119678400Y-101925399D01*
X119678400Y-101863261D01*
X119638626Y-101663302D01*
X119560605Y-101474944D01*
X119475865Y-101348121D01*
X119505754Y-101275962D01*
X119545528Y-101076003D01*
X119545528Y-101009063D01*
X128542823Y-101009063D01*
X141654728Y-114120969D01*
X141654728Y-114922200D01*
X141666988Y-115046682D01*
X141703298Y-115166380D01*
X141762263Y-115276694D01*
X141841615Y-115373385D01*
X141938306Y-115452737D01*
X142048620Y-115511702D01*
X142168318Y-115548012D01*
X142292800Y-115560272D01*
X143892800Y-115560272D01*
X144017282Y-115548012D01*
X144136980Y-115511702D01*
X144247294Y-115452737D01*
X144343985Y-115373385D01*
X144423337Y-115276694D01*
X144482302Y-115166380D01*
X144497917Y-115114902D01*
X144779703Y-115114902D01*
X144851286Y-115358871D01*
X145106796Y-115479771D01*
X145380984Y-115548500D01*
X145663312Y-115562417D01*
X145942930Y-115520987D01*
X146209092Y-115425803D01*
X146334314Y-115358871D01*
X146405897Y-115114902D01*
X145592800Y-114301805D01*
X144779703Y-115114902D01*
X144497917Y-115114902D01*
X144518612Y-115046682D01*
X144530872Y-114922200D01*
X144530872Y-114914985D01*
X144600098Y-114935297D01*
X145413195Y-114122200D01*
X145772405Y-114122200D01*
X146585502Y-114935297D01*
X146829471Y-114863714D01*
X146950371Y-114608204D01*
X147019100Y-114334016D01*
X147033017Y-114051688D01*
X146991587Y-113772070D01*
X146896403Y-113505908D01*
X146829471Y-113380686D01*
X146585502Y-113309103D01*
X145772405Y-114122200D01*
X145413195Y-114122200D01*
X144600098Y-113309103D01*
X144530872Y-113329415D01*
X144530872Y-113322200D01*
X144518612Y-113197718D01*
X144497918Y-113129498D01*
X144779703Y-113129498D01*
X145592800Y-113942595D01*
X146405897Y-113129498D01*
X146334314Y-112885529D01*
X146078804Y-112764629D01*
X145804616Y-112695900D01*
X145522288Y-112681983D01*
X145242670Y-112723413D01*
X144976508Y-112818597D01*
X144851286Y-112885529D01*
X144779703Y-113129498D01*
X144497918Y-113129498D01*
X144482302Y-113078020D01*
X144423337Y-112967706D01*
X144343985Y-112871015D01*
X144247294Y-112791663D01*
X144136980Y-112732698D01*
X144017282Y-112696388D01*
X143892800Y-112684128D01*
X143091569Y-112684128D01*
X129717375Y-99309935D01*
X129685559Y-99271167D01*
X129530853Y-99144203D01*
X129354350Y-99049861D01*
X129162834Y-98991765D01*
X129013565Y-98977063D01*
X128963663Y-98972148D01*
X128913761Y-98977063D01*
X102916356Y-98977063D01*
X102866454Y-98972148D01*
X102667284Y-98991765D01*
X102475768Y-99049861D01*
X102299265Y-99144203D01*
X102144559Y-99271167D01*
X102112747Y-99309930D01*
X95244609Y-106178068D01*
X95184566Y-106001115D01*
X95075314Y-105796721D01*
X94798131Y-105685874D01*
X93753205Y-106730800D01*
X93767348Y-106744943D01*
X93587743Y-106924548D01*
X93573600Y-106910405D01*
X92528674Y-107955331D01*
X92639521Y-108232514D01*
X92950440Y-108385889D01*
X93018534Y-108404144D01*
X86102077Y-115320601D01*
X62388642Y-115320601D01*
X62414416Y-115268216D01*
X62502569Y-114938015D01*
X62524609Y-114596961D01*
X62479689Y-114258161D01*
X62369536Y-113934634D01*
X62263538Y-113736326D01*
X61988912Y-113628493D01*
X60961805Y-114655600D01*
X60975948Y-114669743D01*
X60796343Y-114849348D01*
X60782200Y-114835205D01*
X60768058Y-114849348D01*
X60588453Y-114669743D01*
X60602595Y-114655600D01*
X59777669Y-113830674D01*
X59589863Y-113549602D01*
X59489149Y-113448888D01*
X59755093Y-113448888D01*
X60782200Y-114475995D01*
X61809307Y-113448888D01*
X61701474Y-113174262D01*
X61394816Y-113023384D01*
X61064615Y-112935231D01*
X60723561Y-112913191D01*
X60384761Y-112958111D01*
X60061234Y-113068264D01*
X59862926Y-113174262D01*
X59755093Y-113448888D01*
X59489149Y-113448888D01*
X59348198Y-113307937D01*
X59064031Y-113118063D01*
X58748281Y-112987275D01*
X58413083Y-112920600D01*
X58071317Y-112920600D01*
X57965157Y-112941717D01*
X57314911Y-112291471D01*
X57283095Y-112252703D01*
X57128389Y-112125739D01*
X56951886Y-112031397D01*
X56760370Y-111973301D01*
X56611101Y-111958599D01*
X56561199Y-111953684D01*
X56511297Y-111958599D01*
X51647301Y-111958599D01*
X51597399Y-111953684D01*
X51547497Y-111958599D01*
X51398228Y-111973301D01*
X51206712Y-112031397D01*
X51030209Y-112125739D01*
X50875503Y-112252703D01*
X50843686Y-112291472D01*
X50798072Y-112337086D01*
X50759303Y-112368903D01*
X50632339Y-112523609D01*
X50537997Y-112700113D01*
X50502055Y-112818597D01*
X50479901Y-112891629D01*
X50460284Y-113090799D01*
X49377200Y-113090799D01*
X49377200Y-111220580D01*
X53809330Y-106788450D01*
X91806024Y-106788450D01*
X91851234Y-107132180D01*
X91962634Y-107460485D01*
X92071886Y-107664879D01*
X92349069Y-107775726D01*
X93393995Y-106730800D01*
X92349069Y-105685874D01*
X92071886Y-105796721D01*
X91918511Y-106107640D01*
X91828740Y-106442505D01*
X91806024Y-106788450D01*
X53809330Y-106788450D01*
X55091511Y-105506269D01*
X92528674Y-105506269D01*
X93573600Y-106551195D01*
X94618526Y-105506269D01*
X94507679Y-105229086D01*
X94196760Y-105075711D01*
X93861895Y-104985940D01*
X93515950Y-104963224D01*
X93172220Y-105008434D01*
X92843915Y-105119834D01*
X92639521Y-105229086D01*
X92528674Y-105506269D01*
X55091511Y-105506269D01*
X63214581Y-97383200D01*
X151892400Y-97383200D01*
X151892401Y-147084372D01*
G37*
X151892401Y-147084372D02*
X151892400Y-147084382D01*
X151892401Y-151790800D01*
X49377200Y-151790800D01*
X49377200Y-132772511D01*
X51073050Y-132770200D01*
X51231800Y-132611450D01*
X51231800Y-131512200D01*
X51485800Y-131512200D01*
X51485800Y-132611450D01*
X51644550Y-132770200D01*
X53898800Y-132773272D01*
X54023282Y-132761012D01*
X54142980Y-132724702D01*
X54253294Y-132665737D01*
X54349985Y-132586385D01*
X54429337Y-132489694D01*
X54488302Y-132379380D01*
X54524612Y-132259682D01*
X54536872Y-132135200D01*
X54533800Y-131670950D01*
X54375050Y-131512200D01*
X51485800Y-131512200D01*
X51231800Y-131512200D01*
X51211800Y-131512200D01*
X51211800Y-131258200D01*
X51231800Y-131258200D01*
X51231800Y-130158950D01*
X51485800Y-130158950D01*
X51485800Y-131258200D01*
X54375050Y-131258200D01*
X54533800Y-131099450D01*
X54536872Y-130635200D01*
X54524612Y-130510718D01*
X54488302Y-130391020D01*
X54429337Y-130280706D01*
X54349985Y-130184015D01*
X54253294Y-130104663D01*
X54142980Y-130045698D01*
X54023282Y-130009388D01*
X53898800Y-129997128D01*
X51644550Y-130000200D01*
X51485800Y-130158950D01*
X51231800Y-130158950D01*
X51073050Y-130000200D01*
X49377200Y-129997889D01*
X49377200Y-124272511D01*
X51073050Y-124270200D01*
X51231800Y-124111450D01*
X51231800Y-123012200D01*
X51211800Y-123012200D01*
X51211800Y-122758200D01*
X51231800Y-122758200D01*
X51231800Y-121658950D01*
X51073050Y-121500200D01*
X49377200Y-121497889D01*
X49377200Y-113090799D01*
X50460284Y-113090799D01*
X50465199Y-113140701D01*
X50465200Y-118690487D01*
X50460284Y-118740399D01*
X50479901Y-118939569D01*
X50519453Y-119069952D01*
X50537998Y-119131086D01*
X50632340Y-119307589D01*
X50759304Y-119462295D01*
X50798067Y-119494107D01*
X52802582Y-121498622D01*
X51644550Y-121500200D01*
X51485800Y-121658950D01*
X51485800Y-122758200D01*
X51505800Y-122758200D01*
X51505800Y-123012200D01*
X51485800Y-123012200D01*
X51485800Y-124111450D01*
X51644550Y-124270200D01*
X53898800Y-124273272D01*
X54023282Y-124261012D01*
X54142980Y-124224702D01*
X54253294Y-124165737D01*
X54349985Y-124086385D01*
X54429337Y-123989694D01*
X54488302Y-123879380D01*
X54524612Y-123759682D01*
X54536872Y-123635200D01*
X54534192Y-123230233D01*
X55880000Y-124576041D01*
X55880001Y-126650136D01*
X55861000Y-126745661D01*
X55861000Y-126949539D01*
X55880000Y-127045059D01*
X55880001Y-131064888D01*
X55875085Y-131114800D01*
X55894702Y-131313970D01*
X55942345Y-131471026D01*
X55952799Y-131505487D01*
X56047141Y-131681990D01*
X56174105Y-131836696D01*
X56212868Y-131868508D01*
X58298556Y-133954197D01*
X58352663Y-134035174D01*
X58496826Y-134179337D01*
X58666344Y-134292605D01*
X58854702Y-134370626D01*
X58904495Y-134380530D01*
X64055106Y-139531142D01*
X64082941Y-139565059D01*
X64116858Y-139592894D01*
X64116859Y-139592895D01*
X64159154Y-139627606D01*
X64218309Y-139676153D01*
X64372749Y-139758703D01*
X64467358Y-139787402D01*
X64540325Y-139809536D01*
X64556925Y-139811171D01*
X64670933Y-139822400D01*
X64670940Y-139822400D01*
X64714600Y-139826700D01*
X64758260Y-139822400D01*
X78466132Y-139822400D01*
X78508344Y-139850605D01*
X78696702Y-139928626D01*
X78896661Y-139968400D01*
X79100539Y-139968400D01*
X79300498Y-139928626D01*
X79488856Y-139850605D01*
X79531068Y-139822400D01*
X82225332Y-139822400D01*
X82267544Y-139850605D01*
X82455902Y-139928626D01*
X82655861Y-139968400D01*
X82859739Y-139968400D01*
X83059698Y-139928626D01*
X83248056Y-139850605D01*
X83417574Y-139737337D01*
X83561737Y-139593174D01*
X83621400Y-139503882D01*
X83681063Y-139593174D01*
X83825226Y-139737337D01*
X83994744Y-139850605D01*
X84183102Y-139928626D01*
X84383061Y-139968400D01*
X84586939Y-139968400D01*
X84786898Y-139928626D01*
X84975256Y-139850605D01*
X85144774Y-139737337D01*
X85288937Y-139593174D01*
X85402205Y-139423656D01*
X85480226Y-139235298D01*
X85520000Y-139035339D01*
X85520000Y-138831461D01*
X85480226Y-138631502D01*
X85402205Y-138443144D01*
X85320394Y-138320705D01*
X85370026Y-138370337D01*
X85539544Y-138483605D01*
X85727902Y-138561626D01*
X85798871Y-138575742D01*
X85775774Y-138631502D01*
X85736000Y-138831461D01*
X85736000Y-139035339D01*
X85775774Y-139235298D01*
X85853795Y-139423656D01*
X85967063Y-139593174D01*
X86111226Y-139737337D01*
X86280744Y-139850605D01*
X86469102Y-139928626D01*
X86669061Y-139968400D01*
X86872939Y-139968400D01*
X87072898Y-139928626D01*
X87261256Y-139850605D01*
X87303468Y-139822400D01*
X98487662Y-139822400D01*
X98531322Y-139826700D01*
X98574982Y-139822400D01*
X98574989Y-139822400D01*
X98705596Y-139809536D01*
X98873173Y-139758703D01*
X99027613Y-139676153D01*
X99162981Y-139565059D01*
X99190821Y-139531136D01*
X104813942Y-133908016D01*
X104847859Y-133880181D01*
X104958953Y-133744813D01*
X105041503Y-133590373D01*
X105087751Y-133437911D01*
X105092336Y-133422797D01*
X105109501Y-133248522D01*
X105105200Y-133204854D01*
X105105200Y-128243668D01*
X105133405Y-128201456D01*
X105211426Y-128013098D01*
X105251200Y-127813139D01*
X105251200Y-127609261D01*
X105211426Y-127409302D01*
X105133405Y-127220944D01*
X105020137Y-127051426D01*
X104875974Y-126907263D01*
X104706456Y-126793995D01*
X104518098Y-126715974D01*
X104318139Y-126676200D01*
X104114261Y-126676200D01*
X103914302Y-126715974D01*
X103725944Y-126793995D01*
X103556426Y-126907263D01*
X103412263Y-127051426D01*
X103298995Y-127220944D01*
X103220974Y-127409302D01*
X103181200Y-127609261D01*
X103181200Y-127813139D01*
X103220974Y-128013098D01*
X103298995Y-128201456D01*
X103327200Y-128243668D01*
X103327201Y-132880285D01*
X103159632Y-133047854D01*
X103109366Y-132899715D01*
X103000114Y-132695321D01*
X102722931Y-132584474D01*
X101678005Y-133629400D01*
X101692148Y-133643543D01*
X101512543Y-133823148D01*
X101498400Y-133809005D01*
X100453474Y-134853931D01*
X100564321Y-135131114D01*
X100875240Y-135284489D01*
X100912901Y-135294585D01*
X98163087Y-138044400D01*
X87772801Y-138044400D01*
X87772801Y-134853931D01*
X95373474Y-134853931D01*
X95484321Y-135131114D01*
X95795240Y-135284489D01*
X96130105Y-135374260D01*
X96476050Y-135396976D01*
X96819780Y-135351766D01*
X97148085Y-135240366D01*
X97352479Y-135131114D01*
X97463326Y-134853931D01*
X96418400Y-133809005D01*
X95373474Y-134853931D01*
X87772801Y-134853931D01*
X87772801Y-133977861D01*
X87777101Y-133934201D01*
X87772801Y-133890541D01*
X87772801Y-133890534D01*
X87759937Y-133759927D01*
X87755353Y-133744813D01*
X87737831Y-133687050D01*
X94650824Y-133687050D01*
X94696034Y-134030780D01*
X94807434Y-134359085D01*
X94916686Y-134563479D01*
X95193869Y-134674326D01*
X96238795Y-133629400D01*
X96598005Y-133629400D01*
X97642931Y-134674326D01*
X97920114Y-134563479D01*
X98073489Y-134252560D01*
X98163260Y-133917695D01*
X98178404Y-133687050D01*
X99730824Y-133687050D01*
X99776034Y-134030780D01*
X99887434Y-134359085D01*
X99996686Y-134563479D01*
X100273869Y-134674326D01*
X101318795Y-133629400D01*
X100273869Y-132584474D01*
X99996686Y-132695321D01*
X99843311Y-133006240D01*
X99753540Y-133341105D01*
X99730824Y-133687050D01*
X98178404Y-133687050D01*
X98185976Y-133571750D01*
X98140766Y-133228020D01*
X98029366Y-132899715D01*
X97920114Y-132695321D01*
X97642931Y-132584474D01*
X96598005Y-133629400D01*
X96238795Y-133629400D01*
X95193869Y-132584474D01*
X94916686Y-132695321D01*
X94763311Y-133006240D01*
X94673540Y-133341105D01*
X94650824Y-133687050D01*
X87737831Y-133687050D01*
X87709103Y-133592348D01*
X87643813Y-133470200D01*
X87626554Y-133437910D01*
X87515460Y-133302542D01*
X87481538Y-133274703D01*
X87355530Y-133148695D01*
X87345626Y-133098902D01*
X87267605Y-132910544D01*
X87154337Y-132741026D01*
X87010174Y-132596863D01*
X86840656Y-132483595D01*
X86652298Y-132405574D01*
X86648754Y-132404869D01*
X95373474Y-132404869D01*
X96418400Y-133449795D01*
X97463326Y-132404869D01*
X97352479Y-132127686D01*
X97041560Y-131974311D01*
X96706695Y-131884540D01*
X96360750Y-131861824D01*
X96017020Y-131907034D01*
X95688715Y-132018434D01*
X95484321Y-132127686D01*
X95373474Y-132404869D01*
X86648754Y-132404869D01*
X86452339Y-132365800D01*
X86385400Y-132365800D01*
X86385400Y-130925904D01*
X97298400Y-130925904D01*
X97298400Y-131252896D01*
X97362193Y-131573604D01*
X97487327Y-131875705D01*
X97668994Y-132147588D01*
X97900212Y-132378806D01*
X98172095Y-132560473D01*
X98474196Y-132685607D01*
X98794904Y-132749400D01*
X99121896Y-132749400D01*
X99442604Y-132685607D01*
X99744705Y-132560473D01*
X99977582Y-132404869D01*
X100453474Y-132404869D01*
X101498400Y-133449795D01*
X102543326Y-132404869D01*
X102432479Y-132127686D01*
X102121560Y-131974311D01*
X101786695Y-131884540D01*
X101440750Y-131861824D01*
X101097020Y-131907034D01*
X100768715Y-132018434D01*
X100564321Y-132127686D01*
X100453474Y-132404869D01*
X99977582Y-132404869D01*
X100016588Y-132378806D01*
X100247806Y-132147588D01*
X100429473Y-131875705D01*
X100554607Y-131573604D01*
X100618400Y-131252896D01*
X100618400Y-130925904D01*
X100554607Y-130605196D01*
X100429473Y-130303095D01*
X100247806Y-130031212D01*
X100016588Y-129799994D01*
X99977583Y-129773931D01*
X100453474Y-129773931D01*
X100564321Y-130051114D01*
X100875240Y-130204489D01*
X101210105Y-130294260D01*
X101556050Y-130316976D01*
X101899780Y-130271766D01*
X102228085Y-130160366D01*
X102432479Y-130051114D01*
X102543326Y-129773931D01*
X101498400Y-128729005D01*
X100453474Y-129773931D01*
X99977583Y-129773931D01*
X99744705Y-129618327D01*
X99442604Y-129493193D01*
X99121896Y-129429400D01*
X98794904Y-129429400D01*
X98474196Y-129493193D01*
X98172095Y-129618327D01*
X97900212Y-129799994D01*
X97668994Y-130031212D01*
X97487327Y-130303095D01*
X97362193Y-130605196D01*
X97298400Y-130925904D01*
X86385400Y-130925904D01*
X86385400Y-129773931D01*
X95373474Y-129773931D01*
X95484321Y-130051114D01*
X95795240Y-130204489D01*
X96130105Y-130294260D01*
X96476050Y-130316976D01*
X96819780Y-130271766D01*
X97148085Y-130160366D01*
X97352479Y-130051114D01*
X97463326Y-129773931D01*
X96418400Y-128729005D01*
X95373474Y-129773931D01*
X86385400Y-129773931D01*
X86385400Y-128607050D01*
X94650824Y-128607050D01*
X94696034Y-128950780D01*
X94807434Y-129279085D01*
X94916686Y-129483479D01*
X95193869Y-129594326D01*
X96238795Y-128549400D01*
X96598005Y-128549400D01*
X97642931Y-129594326D01*
X97920114Y-129483479D01*
X98073489Y-129172560D01*
X98163260Y-128837695D01*
X98178404Y-128607050D01*
X99730824Y-128607050D01*
X99776034Y-128950780D01*
X99887434Y-129279085D01*
X99996686Y-129483479D01*
X100273869Y-129594326D01*
X101318795Y-128549400D01*
X101678005Y-128549400D01*
X102722931Y-129594326D01*
X103000114Y-129483479D01*
X103153489Y-129172560D01*
X103243260Y-128837695D01*
X103265976Y-128491750D01*
X103220766Y-128148020D01*
X103109366Y-127819715D01*
X103000114Y-127615321D01*
X102722931Y-127504474D01*
X101678005Y-128549400D01*
X101318795Y-128549400D01*
X100273869Y-127504474D01*
X99996686Y-127615321D01*
X99843311Y-127926240D01*
X99753540Y-128261105D01*
X99730824Y-128607050D01*
X98178404Y-128607050D01*
X98185976Y-128491750D01*
X98140766Y-128148020D01*
X98029366Y-127819715D01*
X97920114Y-127615321D01*
X97642931Y-127504474D01*
X96598005Y-128549400D01*
X96238795Y-128549400D01*
X95193869Y-127504474D01*
X94916686Y-127615321D01*
X94763311Y-127926240D01*
X94673540Y-128261105D01*
X94650824Y-128607050D01*
X86385400Y-128607050D01*
X86385400Y-127324869D01*
X95373474Y-127324869D01*
X96418400Y-128369795D01*
X97463326Y-127324869D01*
X100453474Y-127324869D01*
X101498400Y-128369795D01*
X102543326Y-127324869D01*
X102432479Y-127047686D01*
X102121560Y-126894311D01*
X101786695Y-126804540D01*
X101440750Y-126781824D01*
X101097020Y-126827034D01*
X100768715Y-126938434D01*
X100564321Y-127047686D01*
X100453474Y-127324869D01*
X97463326Y-127324869D01*
X97352479Y-127047686D01*
X97041560Y-126894311D01*
X96706695Y-126804540D01*
X96360750Y-126781824D01*
X96017020Y-126827034D01*
X95688715Y-126938434D01*
X95484321Y-127047686D01*
X95373474Y-127324869D01*
X86385400Y-127324869D01*
X86385400Y-126918059D01*
X86404400Y-126822539D01*
X86404400Y-126618661D01*
X86385400Y-126523141D01*
X86385400Y-124423640D01*
X91891797Y-118917244D01*
X91972774Y-118863137D01*
X92116937Y-118718974D01*
X92230205Y-118549456D01*
X92308226Y-118361098D01*
X92348000Y-118161139D01*
X92348000Y-117957261D01*
X92308226Y-117757302D01*
X92230205Y-117568944D01*
X92116937Y-117399426D01*
X91972774Y-117255263D01*
X91803256Y-117141995D01*
X91614898Y-117063974D01*
X91414939Y-117024200D01*
X91211061Y-117024200D01*
X91011102Y-117063974D01*
X90822744Y-117141995D01*
X90653226Y-117255263D01*
X90509063Y-117399426D01*
X90454956Y-117480403D01*
X84686268Y-123249092D01*
X84647505Y-123280904D01*
X84520541Y-123435610D01*
X84501056Y-123472065D01*
X84426199Y-123612113D01*
X84368102Y-123803630D01*
X84348485Y-124002800D01*
X84353401Y-124052711D01*
X84353400Y-126212600D01*
X64327241Y-126212600D01*
X63870669Y-125756028D01*
X63909925Y-125767936D01*
X63926525Y-125769571D01*
X64040533Y-125780800D01*
X64040540Y-125780800D01*
X64084200Y-125785100D01*
X64127860Y-125780800D01*
X79020332Y-125780800D01*
X79062544Y-125809005D01*
X79250902Y-125887026D01*
X79450861Y-125926800D01*
X79654739Y-125926800D01*
X79854698Y-125887026D01*
X80043056Y-125809005D01*
X80212574Y-125695737D01*
X80356737Y-125551574D01*
X80470005Y-125382056D01*
X80548026Y-125193698D01*
X80587800Y-124993739D01*
X80587800Y-124789861D01*
X80548026Y-124589902D01*
X80470005Y-124401544D01*
X80356737Y-124232026D01*
X80212574Y-124087863D01*
X80043056Y-123974595D01*
X79854698Y-123896574D01*
X79654739Y-123856800D01*
X79450861Y-123856800D01*
X79250902Y-123896574D01*
X79062544Y-123974595D01*
X79020332Y-124002800D01*
X64452436Y-124002800D01*
X60985400Y-120535765D01*
X60985400Y-120287944D01*
X64685000Y-120287944D01*
X64685000Y-120554856D01*
X64737072Y-120816639D01*
X64839215Y-121063233D01*
X64987503Y-121285162D01*
X65176238Y-121473897D01*
X65398167Y-121622185D01*
X65644761Y-121724328D01*
X65906544Y-121776400D01*
X66173456Y-121776400D01*
X66435239Y-121724328D01*
X66681833Y-121622185D01*
X66903762Y-121473897D01*
X67092497Y-121285162D01*
X67240785Y-121063233D01*
X67310000Y-120896134D01*
X67379215Y-121063233D01*
X67527503Y-121285162D01*
X67716238Y-121473897D01*
X67938167Y-121622185D01*
X68184761Y-121724328D01*
X68446544Y-121776400D01*
X68713456Y-121776400D01*
X68975239Y-121724328D01*
X69221833Y-121622185D01*
X69443762Y-121473897D01*
X69632497Y-121285162D01*
X69780785Y-121063233D01*
X69850000Y-120896134D01*
X69919215Y-121063233D01*
X70067503Y-121285162D01*
X70256238Y-121473897D01*
X70478167Y-121622185D01*
X70724761Y-121724328D01*
X70986544Y-121776400D01*
X71253456Y-121776400D01*
X71515239Y-121724328D01*
X71761833Y-121622185D01*
X71983762Y-121473897D01*
X72172497Y-121285162D01*
X72320785Y-121063233D01*
X72422928Y-120816639D01*
X72475000Y-120554856D01*
X72475000Y-120287944D01*
X72422928Y-120026161D01*
X72320785Y-119779567D01*
X72172497Y-119557638D01*
X71983762Y-119368903D01*
X71761833Y-119220615D01*
X71515239Y-119118472D01*
X71253456Y-119066400D01*
X70986544Y-119066400D01*
X70724761Y-119118472D01*
X70478167Y-119220615D01*
X70256238Y-119368903D01*
X70067503Y-119557638D01*
X69919215Y-119779567D01*
X69850000Y-119946666D01*
X69780785Y-119779567D01*
X69632497Y-119557638D01*
X69443762Y-119368903D01*
X69221833Y-119220615D01*
X68975239Y-119118472D01*
X68713456Y-119066400D01*
X68446544Y-119066400D01*
X68184761Y-119118472D01*
X67938167Y-119220615D01*
X67716238Y-119368903D01*
X67527503Y-119557638D01*
X67379215Y-119779567D01*
X67310000Y-119946666D01*
X67240785Y-119779567D01*
X67092497Y-119557638D01*
X66903762Y-119368903D01*
X66681833Y-119220615D01*
X66435239Y-119118472D01*
X66173456Y-119066400D01*
X65906544Y-119066400D01*
X65644761Y-119118472D01*
X65398167Y-119220615D01*
X65176238Y-119368903D01*
X64987503Y-119557638D01*
X64839215Y-119779567D01*
X64737072Y-120026161D01*
X64685000Y-120287944D01*
X60985400Y-120287944D01*
X60985400Y-119125102D01*
X60990315Y-119075200D01*
X60970698Y-118876029D01*
X60912602Y-118684513D01*
X60818260Y-118508010D01*
X60786000Y-118468701D01*
X60691296Y-118353304D01*
X60652533Y-118321492D01*
X59683641Y-117352601D01*
X86473015Y-117352601D01*
X86522917Y-117357516D01*
X86572819Y-117352601D01*
X86722088Y-117337899D01*
X86913604Y-117279803D01*
X87090107Y-117185461D01*
X87244813Y-117058497D01*
X87276629Y-117019729D01*
X91261027Y-113035331D01*
X92528674Y-113035331D01*
X92639521Y-113312514D01*
X92950440Y-113465889D01*
X93285305Y-113555660D01*
X93631250Y-113578376D01*
X93974980Y-113533166D01*
X94303285Y-113421766D01*
X94507679Y-113312514D01*
X94618526Y-113035331D01*
X97608674Y-113035331D01*
X97719521Y-113312514D01*
X98030440Y-113465889D01*
X98365305Y-113555660D01*
X98711250Y-113578376D01*
X99054980Y-113533166D01*
X99383285Y-113421766D01*
X99587679Y-113312514D01*
X99698526Y-113035331D01*
X98653600Y-111990405D01*
X97608674Y-113035331D01*
X94618526Y-113035331D01*
X93573600Y-111990405D01*
X92528674Y-113035331D01*
X91261027Y-113035331D01*
X91910251Y-112386107D01*
X91962634Y-112540485D01*
X92071886Y-112744879D01*
X92349069Y-112855726D01*
X93393995Y-111810800D01*
X93753205Y-111810800D01*
X94798131Y-112855726D01*
X95075314Y-112744879D01*
X95228689Y-112433960D01*
X95318460Y-112099095D01*
X95333604Y-111868450D01*
X96886024Y-111868450D01*
X96931234Y-112212180D01*
X97042634Y-112540485D01*
X97151886Y-112744879D01*
X97429069Y-112855726D01*
X98473995Y-111810800D01*
X98833205Y-111810800D01*
X99878131Y-112855726D01*
X100155314Y-112744879D01*
X100308689Y-112433960D01*
X100398460Y-112099095D01*
X100421176Y-111753150D01*
X100375966Y-111409420D01*
X100264566Y-111081115D01*
X100155314Y-110876721D01*
X99878131Y-110765874D01*
X98833205Y-111810800D01*
X98473995Y-111810800D01*
X97429069Y-110765874D01*
X97151886Y-110876721D01*
X96998511Y-111187640D01*
X96908740Y-111522505D01*
X96886024Y-111868450D01*
X95333604Y-111868450D01*
X95341176Y-111753150D01*
X95295966Y-111409420D01*
X95184566Y-111081115D01*
X95075314Y-110876721D01*
X94798131Y-110765874D01*
X93753205Y-111810800D01*
X93393995Y-111810800D01*
X93379853Y-111796658D01*
X93559458Y-111617053D01*
X93573600Y-111631195D01*
X94618526Y-110586269D01*
X94507679Y-110309086D01*
X94196760Y-110155711D01*
X94152510Y-110143848D01*
X94524411Y-109771947D01*
X94642527Y-110057105D01*
X94824194Y-110328988D01*
X95055412Y-110560206D01*
X95327295Y-110741873D01*
X95629396Y-110867007D01*
X95950104Y-110930800D01*
X96277096Y-110930800D01*
X96597804Y-110867007D01*
X96899905Y-110741873D01*
X97132782Y-110586269D01*
X97608674Y-110586269D01*
X98653600Y-111631195D01*
X99698526Y-110586269D01*
X99587679Y-110309086D01*
X99276760Y-110155711D01*
X98941895Y-110065940D01*
X98595950Y-110043224D01*
X98252220Y-110088434D01*
X97923915Y-110199834D01*
X97719521Y-110309086D01*
X97608674Y-110586269D01*
X97132782Y-110586269D01*
X97171788Y-110560206D01*
X97403006Y-110328988D01*
X97584673Y-110057105D01*
X97668527Y-109854661D01*
X106305400Y-109854661D01*
X106305400Y-110058539D01*
X106345174Y-110258498D01*
X106423195Y-110446856D01*
X106536463Y-110616374D01*
X106578401Y-110658312D01*
X106578400Y-131001177D01*
X106574714Y-131038600D01*
X106578400Y-131076023D01*
X106578400Y-131076025D01*
X106589426Y-131187977D01*
X106632998Y-131331614D01*
X106632999Y-131331615D01*
X106703755Y-131463992D01*
X106709528Y-131471026D01*
X106798978Y-131580022D01*
X106828054Y-131603884D01*
X107397600Y-132173431D01*
X107397600Y-132232739D01*
X107437374Y-132432698D01*
X107515395Y-132621056D01*
X107628663Y-132790574D01*
X107772826Y-132934737D01*
X107942344Y-133048005D01*
X108130702Y-133126026D01*
X108330661Y-133165800D01*
X108534539Y-133165800D01*
X108734498Y-133126026D01*
X108922856Y-133048005D01*
X109092374Y-132934737D01*
X109236537Y-132790574D01*
X109349805Y-132621056D01*
X109427826Y-132432698D01*
X109467600Y-132232739D01*
X109467600Y-132028861D01*
X109427826Y-131828902D01*
X109349805Y-131640544D01*
X109236537Y-131471026D01*
X109092374Y-131326863D01*
X108922856Y-131213595D01*
X108734498Y-131135574D01*
X108534539Y-131095800D01*
X108475231Y-131095800D01*
X108102400Y-130722970D01*
X108102400Y-110658311D01*
X108144337Y-110616374D01*
X108257605Y-110446856D01*
X108335626Y-110258498D01*
X108375400Y-110058539D01*
X108375400Y-109854661D01*
X108335626Y-109654702D01*
X108257605Y-109466344D01*
X108144337Y-109296826D01*
X108000174Y-109152663D01*
X107830656Y-109039395D01*
X107642298Y-108961374D01*
X107442339Y-108921600D01*
X107238461Y-108921600D01*
X107038502Y-108961374D01*
X106850144Y-109039395D01*
X106680626Y-109152663D01*
X106536463Y-109296826D01*
X106423195Y-109466344D01*
X106345174Y-109654702D01*
X106305400Y-109854661D01*
X97668527Y-109854661D01*
X97709807Y-109755004D01*
X97773600Y-109434296D01*
X97773600Y-109107304D01*
X97709807Y-108786596D01*
X97584673Y-108484495D01*
X97403006Y-108212612D01*
X97171788Y-107981394D01*
X97132783Y-107955331D01*
X97608674Y-107955331D01*
X97719521Y-108232514D01*
X98030440Y-108385889D01*
X98365305Y-108475660D01*
X98711250Y-108498376D01*
X99054980Y-108453166D01*
X99383285Y-108341766D01*
X99587679Y-108232514D01*
X99698526Y-107955331D01*
X98653600Y-106910405D01*
X97608674Y-107955331D01*
X97132783Y-107955331D01*
X96899905Y-107799727D01*
X96614747Y-107681611D01*
X96990251Y-107306108D01*
X97042634Y-107460485D01*
X97151886Y-107664879D01*
X97429069Y-107775726D01*
X98473995Y-106730800D01*
X98833205Y-106730800D01*
X99878131Y-107775726D01*
X100155314Y-107664879D01*
X100308689Y-107353960D01*
X100398460Y-107019095D01*
X100412409Y-106806661D01*
X106178400Y-106806661D01*
X106178400Y-107010539D01*
X106218174Y-107210498D01*
X106296195Y-107398856D01*
X106409463Y-107568374D01*
X106553626Y-107712537D01*
X106723144Y-107825805D01*
X106911502Y-107903826D01*
X107111461Y-107943600D01*
X107170770Y-107943600D01*
X109491299Y-110264130D01*
X109491300Y-119076587D01*
X109449362Y-119118525D01*
X109336094Y-119288043D01*
X109258073Y-119476401D01*
X109218299Y-119676360D01*
X109218299Y-119880238D01*
X109258073Y-120080197D01*
X109336094Y-120268555D01*
X109449362Y-120438073D01*
X109593525Y-120582236D01*
X109763043Y-120695504D01*
X109951401Y-120773525D01*
X110151360Y-120813299D01*
X110355238Y-120813299D01*
X110555197Y-120773525D01*
X110743555Y-120695504D01*
X110913073Y-120582236D01*
X111057236Y-120438073D01*
X111170504Y-120268555D01*
X111248525Y-120080197D01*
X111288299Y-119880238D01*
X111288299Y-119676360D01*
X111248525Y-119476401D01*
X111170504Y-119288043D01*
X111057236Y-119118525D01*
X111015299Y-119076588D01*
X111015299Y-109985921D01*
X111018985Y-109948498D01*
X111009743Y-109854661D01*
X111004273Y-109799121D01*
X110960701Y-109655484D01*
X110889944Y-109523107D01*
X110794721Y-109407077D01*
X110765652Y-109383221D01*
X108248400Y-106865970D01*
X108248400Y-106806661D01*
X108208626Y-106606702D01*
X108130605Y-106418344D01*
X108017337Y-106248826D01*
X107873174Y-106104663D01*
X107703656Y-105991395D01*
X107515298Y-105913374D01*
X107315339Y-105873600D01*
X107111461Y-105873600D01*
X106911502Y-105913374D01*
X106723144Y-105991395D01*
X106553626Y-106104663D01*
X106409463Y-106248826D01*
X106296195Y-106418344D01*
X106218174Y-106606702D01*
X106178400Y-106806661D01*
X100412409Y-106806661D01*
X100421176Y-106673150D01*
X100375966Y-106329420D01*
X100264566Y-106001115D01*
X100155314Y-105796721D01*
X99878131Y-105685874D01*
X98833205Y-106730800D01*
X98473995Y-106730800D01*
X98459853Y-106716658D01*
X98639458Y-106537053D01*
X98653600Y-106551195D01*
X99698526Y-105506269D01*
X99587679Y-105229086D01*
X99276760Y-105075711D01*
X99232510Y-105063848D01*
X103287296Y-101009063D01*
X117400727Y-101009063D01*
X115897198Y-102512593D01*
X115868200Y-102536391D01*
X115844402Y-102565389D01*
X115844401Y-102565390D01*
X115773226Y-102652116D01*
X115702654Y-102784146D01*
X115659198Y-102927407D01*
X115644524Y-103076392D01*
X115648201Y-103113724D01*
X115648200Y-115139357D01*
X115493441Y-115242763D01*
X115293563Y-115442641D01*
X115136520Y-115677673D01*
X115028347Y-115938826D01*
X114973200Y-116216065D01*
X114973200Y-116498735D01*
X115028347Y-116775974D01*
X115136520Y-117037127D01*
X115144048Y-117048394D01*
X113956259Y-118236184D01*
X113922342Y-118264019D01*
X113894507Y-118297936D01*
X113894505Y-118297938D01*
X113811248Y-118399387D01*
X113728698Y-118553826D01*
X113677864Y-118721404D01*
X113670302Y-118798181D01*
X113665000Y-118852011D01*
X113665000Y-118852018D01*
X113660700Y-118895678D01*
X113665000Y-118939338D01*
X113665000Y-119253932D01*
X113636795Y-119296144D01*
X113558774Y-119484502D01*
X113519000Y-119684461D01*
X113519000Y-119888339D01*
X113558774Y-120088298D01*
X113636795Y-120276656D01*
X113750063Y-120446174D01*
X113894226Y-120590337D01*
X114063744Y-120703605D01*
X114252102Y-120781626D01*
X114452061Y-120821400D01*
X114655939Y-120821400D01*
X114855898Y-120781626D01*
X115044256Y-120703605D01*
X115213774Y-120590337D01*
X115357937Y-120446174D01*
X115471205Y-120276656D01*
X115549226Y-120088298D01*
X115556071Y-120053885D01*
X115725959Y-120167400D01*
X115493441Y-120322763D01*
X115293563Y-120522641D01*
X115136520Y-120757673D01*
X115028347Y-121018826D01*
X114973200Y-121296065D01*
X114973200Y-121578735D01*
X115028347Y-121855974D01*
X115136520Y-122117127D01*
X115293563Y-122352159D01*
X115493441Y-122552037D01*
X115725959Y-122707400D01*
X115493441Y-122862763D01*
X115293563Y-123062641D01*
X115136520Y-123297673D01*
X115028347Y-123558826D01*
X114973200Y-123836065D01*
X114973200Y-124118735D01*
X115028347Y-124395974D01*
X115136520Y-124657127D01*
X115293563Y-124892159D01*
X115493441Y-125092037D01*
X115725959Y-125247400D01*
X115493441Y-125402763D01*
X115293563Y-125602641D01*
X115136520Y-125837673D01*
X115028347Y-126098826D01*
X114973200Y-126376065D01*
X114973200Y-126658735D01*
X115028347Y-126935974D01*
X115136520Y-127197127D01*
X115293563Y-127432159D01*
X115493441Y-127632037D01*
X115725959Y-127787400D01*
X115493441Y-127942763D01*
X115293563Y-128142641D01*
X115136520Y-128377673D01*
X115028347Y-128638826D01*
X114973200Y-128916065D01*
X114973200Y-129198735D01*
X115028347Y-129475974D01*
X115136520Y-129737127D01*
X115293563Y-129972159D01*
X115493441Y-130172037D01*
X115725959Y-130327400D01*
X115493441Y-130482763D01*
X115293563Y-130682641D01*
X115136520Y-130917673D01*
X115028347Y-131178826D01*
X114973200Y-131456065D01*
X114973200Y-131738735D01*
X115028347Y-132015974D01*
X115136520Y-132277127D01*
X115293563Y-132512159D01*
X115493441Y-132712037D01*
X115725959Y-132867400D01*
X115493441Y-133022763D01*
X115293563Y-133222641D01*
X115136520Y-133457673D01*
X115028347Y-133718826D01*
X114973200Y-133996065D01*
X114973200Y-134278735D01*
X115028347Y-134555974D01*
X115136520Y-134817127D01*
X115293563Y-135052159D01*
X115493441Y-135252037D01*
X115725959Y-135407400D01*
X115493441Y-135562763D01*
X115293563Y-135762641D01*
X115136520Y-135997673D01*
X115028347Y-136258826D01*
X114973200Y-136536065D01*
X114973200Y-136818735D01*
X115028347Y-137095974D01*
X115136520Y-137357127D01*
X115293563Y-137592159D01*
X115493441Y-137792037D01*
X115725959Y-137947400D01*
X115493441Y-138102763D01*
X115293563Y-138302641D01*
X115136520Y-138537673D01*
X115028347Y-138798826D01*
X114973200Y-139076065D01*
X114973200Y-139358735D01*
X115028347Y-139635974D01*
X115136520Y-139897127D01*
X115293563Y-140132159D01*
X115493441Y-140332037D01*
X115725959Y-140487400D01*
X115493441Y-140642763D01*
X115293563Y-140842641D01*
X115136520Y-141077673D01*
X115028347Y-141338826D01*
X114973200Y-141616065D01*
X114973200Y-141898735D01*
X115028347Y-142175974D01*
X115136520Y-142437127D01*
X115293563Y-142672159D01*
X115493441Y-142872037D01*
X115725959Y-143027400D01*
X115493441Y-143182763D01*
X115293563Y-143382641D01*
X115136520Y-143617673D01*
X115028347Y-143878826D01*
X114973200Y-144156065D01*
X114973200Y-144438735D01*
X115028347Y-144715974D01*
X115136520Y-144977127D01*
X115293563Y-145212159D01*
X115493441Y-145412037D01*
X115725959Y-145567400D01*
X115493441Y-145722763D01*
X115293563Y-145922641D01*
X115136520Y-146157673D01*
X115028347Y-146418826D01*
X114973200Y-146696065D01*
X114973200Y-146978735D01*
X115028347Y-147255974D01*
X115136520Y-147517127D01*
X115293563Y-147752159D01*
X115493441Y-147952037D01*
X115725959Y-148107400D01*
X115493441Y-148262763D01*
X115293563Y-148462641D01*
X115136520Y-148697673D01*
X115028347Y-148958826D01*
X114973200Y-149236065D01*
X114973200Y-149518735D01*
X115028347Y-149795974D01*
X115136520Y-150057127D01*
X115293563Y-150292159D01*
X115493441Y-150492037D01*
X115728473Y-150649080D01*
X115989626Y-150757253D01*
X116266865Y-150812400D01*
X116549535Y-150812400D01*
X116826774Y-150757253D01*
X117087927Y-150649080D01*
X117322959Y-150492037D01*
X117444894Y-150370102D01*
X130835103Y-150370102D01*
X130906686Y-150614071D01*
X131162196Y-150734971D01*
X131436384Y-150803700D01*
X131718712Y-150817617D01*
X131998330Y-150776187D01*
X132264492Y-150681003D01*
X132389714Y-150614071D01*
X132437991Y-150449531D01*
X137029474Y-150449531D01*
X137140321Y-150726714D01*
X137451240Y-150880089D01*
X137786105Y-150969860D01*
X138132050Y-150992576D01*
X138475780Y-150947366D01*
X138804085Y-150835966D01*
X139008479Y-150726714D01*
X139119326Y-150449531D01*
X142109474Y-150449531D01*
X142220321Y-150726714D01*
X142531240Y-150880089D01*
X142866105Y-150969860D01*
X143212050Y-150992576D01*
X143555780Y-150947366D01*
X143884085Y-150835966D01*
X144088479Y-150726714D01*
X144199326Y-150449531D01*
X143154400Y-149404605D01*
X142109474Y-150449531D01*
X139119326Y-150449531D01*
X138074400Y-149404605D01*
X137029474Y-150449531D01*
X132437991Y-150449531D01*
X132461297Y-150370102D01*
X131648200Y-149557005D01*
X130835103Y-150370102D01*
X117444894Y-150370102D01*
X117522837Y-150292159D01*
X117679880Y-150057127D01*
X117788053Y-149795974D01*
X117843200Y-149518735D01*
X117843200Y-149447912D01*
X130207983Y-149447912D01*
X130249413Y-149727530D01*
X130344597Y-149993692D01*
X130411529Y-150118914D01*
X130655498Y-150190497D01*
X131468595Y-149377400D01*
X131827805Y-149377400D01*
X132640902Y-150190497D01*
X132884871Y-150118914D01*
X133005771Y-149863404D01*
X133074500Y-149589216D01*
X133088417Y-149306888D01*
X133084826Y-149282650D01*
X136306824Y-149282650D01*
X136352034Y-149626380D01*
X136463434Y-149954685D01*
X136572686Y-150159079D01*
X136849869Y-150269926D01*
X137894795Y-149225000D01*
X138254005Y-149225000D01*
X139298931Y-150269926D01*
X139576114Y-150159079D01*
X139729489Y-149848160D01*
X139819260Y-149513295D01*
X139834404Y-149282650D01*
X141386824Y-149282650D01*
X141432034Y-149626380D01*
X141543434Y-149954685D01*
X141652686Y-150159079D01*
X141929869Y-150269926D01*
X142974795Y-149225000D01*
X143334005Y-149225000D01*
X144378931Y-150269926D01*
X144656114Y-150159079D01*
X144809489Y-149848160D01*
X144899260Y-149513295D01*
X144921976Y-149167350D01*
X144876766Y-148823620D01*
X144765366Y-148495315D01*
X144656114Y-148290921D01*
X144378931Y-148180074D01*
X143334005Y-149225000D01*
X142974795Y-149225000D01*
X141929869Y-148180074D01*
X141652686Y-148290921D01*
X141499311Y-148601840D01*
X141409540Y-148936705D01*
X141386824Y-149282650D01*
X139834404Y-149282650D01*
X139841976Y-149167350D01*
X139796766Y-148823620D01*
X139685366Y-148495315D01*
X139576114Y-148290921D01*
X139298931Y-148180074D01*
X138254005Y-149225000D01*
X137894795Y-149225000D01*
X136849869Y-148180074D01*
X136572686Y-148290921D01*
X136419311Y-148601840D01*
X136329540Y-148936705D01*
X136306824Y-149282650D01*
X133084826Y-149282650D01*
X133046987Y-149027270D01*
X132951803Y-148761108D01*
X132884871Y-148635886D01*
X132640902Y-148564303D01*
X131827805Y-149377400D01*
X131468595Y-149377400D01*
X130655498Y-148564303D01*
X130411529Y-148635886D01*
X130290629Y-148891396D01*
X130221900Y-149165584D01*
X130207983Y-149447912D01*
X117843200Y-149447912D01*
X117843200Y-149236065D01*
X117788053Y-148958826D01*
X117679880Y-148697673D01*
X117522837Y-148462641D01*
X117322959Y-148262763D01*
X117090441Y-148107400D01*
X117322959Y-147952037D01*
X117522837Y-147752159D01*
X117678200Y-147519641D01*
X117833563Y-147752159D01*
X118033441Y-147952037D01*
X118268473Y-148109080D01*
X118529626Y-148217253D01*
X118806865Y-148272400D01*
X119089535Y-148272400D01*
X119366774Y-148217253D01*
X119627927Y-148109080D01*
X119862959Y-147952037D01*
X120062837Y-147752159D01*
X120219880Y-147517127D01*
X120328053Y-147255974D01*
X120383200Y-146978735D01*
X120383200Y-146696065D01*
X120328053Y-146418826D01*
X120219880Y-146157673D01*
X120062837Y-145922641D01*
X119862959Y-145722763D01*
X119627927Y-145565720D01*
X119366774Y-145457547D01*
X119089535Y-145402400D01*
X118806865Y-145402400D01*
X118529626Y-145457547D01*
X118268473Y-145565720D01*
X118033441Y-145722763D01*
X117833563Y-145922641D01*
X117678200Y-146155159D01*
X117522837Y-145922641D01*
X117322959Y-145722763D01*
X117090441Y-145567400D01*
X117322959Y-145412037D01*
X117522837Y-145212159D01*
X117679880Y-144977127D01*
X117788053Y-144715974D01*
X117843200Y-144438735D01*
X117843200Y-144156065D01*
X117788053Y-143878826D01*
X117679880Y-143617673D01*
X117522837Y-143382641D01*
X117322959Y-143182763D01*
X117090441Y-143027400D01*
X117322959Y-142872037D01*
X117522837Y-142672159D01*
X117679880Y-142437127D01*
X117788053Y-142175974D01*
X117843200Y-141898735D01*
X117843200Y-141616065D01*
X117788053Y-141338826D01*
X117679880Y-141077673D01*
X117522837Y-140842641D01*
X117322959Y-140642763D01*
X117090441Y-140487400D01*
X117322959Y-140332037D01*
X117522837Y-140132159D01*
X117679880Y-139897127D01*
X117788053Y-139635974D01*
X117843200Y-139358735D01*
X117843200Y-139076065D01*
X117788053Y-138798826D01*
X117679880Y-138537673D01*
X117522837Y-138302641D01*
X117322959Y-138102763D01*
X117090441Y-137947400D01*
X117322959Y-137792037D01*
X117522837Y-137592159D01*
X117679880Y-137357127D01*
X117788053Y-137095974D01*
X117843200Y-136818735D01*
X117843200Y-136536065D01*
X117788053Y-136258826D01*
X117679880Y-135997673D01*
X117522837Y-135762641D01*
X117322959Y-135562763D01*
X117090441Y-135407400D01*
X117322959Y-135252037D01*
X117522837Y-135052159D01*
X117679880Y-134817127D01*
X117788053Y-134555974D01*
X117843200Y-134278735D01*
X117843200Y-133996065D01*
X117788053Y-133718826D01*
X117679880Y-133457673D01*
X117522837Y-133222641D01*
X117322959Y-133022763D01*
X117090441Y-132867400D01*
X117322959Y-132712037D01*
X117522837Y-132512159D01*
X117679880Y-132277127D01*
X117788053Y-132015974D01*
X117843200Y-131738735D01*
X117843200Y-131456065D01*
X117788053Y-131178826D01*
X117679880Y-130917673D01*
X117522837Y-130682641D01*
X117322959Y-130482763D01*
X117090441Y-130327400D01*
X117322959Y-130172037D01*
X117522837Y-129972159D01*
X117679880Y-129737127D01*
X117788053Y-129475974D01*
X117843200Y-129198735D01*
X117843200Y-128916065D01*
X117788053Y-128638826D01*
X117679880Y-128377673D01*
X117522837Y-128142641D01*
X117322959Y-127942763D01*
X117090441Y-127787400D01*
X117322959Y-127632037D01*
X117522837Y-127432159D01*
X117679880Y-127197127D01*
X117788053Y-126935974D01*
X117843200Y-126658735D01*
X117843200Y-126376065D01*
X117788053Y-126098826D01*
X117679880Y-125837673D01*
X117522837Y-125602641D01*
X117322959Y-125402763D01*
X117090441Y-125247400D01*
X117322959Y-125092037D01*
X117522837Y-124892159D01*
X117678200Y-124659641D01*
X117833563Y-124892159D01*
X118033441Y-125092037D01*
X118268473Y-125249080D01*
X118529626Y-125357253D01*
X118806865Y-125412400D01*
X119089535Y-125412400D01*
X119366774Y-125357253D01*
X119627927Y-125249080D01*
X119862959Y-125092037D01*
X120062837Y-124892159D01*
X120218200Y-124659641D01*
X120373563Y-124892159D01*
X120573441Y-125092037D01*
X120808473Y-125249080D01*
X121069626Y-125357253D01*
X121346865Y-125412400D01*
X121629535Y-125412400D01*
X121906774Y-125357253D01*
X122167927Y-125249080D01*
X122402959Y-125092037D01*
X122602837Y-124892159D01*
X122758200Y-124659641D01*
X122913563Y-124892159D01*
X123113441Y-125092037D01*
X123348473Y-125249080D01*
X123609626Y-125357253D01*
X123886865Y-125412400D01*
X124169535Y-125412400D01*
X124446774Y-125357253D01*
X124707927Y-125249080D01*
X124942959Y-125092037D01*
X125142837Y-124892159D01*
X125298200Y-124659641D01*
X125453563Y-124892159D01*
X125653441Y-125092037D01*
X125888473Y-125249080D01*
X126149626Y-125357253D01*
X126426865Y-125412400D01*
X126709535Y-125412400D01*
X126986774Y-125357253D01*
X127247927Y-125249080D01*
X127482959Y-125092037D01*
X127682837Y-124892159D01*
X127838200Y-124659641D01*
X127993563Y-124892159D01*
X128193441Y-125092037D01*
X128428473Y-125249080D01*
X128689626Y-125357253D01*
X128966865Y-125412400D01*
X129249535Y-125412400D01*
X129526774Y-125357253D01*
X129787927Y-125249080D01*
X130022959Y-125092037D01*
X130222837Y-124892159D01*
X130378200Y-124659641D01*
X130533563Y-124892159D01*
X130733441Y-125092037D01*
X130965959Y-125247400D01*
X130733441Y-125402763D01*
X130533563Y-125602641D01*
X130376520Y-125837673D01*
X130268347Y-126098826D01*
X130213200Y-126376065D01*
X130213200Y-126658735D01*
X130268347Y-126935974D01*
X130376520Y-127197127D01*
X130533563Y-127432159D01*
X130733441Y-127632037D01*
X130965959Y-127787400D01*
X130733441Y-127942763D01*
X130533563Y-128142641D01*
X130376520Y-128377673D01*
X130268347Y-128638826D01*
X130213200Y-128916065D01*
X130213200Y-129198735D01*
X130268347Y-129475974D01*
X130376520Y-129737127D01*
X130533563Y-129972159D01*
X130733441Y-130172037D01*
X130965959Y-130327400D01*
X130733441Y-130482763D01*
X130533563Y-130682641D01*
X130376520Y-130917673D01*
X130268347Y-131178826D01*
X130213200Y-131456065D01*
X130213200Y-131738735D01*
X130268347Y-132015974D01*
X130376520Y-132277127D01*
X130533563Y-132512159D01*
X130733441Y-132712037D01*
X130965959Y-132867400D01*
X130733441Y-133022763D01*
X130533563Y-133222641D01*
X130376520Y-133457673D01*
X130268347Y-133718826D01*
X130213200Y-133996065D01*
X130213200Y-134278735D01*
X130268347Y-134555974D01*
X130376520Y-134817127D01*
X130533563Y-135052159D01*
X130733441Y-135252037D01*
X130965959Y-135407400D01*
X130733441Y-135562763D01*
X130533563Y-135762641D01*
X130376520Y-135997673D01*
X130268347Y-136258826D01*
X130213200Y-136536065D01*
X130213200Y-136818735D01*
X130268347Y-137095974D01*
X130376520Y-137357127D01*
X130533563Y-137592159D01*
X130733441Y-137792037D01*
X130965959Y-137947400D01*
X130733441Y-138102763D01*
X130533563Y-138302641D01*
X130376520Y-138537673D01*
X130268347Y-138798826D01*
X130213200Y-139076065D01*
X130213200Y-139358735D01*
X130268347Y-139635974D01*
X130376520Y-139897127D01*
X130533563Y-140132159D01*
X130733441Y-140332037D01*
X130965959Y-140487400D01*
X130733441Y-140642763D01*
X130533563Y-140842641D01*
X130376520Y-141077673D01*
X130268347Y-141338826D01*
X130213200Y-141616065D01*
X130213200Y-141898735D01*
X130268347Y-142175974D01*
X130376520Y-142437127D01*
X130533563Y-142672159D01*
X130733441Y-142872037D01*
X130965959Y-143027400D01*
X130733441Y-143182763D01*
X130533563Y-143382641D01*
X130376520Y-143617673D01*
X130268347Y-143878826D01*
X130213200Y-144156065D01*
X130213200Y-144438735D01*
X130268347Y-144715974D01*
X130376520Y-144977127D01*
X130533563Y-145212159D01*
X130733441Y-145412037D01*
X130965959Y-145567400D01*
X130733441Y-145722763D01*
X130533563Y-145922641D01*
X130376520Y-146157673D01*
X130268347Y-146418826D01*
X130213200Y-146696065D01*
X130213200Y-146978735D01*
X130268347Y-147255974D01*
X130376520Y-147517127D01*
X130533563Y-147752159D01*
X130733441Y-147952037D01*
X130967328Y-148108315D01*
X130906686Y-148140729D01*
X130835103Y-148384698D01*
X131648200Y-149197795D01*
X132461297Y-148384698D01*
X132389714Y-148140729D01*
X132325208Y-148110206D01*
X132327927Y-148109080D01*
X132490475Y-148000469D01*
X137029474Y-148000469D01*
X138074400Y-149045395D01*
X139119326Y-148000469D01*
X139008479Y-147723286D01*
X138697560Y-147569911D01*
X138362695Y-147480140D01*
X138016750Y-147457424D01*
X137673020Y-147502634D01*
X137344715Y-147614034D01*
X137140321Y-147723286D01*
X137029474Y-148000469D01*
X132490475Y-148000469D01*
X132562959Y-147952037D01*
X132762837Y-147752159D01*
X132919880Y-147517127D01*
X133028053Y-147255974D01*
X133083200Y-146978735D01*
X133083200Y-146696065D01*
X133048478Y-146521504D01*
X138954400Y-146521504D01*
X138954400Y-146848496D01*
X139018193Y-147169204D01*
X139143327Y-147471305D01*
X139324994Y-147743188D01*
X139556212Y-147974406D01*
X139828095Y-148156073D01*
X140130196Y-148281207D01*
X140450904Y-148345000D01*
X140777896Y-148345000D01*
X141098604Y-148281207D01*
X141400705Y-148156073D01*
X141633582Y-148000469D01*
X142109474Y-148000469D01*
X143154400Y-149045395D01*
X144199326Y-148000469D01*
X144088479Y-147723286D01*
X143777560Y-147569911D01*
X143442695Y-147480140D01*
X143096750Y-147457424D01*
X142753020Y-147502634D01*
X142424715Y-147614034D01*
X142220321Y-147723286D01*
X142109474Y-148000469D01*
X141633582Y-148000469D01*
X141672588Y-147974406D01*
X141903806Y-147743188D01*
X142085473Y-147471305D01*
X142210607Y-147169204D01*
X142274400Y-146848496D01*
X142274400Y-146521504D01*
X142210607Y-146200796D01*
X142085473Y-145898695D01*
X141903806Y-145626812D01*
X141672588Y-145395594D01*
X141633583Y-145369531D01*
X142109474Y-145369531D01*
X142220321Y-145646714D01*
X142531240Y-145800089D01*
X142866105Y-145889860D01*
X143212050Y-145912576D01*
X143555780Y-145867366D01*
X143884085Y-145755966D01*
X144088479Y-145646714D01*
X144199326Y-145369531D01*
X143154400Y-144324605D01*
X142109474Y-145369531D01*
X141633583Y-145369531D01*
X141400705Y-145213927D01*
X141098604Y-145088793D01*
X140777896Y-145025000D01*
X140450904Y-145025000D01*
X140130196Y-145088793D01*
X139828095Y-145213927D01*
X139556212Y-145395594D01*
X139324994Y-145626812D01*
X139143327Y-145898695D01*
X139018193Y-146200796D01*
X138954400Y-146521504D01*
X133048478Y-146521504D01*
X133028053Y-146418826D01*
X132919880Y-146157673D01*
X132762837Y-145922641D01*
X132562959Y-145722763D01*
X132330441Y-145567400D01*
X132562959Y-145412037D01*
X132605465Y-145369531D01*
X137029474Y-145369531D01*
X137140321Y-145646714D01*
X137451240Y-145800089D01*
X137786105Y-145889860D01*
X138132050Y-145912576D01*
X138475780Y-145867366D01*
X138804085Y-145755966D01*
X139008479Y-145646714D01*
X139119326Y-145369531D01*
X138074400Y-144324605D01*
X137029474Y-145369531D01*
X132605465Y-145369531D01*
X132762837Y-145212159D01*
X132919880Y-144977127D01*
X133028053Y-144715974D01*
X133083200Y-144438735D01*
X133083200Y-144202650D01*
X136306824Y-144202650D01*
X136352034Y-144546380D01*
X136463434Y-144874685D01*
X136572686Y-145079079D01*
X136849869Y-145189926D01*
X137894795Y-144145000D01*
X138254005Y-144145000D01*
X139298931Y-145189926D01*
X139576114Y-145079079D01*
X139729489Y-144768160D01*
X139819260Y-144433295D01*
X139834404Y-144202650D01*
X141386824Y-144202650D01*
X141432034Y-144546380D01*
X141543434Y-144874685D01*
X141652686Y-145079079D01*
X141929869Y-145189926D01*
X142974795Y-144145000D01*
X143334005Y-144145000D01*
X144378931Y-145189926D01*
X144656114Y-145079079D01*
X144809489Y-144768160D01*
X144899260Y-144433295D01*
X144921976Y-144087350D01*
X144876766Y-143743620D01*
X144765366Y-143415315D01*
X144656114Y-143210921D01*
X144378931Y-143100074D01*
X143334005Y-144145000D01*
X142974795Y-144145000D01*
X141929869Y-143100074D01*
X141652686Y-143210921D01*
X141499311Y-143521840D01*
X141409540Y-143856705D01*
X141386824Y-144202650D01*
X139834404Y-144202650D01*
X139841976Y-144087350D01*
X139796766Y-143743620D01*
X139685366Y-143415315D01*
X139576114Y-143210921D01*
X139298931Y-143100074D01*
X138254005Y-144145000D01*
X137894795Y-144145000D01*
X136849869Y-143100074D01*
X136572686Y-143210921D01*
X136419311Y-143521840D01*
X136329540Y-143856705D01*
X136306824Y-144202650D01*
X133083200Y-144202650D01*
X133083200Y-144156065D01*
X133028053Y-143878826D01*
X132919880Y-143617673D01*
X132762837Y-143382641D01*
X132562959Y-143182763D01*
X132330441Y-143027400D01*
X132490475Y-142920469D01*
X137029474Y-142920469D01*
X138074400Y-143965395D01*
X139119326Y-142920469D01*
X142109474Y-142920469D01*
X143154400Y-143965395D01*
X144199326Y-142920469D01*
X144088479Y-142643286D01*
X143777560Y-142489911D01*
X143442695Y-142400140D01*
X143096750Y-142377424D01*
X142753020Y-142422634D01*
X142424715Y-142534034D01*
X142220321Y-142643286D01*
X142109474Y-142920469D01*
X139119326Y-142920469D01*
X139008479Y-142643286D01*
X138697560Y-142489911D01*
X138362695Y-142400140D01*
X138016750Y-142377424D01*
X137673020Y-142422634D01*
X137344715Y-142534034D01*
X137140321Y-142643286D01*
X137029474Y-142920469D01*
X132490475Y-142920469D01*
X132562959Y-142872037D01*
X132762837Y-142672159D01*
X132919880Y-142437127D01*
X133028053Y-142175974D01*
X133083200Y-141898735D01*
X133083200Y-141616065D01*
X133028053Y-141338826D01*
X132919880Y-141077673D01*
X132762837Y-140842641D01*
X132562959Y-140642763D01*
X132330441Y-140487400D01*
X132562959Y-140332037D01*
X132762837Y-140132159D01*
X132919880Y-139897127D01*
X132970578Y-139774731D01*
X137126074Y-139774731D01*
X137236921Y-140051914D01*
X137547840Y-140205289D01*
X137882705Y-140295060D01*
X138228650Y-140317776D01*
X138572380Y-140272566D01*
X138900685Y-140161166D01*
X139105079Y-140051914D01*
X139215926Y-139774731D01*
X142206074Y-139774731D01*
X142316921Y-140051914D01*
X142627840Y-140205289D01*
X142962705Y-140295060D01*
X143308650Y-140317776D01*
X143652380Y-140272566D01*
X143980685Y-140161166D01*
X144185079Y-140051914D01*
X144295926Y-139774731D01*
X143251000Y-138729805D01*
X142206074Y-139774731D01*
X139215926Y-139774731D01*
X138171000Y-138729805D01*
X137126074Y-139774731D01*
X132970578Y-139774731D01*
X133028053Y-139635974D01*
X133083200Y-139358735D01*
X133083200Y-139076065D01*
X133028053Y-138798826D01*
X132948949Y-138607850D01*
X136403424Y-138607850D01*
X136448634Y-138951580D01*
X136560034Y-139279885D01*
X136669286Y-139484279D01*
X136946469Y-139595126D01*
X137991395Y-138550200D01*
X138350605Y-138550200D01*
X139395531Y-139595126D01*
X139672714Y-139484279D01*
X139826089Y-139173360D01*
X139915860Y-138838495D01*
X139931004Y-138607850D01*
X141483424Y-138607850D01*
X141528634Y-138951580D01*
X141640034Y-139279885D01*
X141749286Y-139484279D01*
X142026469Y-139595126D01*
X143071395Y-138550200D01*
X143430605Y-138550200D01*
X144475531Y-139595126D01*
X144752714Y-139484279D01*
X144906089Y-139173360D01*
X144995860Y-138838495D01*
X145018576Y-138492550D01*
X144973366Y-138148820D01*
X144861966Y-137820515D01*
X144752714Y-137616121D01*
X144475531Y-137505274D01*
X143430605Y-138550200D01*
X143071395Y-138550200D01*
X142026469Y-137505274D01*
X141749286Y-137616121D01*
X141595911Y-137927040D01*
X141506140Y-138261905D01*
X141483424Y-138607850D01*
X139931004Y-138607850D01*
X139938576Y-138492550D01*
X139893366Y-138148820D01*
X139781966Y-137820515D01*
X139672714Y-137616121D01*
X139395531Y-137505274D01*
X138350605Y-138550200D01*
X137991395Y-138550200D01*
X136946469Y-137505274D01*
X136669286Y-137616121D01*
X136515911Y-137927040D01*
X136426140Y-138261905D01*
X136403424Y-138607850D01*
X132948949Y-138607850D01*
X132919880Y-138537673D01*
X132762837Y-138302641D01*
X132562959Y-138102763D01*
X132330441Y-137947400D01*
X132562959Y-137792037D01*
X132762837Y-137592159D01*
X132919880Y-137357127D01*
X132932910Y-137325669D01*
X137126074Y-137325669D01*
X138171000Y-138370595D01*
X139215926Y-137325669D01*
X139105079Y-137048486D01*
X138794160Y-136895111D01*
X138459295Y-136805340D01*
X138113350Y-136782624D01*
X137769620Y-136827834D01*
X137441315Y-136939234D01*
X137236921Y-137048486D01*
X137126074Y-137325669D01*
X132932910Y-137325669D01*
X133028053Y-137095974D01*
X133083200Y-136818735D01*
X133083200Y-136536065D01*
X133028053Y-136258826D01*
X132919880Y-135997673D01*
X132819006Y-135846704D01*
X139051000Y-135846704D01*
X139051000Y-136173696D01*
X139114793Y-136494404D01*
X139239927Y-136796505D01*
X139421594Y-137068388D01*
X139652812Y-137299606D01*
X139924695Y-137481273D01*
X140226796Y-137606407D01*
X140547504Y-137670200D01*
X140874496Y-137670200D01*
X141195204Y-137606407D01*
X141497305Y-137481273D01*
X141730182Y-137325669D01*
X142206074Y-137325669D01*
X143251000Y-138370595D01*
X144295926Y-137325669D01*
X144185079Y-137048486D01*
X143874160Y-136895111D01*
X143539295Y-136805340D01*
X143193350Y-136782624D01*
X142849620Y-136827834D01*
X142521315Y-136939234D01*
X142316921Y-137048486D01*
X142206074Y-137325669D01*
X141730182Y-137325669D01*
X141769188Y-137299606D01*
X142000406Y-137068388D01*
X142182073Y-136796505D01*
X142307207Y-136494404D01*
X142371000Y-136173696D01*
X142371000Y-135846704D01*
X142307207Y-135525996D01*
X142182073Y-135223895D01*
X142000406Y-134952012D01*
X141769188Y-134720794D01*
X141730183Y-134694731D01*
X142206074Y-134694731D01*
X142316921Y-134971914D01*
X142627840Y-135125289D01*
X142962705Y-135215060D01*
X143308650Y-135237776D01*
X143652380Y-135192566D01*
X143980685Y-135081166D01*
X144185079Y-134971914D01*
X144295926Y-134694731D01*
X143251000Y-133649805D01*
X142206074Y-134694731D01*
X141730183Y-134694731D01*
X141497305Y-134539127D01*
X141195204Y-134413993D01*
X140874496Y-134350200D01*
X140547504Y-134350200D01*
X140226796Y-134413993D01*
X139924695Y-134539127D01*
X139652812Y-134720794D01*
X139421594Y-134952012D01*
X139239927Y-135223895D01*
X139114793Y-135525996D01*
X139051000Y-135846704D01*
X132819006Y-135846704D01*
X132762837Y-135762641D01*
X132562959Y-135562763D01*
X132330441Y-135407400D01*
X132562959Y-135252037D01*
X132762837Y-135052159D01*
X132919880Y-134817127D01*
X132970578Y-134694731D01*
X137126074Y-134694731D01*
X137236921Y-134971914D01*
X137547840Y-135125289D01*
X137882705Y-135215060D01*
X138228650Y-135237776D01*
X138572380Y-135192566D01*
X138900685Y-135081166D01*
X139105079Y-134971914D01*
X139215926Y-134694731D01*
X138171000Y-133649805D01*
X137126074Y-134694731D01*
X132970578Y-134694731D01*
X133028053Y-134555974D01*
X133083200Y-134278735D01*
X133083200Y-133996065D01*
X133028053Y-133718826D01*
X132948949Y-133527850D01*
X136403424Y-133527850D01*
X136448634Y-133871580D01*
X136560034Y-134199885D01*
X136669286Y-134404279D01*
X136946469Y-134515126D01*
X137991395Y-133470200D01*
X138350605Y-133470200D01*
X139395531Y-134515126D01*
X139672714Y-134404279D01*
X139826089Y-134093360D01*
X139915860Y-133758495D01*
X139931004Y-133527850D01*
X141483424Y-133527850D01*
X141528634Y-133871580D01*
X141640034Y-134199885D01*
X141749286Y-134404279D01*
X142026469Y-134515126D01*
X143071395Y-133470200D01*
X143430605Y-133470200D01*
X144475531Y-134515126D01*
X144752714Y-134404279D01*
X144906089Y-134093360D01*
X144995860Y-133758495D01*
X145018576Y-133412550D01*
X144973366Y-133068820D01*
X144861966Y-132740515D01*
X144752714Y-132536121D01*
X144475531Y-132425274D01*
X143430605Y-133470200D01*
X143071395Y-133470200D01*
X142026469Y-132425274D01*
X141749286Y-132536121D01*
X141595911Y-132847040D01*
X141506140Y-133181905D01*
X141483424Y-133527850D01*
X139931004Y-133527850D01*
X139938576Y-133412550D01*
X139893366Y-133068820D01*
X139781966Y-132740515D01*
X139672714Y-132536121D01*
X139395531Y-132425274D01*
X138350605Y-133470200D01*
X137991395Y-133470200D01*
X136946469Y-132425274D01*
X136669286Y-132536121D01*
X136515911Y-132847040D01*
X136426140Y-133181905D01*
X136403424Y-133527850D01*
X132948949Y-133527850D01*
X132919880Y-133457673D01*
X132762837Y-133222641D01*
X132562959Y-133022763D01*
X132330441Y-132867400D01*
X132562959Y-132712037D01*
X132762837Y-132512159D01*
X132919880Y-132277127D01*
X132932910Y-132245669D01*
X137126074Y-132245669D01*
X138171000Y-133290595D01*
X139215926Y-132245669D01*
X142206074Y-132245669D01*
X143251000Y-133290595D01*
X144295926Y-132245669D01*
X144185079Y-131968486D01*
X143874160Y-131815111D01*
X143539295Y-131725340D01*
X143193350Y-131702624D01*
X142849620Y-131747834D01*
X142521315Y-131859234D01*
X142316921Y-131968486D01*
X142206074Y-132245669D01*
X139215926Y-132245669D01*
X139105079Y-131968486D01*
X138794160Y-131815111D01*
X138459295Y-131725340D01*
X138113350Y-131702624D01*
X137769620Y-131747834D01*
X137441315Y-131859234D01*
X137236921Y-131968486D01*
X137126074Y-132245669D01*
X132932910Y-132245669D01*
X133028053Y-132015974D01*
X133083200Y-131738735D01*
X133083200Y-131456065D01*
X133028053Y-131178826D01*
X132919880Y-130917673D01*
X132762837Y-130682641D01*
X132562959Y-130482763D01*
X132330441Y-130327400D01*
X132562959Y-130172037D01*
X132762837Y-129972159D01*
X132919880Y-129737127D01*
X133028053Y-129475974D01*
X133083200Y-129198735D01*
X133083200Y-128916065D01*
X133028053Y-128638826D01*
X132919880Y-128377673D01*
X132762837Y-128142641D01*
X132562959Y-127942763D01*
X132330441Y-127787400D01*
X132562959Y-127632037D01*
X132762837Y-127432159D01*
X132919880Y-127197127D01*
X133028053Y-126935974D01*
X133083200Y-126658735D01*
X133083200Y-126376065D01*
X133028053Y-126098826D01*
X132919880Y-125837673D01*
X132762837Y-125602641D01*
X132562959Y-125402763D01*
X132330441Y-125247400D01*
X132562959Y-125092037D01*
X132762837Y-124892159D01*
X132919880Y-124657127D01*
X133028053Y-124395974D01*
X133083200Y-124118735D01*
X133083200Y-123836065D01*
X133028053Y-123558826D01*
X132919880Y-123297673D01*
X132762837Y-123062641D01*
X132562959Y-122862763D01*
X132330441Y-122707400D01*
X132425326Y-122644000D01*
X146872528Y-122644000D01*
X146872528Y-124244000D01*
X146884788Y-124368482D01*
X146921098Y-124488180D01*
X146980063Y-124598494D01*
X147059415Y-124695185D01*
X147156106Y-124774537D01*
X147266420Y-124833502D01*
X147386118Y-124869812D01*
X147510600Y-124882072D01*
X149110600Y-124882072D01*
X149235082Y-124869812D01*
X149354780Y-124833502D01*
X149465094Y-124774537D01*
X149561785Y-124695185D01*
X149641137Y-124598494D01*
X149700102Y-124488180D01*
X149736412Y-124368482D01*
X149748672Y-124244000D01*
X149748672Y-122644000D01*
X149736412Y-122519518D01*
X149700102Y-122399820D01*
X149641137Y-122289506D01*
X149561785Y-122192815D01*
X149465094Y-122113463D01*
X149354780Y-122054498D01*
X149235082Y-122018188D01*
X149110600Y-122005928D01*
X149103385Y-122005928D01*
X149123697Y-121936702D01*
X148310600Y-121123605D01*
X147497503Y-121936702D01*
X147517815Y-122005928D01*
X147510600Y-122005928D01*
X147386118Y-122018188D01*
X147266420Y-122054498D01*
X147156106Y-122113463D01*
X147059415Y-122192815D01*
X146980063Y-122289506D01*
X146921098Y-122399820D01*
X146884788Y-122519518D01*
X146872528Y-122644000D01*
X132425326Y-122644000D01*
X132562959Y-122552037D01*
X132762837Y-122352159D01*
X132919880Y-122117127D01*
X133028053Y-121855974D01*
X133083200Y-121578735D01*
X133083200Y-121296065D01*
X133028053Y-121018826D01*
X133026267Y-121014512D01*
X146870383Y-121014512D01*
X146911813Y-121294130D01*
X147006997Y-121560292D01*
X147073929Y-121685514D01*
X147317898Y-121757097D01*
X148130995Y-120944000D01*
X148490205Y-120944000D01*
X149303302Y-121757097D01*
X149547271Y-121685514D01*
X149668171Y-121430004D01*
X149736900Y-121155816D01*
X149750817Y-120873488D01*
X149709387Y-120593870D01*
X149614203Y-120327708D01*
X149547271Y-120202486D01*
X149303302Y-120130903D01*
X148490205Y-120944000D01*
X148130995Y-120944000D01*
X147317898Y-120130903D01*
X147073929Y-120202486D01*
X146953029Y-120457996D01*
X146884300Y-120732184D01*
X146870383Y-121014512D01*
X133026267Y-121014512D01*
X132919880Y-120757673D01*
X132762837Y-120522641D01*
X132562959Y-120322763D01*
X132330441Y-120167400D01*
X132562959Y-120012037D01*
X132623698Y-119951298D01*
X147497503Y-119951298D01*
X148310600Y-120764395D01*
X149123697Y-119951298D01*
X149052114Y-119707329D01*
X148796604Y-119586429D01*
X148522416Y-119517700D01*
X148240088Y-119503783D01*
X147960470Y-119545213D01*
X147694308Y-119640397D01*
X147569086Y-119707329D01*
X147497503Y-119951298D01*
X132623698Y-119951298D01*
X132762837Y-119812159D01*
X132919880Y-119577127D01*
X133028053Y-119315974D01*
X133083200Y-119038735D01*
X133083200Y-118756065D01*
X133028053Y-118478826D01*
X132919880Y-118217673D01*
X132762837Y-117982641D01*
X132562959Y-117782763D01*
X132330441Y-117627400D01*
X132562959Y-117472037D01*
X132762837Y-117272159D01*
X132919880Y-117037127D01*
X133028053Y-116775974D01*
X133083200Y-116498735D01*
X133083200Y-116216065D01*
X133028053Y-115938826D01*
X132919880Y-115677673D01*
X132762837Y-115442641D01*
X132562959Y-115242763D01*
X132408200Y-115139357D01*
X132408200Y-111542720D01*
X132411876Y-111505397D01*
X132408200Y-111468074D01*
X132408200Y-111468065D01*
X132397203Y-111356412D01*
X132353746Y-111213151D01*
X132340110Y-111187640D01*
X132283174Y-111081121D01*
X132211999Y-110994395D01*
X132188201Y-110965397D01*
X132159204Y-110941600D01*
X125583206Y-104365603D01*
X125559403Y-104336599D01*
X125443678Y-104241626D01*
X125311649Y-104171054D01*
X125168388Y-104127597D01*
X125056735Y-104116600D01*
X125056724Y-104116600D01*
X125019402Y-104112924D01*
X124982080Y-104116600D01*
X121869602Y-104116600D01*
X119678400Y-101925399D01*
X119678400Y-101863261D01*
X119638626Y-101663302D01*
X119560605Y-101474944D01*
X119475865Y-101348121D01*
X119505754Y-101275962D01*
X119545528Y-101076003D01*
X119545528Y-101009063D01*
X128542823Y-101009063D01*
X141654728Y-114120969D01*
X141654728Y-114922200D01*
X141666988Y-115046682D01*
X141703298Y-115166380D01*
X141762263Y-115276694D01*
X141841615Y-115373385D01*
X141938306Y-115452737D01*
X142048620Y-115511702D01*
X142168318Y-115548012D01*
X142292800Y-115560272D01*
X143892800Y-115560272D01*
X144017282Y-115548012D01*
X144136980Y-115511702D01*
X144247294Y-115452737D01*
X144343985Y-115373385D01*
X144423337Y-115276694D01*
X144482302Y-115166380D01*
X144497917Y-115114902D01*
X144779703Y-115114902D01*
X144851286Y-115358871D01*
X145106796Y-115479771D01*
X145380984Y-115548500D01*
X145663312Y-115562417D01*
X145942930Y-115520987D01*
X146209092Y-115425803D01*
X146334314Y-115358871D01*
X146405897Y-115114902D01*
X145592800Y-114301805D01*
X144779703Y-115114902D01*
X144497917Y-115114902D01*
X144518612Y-115046682D01*
X144530872Y-114922200D01*
X144530872Y-114914985D01*
X144600098Y-114935297D01*
X145413195Y-114122200D01*
X145772405Y-114122200D01*
X146585502Y-114935297D01*
X146829471Y-114863714D01*
X146950371Y-114608204D01*
X147019100Y-114334016D01*
X147033017Y-114051688D01*
X146991587Y-113772070D01*
X146896403Y-113505908D01*
X146829471Y-113380686D01*
X146585502Y-113309103D01*
X145772405Y-114122200D01*
X145413195Y-114122200D01*
X144600098Y-113309103D01*
X144530872Y-113329415D01*
X144530872Y-113322200D01*
X144518612Y-113197718D01*
X144497918Y-113129498D01*
X144779703Y-113129498D01*
X145592800Y-113942595D01*
X146405897Y-113129498D01*
X146334314Y-112885529D01*
X146078804Y-112764629D01*
X145804616Y-112695900D01*
X145522288Y-112681983D01*
X145242670Y-112723413D01*
X144976508Y-112818597D01*
X144851286Y-112885529D01*
X144779703Y-113129498D01*
X144497918Y-113129498D01*
X144482302Y-113078020D01*
X144423337Y-112967706D01*
X144343985Y-112871015D01*
X144247294Y-112791663D01*
X144136980Y-112732698D01*
X144017282Y-112696388D01*
X143892800Y-112684128D01*
X143091569Y-112684128D01*
X129717375Y-99309935D01*
X129685559Y-99271167D01*
X129530853Y-99144203D01*
X129354350Y-99049861D01*
X129162834Y-98991765D01*
X129013565Y-98977063D01*
X128963663Y-98972148D01*
X128913761Y-98977063D01*
X102916356Y-98977063D01*
X102866454Y-98972148D01*
X102667284Y-98991765D01*
X102475768Y-99049861D01*
X102299265Y-99144203D01*
X102144559Y-99271167D01*
X102112747Y-99309930D01*
X95244609Y-106178068D01*
X95184566Y-106001115D01*
X95075314Y-105796721D01*
X94798131Y-105685874D01*
X93753205Y-106730800D01*
X93767348Y-106744943D01*
X93587743Y-106924548D01*
X93573600Y-106910405D01*
X92528674Y-107955331D01*
X92639521Y-108232514D01*
X92950440Y-108385889D01*
X93018534Y-108404144D01*
X86102077Y-115320601D01*
X62388642Y-115320601D01*
X62414416Y-115268216D01*
X62502569Y-114938015D01*
X62524609Y-114596961D01*
X62479689Y-114258161D01*
X62369536Y-113934634D01*
X62263538Y-113736326D01*
X61988912Y-113628493D01*
X60961805Y-114655600D01*
X60975948Y-114669743D01*
X60796343Y-114849348D01*
X60782200Y-114835205D01*
X60768058Y-114849348D01*
X60588453Y-114669743D01*
X60602595Y-114655600D01*
X59777669Y-113830674D01*
X59589863Y-113549602D01*
X59489149Y-113448888D01*
X59755093Y-113448888D01*
X60782200Y-114475995D01*
X61809307Y-113448888D01*
X61701474Y-113174262D01*
X61394816Y-113023384D01*
X61064615Y-112935231D01*
X60723561Y-112913191D01*
X60384761Y-112958111D01*
X60061234Y-113068264D01*
X59862926Y-113174262D01*
X59755093Y-113448888D01*
X59489149Y-113448888D01*
X59348198Y-113307937D01*
X59064031Y-113118063D01*
X58748281Y-112987275D01*
X58413083Y-112920600D01*
X58071317Y-112920600D01*
X57965157Y-112941717D01*
X57314911Y-112291471D01*
X57283095Y-112252703D01*
X57128389Y-112125739D01*
X56951886Y-112031397D01*
X56760370Y-111973301D01*
X56611101Y-111958599D01*
X56561199Y-111953684D01*
X56511297Y-111958599D01*
X51647301Y-111958599D01*
X51597399Y-111953684D01*
X51547497Y-111958599D01*
X51398228Y-111973301D01*
X51206712Y-112031397D01*
X51030209Y-112125739D01*
X50875503Y-112252703D01*
X50843686Y-112291472D01*
X50798072Y-112337086D01*
X50759303Y-112368903D01*
X50632339Y-112523609D01*
X50537997Y-112700113D01*
X50502055Y-112818597D01*
X50479901Y-112891629D01*
X50460284Y-113090799D01*
X49377200Y-113090799D01*
X49377200Y-111220580D01*
X53809330Y-106788450D01*
X91806024Y-106788450D01*
X91851234Y-107132180D01*
X91962634Y-107460485D01*
X92071886Y-107664879D01*
X92349069Y-107775726D01*
X93393995Y-106730800D01*
X92349069Y-105685874D01*
X92071886Y-105796721D01*
X91918511Y-106107640D01*
X91828740Y-106442505D01*
X91806024Y-106788450D01*
X53809330Y-106788450D01*
X55091511Y-105506269D01*
X92528674Y-105506269D01*
X93573600Y-106551195D01*
X94618526Y-105506269D01*
X94507679Y-105229086D01*
X94196760Y-105075711D01*
X93861895Y-104985940D01*
X93515950Y-104963224D01*
X93172220Y-105008434D01*
X92843915Y-105119834D01*
X92639521Y-105229086D01*
X92528674Y-105506269D01*
X55091511Y-105506269D01*
X63214581Y-97383200D01*
X151892400Y-97383200D01*
X151892401Y-147084372D01*
G36*
X130888200Y-111820200D02*
G01*
X130888201Y-115139356D01*
X130733441Y-115242763D01*
X130533563Y-115442641D01*
X130378200Y-115675159D01*
X130222837Y-115442641D01*
X130022959Y-115242763D01*
X129787927Y-115085720D01*
X129526774Y-114977547D01*
X129249535Y-114922400D01*
X128966865Y-114922400D01*
X128689626Y-114977547D01*
X128428473Y-115085720D01*
X128193441Y-115242763D01*
X127993563Y-115442641D01*
X127838200Y-115675159D01*
X127682837Y-115442641D01*
X127482959Y-115242763D01*
X127247927Y-115085720D01*
X126986774Y-114977547D01*
X126709535Y-114922400D01*
X126426865Y-114922400D01*
X126149626Y-114977547D01*
X125888473Y-115085720D01*
X125653441Y-115242763D01*
X125453563Y-115442641D01*
X125298200Y-115675159D01*
X125142837Y-115442641D01*
X124942959Y-115242763D01*
X124707927Y-115085720D01*
X124446774Y-114977547D01*
X124169535Y-114922400D01*
X123886865Y-114922400D01*
X123609626Y-114977547D01*
X123348473Y-115085720D01*
X123113441Y-115242763D01*
X122913563Y-115442641D01*
X122758200Y-115675159D01*
X122602837Y-115442641D01*
X122402959Y-115242763D01*
X122167927Y-115085720D01*
X121906774Y-114977547D01*
X121629535Y-114922400D01*
X121346865Y-114922400D01*
X121069626Y-114977547D01*
X120808473Y-115085720D01*
X120573441Y-115242763D01*
X120373563Y-115442641D01*
X120218200Y-115675159D01*
X120062837Y-115442641D01*
X119862959Y-115242763D01*
X119627927Y-115085720D01*
X119366774Y-114977547D01*
X119089535Y-114922400D01*
X119037035Y-114922400D01*
X122440533Y-111518902D01*
X125170903Y-111518902D01*
X125242486Y-111762871D01*
X125497996Y-111883771D01*
X125772184Y-111952500D01*
X126054512Y-111966417D01*
X126334130Y-111924987D01*
X126600292Y-111829803D01*
X126725514Y-111762871D01*
X126797097Y-111518902D01*
X125984000Y-110705805D01*
X125170903Y-111518902D01*
X122440533Y-111518902D01*
X123362723Y-110596712D01*
X124543783Y-110596712D01*
X124585213Y-110876330D01*
X124680397Y-111142492D01*
X124747329Y-111267714D01*
X124991298Y-111339297D01*
X125804395Y-110526200D01*
X126163605Y-110526200D01*
X126976702Y-111339297D01*
X127220671Y-111267714D01*
X127341571Y-111012204D01*
X127410300Y-110738016D01*
X127424217Y-110455688D01*
X127382787Y-110176070D01*
X127287603Y-109909908D01*
X127220671Y-109784686D01*
X126976702Y-109713103D01*
X126163605Y-110526200D01*
X125804395Y-110526200D01*
X124991298Y-109713103D01*
X124747329Y-109784686D01*
X124626429Y-110040196D01*
X124557700Y-110314384D01*
X124543783Y-110596712D01*
X123362723Y-110596712D01*
X124709933Y-109249503D01*
X124732815Y-109277385D01*
X124829506Y-109356737D01*
X124939820Y-109415702D01*
X125059518Y-109452012D01*
X125184000Y-109464272D01*
X125191215Y-109464272D01*
X125170903Y-109533498D01*
X125984000Y-110346595D01*
X126797097Y-109533498D01*
X126776785Y-109464272D01*
X126784000Y-109464272D01*
X126908482Y-109452012D01*
X127028180Y-109415702D01*
X127138494Y-109356737D01*
X127235185Y-109277385D01*
X127314537Y-109180694D01*
X127373502Y-109070380D01*
X127409812Y-108950682D01*
X127422072Y-108826200D01*
X127422072Y-108354071D01*
X130888200Y-111820200D01*
G37*
X130888200Y-111820200D02*
X130888201Y-115139356D01*
X130733441Y-115242763D01*
X130533563Y-115442641D01*
X130378200Y-115675159D01*
X130222837Y-115442641D01*
X130022959Y-115242763D01*
X129787927Y-115085720D01*
X129526774Y-114977547D01*
X129249535Y-114922400D01*
X128966865Y-114922400D01*
X128689626Y-114977547D01*
X128428473Y-115085720D01*
X128193441Y-115242763D01*
X127993563Y-115442641D01*
X127838200Y-115675159D01*
X127682837Y-115442641D01*
X127482959Y-115242763D01*
X127247927Y-115085720D01*
X126986774Y-114977547D01*
X126709535Y-114922400D01*
X126426865Y-114922400D01*
X126149626Y-114977547D01*
X125888473Y-115085720D01*
X125653441Y-115242763D01*
X125453563Y-115442641D01*
X125298200Y-115675159D01*
X125142837Y-115442641D01*
X124942959Y-115242763D01*
X124707927Y-115085720D01*
X124446774Y-114977547D01*
X124169535Y-114922400D01*
X123886865Y-114922400D01*
X123609626Y-114977547D01*
X123348473Y-115085720D01*
X123113441Y-115242763D01*
X122913563Y-115442641D01*
X122758200Y-115675159D01*
X122602837Y-115442641D01*
X122402959Y-115242763D01*
X122167927Y-115085720D01*
X121906774Y-114977547D01*
X121629535Y-114922400D01*
X121346865Y-114922400D01*
X121069626Y-114977547D01*
X120808473Y-115085720D01*
X120573441Y-115242763D01*
X120373563Y-115442641D01*
X120218200Y-115675159D01*
X120062837Y-115442641D01*
X119862959Y-115242763D01*
X119627927Y-115085720D01*
X119366774Y-114977547D01*
X119089535Y-114922400D01*
X119037035Y-114922400D01*
X122440533Y-111518902D01*
X125170903Y-111518902D01*
X125242486Y-111762871D01*
X125497996Y-111883771D01*
X125772184Y-111952500D01*
X126054512Y-111966417D01*
X126334130Y-111924987D01*
X126600292Y-111829803D01*
X126725514Y-111762871D01*
X126797097Y-111518902D01*
X125984000Y-110705805D01*
X125170903Y-111518902D01*
X122440533Y-111518902D01*
X123362723Y-110596712D01*
X124543783Y-110596712D01*
X124585213Y-110876330D01*
X124680397Y-111142492D01*
X124747329Y-111267714D01*
X124991298Y-111339297D01*
X125804395Y-110526200D01*
X126163605Y-110526200D01*
X126976702Y-111339297D01*
X127220671Y-111267714D01*
X127341571Y-111012204D01*
X127410300Y-110738016D01*
X127424217Y-110455688D01*
X127382787Y-110176070D01*
X127287603Y-109909908D01*
X127220671Y-109784686D01*
X126976702Y-109713103D01*
X126163605Y-110526200D01*
X125804395Y-110526200D01*
X124991298Y-109713103D01*
X124747329Y-109784686D01*
X124626429Y-110040196D01*
X124557700Y-110314384D01*
X124543783Y-110596712D01*
X123362723Y-110596712D01*
X124709933Y-109249503D01*
X124732815Y-109277385D01*
X124829506Y-109356737D01*
X124939820Y-109415702D01*
X125059518Y-109452012D01*
X125184000Y-109464272D01*
X125191215Y-109464272D01*
X125170903Y-109533498D01*
X125984000Y-110346595D01*
X126797097Y-109533498D01*
X126776785Y-109464272D01*
X126784000Y-109464272D01*
X126908482Y-109452012D01*
X127028180Y-109415702D01*
X127138494Y-109356737D01*
X127235185Y-109277385D01*
X127314537Y-109180694D01*
X127373502Y-109070380D01*
X127409812Y-108950682D01*
X127422072Y-108826200D01*
X127422072Y-108354071D01*
X130888200Y-111820200D01*
%TD*%
M02*
