%TF.GenerationSoftware,KiCad,Pcbnew,5.1.6-c6e7f7d~86~ubuntu18.04.1*%
%TF.CreationDate,2020-11-01T20:36:20-05:00*%
%TF.ProjectId,Senior-Design-Radar-Group,53656e69-6f72-42d4-9465-7369676e2d52,rev?*%
%TF.SameCoordinates,Original*%
%TF.FileFunction,Soldermask,Bot*%
%TF.FilePolarity,Negative*%
%FSLAX46Y46*%
G04 Gerber Fmt 4.6, Leading zero omitted, Abs format (unit mm)*
G04 Created by KiCad (PCBNEW 5.1.6-c6e7f7d~86~ubuntu18.04.1) date 2020-11-01 20:36:20*
%MOMM*%
%LPD*%
G01*
G04 APERTURE LIST*
%ADD10C,2.350000*%
%ADD11C,2.150000*%
%ADD12C,1.700000*%
%ADD13C,1.540000*%
%ADD14C,2.300000*%
%ADD15R,2.300000X2.300000*%
%ADD16R,5.180000X1.600000*%
%ADD17R,1.700000X1.700000*%
G04 APERTURE END LIST*
D10*
%TO.C,J3*%
X138074400Y-149225000D03*
X138074400Y-144145000D03*
X143154400Y-144145000D03*
X143154400Y-149225000D03*
D11*
X140614400Y-146685000D03*
%TD*%
D10*
%TO.C,J8*%
X138171000Y-133470200D03*
X143251000Y-133470200D03*
X143251000Y-138550200D03*
X138171000Y-138550200D03*
D11*
X140711000Y-136010200D03*
%TD*%
D12*
%TO.C,U1*%
X129108200Y-123977400D03*
X129108200Y-121437400D03*
X126568200Y-123977400D03*
X126568200Y-121437400D03*
X124028200Y-123977400D03*
X124028200Y-121437400D03*
X121488200Y-123977400D03*
X121488200Y-121437400D03*
X118948200Y-123977400D03*
X118948200Y-121437400D03*
X131648200Y-149377400D03*
X131648200Y-146837400D03*
X131648200Y-144297400D03*
X131648200Y-141757400D03*
X131648200Y-139217400D03*
X131648200Y-136677400D03*
X131648200Y-134137400D03*
X131648200Y-131597400D03*
X131648200Y-129057400D03*
X131648200Y-126517400D03*
X131648200Y-123977400D03*
X131648200Y-121437400D03*
X131648200Y-118897400D03*
X118948200Y-146837400D03*
X116408200Y-149377400D03*
X116408200Y-146837400D03*
X116408200Y-144297400D03*
X116408200Y-141757400D03*
X116408200Y-139217400D03*
X116408200Y-136677400D03*
X116408200Y-134137400D03*
X116408200Y-131597400D03*
X116408200Y-129057400D03*
X116408200Y-126517400D03*
X116408200Y-123977400D03*
X116408200Y-121437400D03*
X116408200Y-118897400D03*
X131648200Y-116357400D03*
X129108200Y-116357400D03*
X126568200Y-116357400D03*
X116408200Y-116357400D03*
X118948200Y-116357400D03*
X121488200Y-116357400D03*
X124028200Y-116357400D03*
%TD*%
D10*
%TO.C,J6*%
X96418400Y-133629400D03*
X96418400Y-128549400D03*
X101498400Y-128549400D03*
X101498400Y-133629400D03*
D11*
X98958400Y-131089400D03*
%TD*%
D10*
%TO.C,J4*%
X93573600Y-111810800D03*
X93573600Y-106730800D03*
X98653600Y-106730800D03*
X98653600Y-111810800D03*
D11*
X96113600Y-109270800D03*
%TD*%
D13*
%TO.C,RV2*%
X71069200Y-133578600D03*
X68529200Y-133578600D03*
X65989200Y-133578600D03*
%TD*%
%TO.C,RV1*%
X71120000Y-120421400D03*
X68580000Y-120421400D03*
X66040000Y-120421400D03*
%TD*%
D14*
%TO.C,J7*%
X60782200Y-114655600D03*
X58242200Y-114655600D03*
X55702200Y-114655600D03*
D15*
X53162200Y-114655600D03*
%TD*%
D16*
%TO.C,J2*%
X51358800Y-131385200D03*
X51358800Y-122885200D03*
%TD*%
D12*
%TO.C,C3*%
X148310600Y-120944000D03*
D17*
X148310600Y-123444000D03*
%TD*%
D12*
%TO.C,C2*%
X125984000Y-110526200D03*
D17*
X125984000Y-108026200D03*
%TD*%
D12*
%TO.C,C1*%
X145592800Y-114122200D03*
D17*
X143092800Y-114122200D03*
%TD*%
M02*
