%TF.GenerationSoftware,KiCad,Pcbnew,5.1.6-c6e7f7d~86~ubuntu18.04.1*%
%TF.CreationDate,2020-11-01T20:36:20-05:00*%
%TF.ProjectId,Senior-Design-Radar-Group,53656e69-6f72-42d4-9465-7369676e2d52,rev?*%
%TF.SameCoordinates,Original*%
%TF.FileFunction,Paste,Top*%
%TF.FilePolarity,Positive*%
%FSLAX46Y46*%
G04 Gerber Fmt 4.6, Leading zero omitted, Abs format (unit mm)*
G04 Created by KiCad (PCBNEW 5.1.6-c6e7f7d~86~ubuntu18.04.1) date 2020-11-01 20:36:20*
%MOMM*%
%LPD*%
G01*
G04 APERTURE LIST*
%ADD10R,0.600000X1.050000*%
%ADD11R,0.650000X0.300000*%
%ADD12R,1.500000X2.000000*%
%ADD13R,3.800000X2.000000*%
%ADD14R,5.080000X1.500000*%
%ADD15R,0.600000X0.450000*%
%ADD16R,0.450000X0.600000*%
%ADD17R,0.900000X0.800000*%
G04 APERTURE END LIST*
%TO.C,U7*%
G36*
G01*
X92533600Y-118133000D02*
X92533600Y-117833000D01*
G75*
G02*
X92683600Y-117683000I150000J0D01*
G01*
X94333600Y-117683000D01*
G75*
G02*
X94483600Y-117833000I0J-150000D01*
G01*
X94483600Y-118133000D01*
G75*
G02*
X94333600Y-118283000I-150000J0D01*
G01*
X92683600Y-118283000D01*
G75*
G02*
X92533600Y-118133000I0J150000D01*
G01*
G37*
G36*
G01*
X92533600Y-119403000D02*
X92533600Y-119103000D01*
G75*
G02*
X92683600Y-118953000I150000J0D01*
G01*
X94333600Y-118953000D01*
G75*
G02*
X94483600Y-119103000I0J-150000D01*
G01*
X94483600Y-119403000D01*
G75*
G02*
X94333600Y-119553000I-150000J0D01*
G01*
X92683600Y-119553000D01*
G75*
G02*
X92533600Y-119403000I0J150000D01*
G01*
G37*
G36*
G01*
X92533600Y-120673000D02*
X92533600Y-120373000D01*
G75*
G02*
X92683600Y-120223000I150000J0D01*
G01*
X94333600Y-120223000D01*
G75*
G02*
X94483600Y-120373000I0J-150000D01*
G01*
X94483600Y-120673000D01*
G75*
G02*
X94333600Y-120823000I-150000J0D01*
G01*
X92683600Y-120823000D01*
G75*
G02*
X92533600Y-120673000I0J150000D01*
G01*
G37*
G36*
G01*
X92533600Y-121943000D02*
X92533600Y-121643000D01*
G75*
G02*
X92683600Y-121493000I150000J0D01*
G01*
X94333600Y-121493000D01*
G75*
G02*
X94483600Y-121643000I0J-150000D01*
G01*
X94483600Y-121943000D01*
G75*
G02*
X94333600Y-122093000I-150000J0D01*
G01*
X92683600Y-122093000D01*
G75*
G02*
X92533600Y-121943000I0J150000D01*
G01*
G37*
G36*
G01*
X87583600Y-121943000D02*
X87583600Y-121643000D01*
G75*
G02*
X87733600Y-121493000I150000J0D01*
G01*
X89383600Y-121493000D01*
G75*
G02*
X89533600Y-121643000I0J-150000D01*
G01*
X89533600Y-121943000D01*
G75*
G02*
X89383600Y-122093000I-150000J0D01*
G01*
X87733600Y-122093000D01*
G75*
G02*
X87583600Y-121943000I0J150000D01*
G01*
G37*
G36*
G01*
X87583600Y-120673000D02*
X87583600Y-120373000D01*
G75*
G02*
X87733600Y-120223000I150000J0D01*
G01*
X89383600Y-120223000D01*
G75*
G02*
X89533600Y-120373000I0J-150000D01*
G01*
X89533600Y-120673000D01*
G75*
G02*
X89383600Y-120823000I-150000J0D01*
G01*
X87733600Y-120823000D01*
G75*
G02*
X87583600Y-120673000I0J150000D01*
G01*
G37*
G36*
G01*
X87583600Y-119403000D02*
X87583600Y-119103000D01*
G75*
G02*
X87733600Y-118953000I150000J0D01*
G01*
X89383600Y-118953000D01*
G75*
G02*
X89533600Y-119103000I0J-150000D01*
G01*
X89533600Y-119403000D01*
G75*
G02*
X89383600Y-119553000I-150000J0D01*
G01*
X87733600Y-119553000D01*
G75*
G02*
X87583600Y-119403000I0J150000D01*
G01*
G37*
G36*
G01*
X87583600Y-118133000D02*
X87583600Y-117833000D01*
G75*
G02*
X87733600Y-117683000I150000J0D01*
G01*
X89383600Y-117683000D01*
G75*
G02*
X89533600Y-117833000I0J-150000D01*
G01*
X89533600Y-118133000D01*
G75*
G02*
X89383600Y-118283000I-150000J0D01*
G01*
X87733600Y-118283000D01*
G75*
G02*
X87583600Y-118133000I0J150000D01*
G01*
G37*
%TD*%
%TO.C,U6*%
G36*
G01*
X64416800Y-128474600D02*
X64716800Y-128474600D01*
G75*
G02*
X64866800Y-128624600I0J-150000D01*
G01*
X64866800Y-130274600D01*
G75*
G02*
X64716800Y-130424600I-150000J0D01*
G01*
X64416800Y-130424600D01*
G75*
G02*
X64266800Y-130274600I0J150000D01*
G01*
X64266800Y-128624600D01*
G75*
G02*
X64416800Y-128474600I150000J0D01*
G01*
G37*
G36*
G01*
X63146800Y-128474600D02*
X63446800Y-128474600D01*
G75*
G02*
X63596800Y-128624600I0J-150000D01*
G01*
X63596800Y-130274600D01*
G75*
G02*
X63446800Y-130424600I-150000J0D01*
G01*
X63146800Y-130424600D01*
G75*
G02*
X62996800Y-130274600I0J150000D01*
G01*
X62996800Y-128624600D01*
G75*
G02*
X63146800Y-128474600I150000J0D01*
G01*
G37*
G36*
G01*
X61876800Y-128474600D02*
X62176800Y-128474600D01*
G75*
G02*
X62326800Y-128624600I0J-150000D01*
G01*
X62326800Y-130274600D01*
G75*
G02*
X62176800Y-130424600I-150000J0D01*
G01*
X61876800Y-130424600D01*
G75*
G02*
X61726800Y-130274600I0J150000D01*
G01*
X61726800Y-128624600D01*
G75*
G02*
X61876800Y-128474600I150000J0D01*
G01*
G37*
G36*
G01*
X60606800Y-128474600D02*
X60906800Y-128474600D01*
G75*
G02*
X61056800Y-128624600I0J-150000D01*
G01*
X61056800Y-130274600D01*
G75*
G02*
X60906800Y-130424600I-150000J0D01*
G01*
X60606800Y-130424600D01*
G75*
G02*
X60456800Y-130274600I0J150000D01*
G01*
X60456800Y-128624600D01*
G75*
G02*
X60606800Y-128474600I150000J0D01*
G01*
G37*
G36*
G01*
X60606800Y-123524600D02*
X60906800Y-123524600D01*
G75*
G02*
X61056800Y-123674600I0J-150000D01*
G01*
X61056800Y-125324600D01*
G75*
G02*
X60906800Y-125474600I-150000J0D01*
G01*
X60606800Y-125474600D01*
G75*
G02*
X60456800Y-125324600I0J150000D01*
G01*
X60456800Y-123674600D01*
G75*
G02*
X60606800Y-123524600I150000J0D01*
G01*
G37*
G36*
G01*
X61876800Y-123524600D02*
X62176800Y-123524600D01*
G75*
G02*
X62326800Y-123674600I0J-150000D01*
G01*
X62326800Y-125324600D01*
G75*
G02*
X62176800Y-125474600I-150000J0D01*
G01*
X61876800Y-125474600D01*
G75*
G02*
X61726800Y-125324600I0J150000D01*
G01*
X61726800Y-123674600D01*
G75*
G02*
X61876800Y-123524600I150000J0D01*
G01*
G37*
G36*
G01*
X63146800Y-123524600D02*
X63446800Y-123524600D01*
G75*
G02*
X63596800Y-123674600I0J-150000D01*
G01*
X63596800Y-125324600D01*
G75*
G02*
X63446800Y-125474600I-150000J0D01*
G01*
X63146800Y-125474600D01*
G75*
G02*
X62996800Y-125324600I0J150000D01*
G01*
X62996800Y-123674600D01*
G75*
G02*
X63146800Y-123524600I150000J0D01*
G01*
G37*
G36*
G01*
X64416800Y-123524600D02*
X64716800Y-123524600D01*
G75*
G02*
X64866800Y-123674600I0J-150000D01*
G01*
X64866800Y-125324600D01*
G75*
G02*
X64716800Y-125474600I-150000J0D01*
G01*
X64416800Y-125474600D01*
G75*
G02*
X64266800Y-125324600I0J150000D01*
G01*
X64266800Y-123674600D01*
G75*
G02*
X64416800Y-123524600I150000J0D01*
G01*
G37*
%TD*%
%TO.C,U5*%
G36*
G01*
X86844000Y-130299600D02*
X86844000Y-129999600D01*
G75*
G02*
X86994000Y-129849600I150000J0D01*
G01*
X88644000Y-129849600D01*
G75*
G02*
X88794000Y-129999600I0J-150000D01*
G01*
X88794000Y-130299600D01*
G75*
G02*
X88644000Y-130449600I-150000J0D01*
G01*
X86994000Y-130449600D01*
G75*
G02*
X86844000Y-130299600I0J150000D01*
G01*
G37*
G36*
G01*
X86844000Y-131569600D02*
X86844000Y-131269600D01*
G75*
G02*
X86994000Y-131119600I150000J0D01*
G01*
X88644000Y-131119600D01*
G75*
G02*
X88794000Y-131269600I0J-150000D01*
G01*
X88794000Y-131569600D01*
G75*
G02*
X88644000Y-131719600I-150000J0D01*
G01*
X86994000Y-131719600D01*
G75*
G02*
X86844000Y-131569600I0J150000D01*
G01*
G37*
G36*
G01*
X86844000Y-132839600D02*
X86844000Y-132539600D01*
G75*
G02*
X86994000Y-132389600I150000J0D01*
G01*
X88644000Y-132389600D01*
G75*
G02*
X88794000Y-132539600I0J-150000D01*
G01*
X88794000Y-132839600D01*
G75*
G02*
X88644000Y-132989600I-150000J0D01*
G01*
X86994000Y-132989600D01*
G75*
G02*
X86844000Y-132839600I0J150000D01*
G01*
G37*
G36*
G01*
X86844000Y-134109600D02*
X86844000Y-133809600D01*
G75*
G02*
X86994000Y-133659600I150000J0D01*
G01*
X88644000Y-133659600D01*
G75*
G02*
X88794000Y-133809600I0J-150000D01*
G01*
X88794000Y-134109600D01*
G75*
G02*
X88644000Y-134259600I-150000J0D01*
G01*
X86994000Y-134259600D01*
G75*
G02*
X86844000Y-134109600I0J150000D01*
G01*
G37*
G36*
G01*
X81894000Y-134109600D02*
X81894000Y-133809600D01*
G75*
G02*
X82044000Y-133659600I150000J0D01*
G01*
X83694000Y-133659600D01*
G75*
G02*
X83844000Y-133809600I0J-150000D01*
G01*
X83844000Y-134109600D01*
G75*
G02*
X83694000Y-134259600I-150000J0D01*
G01*
X82044000Y-134259600D01*
G75*
G02*
X81894000Y-134109600I0J150000D01*
G01*
G37*
G36*
G01*
X81894000Y-132839600D02*
X81894000Y-132539600D01*
G75*
G02*
X82044000Y-132389600I150000J0D01*
G01*
X83694000Y-132389600D01*
G75*
G02*
X83844000Y-132539600I0J-150000D01*
G01*
X83844000Y-132839600D01*
G75*
G02*
X83694000Y-132989600I-150000J0D01*
G01*
X82044000Y-132989600D01*
G75*
G02*
X81894000Y-132839600I0J150000D01*
G01*
G37*
G36*
G01*
X81894000Y-131569600D02*
X81894000Y-131269600D01*
G75*
G02*
X82044000Y-131119600I150000J0D01*
G01*
X83694000Y-131119600D01*
G75*
G02*
X83844000Y-131269600I0J-150000D01*
G01*
X83844000Y-131569600D01*
G75*
G02*
X83694000Y-131719600I-150000J0D01*
G01*
X82044000Y-131719600D01*
G75*
G02*
X81894000Y-131569600I0J150000D01*
G01*
G37*
G36*
G01*
X81894000Y-130299600D02*
X81894000Y-129999600D01*
G75*
G02*
X82044000Y-129849600I150000J0D01*
G01*
X83694000Y-129849600D01*
G75*
G02*
X83844000Y-129999600I0J-150000D01*
G01*
X83844000Y-130299600D01*
G75*
G02*
X83694000Y-130449600I-150000J0D01*
G01*
X82044000Y-130449600D01*
G75*
G02*
X81894000Y-130299600I0J150000D01*
G01*
G37*
%TD*%
D10*
%TO.C,U4*%
X122028100Y-103312200D03*
X121253100Y-103312200D03*
X121253100Y-102072200D03*
X122028100Y-102072200D03*
D11*
X123190600Y-101692200D03*
X123190600Y-102192200D03*
X123190600Y-102692200D03*
X123190600Y-103192200D03*
X123190600Y-103692200D03*
X120090600Y-103692200D03*
X120090600Y-103192200D03*
X120090600Y-102692200D03*
X120090600Y-102192200D03*
X120090600Y-101692200D03*
%TD*%
%TO.C,U3*%
G36*
G01*
X117726600Y-107593000D02*
X117426600Y-107593000D01*
G75*
G02*
X117276600Y-107443000I0J150000D01*
G01*
X117276600Y-105793000D01*
G75*
G02*
X117426600Y-105643000I150000J0D01*
G01*
X117726600Y-105643000D01*
G75*
G02*
X117876600Y-105793000I0J-150000D01*
G01*
X117876600Y-107443000D01*
G75*
G02*
X117726600Y-107593000I-150000J0D01*
G01*
G37*
G36*
G01*
X118996600Y-107593000D02*
X118696600Y-107593000D01*
G75*
G02*
X118546600Y-107443000I0J150000D01*
G01*
X118546600Y-105793000D01*
G75*
G02*
X118696600Y-105643000I150000J0D01*
G01*
X118996600Y-105643000D01*
G75*
G02*
X119146600Y-105793000I0J-150000D01*
G01*
X119146600Y-107443000D01*
G75*
G02*
X118996600Y-107593000I-150000J0D01*
G01*
G37*
G36*
G01*
X120266600Y-107593000D02*
X119966600Y-107593000D01*
G75*
G02*
X119816600Y-107443000I0J150000D01*
G01*
X119816600Y-105793000D01*
G75*
G02*
X119966600Y-105643000I150000J0D01*
G01*
X120266600Y-105643000D01*
G75*
G02*
X120416600Y-105793000I0J-150000D01*
G01*
X120416600Y-107443000D01*
G75*
G02*
X120266600Y-107593000I-150000J0D01*
G01*
G37*
G36*
G01*
X121536600Y-107593000D02*
X121236600Y-107593000D01*
G75*
G02*
X121086600Y-107443000I0J150000D01*
G01*
X121086600Y-105793000D01*
G75*
G02*
X121236600Y-105643000I150000J0D01*
G01*
X121536600Y-105643000D01*
G75*
G02*
X121686600Y-105793000I0J-150000D01*
G01*
X121686600Y-107443000D01*
G75*
G02*
X121536600Y-107593000I-150000J0D01*
G01*
G37*
G36*
G01*
X121536600Y-112543000D02*
X121236600Y-112543000D01*
G75*
G02*
X121086600Y-112393000I0J150000D01*
G01*
X121086600Y-110743000D01*
G75*
G02*
X121236600Y-110593000I150000J0D01*
G01*
X121536600Y-110593000D01*
G75*
G02*
X121686600Y-110743000I0J-150000D01*
G01*
X121686600Y-112393000D01*
G75*
G02*
X121536600Y-112543000I-150000J0D01*
G01*
G37*
G36*
G01*
X120266600Y-112543000D02*
X119966600Y-112543000D01*
G75*
G02*
X119816600Y-112393000I0J150000D01*
G01*
X119816600Y-110743000D01*
G75*
G02*
X119966600Y-110593000I150000J0D01*
G01*
X120266600Y-110593000D01*
G75*
G02*
X120416600Y-110743000I0J-150000D01*
G01*
X120416600Y-112393000D01*
G75*
G02*
X120266600Y-112543000I-150000J0D01*
G01*
G37*
G36*
G01*
X118996600Y-112543000D02*
X118696600Y-112543000D01*
G75*
G02*
X118546600Y-112393000I0J150000D01*
G01*
X118546600Y-110743000D01*
G75*
G02*
X118696600Y-110593000I150000J0D01*
G01*
X118996600Y-110593000D01*
G75*
G02*
X119146600Y-110743000I0J-150000D01*
G01*
X119146600Y-112393000D01*
G75*
G02*
X118996600Y-112543000I-150000J0D01*
G01*
G37*
G36*
G01*
X117726600Y-112543000D02*
X117426600Y-112543000D01*
G75*
G02*
X117276600Y-112393000I0J150000D01*
G01*
X117276600Y-110743000D01*
G75*
G02*
X117426600Y-110593000I150000J0D01*
G01*
X117726600Y-110593000D01*
G75*
G02*
X117876600Y-110743000I0J-150000D01*
G01*
X117876600Y-112393000D01*
G75*
G02*
X117726600Y-112543000I-150000J0D01*
G01*
G37*
%TD*%
D12*
%TO.C,U2*%
X142965200Y-119913000D03*
X138365200Y-119913000D03*
X140665200Y-119913000D03*
D13*
X140665200Y-126213000D03*
%TD*%
%TO.C,R22*%
G36*
G01*
X96519050Y-115272400D02*
X95606550Y-115272400D01*
G75*
G02*
X95362800Y-115028650I0J243750D01*
G01*
X95362800Y-114541150D01*
G75*
G02*
X95606550Y-114297400I243750J0D01*
G01*
X96519050Y-114297400D01*
G75*
G02*
X96762800Y-114541150I0J-243750D01*
G01*
X96762800Y-115028650D01*
G75*
G02*
X96519050Y-115272400I-243750J0D01*
G01*
G37*
G36*
G01*
X96519050Y-117147400D02*
X95606550Y-117147400D01*
G75*
G02*
X95362800Y-116903650I0J243750D01*
G01*
X95362800Y-116416150D01*
G75*
G02*
X95606550Y-116172400I243750J0D01*
G01*
X96519050Y-116172400D01*
G75*
G02*
X96762800Y-116416150I0J-243750D01*
G01*
X96762800Y-116903650D01*
G75*
G02*
X96519050Y-117147400I-243750J0D01*
G01*
G37*
%TD*%
%TO.C,R21*%
G36*
G01*
X95631950Y-119880800D02*
X96544450Y-119880800D01*
G75*
G02*
X96788200Y-120124550I0J-243750D01*
G01*
X96788200Y-120612050D01*
G75*
G02*
X96544450Y-120855800I-243750J0D01*
G01*
X95631950Y-120855800D01*
G75*
G02*
X95388200Y-120612050I0J243750D01*
G01*
X95388200Y-120124550D01*
G75*
G02*
X95631950Y-119880800I243750J0D01*
G01*
G37*
G36*
G01*
X95631950Y-118005800D02*
X96544450Y-118005800D01*
G75*
G02*
X96788200Y-118249550I0J-243750D01*
G01*
X96788200Y-118737050D01*
G75*
G02*
X96544450Y-118980800I-243750J0D01*
G01*
X95631950Y-118980800D01*
G75*
G02*
X95388200Y-118737050I0J243750D01*
G01*
X95388200Y-118249550D01*
G75*
G02*
X95631950Y-118005800I243750J0D01*
G01*
G37*
%TD*%
%TO.C,R20*%
G36*
G01*
X99385300Y-118947250D02*
X99385300Y-118034750D01*
G75*
G02*
X99629050Y-117791000I243750J0D01*
G01*
X100116550Y-117791000D01*
G75*
G02*
X100360300Y-118034750I0J-243750D01*
G01*
X100360300Y-118947250D01*
G75*
G02*
X100116550Y-119191000I-243750J0D01*
G01*
X99629050Y-119191000D01*
G75*
G02*
X99385300Y-118947250I0J243750D01*
G01*
G37*
G36*
G01*
X97510300Y-118947250D02*
X97510300Y-118034750D01*
G75*
G02*
X97754050Y-117791000I243750J0D01*
G01*
X98241550Y-117791000D01*
G75*
G02*
X98485300Y-118034750I0J-243750D01*
G01*
X98485300Y-118947250D01*
G75*
G02*
X98241550Y-119191000I-243750J0D01*
G01*
X97754050Y-119191000D01*
G75*
G02*
X97510300Y-118947250I0J243750D01*
G01*
G37*
%TD*%
%TO.C,R19*%
G36*
G01*
X96544450Y-122509100D02*
X95631950Y-122509100D01*
G75*
G02*
X95388200Y-122265350I0J243750D01*
G01*
X95388200Y-121777850D01*
G75*
G02*
X95631950Y-121534100I243750J0D01*
G01*
X96544450Y-121534100D01*
G75*
G02*
X96788200Y-121777850I0J-243750D01*
G01*
X96788200Y-122265350D01*
G75*
G02*
X96544450Y-122509100I-243750J0D01*
G01*
G37*
G36*
G01*
X96544450Y-124384100D02*
X95631950Y-124384100D01*
G75*
G02*
X95388200Y-124140350I0J243750D01*
G01*
X95388200Y-123652850D01*
G75*
G02*
X95631950Y-123409100I243750J0D01*
G01*
X96544450Y-123409100D01*
G75*
G02*
X96788200Y-123652850I0J-243750D01*
G01*
X96788200Y-124140350D01*
G75*
G02*
X96544450Y-124384100I-243750J0D01*
G01*
G37*
%TD*%
%TO.C,R18*%
G36*
G01*
X98508400Y-123571950D02*
X98508400Y-124484450D01*
G75*
G02*
X98264650Y-124728200I-243750J0D01*
G01*
X97777150Y-124728200D01*
G75*
G02*
X97533400Y-124484450I0J243750D01*
G01*
X97533400Y-123571950D01*
G75*
G02*
X97777150Y-123328200I243750J0D01*
G01*
X98264650Y-123328200D01*
G75*
G02*
X98508400Y-123571950I0J-243750D01*
G01*
G37*
G36*
G01*
X100383400Y-123571950D02*
X100383400Y-124484450D01*
G75*
G02*
X100139650Y-124728200I-243750J0D01*
G01*
X99652150Y-124728200D01*
G75*
G02*
X99408400Y-124484450I0J243750D01*
G01*
X99408400Y-123571950D01*
G75*
G02*
X99652150Y-123328200I243750J0D01*
G01*
X100139650Y-123328200D01*
G75*
G02*
X100383400Y-123571950I0J-243750D01*
G01*
G37*
%TD*%
%TO.C,R17*%
G36*
G01*
X93388600Y-124306650D02*
X93388600Y-123394150D01*
G75*
G02*
X93632350Y-123150400I243750J0D01*
G01*
X94119850Y-123150400D01*
G75*
G02*
X94363600Y-123394150I0J-243750D01*
G01*
X94363600Y-124306650D01*
G75*
G02*
X94119850Y-124550400I-243750J0D01*
G01*
X93632350Y-124550400D01*
G75*
G02*
X93388600Y-124306650I0J243750D01*
G01*
G37*
G36*
G01*
X91513600Y-124306650D02*
X91513600Y-123394150D01*
G75*
G02*
X91757350Y-123150400I243750J0D01*
G01*
X92244850Y-123150400D01*
G75*
G02*
X92488600Y-123394150I0J-243750D01*
G01*
X92488600Y-124306650D01*
G75*
G02*
X92244850Y-124550400I-243750J0D01*
G01*
X91757350Y-124550400D01*
G75*
G02*
X91513600Y-124306650I0J243750D01*
G01*
G37*
%TD*%
%TO.C,R16*%
G36*
G01*
X85876450Y-117380600D02*
X84963950Y-117380600D01*
G75*
G02*
X84720200Y-117136850I0J243750D01*
G01*
X84720200Y-116649350D01*
G75*
G02*
X84963950Y-116405600I243750J0D01*
G01*
X85876450Y-116405600D01*
G75*
G02*
X86120200Y-116649350I0J-243750D01*
G01*
X86120200Y-117136850D01*
G75*
G02*
X85876450Y-117380600I-243750J0D01*
G01*
G37*
G36*
G01*
X85876450Y-119255600D02*
X84963950Y-119255600D01*
G75*
G02*
X84720200Y-119011850I0J243750D01*
G01*
X84720200Y-118524350D01*
G75*
G02*
X84963950Y-118280600I243750J0D01*
G01*
X85876450Y-118280600D01*
G75*
G02*
X86120200Y-118524350I0J-243750D01*
G01*
X86120200Y-119011850D01*
G75*
G02*
X85876450Y-119255600I-243750J0D01*
G01*
G37*
%TD*%
%TO.C,R15*%
G36*
G01*
X89502400Y-124357450D02*
X89502400Y-123444950D01*
G75*
G02*
X89746150Y-123201200I243750J0D01*
G01*
X90233650Y-123201200D01*
G75*
G02*
X90477400Y-123444950I0J-243750D01*
G01*
X90477400Y-124357450D01*
G75*
G02*
X90233650Y-124601200I-243750J0D01*
G01*
X89746150Y-124601200D01*
G75*
G02*
X89502400Y-124357450I0J243750D01*
G01*
G37*
G36*
G01*
X87627400Y-124357450D02*
X87627400Y-123444950D01*
G75*
G02*
X87871150Y-123201200I243750J0D01*
G01*
X88358650Y-123201200D01*
G75*
G02*
X88602400Y-123444950I0J-243750D01*
G01*
X88602400Y-124357450D01*
G75*
G02*
X88358650Y-124601200I-243750J0D01*
G01*
X87871150Y-124601200D01*
G75*
G02*
X87627400Y-124357450I0J243750D01*
G01*
G37*
%TD*%
%TO.C,R14*%
G36*
G01*
X81973000Y-120092150D02*
X81973000Y-121004650D01*
G75*
G02*
X81729250Y-121248400I-243750J0D01*
G01*
X81241750Y-121248400D01*
G75*
G02*
X80998000Y-121004650I0J243750D01*
G01*
X80998000Y-120092150D01*
G75*
G02*
X81241750Y-119848400I243750J0D01*
G01*
X81729250Y-119848400D01*
G75*
G02*
X81973000Y-120092150I0J-243750D01*
G01*
G37*
G36*
G01*
X83848000Y-120092150D02*
X83848000Y-121004650D01*
G75*
G02*
X83604250Y-121248400I-243750J0D01*
G01*
X83116750Y-121248400D01*
G75*
G02*
X82873000Y-121004650I0J243750D01*
G01*
X82873000Y-120092150D01*
G75*
G02*
X83116750Y-119848400I243750J0D01*
G01*
X83604250Y-119848400D01*
G75*
G02*
X83848000Y-120092150I0J-243750D01*
G01*
G37*
%TD*%
%TO.C,R13*%
G36*
G01*
X79096550Y-121915100D02*
X80009050Y-121915100D01*
G75*
G02*
X80252800Y-122158850I0J-243750D01*
G01*
X80252800Y-122646350D01*
G75*
G02*
X80009050Y-122890100I-243750J0D01*
G01*
X79096550Y-122890100D01*
G75*
G02*
X78852800Y-122646350I0J243750D01*
G01*
X78852800Y-122158850D01*
G75*
G02*
X79096550Y-121915100I243750J0D01*
G01*
G37*
G36*
G01*
X79096550Y-120040100D02*
X80009050Y-120040100D01*
G75*
G02*
X80252800Y-120283850I0J-243750D01*
G01*
X80252800Y-120771350D01*
G75*
G02*
X80009050Y-121015100I-243750J0D01*
G01*
X79096550Y-121015100D01*
G75*
G02*
X78852800Y-120771350I0J243750D01*
G01*
X78852800Y-120283850D01*
G75*
G02*
X79096550Y-120040100I243750J0D01*
G01*
G37*
%TD*%
%TO.C,R12*%
G36*
G01*
X77107200Y-121004650D02*
X77107200Y-120092150D01*
G75*
G02*
X77350950Y-119848400I243750J0D01*
G01*
X77838450Y-119848400D01*
G75*
G02*
X78082200Y-120092150I0J-243750D01*
G01*
X78082200Y-121004650D01*
G75*
G02*
X77838450Y-121248400I-243750J0D01*
G01*
X77350950Y-121248400D01*
G75*
G02*
X77107200Y-121004650I0J243750D01*
G01*
G37*
G36*
G01*
X75232200Y-121004650D02*
X75232200Y-120092150D01*
G75*
G02*
X75475950Y-119848400I243750J0D01*
G01*
X75963450Y-119848400D01*
G75*
G02*
X76207200Y-120092150I0J-243750D01*
G01*
X76207200Y-121004650D01*
G75*
G02*
X75963450Y-121248400I-243750J0D01*
G01*
X75475950Y-121248400D01*
G75*
G02*
X75232200Y-121004650I0J243750D01*
G01*
G37*
%TD*%
%TO.C,R11*%
G36*
G01*
X60611600Y-131318950D02*
X60611600Y-132231450D01*
G75*
G02*
X60367850Y-132475200I-243750J0D01*
G01*
X59880350Y-132475200D01*
G75*
G02*
X59636600Y-132231450I0J243750D01*
G01*
X59636600Y-131318950D01*
G75*
G02*
X59880350Y-131075200I243750J0D01*
G01*
X60367850Y-131075200D01*
G75*
G02*
X60611600Y-131318950I0J-243750D01*
G01*
G37*
G36*
G01*
X62486600Y-131318950D02*
X62486600Y-132231450D01*
G75*
G02*
X62242850Y-132475200I-243750J0D01*
G01*
X61755350Y-132475200D01*
G75*
G02*
X61511600Y-132231450I0J243750D01*
G01*
X61511600Y-131318950D01*
G75*
G02*
X61755350Y-131075200I243750J0D01*
G01*
X62242850Y-131075200D01*
G75*
G02*
X62486600Y-131318950I0J-243750D01*
G01*
G37*
%TD*%
%TO.C,R10*%
G36*
G01*
X61221200Y-121463750D02*
X61221200Y-122376250D01*
G75*
G02*
X60977450Y-122620000I-243750J0D01*
G01*
X60489950Y-122620000D01*
G75*
G02*
X60246200Y-122376250I0J243750D01*
G01*
X60246200Y-121463750D01*
G75*
G02*
X60489950Y-121220000I243750J0D01*
G01*
X60977450Y-121220000D01*
G75*
G02*
X61221200Y-121463750I0J-243750D01*
G01*
G37*
G36*
G01*
X63096200Y-121463750D02*
X63096200Y-122376250D01*
G75*
G02*
X62852450Y-122620000I-243750J0D01*
G01*
X62364950Y-122620000D01*
G75*
G02*
X62121200Y-122376250I0J243750D01*
G01*
X62121200Y-121463750D01*
G75*
G02*
X62364950Y-121220000I243750J0D01*
G01*
X62852450Y-121220000D01*
G75*
G02*
X63096200Y-121463750I0J-243750D01*
G01*
G37*
%TD*%
%TO.C,R9*%
G36*
G01*
X59257250Y-128404200D02*
X58344750Y-128404200D01*
G75*
G02*
X58101000Y-128160450I0J243750D01*
G01*
X58101000Y-127672950D01*
G75*
G02*
X58344750Y-127429200I243750J0D01*
G01*
X59257250Y-127429200D01*
G75*
G02*
X59501000Y-127672950I0J-243750D01*
G01*
X59501000Y-128160450D01*
G75*
G02*
X59257250Y-128404200I-243750J0D01*
G01*
G37*
G36*
G01*
X59257250Y-130279200D02*
X58344750Y-130279200D01*
G75*
G02*
X58101000Y-130035450I0J243750D01*
G01*
X58101000Y-129547950D01*
G75*
G02*
X58344750Y-129304200I243750J0D01*
G01*
X59257250Y-129304200D01*
G75*
G02*
X59501000Y-129547950I0J-243750D01*
G01*
X59501000Y-130035450D01*
G75*
G02*
X59257250Y-130279200I-243750J0D01*
G01*
G37*
%TD*%
%TO.C,R8*%
G36*
G01*
X58344750Y-125722800D02*
X59257250Y-125722800D01*
G75*
G02*
X59501000Y-125966550I0J-243750D01*
G01*
X59501000Y-126454050D01*
G75*
G02*
X59257250Y-126697800I-243750J0D01*
G01*
X58344750Y-126697800D01*
G75*
G02*
X58101000Y-126454050I0J243750D01*
G01*
X58101000Y-125966550D01*
G75*
G02*
X58344750Y-125722800I243750J0D01*
G01*
G37*
G36*
G01*
X58344750Y-123847800D02*
X59257250Y-123847800D01*
G75*
G02*
X59501000Y-124091550I0J-243750D01*
G01*
X59501000Y-124579050D01*
G75*
G02*
X59257250Y-124822800I-243750J0D01*
G01*
X58344750Y-124822800D01*
G75*
G02*
X58101000Y-124579050I0J243750D01*
G01*
X58101000Y-124091550D01*
G75*
G02*
X58344750Y-123847800I243750J0D01*
G01*
G37*
%TD*%
%TO.C,R7*%
G36*
G01*
X91638300Y-135177850D02*
X91638300Y-134265350D01*
G75*
G02*
X91882050Y-134021600I243750J0D01*
G01*
X92369550Y-134021600D01*
G75*
G02*
X92613300Y-134265350I0J-243750D01*
G01*
X92613300Y-135177850D01*
G75*
G02*
X92369550Y-135421600I-243750J0D01*
G01*
X91882050Y-135421600D01*
G75*
G02*
X91638300Y-135177850I0J243750D01*
G01*
G37*
G36*
G01*
X89763300Y-135177850D02*
X89763300Y-134265350D01*
G75*
G02*
X90007050Y-134021600I243750J0D01*
G01*
X90494550Y-134021600D01*
G75*
G02*
X90738300Y-134265350I0J-243750D01*
G01*
X90738300Y-135177850D01*
G75*
G02*
X90494550Y-135421600I-243750J0D01*
G01*
X90007050Y-135421600D01*
G75*
G02*
X89763300Y-135177850I0J243750D01*
G01*
G37*
%TD*%
%TO.C,R6*%
G36*
G01*
X91821950Y-132326800D02*
X92734450Y-132326800D01*
G75*
G02*
X92978200Y-132570550I0J-243750D01*
G01*
X92978200Y-133058050D01*
G75*
G02*
X92734450Y-133301800I-243750J0D01*
G01*
X91821950Y-133301800D01*
G75*
G02*
X91578200Y-133058050I0J243750D01*
G01*
X91578200Y-132570550D01*
G75*
G02*
X91821950Y-132326800I243750J0D01*
G01*
G37*
G36*
G01*
X91821950Y-130451800D02*
X92734450Y-130451800D01*
G75*
G02*
X92978200Y-130695550I0J-243750D01*
G01*
X92978200Y-131183050D01*
G75*
G02*
X92734450Y-131426800I-243750J0D01*
G01*
X91821950Y-131426800D01*
G75*
G02*
X91578200Y-131183050I0J243750D01*
G01*
X91578200Y-130695550D01*
G75*
G02*
X91821950Y-130451800I243750J0D01*
G01*
G37*
%TD*%
%TO.C,R5*%
G36*
G01*
X87180000Y-135535350D02*
X87180000Y-136447850D01*
G75*
G02*
X86936250Y-136691600I-243750J0D01*
G01*
X86448750Y-136691600D01*
G75*
G02*
X86205000Y-136447850I0J243750D01*
G01*
X86205000Y-135535350D01*
G75*
G02*
X86448750Y-135291600I243750J0D01*
G01*
X86936250Y-135291600D01*
G75*
G02*
X87180000Y-135535350I0J-243750D01*
G01*
G37*
G36*
G01*
X89055000Y-135535350D02*
X89055000Y-136447850D01*
G75*
G02*
X88811250Y-136691600I-243750J0D01*
G01*
X88323750Y-136691600D01*
G75*
G02*
X88080000Y-136447850I0J243750D01*
G01*
X88080000Y-135535350D01*
G75*
G02*
X88323750Y-135291600I243750J0D01*
G01*
X88811250Y-135291600D01*
G75*
G02*
X89055000Y-135535350I0J-243750D01*
G01*
G37*
%TD*%
%TO.C,R4*%
G36*
G01*
X80974250Y-134068400D02*
X80061750Y-134068400D01*
G75*
G02*
X79818000Y-133824650I0J243750D01*
G01*
X79818000Y-133337150D01*
G75*
G02*
X80061750Y-133093400I243750J0D01*
G01*
X80974250Y-133093400D01*
G75*
G02*
X81218000Y-133337150I0J-243750D01*
G01*
X81218000Y-133824650D01*
G75*
G02*
X80974250Y-134068400I-243750J0D01*
G01*
G37*
G36*
G01*
X80974250Y-135943400D02*
X80061750Y-135943400D01*
G75*
G02*
X79818000Y-135699650I0J243750D01*
G01*
X79818000Y-135212150D01*
G75*
G02*
X80061750Y-134968400I243750J0D01*
G01*
X80974250Y-134968400D01*
G75*
G02*
X81218000Y-135212150I0J-243750D01*
G01*
X81218000Y-135699650D01*
G75*
G02*
X80974250Y-135943400I-243750J0D01*
G01*
G37*
%TD*%
%TO.C,R3*%
G36*
G01*
X78967650Y-132392000D02*
X78055150Y-132392000D01*
G75*
G02*
X77811400Y-132148250I0J243750D01*
G01*
X77811400Y-131660750D01*
G75*
G02*
X78055150Y-131417000I243750J0D01*
G01*
X78967650Y-131417000D01*
G75*
G02*
X79211400Y-131660750I0J-243750D01*
G01*
X79211400Y-132148250D01*
G75*
G02*
X78967650Y-132392000I-243750J0D01*
G01*
G37*
G36*
G01*
X78967650Y-134267000D02*
X78055150Y-134267000D01*
G75*
G02*
X77811400Y-134023250I0J243750D01*
G01*
X77811400Y-133535750D01*
G75*
G02*
X78055150Y-133292000I243750J0D01*
G01*
X78967650Y-133292000D01*
G75*
G02*
X79211400Y-133535750I0J-243750D01*
G01*
X79211400Y-134023250D01*
G75*
G02*
X78967650Y-134267000I-243750J0D01*
G01*
G37*
%TD*%
%TO.C,R2*%
G36*
G01*
X78201700Y-136701850D02*
X78201700Y-135789350D01*
G75*
G02*
X78445450Y-135545600I243750J0D01*
G01*
X78932950Y-135545600D01*
G75*
G02*
X79176700Y-135789350I0J-243750D01*
G01*
X79176700Y-136701850D01*
G75*
G02*
X78932950Y-136945600I-243750J0D01*
G01*
X78445450Y-136945600D01*
G75*
G02*
X78201700Y-136701850I0J243750D01*
G01*
G37*
G36*
G01*
X76326700Y-136701850D02*
X76326700Y-135789350D01*
G75*
G02*
X76570450Y-135545600I243750J0D01*
G01*
X77057950Y-135545600D01*
G75*
G02*
X77301700Y-135789350I0J-243750D01*
G01*
X77301700Y-136701850D01*
G75*
G02*
X77057950Y-136945600I-243750J0D01*
G01*
X76570450Y-136945600D01*
G75*
G02*
X76326700Y-136701850I0J243750D01*
G01*
G37*
%TD*%
%TO.C,R1*%
G36*
G01*
X124791150Y-101618200D02*
X125703650Y-101618200D01*
G75*
G02*
X125947400Y-101861950I0J-243750D01*
G01*
X125947400Y-102349450D01*
G75*
G02*
X125703650Y-102593200I-243750J0D01*
G01*
X124791150Y-102593200D01*
G75*
G02*
X124547400Y-102349450I0J243750D01*
G01*
X124547400Y-101861950D01*
G75*
G02*
X124791150Y-101618200I243750J0D01*
G01*
G37*
G36*
G01*
X124791150Y-99743200D02*
X125703650Y-99743200D01*
G75*
G02*
X125947400Y-99986950I0J-243750D01*
G01*
X125947400Y-100474450D01*
G75*
G02*
X125703650Y-100718200I-243750J0D01*
G01*
X124791150Y-100718200D01*
G75*
G02*
X124547400Y-100474450I0J243750D01*
G01*
X124547400Y-99986950D01*
G75*
G02*
X124791150Y-99743200I243750J0D01*
G01*
G37*
%TD*%
D14*
%TO.C,J2*%
X51358800Y-127135200D03*
X51358800Y-131385200D03*
X51358800Y-122885200D03*
%TD*%
D15*
%TO.C,D3*%
X140572200Y-117373400D03*
X138472200Y-117373400D03*
%TD*%
D16*
%TO.C,D2*%
X140639800Y-128667800D03*
X140639800Y-130767800D03*
%TD*%
D17*
%TO.C,D1*%
X113683800Y-118836400D03*
X111683800Y-119786400D03*
X111683800Y-117886400D03*
%TD*%
%TO.C,C22*%
G36*
G01*
X83422159Y-114757650D02*
X83422159Y-113845150D01*
G75*
G02*
X83665909Y-113601400I243750J0D01*
G01*
X84153409Y-113601400D01*
G75*
G02*
X84397159Y-113845150I0J-243750D01*
G01*
X84397159Y-114757650D01*
G75*
G02*
X84153409Y-115001400I-243750J0D01*
G01*
X83665909Y-115001400D01*
G75*
G02*
X83422159Y-114757650I0J243750D01*
G01*
G37*
G36*
G01*
X81547159Y-114757650D02*
X81547159Y-113845150D01*
G75*
G02*
X81790909Y-113601400I243750J0D01*
G01*
X82278409Y-113601400D01*
G75*
G02*
X82522159Y-113845150I0J-243750D01*
G01*
X82522159Y-114757650D01*
G75*
G02*
X82278409Y-115001400I-243750J0D01*
G01*
X81790909Y-115001400D01*
G75*
G02*
X81547159Y-114757650I0J243750D01*
G01*
G37*
%TD*%
%TO.C,C21*%
G36*
G01*
X93185400Y-116407250D02*
X93185400Y-115494750D01*
G75*
G02*
X93429150Y-115251000I243750J0D01*
G01*
X93916650Y-115251000D01*
G75*
G02*
X94160400Y-115494750I0J-243750D01*
G01*
X94160400Y-116407250D01*
G75*
G02*
X93916650Y-116651000I-243750J0D01*
G01*
X93429150Y-116651000D01*
G75*
G02*
X93185400Y-116407250I0J243750D01*
G01*
G37*
G36*
G01*
X91310400Y-116407250D02*
X91310400Y-115494750D01*
G75*
G02*
X91554150Y-115251000I243750J0D01*
G01*
X92041650Y-115251000D01*
G75*
G02*
X92285400Y-115494750I0J-243750D01*
G01*
X92285400Y-116407250D01*
G75*
G02*
X92041650Y-116651000I-243750J0D01*
G01*
X91554150Y-116651000D01*
G75*
G02*
X91310400Y-116407250I0J243750D01*
G01*
G37*
%TD*%
%TO.C,C20*%
G36*
G01*
X89449559Y-116403050D02*
X89449559Y-115490550D01*
G75*
G02*
X89693309Y-115246800I243750J0D01*
G01*
X90180809Y-115246800D01*
G75*
G02*
X90424559Y-115490550I0J-243750D01*
G01*
X90424559Y-116403050D01*
G75*
G02*
X90180809Y-116646800I-243750J0D01*
G01*
X89693309Y-116646800D01*
G75*
G02*
X89449559Y-116403050I0J243750D01*
G01*
G37*
G36*
G01*
X87574559Y-116403050D02*
X87574559Y-115490550D01*
G75*
G02*
X87818309Y-115246800I243750J0D01*
G01*
X88305809Y-115246800D01*
G75*
G02*
X88549559Y-115490550I0J-243750D01*
G01*
X88549559Y-116403050D01*
G75*
G02*
X88305809Y-116646800I-243750J0D01*
G01*
X87818309Y-116646800D01*
G75*
G02*
X87574559Y-116403050I0J243750D01*
G01*
G37*
%TD*%
%TO.C,C19*%
G36*
G01*
X69675550Y-127475400D02*
X70588050Y-127475400D01*
G75*
G02*
X70831800Y-127719150I0J-243750D01*
G01*
X70831800Y-128206650D01*
G75*
G02*
X70588050Y-128450400I-243750J0D01*
G01*
X69675550Y-128450400D01*
G75*
G02*
X69431800Y-128206650I0J243750D01*
G01*
X69431800Y-127719150D01*
G75*
G02*
X69675550Y-127475400I243750J0D01*
G01*
G37*
G36*
G01*
X69675550Y-125600400D02*
X70588050Y-125600400D01*
G75*
G02*
X70831800Y-125844150I0J-243750D01*
G01*
X70831800Y-126331650D01*
G75*
G02*
X70588050Y-126575400I-243750J0D01*
G01*
X69675550Y-126575400D01*
G75*
G02*
X69431800Y-126331650I0J243750D01*
G01*
X69431800Y-125844150D01*
G75*
G02*
X69675550Y-125600400I243750J0D01*
G01*
G37*
%TD*%
%TO.C,C18*%
G36*
G01*
X67488750Y-127500800D02*
X68401250Y-127500800D01*
G75*
G02*
X68645000Y-127744550I0J-243750D01*
G01*
X68645000Y-128232050D01*
G75*
G02*
X68401250Y-128475800I-243750J0D01*
G01*
X67488750Y-128475800D01*
G75*
G02*
X67245000Y-128232050I0J243750D01*
G01*
X67245000Y-127744550D01*
G75*
G02*
X67488750Y-127500800I243750J0D01*
G01*
G37*
G36*
G01*
X67488750Y-125625800D02*
X68401250Y-125625800D01*
G75*
G02*
X68645000Y-125869550I0J-243750D01*
G01*
X68645000Y-126357050D01*
G75*
G02*
X68401250Y-126600800I-243750J0D01*
G01*
X67488750Y-126600800D01*
G75*
G02*
X67245000Y-126357050I0J243750D01*
G01*
X67245000Y-125869550D01*
G75*
G02*
X67488750Y-125625800I243750J0D01*
G01*
G37*
%TD*%
%TO.C,C17*%
G36*
G01*
X72617650Y-126575400D02*
X71705150Y-126575400D01*
G75*
G02*
X71461400Y-126331650I0J243750D01*
G01*
X71461400Y-125844150D01*
G75*
G02*
X71705150Y-125600400I243750J0D01*
G01*
X72617650Y-125600400D01*
G75*
G02*
X72861400Y-125844150I0J-243750D01*
G01*
X72861400Y-126331650D01*
G75*
G02*
X72617650Y-126575400I-243750J0D01*
G01*
G37*
G36*
G01*
X72617650Y-128450400D02*
X71705150Y-128450400D01*
G75*
G02*
X71461400Y-128206650I0J243750D01*
G01*
X71461400Y-127719150D01*
G75*
G02*
X71705150Y-127475400I243750J0D01*
G01*
X72617650Y-127475400D01*
G75*
G02*
X72861400Y-127719150I0J-243750D01*
G01*
X72861400Y-128206650D01*
G75*
G02*
X72617650Y-128450400I-243750J0D01*
G01*
G37*
%TD*%
%TO.C,C16*%
G36*
G01*
X98678050Y-120784200D02*
X97765550Y-120784200D01*
G75*
G02*
X97521800Y-120540450I0J243750D01*
G01*
X97521800Y-120052950D01*
G75*
G02*
X97765550Y-119809200I243750J0D01*
G01*
X98678050Y-119809200D01*
G75*
G02*
X98921800Y-120052950I0J-243750D01*
G01*
X98921800Y-120540450D01*
G75*
G02*
X98678050Y-120784200I-243750J0D01*
G01*
G37*
G36*
G01*
X98678050Y-122659200D02*
X97765550Y-122659200D01*
G75*
G02*
X97521800Y-122415450I0J243750D01*
G01*
X97521800Y-121927950D01*
G75*
G02*
X97765550Y-121684200I243750J0D01*
G01*
X98678050Y-121684200D01*
G75*
G02*
X98921800Y-121927950I0J-243750D01*
G01*
X98921800Y-122415450D01*
G75*
G02*
X98678050Y-122659200I-243750J0D01*
G01*
G37*
%TD*%
%TO.C,C15*%
G36*
G01*
X101516600Y-121588850D02*
X101516600Y-120676350D01*
G75*
G02*
X101760350Y-120432600I243750J0D01*
G01*
X102247850Y-120432600D01*
G75*
G02*
X102491600Y-120676350I0J-243750D01*
G01*
X102491600Y-121588850D01*
G75*
G02*
X102247850Y-121832600I-243750J0D01*
G01*
X101760350Y-121832600D01*
G75*
G02*
X101516600Y-121588850I0J243750D01*
G01*
G37*
G36*
G01*
X99641600Y-121588850D02*
X99641600Y-120676350D01*
G75*
G02*
X99885350Y-120432600I243750J0D01*
G01*
X100372850Y-120432600D01*
G75*
G02*
X100616600Y-120676350I0J-243750D01*
G01*
X100616600Y-121588850D01*
G75*
G02*
X100372850Y-121832600I-243750J0D01*
G01*
X99885350Y-121832600D01*
G75*
G02*
X99641600Y-121588850I0J243750D01*
G01*
G37*
%TD*%
%TO.C,C14*%
G36*
G01*
X82921500Y-118083650D02*
X82921500Y-117171150D01*
G75*
G02*
X83165250Y-116927400I243750J0D01*
G01*
X83652750Y-116927400D01*
G75*
G02*
X83896500Y-117171150I0J-243750D01*
G01*
X83896500Y-118083650D01*
G75*
G02*
X83652750Y-118327400I-243750J0D01*
G01*
X83165250Y-118327400D01*
G75*
G02*
X82921500Y-118083650I0J243750D01*
G01*
G37*
G36*
G01*
X81046500Y-118083650D02*
X81046500Y-117171150D01*
G75*
G02*
X81290250Y-116927400I243750J0D01*
G01*
X81777750Y-116927400D01*
G75*
G02*
X82021500Y-117171150I0J-243750D01*
G01*
X82021500Y-118083650D01*
G75*
G02*
X81777750Y-118327400I-243750J0D01*
G01*
X81290250Y-118327400D01*
G75*
G02*
X81046500Y-118083650I0J243750D01*
G01*
G37*
%TD*%
%TO.C,C13*%
G36*
G01*
X85014750Y-121935900D02*
X85927250Y-121935900D01*
G75*
G02*
X86171000Y-122179650I0J-243750D01*
G01*
X86171000Y-122667150D01*
G75*
G02*
X85927250Y-122910900I-243750J0D01*
G01*
X85014750Y-122910900D01*
G75*
G02*
X84771000Y-122667150I0J243750D01*
G01*
X84771000Y-122179650D01*
G75*
G02*
X85014750Y-121935900I243750J0D01*
G01*
G37*
G36*
G01*
X85014750Y-120060900D02*
X85927250Y-120060900D01*
G75*
G02*
X86171000Y-120304650I0J-243750D01*
G01*
X86171000Y-120792150D01*
G75*
G02*
X85927250Y-121035900I-243750J0D01*
G01*
X85014750Y-121035900D01*
G75*
G02*
X84771000Y-120792150I0J243750D01*
G01*
X84771000Y-120304650D01*
G75*
G02*
X85014750Y-120060900I243750J0D01*
G01*
G37*
%TD*%
%TO.C,C12*%
G36*
G01*
X87445000Y-128675450D02*
X87445000Y-127762950D01*
G75*
G02*
X87688750Y-127519200I243750J0D01*
G01*
X88176250Y-127519200D01*
G75*
G02*
X88420000Y-127762950I0J-243750D01*
G01*
X88420000Y-128675450D01*
G75*
G02*
X88176250Y-128919200I-243750J0D01*
G01*
X87688750Y-128919200D01*
G75*
G02*
X87445000Y-128675450I0J243750D01*
G01*
G37*
G36*
G01*
X85570000Y-128675450D02*
X85570000Y-127762950D01*
G75*
G02*
X85813750Y-127519200I243750J0D01*
G01*
X86301250Y-127519200D01*
G75*
G02*
X86545000Y-127762950I0J-243750D01*
G01*
X86545000Y-128675450D01*
G75*
G02*
X86301250Y-128919200I-243750J0D01*
G01*
X85813750Y-128919200D01*
G75*
G02*
X85570000Y-128675450I0J243750D01*
G01*
G37*
%TD*%
%TO.C,C11*%
G36*
G01*
X83708900Y-128700850D02*
X83708900Y-127788350D01*
G75*
G02*
X83952650Y-127544600I243750J0D01*
G01*
X84440150Y-127544600D01*
G75*
G02*
X84683900Y-127788350I0J-243750D01*
G01*
X84683900Y-128700850D01*
G75*
G02*
X84440150Y-128944600I-243750J0D01*
G01*
X83952650Y-128944600D01*
G75*
G02*
X83708900Y-128700850I0J243750D01*
G01*
G37*
G36*
G01*
X81833900Y-128700850D02*
X81833900Y-127788350D01*
G75*
G02*
X82077650Y-127544600I243750J0D01*
G01*
X82565150Y-127544600D01*
G75*
G02*
X82808900Y-127788350I0J-243750D01*
G01*
X82808900Y-128700850D01*
G75*
G02*
X82565150Y-128944600I-243750J0D01*
G01*
X82077650Y-128944600D01*
G75*
G02*
X81833900Y-128700850I0J243750D01*
G01*
G37*
%TD*%
%TO.C,C10*%
G36*
G01*
X83141400Y-135636950D02*
X83141400Y-136549450D01*
G75*
G02*
X82897650Y-136793200I-243750J0D01*
G01*
X82410150Y-136793200D01*
G75*
G02*
X82166400Y-136549450I0J243750D01*
G01*
X82166400Y-135636950D01*
G75*
G02*
X82410150Y-135393200I243750J0D01*
G01*
X82897650Y-135393200D01*
G75*
G02*
X83141400Y-135636950I0J-243750D01*
G01*
G37*
G36*
G01*
X85016400Y-135636950D02*
X85016400Y-136549450D01*
G75*
G02*
X84772650Y-136793200I-243750J0D01*
G01*
X84285150Y-136793200D01*
G75*
G02*
X84041400Y-136549450I0J243750D01*
G01*
X84041400Y-135636950D01*
G75*
G02*
X84285150Y-135393200I243750J0D01*
G01*
X84772650Y-135393200D01*
G75*
G02*
X85016400Y-135636950I0J-243750D01*
G01*
G37*
%TD*%
%TO.C,C9*%
G36*
G01*
X56903200Y-131293550D02*
X56903200Y-132206050D01*
G75*
G02*
X56659450Y-132449800I-243750J0D01*
G01*
X56171950Y-132449800D01*
G75*
G02*
X55928200Y-132206050I0J243750D01*
G01*
X55928200Y-131293550D01*
G75*
G02*
X56171950Y-131049800I243750J0D01*
G01*
X56659450Y-131049800D01*
G75*
G02*
X56903200Y-131293550I0J-243750D01*
G01*
G37*
G36*
G01*
X58778200Y-131293550D02*
X58778200Y-132206050D01*
G75*
G02*
X58534450Y-132449800I-243750J0D01*
G01*
X58046950Y-132449800D01*
G75*
G02*
X57803200Y-132206050I0J243750D01*
G01*
X57803200Y-131293550D01*
G75*
G02*
X58046950Y-131049800I243750J0D01*
G01*
X58534450Y-131049800D01*
G75*
G02*
X58778200Y-131293550I0J-243750D01*
G01*
G37*
%TD*%
%TO.C,C8*%
G36*
G01*
X57182600Y-122047950D02*
X57182600Y-122960450D01*
G75*
G02*
X56938850Y-123204200I-243750J0D01*
G01*
X56451350Y-123204200D01*
G75*
G02*
X56207600Y-122960450I0J243750D01*
G01*
X56207600Y-122047950D01*
G75*
G02*
X56451350Y-121804200I243750J0D01*
G01*
X56938850Y-121804200D01*
G75*
G02*
X57182600Y-122047950I0J-243750D01*
G01*
G37*
G36*
G01*
X59057600Y-122047950D02*
X59057600Y-122960450D01*
G75*
G02*
X58813850Y-123204200I-243750J0D01*
G01*
X58326350Y-123204200D01*
G75*
G02*
X58082600Y-122960450I0J243750D01*
G01*
X58082600Y-122047950D01*
G75*
G02*
X58326350Y-121804200I243750J0D01*
G01*
X58813850Y-121804200D01*
G75*
G02*
X59057600Y-122047950I0J-243750D01*
G01*
G37*
%TD*%
%TO.C,C7*%
G36*
G01*
X89815350Y-132352200D02*
X90727850Y-132352200D01*
G75*
G02*
X90971600Y-132595950I0J-243750D01*
G01*
X90971600Y-133083450D01*
G75*
G02*
X90727850Y-133327200I-243750J0D01*
G01*
X89815350Y-133327200D01*
G75*
G02*
X89571600Y-133083450I0J243750D01*
G01*
X89571600Y-132595950D01*
G75*
G02*
X89815350Y-132352200I243750J0D01*
G01*
G37*
G36*
G01*
X89815350Y-130477200D02*
X90727850Y-130477200D01*
G75*
G02*
X90971600Y-130720950I0J-243750D01*
G01*
X90971600Y-131208450D01*
G75*
G02*
X90727850Y-131452200I-243750J0D01*
G01*
X89815350Y-131452200D01*
G75*
G02*
X89571600Y-131208450I0J243750D01*
G01*
X89571600Y-130720950D01*
G75*
G02*
X89815350Y-130477200I243750J0D01*
G01*
G37*
%TD*%
%TO.C,C6*%
G36*
G01*
X89993150Y-137965600D02*
X90905650Y-137965600D01*
G75*
G02*
X91149400Y-138209350I0J-243750D01*
G01*
X91149400Y-138696850D01*
G75*
G02*
X90905650Y-138940600I-243750J0D01*
G01*
X89993150Y-138940600D01*
G75*
G02*
X89749400Y-138696850I0J243750D01*
G01*
X89749400Y-138209350D01*
G75*
G02*
X89993150Y-137965600I243750J0D01*
G01*
G37*
G36*
G01*
X89993150Y-136090600D02*
X90905650Y-136090600D01*
G75*
G02*
X91149400Y-136334350I0J-243750D01*
G01*
X91149400Y-136821850D01*
G75*
G02*
X90905650Y-137065600I-243750J0D01*
G01*
X89993150Y-137065600D01*
G75*
G02*
X89749400Y-136821850I0J243750D01*
G01*
X89749400Y-136334350D01*
G75*
G02*
X89993150Y-136090600I243750J0D01*
G01*
G37*
%TD*%
%TO.C,C5*%
G36*
G01*
X80061750Y-131463200D02*
X80974250Y-131463200D01*
G75*
G02*
X81218000Y-131706950I0J-243750D01*
G01*
X81218000Y-132194450D01*
G75*
G02*
X80974250Y-132438200I-243750J0D01*
G01*
X80061750Y-132438200D01*
G75*
G02*
X79818000Y-132194450I0J243750D01*
G01*
X79818000Y-131706950D01*
G75*
G02*
X80061750Y-131463200I243750J0D01*
G01*
G37*
G36*
G01*
X80061750Y-129588200D02*
X80974250Y-129588200D01*
G75*
G02*
X81218000Y-129831950I0J-243750D01*
G01*
X81218000Y-130319450D01*
G75*
G02*
X80974250Y-130563200I-243750J0D01*
G01*
X80061750Y-130563200D01*
G75*
G02*
X79818000Y-130319450I0J243750D01*
G01*
X79818000Y-129831950D01*
G75*
G02*
X80061750Y-129588200I243750J0D01*
G01*
G37*
%TD*%
%TO.C,C4*%
G36*
G01*
X80036350Y-138445900D02*
X80948850Y-138445900D01*
G75*
G02*
X81192600Y-138689650I0J-243750D01*
G01*
X81192600Y-139177150D01*
G75*
G02*
X80948850Y-139420900I-243750J0D01*
G01*
X80036350Y-139420900D01*
G75*
G02*
X79792600Y-139177150I0J243750D01*
G01*
X79792600Y-138689650D01*
G75*
G02*
X80036350Y-138445900I243750J0D01*
G01*
G37*
G36*
G01*
X80036350Y-136570900D02*
X80948850Y-136570900D01*
G75*
G02*
X81192600Y-136814650I0J-243750D01*
G01*
X81192600Y-137302150D01*
G75*
G02*
X80948850Y-137545900I-243750J0D01*
G01*
X80036350Y-137545900D01*
G75*
G02*
X79792600Y-137302150I0J243750D01*
G01*
X79792600Y-136814650D01*
G75*
G02*
X80036350Y-136570900I243750J0D01*
G01*
G37*
%TD*%
M02*
