M48
; DRILL file {KiCad 5.1.6-c6e7f7d~86~ubuntu18.04.1} date Sun Nov  1 20:36:17 2020
; FORMAT={-:-/ absolute / metric / decimal}
; #@! TF.CreationDate,2020-11-01T20:36:17-05:00
; #@! TF.GenerationSoftware,Kicad,Pcbnew,5.1.6-c6e7f7d~86~ubuntu18.04.1
; #@! TF.FileFunction,Plated,1,2,PTH
FMAT,2
METRIC
T1C0.400
T2C0.800
T3C1.100
T4C1.500
T5C1.700
%
G90
G05
T1
X56.896Y-126.848
X58.293Y-117.399
X59.157Y-133.375
X59.969Y-120.777
X63.906Y-127.229
X74.422Y-122.428
X74.422Y-123.698
X75.692Y-122.428
X75.692Y-123.698
X76.962Y-122.428
X77.11Y-123.338
X78.999Y-138.933
X79.502Y-128.524
X79.553Y-124.892
X81.026Y-123.444
X81.026Y-124.714
X81.026Y-125.984
X82.296Y-123.444
X82.296Y-124.714
X82.296Y-125.984
X82.758Y-138.933
X82.758Y-138.933
X83.566Y-123.444
X83.566Y-124.714
X83.566Y-125.984
X84.388Y-132.817
X84.485Y-138.933
X85.369Y-126.721
X86.03Y-137.566
X86.35Y-133.401
X86.614Y-124.46
X86.614Y-125.73
X86.771Y-138.933
X87.884Y-125.73
X89.662Y-125.73
X90.817Y-117.191
X90.932Y-125.73
X91.313Y-118.059
X104.216Y-127.711
X107.213Y-106.909
X107.34Y-109.957
X108.433Y-132.131
X110.253Y-119.778
X114.554Y-119.786
X118.511Y-100.974
X118.643Y-101.965
T2
X125.984Y-108.026
X125.984Y-110.526
X66.04Y-120.421
X68.58Y-120.421
X71.12Y-120.421
X148.311Y-120.944
X148.311Y-123.444
X143.093Y-114.122
X145.593Y-114.122
X65.989Y-133.579
X68.529Y-133.579
X71.069Y-133.579
T3
X53.162Y-114.656
X55.702Y-114.656
X58.242Y-114.656
X60.782Y-114.656
X116.408Y-116.357
X116.408Y-118.897
X116.408Y-121.437
X116.408Y-123.977
X116.408Y-126.517
X116.408Y-129.057
X116.408Y-131.597
X116.408Y-134.137
X116.408Y-136.677
X116.408Y-139.217
X116.408Y-141.757
X116.408Y-144.297
X116.408Y-146.837
X116.408Y-149.377
X118.948Y-116.357
X118.948Y-121.437
X118.948Y-123.977
X118.948Y-146.837
X121.488Y-116.357
X121.488Y-121.437
X121.488Y-123.977
X124.028Y-116.357
X124.028Y-121.437
X124.028Y-123.977
X126.568Y-116.357
X126.568Y-121.437
X126.568Y-123.977
X129.108Y-116.357
X129.108Y-121.437
X129.108Y-123.977
X131.648Y-116.357
X131.648Y-118.897
X131.648Y-121.437
X131.648Y-123.977
X131.648Y-126.517
X131.648Y-129.057
X131.648Y-131.597
X131.648Y-134.137
X131.648Y-136.677
X131.648Y-139.217
X131.648Y-141.757
X131.648Y-144.297
X131.648Y-146.837
X131.648Y-149.377
T4
X140.614Y-146.685
X98.958Y-131.089
X140.711Y-136.01
X96.114Y-109.271
T5
X93.574Y-106.731
X93.574Y-111.811
X98.654Y-106.731
X98.654Y-111.811
X138.074Y-144.145
X138.074Y-149.225
X143.154Y-144.145
X143.154Y-149.225
X96.418Y-128.549
X96.418Y-133.629
X101.498Y-128.549
X101.498Y-133.629
X138.171Y-133.47
X138.171Y-138.55
X143.251Y-133.47
X143.251Y-138.55
T0
M30
