%TF.GenerationSoftware,KiCad,Pcbnew,5.1.6-c6e7f7d~86~ubuntu18.04.1*%
%TF.CreationDate,2020-11-01T20:36:20-05:00*%
%TF.ProjectId,Senior-Design-Radar-Group,53656e69-6f72-42d4-9465-7369676e2d52,rev?*%
%TF.SameCoordinates,Original*%
%TF.FileFunction,Other,User*%
%FSLAX46Y46*%
G04 Gerber Fmt 4.6, Leading zero omitted, Abs format (unit mm)*
G04 Created by KiCad (PCBNEW 5.1.6-c6e7f7d~86~ubuntu18.04.1) date 2020-11-01 20:36:20*
%MOMM*%
%LPD*%
G01*
G04 APERTURE LIST*
%ADD10C,0.050000*%
G04 APERTURE END LIST*
D10*
%TO.C,J3*%
X144784400Y-150855000D02*
X136444400Y-150855000D01*
X144784400Y-150855000D02*
X144784400Y-142515000D01*
X136444400Y-142515000D02*
X136444400Y-150855000D01*
X136444400Y-142515000D02*
X144784400Y-142515000D01*
%TO.C,J8*%
X136541000Y-140180200D02*
X136541000Y-131840200D01*
X136541000Y-140180200D02*
X144881000Y-140180200D01*
X144881000Y-131840200D02*
X136541000Y-131840200D01*
X144881000Y-131840200D02*
X144881000Y-140180200D01*
%TO.C,J6*%
X103128400Y-135259400D02*
X94788400Y-135259400D01*
X103128400Y-135259400D02*
X103128400Y-126919400D01*
X94788400Y-126919400D02*
X94788400Y-135259400D01*
X94788400Y-126919400D02*
X103128400Y-126919400D01*
%TO.C,J4*%
X100283600Y-113440800D02*
X91943600Y-113440800D01*
X100283600Y-113440800D02*
X100283600Y-105100800D01*
X91943600Y-105100800D02*
X91943600Y-113440800D01*
X91943600Y-105100800D02*
X100283600Y-105100800D01*
%TO.C,U7*%
X87333600Y-117188000D02*
X87333600Y-122588000D01*
X87333600Y-122588000D02*
X94733600Y-122588000D01*
X94733600Y-122588000D02*
X94733600Y-117188000D01*
X94733600Y-117188000D02*
X87333600Y-117188000D01*
%TO.C,U6*%
X65361800Y-123274600D02*
X59961800Y-123274600D01*
X59961800Y-123274600D02*
X59961800Y-130674600D01*
X59961800Y-130674600D02*
X65361800Y-130674600D01*
X65361800Y-130674600D02*
X65361800Y-123274600D01*
%TO.C,U5*%
X81644000Y-129354600D02*
X81644000Y-134754600D01*
X81644000Y-134754600D02*
X89044000Y-134754600D01*
X89044000Y-134754600D02*
X89044000Y-129354600D01*
X89044000Y-129354600D02*
X81644000Y-129354600D01*
%TO.C,U4*%
X119490600Y-100842200D02*
X119490600Y-104542200D01*
X123790600Y-100842200D02*
X123790600Y-104542200D01*
X119490600Y-100842200D02*
X123790600Y-100842200D01*
X119490600Y-104542200D02*
X123790600Y-104542200D01*
%TO.C,U3*%
X116781600Y-112793000D02*
X122181600Y-112793000D01*
X122181600Y-112793000D02*
X122181600Y-105393000D01*
X122181600Y-105393000D02*
X116781600Y-105393000D01*
X116781600Y-105393000D02*
X116781600Y-112793000D01*
%TO.C,U2*%
X144265200Y-127463000D02*
X144265200Y-118663000D01*
X137065200Y-127463000D02*
X144265200Y-127463000D01*
X137065200Y-118663000D02*
X137065200Y-127463000D01*
X144265200Y-118663000D02*
X137065200Y-118663000D01*
%TO.C,RV2*%
X73589200Y-136278600D02*
X73589200Y-130878600D01*
X73589200Y-130878600D02*
X63489200Y-130878600D01*
X63489200Y-130878600D02*
X63489200Y-136278600D01*
X63489200Y-136278600D02*
X73589200Y-136278600D01*
%TO.C,RV1*%
X73640000Y-123121400D02*
X73640000Y-117721400D01*
X73640000Y-117721400D02*
X63540000Y-117721400D01*
X63540000Y-117721400D02*
X63540000Y-123121400D01*
X63540000Y-123121400D02*
X73640000Y-123121400D01*
%TO.C,R22*%
X97012800Y-117402400D02*
X95112800Y-117402400D01*
X95112800Y-117402400D02*
X95112800Y-114042400D01*
X95112800Y-114042400D02*
X97012800Y-114042400D01*
X97012800Y-114042400D02*
X97012800Y-117402400D01*
%TO.C,R21*%
X95138200Y-117750800D02*
X97038200Y-117750800D01*
X97038200Y-117750800D02*
X97038200Y-121110800D01*
X97038200Y-121110800D02*
X95138200Y-121110800D01*
X95138200Y-121110800D02*
X95138200Y-117750800D01*
%TO.C,R20*%
X97255300Y-119441000D02*
X97255300Y-117541000D01*
X97255300Y-117541000D02*
X100615300Y-117541000D01*
X100615300Y-117541000D02*
X100615300Y-119441000D01*
X100615300Y-119441000D02*
X97255300Y-119441000D01*
%TO.C,R19*%
X97038200Y-124639100D02*
X95138200Y-124639100D01*
X95138200Y-124639100D02*
X95138200Y-121279100D01*
X95138200Y-121279100D02*
X97038200Y-121279100D01*
X97038200Y-121279100D02*
X97038200Y-124639100D01*
%TO.C,R18*%
X100638400Y-123078200D02*
X100638400Y-124978200D01*
X100638400Y-124978200D02*
X97278400Y-124978200D01*
X97278400Y-124978200D02*
X97278400Y-123078200D01*
X97278400Y-123078200D02*
X100638400Y-123078200D01*
%TO.C,R17*%
X91258600Y-124800400D02*
X91258600Y-122900400D01*
X91258600Y-122900400D02*
X94618600Y-122900400D01*
X94618600Y-122900400D02*
X94618600Y-124800400D01*
X94618600Y-124800400D02*
X91258600Y-124800400D01*
%TO.C,R16*%
X86370200Y-119510600D02*
X84470200Y-119510600D01*
X84470200Y-119510600D02*
X84470200Y-116150600D01*
X84470200Y-116150600D02*
X86370200Y-116150600D01*
X86370200Y-116150600D02*
X86370200Y-119510600D01*
%TO.C,R15*%
X87372400Y-124851200D02*
X87372400Y-122951200D01*
X87372400Y-122951200D02*
X90732400Y-122951200D01*
X90732400Y-122951200D02*
X90732400Y-124851200D01*
X90732400Y-124851200D02*
X87372400Y-124851200D01*
%TO.C,R14*%
X84103000Y-119598400D02*
X84103000Y-121498400D01*
X84103000Y-121498400D02*
X80743000Y-121498400D01*
X80743000Y-121498400D02*
X80743000Y-119598400D01*
X80743000Y-119598400D02*
X84103000Y-119598400D01*
%TO.C,R13*%
X78602800Y-119785100D02*
X80502800Y-119785100D01*
X80502800Y-119785100D02*
X80502800Y-123145100D01*
X80502800Y-123145100D02*
X78602800Y-123145100D01*
X78602800Y-123145100D02*
X78602800Y-119785100D01*
%TO.C,R12*%
X74977200Y-121498400D02*
X74977200Y-119598400D01*
X74977200Y-119598400D02*
X78337200Y-119598400D01*
X78337200Y-119598400D02*
X78337200Y-121498400D01*
X78337200Y-121498400D02*
X74977200Y-121498400D01*
%TO.C,R11*%
X62741600Y-130825200D02*
X62741600Y-132725200D01*
X62741600Y-132725200D02*
X59381600Y-132725200D01*
X59381600Y-132725200D02*
X59381600Y-130825200D01*
X59381600Y-130825200D02*
X62741600Y-130825200D01*
%TO.C,R10*%
X63351200Y-120970000D02*
X63351200Y-122870000D01*
X63351200Y-122870000D02*
X59991200Y-122870000D01*
X59991200Y-122870000D02*
X59991200Y-120970000D01*
X59991200Y-120970000D02*
X63351200Y-120970000D01*
%TO.C,R9*%
X59751000Y-130534200D02*
X57851000Y-130534200D01*
X57851000Y-130534200D02*
X57851000Y-127174200D01*
X57851000Y-127174200D02*
X59751000Y-127174200D01*
X59751000Y-127174200D02*
X59751000Y-130534200D01*
%TO.C,R8*%
X57851000Y-123592800D02*
X59751000Y-123592800D01*
X59751000Y-123592800D02*
X59751000Y-126952800D01*
X59751000Y-126952800D02*
X57851000Y-126952800D01*
X57851000Y-126952800D02*
X57851000Y-123592800D01*
%TO.C,R7*%
X89508300Y-135671600D02*
X89508300Y-133771600D01*
X89508300Y-133771600D02*
X92868300Y-133771600D01*
X92868300Y-133771600D02*
X92868300Y-135671600D01*
X92868300Y-135671600D02*
X89508300Y-135671600D01*
%TO.C,R6*%
X91328200Y-130196800D02*
X93228200Y-130196800D01*
X93228200Y-130196800D02*
X93228200Y-133556800D01*
X93228200Y-133556800D02*
X91328200Y-133556800D01*
X91328200Y-133556800D02*
X91328200Y-130196800D01*
%TO.C,R5*%
X89310000Y-135041600D02*
X89310000Y-136941600D01*
X89310000Y-136941600D02*
X85950000Y-136941600D01*
X85950000Y-136941600D02*
X85950000Y-135041600D01*
X85950000Y-135041600D02*
X89310000Y-135041600D01*
%TO.C,R4*%
X81468000Y-136198400D02*
X79568000Y-136198400D01*
X79568000Y-136198400D02*
X79568000Y-132838400D01*
X79568000Y-132838400D02*
X81468000Y-132838400D01*
X81468000Y-132838400D02*
X81468000Y-136198400D01*
%TO.C,R3*%
X79461400Y-134522000D02*
X77561400Y-134522000D01*
X77561400Y-134522000D02*
X77561400Y-131162000D01*
X77561400Y-131162000D02*
X79461400Y-131162000D01*
X79461400Y-131162000D02*
X79461400Y-134522000D01*
%TO.C,R2*%
X76071700Y-137195600D02*
X76071700Y-135295600D01*
X76071700Y-135295600D02*
X79431700Y-135295600D01*
X79431700Y-135295600D02*
X79431700Y-137195600D01*
X79431700Y-137195600D02*
X76071700Y-137195600D01*
%TO.C,R1*%
X124297400Y-99488200D02*
X126197400Y-99488200D01*
X126197400Y-99488200D02*
X126197400Y-102848200D01*
X126197400Y-102848200D02*
X124297400Y-102848200D01*
X124297400Y-102848200D02*
X124297400Y-99488200D01*
%TO.C,JP4*%
X104928400Y-130728400D02*
X108228400Y-130728400D01*
X104928400Y-130728400D02*
X104928400Y-133228400D01*
X108228400Y-133228400D02*
X108228400Y-130728400D01*
X108228400Y-133228400D02*
X104928400Y-133228400D01*
%TO.C,JP3*%
X104943400Y-126969200D02*
X108243400Y-126969200D01*
X104943400Y-126969200D02*
X104943400Y-129469200D01*
X108243400Y-129469200D02*
X108243400Y-126969200D01*
X108243400Y-129469200D02*
X104943400Y-129469200D01*
%TO.C,JP2*%
X103241600Y-108478000D02*
X106541600Y-108478000D01*
X103241600Y-108478000D02*
X103241600Y-110978000D01*
X106541600Y-110978000D02*
X106541600Y-108478000D01*
X106541600Y-110978000D02*
X103241600Y-110978000D01*
%TO.C,JP1*%
X103226600Y-105582400D02*
X106526600Y-105582400D01*
X103226600Y-105582400D02*
X103226600Y-108082400D01*
X106526600Y-108082400D02*
X106526600Y-105582400D01*
X106526600Y-108082400D02*
X103226600Y-108082400D01*
%TO.C,J7*%
X51162200Y-111055600D02*
X51162200Y-118255600D01*
X51162200Y-118255600D02*
X62792200Y-118255600D01*
X62792200Y-118255600D02*
X62792200Y-111055600D01*
X62792200Y-111055600D02*
X51162200Y-111055600D01*
%TO.C,J2*%
X36888800Y-132715200D02*
X54398800Y-132715200D01*
X36888800Y-132715200D02*
X36888800Y-121555200D01*
X36888800Y-121555200D02*
X54398800Y-121555200D01*
X54398800Y-121555200D02*
X54398800Y-132715200D01*
%TO.C,D3*%
X137922200Y-116423400D02*
X141122200Y-116423400D01*
X141122200Y-116423400D02*
X141122200Y-118323400D01*
X137922200Y-118323400D02*
X141122200Y-118323400D01*
X137922200Y-116423400D02*
X137922200Y-118323400D01*
%TO.C,D2*%
X139689800Y-131317800D02*
X139689800Y-128117800D01*
X139689800Y-128117800D02*
X141589800Y-128117800D01*
X141589800Y-131317800D02*
X141589800Y-128117800D01*
X139689800Y-131317800D02*
X141589800Y-131317800D01*
%TO.C,D1*%
X110983800Y-117086400D02*
X114383800Y-117086400D01*
X114383800Y-117086400D02*
X114383800Y-120586400D01*
X114383800Y-120586400D02*
X110983800Y-120586400D01*
X110983800Y-120586400D02*
X110983800Y-117086400D01*
%TO.C,C22*%
X81292159Y-115251400D02*
X81292159Y-113351400D01*
X81292159Y-113351400D02*
X84652159Y-113351400D01*
X84652159Y-113351400D02*
X84652159Y-115251400D01*
X84652159Y-115251400D02*
X81292159Y-115251400D01*
%TO.C,C21*%
X91055400Y-116901000D02*
X91055400Y-115001000D01*
X91055400Y-115001000D02*
X94415400Y-115001000D01*
X94415400Y-115001000D02*
X94415400Y-116901000D01*
X94415400Y-116901000D02*
X91055400Y-116901000D01*
%TO.C,C20*%
X87319559Y-116896800D02*
X87319559Y-114996800D01*
X87319559Y-114996800D02*
X90679559Y-114996800D01*
X90679559Y-114996800D02*
X90679559Y-116896800D01*
X90679559Y-116896800D02*
X87319559Y-116896800D01*
%TO.C,C19*%
X69181800Y-125345400D02*
X71081800Y-125345400D01*
X71081800Y-125345400D02*
X71081800Y-128705400D01*
X71081800Y-128705400D02*
X69181800Y-128705400D01*
X69181800Y-128705400D02*
X69181800Y-125345400D01*
%TO.C,C18*%
X66995000Y-125370800D02*
X68895000Y-125370800D01*
X68895000Y-125370800D02*
X68895000Y-128730800D01*
X68895000Y-128730800D02*
X66995000Y-128730800D01*
X66995000Y-128730800D02*
X66995000Y-125370800D01*
%TO.C,C17*%
X73111400Y-128705400D02*
X71211400Y-128705400D01*
X71211400Y-128705400D02*
X71211400Y-125345400D01*
X71211400Y-125345400D02*
X73111400Y-125345400D01*
X73111400Y-125345400D02*
X73111400Y-128705400D01*
%TO.C,C16*%
X99171800Y-122914200D02*
X97271800Y-122914200D01*
X97271800Y-122914200D02*
X97271800Y-119554200D01*
X97271800Y-119554200D02*
X99171800Y-119554200D01*
X99171800Y-119554200D02*
X99171800Y-122914200D01*
%TO.C,C15*%
X99386600Y-122082600D02*
X99386600Y-120182600D01*
X99386600Y-120182600D02*
X102746600Y-120182600D01*
X102746600Y-120182600D02*
X102746600Y-122082600D01*
X102746600Y-122082600D02*
X99386600Y-122082600D01*
%TO.C,C14*%
X80791500Y-118577400D02*
X80791500Y-116677400D01*
X80791500Y-116677400D02*
X84151500Y-116677400D01*
X84151500Y-116677400D02*
X84151500Y-118577400D01*
X84151500Y-118577400D02*
X80791500Y-118577400D01*
%TO.C,C13*%
X84521000Y-119805900D02*
X86421000Y-119805900D01*
X86421000Y-119805900D02*
X86421000Y-123165900D01*
X86421000Y-123165900D02*
X84521000Y-123165900D01*
X84521000Y-123165900D02*
X84521000Y-119805900D01*
%TO.C,C12*%
X85315000Y-129169200D02*
X85315000Y-127269200D01*
X85315000Y-127269200D02*
X88675000Y-127269200D01*
X88675000Y-127269200D02*
X88675000Y-129169200D01*
X88675000Y-129169200D02*
X85315000Y-129169200D01*
%TO.C,C11*%
X81578900Y-129194600D02*
X81578900Y-127294600D01*
X81578900Y-127294600D02*
X84938900Y-127294600D01*
X84938900Y-127294600D02*
X84938900Y-129194600D01*
X84938900Y-129194600D02*
X81578900Y-129194600D01*
%TO.C,C10*%
X85271400Y-135143200D02*
X85271400Y-137043200D01*
X85271400Y-137043200D02*
X81911400Y-137043200D01*
X81911400Y-137043200D02*
X81911400Y-135143200D01*
X81911400Y-135143200D02*
X85271400Y-135143200D01*
%TO.C,C9*%
X59033200Y-130799800D02*
X59033200Y-132699800D01*
X59033200Y-132699800D02*
X55673200Y-132699800D01*
X55673200Y-132699800D02*
X55673200Y-130799800D01*
X55673200Y-130799800D02*
X59033200Y-130799800D01*
%TO.C,C8*%
X59312600Y-121554200D02*
X59312600Y-123454200D01*
X59312600Y-123454200D02*
X55952600Y-123454200D01*
X55952600Y-123454200D02*
X55952600Y-121554200D01*
X55952600Y-121554200D02*
X59312600Y-121554200D01*
%TO.C,C7*%
X89321600Y-130222200D02*
X91221600Y-130222200D01*
X91221600Y-130222200D02*
X91221600Y-133582200D01*
X91221600Y-133582200D02*
X89321600Y-133582200D01*
X89321600Y-133582200D02*
X89321600Y-130222200D01*
%TO.C,C6*%
X89499400Y-135835600D02*
X91399400Y-135835600D01*
X91399400Y-135835600D02*
X91399400Y-139195600D01*
X91399400Y-139195600D02*
X89499400Y-139195600D01*
X89499400Y-139195600D02*
X89499400Y-135835600D01*
%TO.C,C5*%
X79568000Y-129333200D02*
X81468000Y-129333200D01*
X81468000Y-129333200D02*
X81468000Y-132693200D01*
X81468000Y-132693200D02*
X79568000Y-132693200D01*
X79568000Y-132693200D02*
X79568000Y-129333200D01*
%TO.C,C4*%
X79542600Y-136315900D02*
X81442600Y-136315900D01*
X81442600Y-136315900D02*
X81442600Y-139675900D01*
X81442600Y-139675900D02*
X79542600Y-139675900D01*
X79542600Y-139675900D02*
X79542600Y-136315900D01*
%TO.C,C3*%
X151710600Y-122194000D02*
G75*
G03*
X151710600Y-122194000I-3400000J0D01*
G01*
%TO.C,C2*%
X129384000Y-109276200D02*
G75*
G03*
X129384000Y-109276200I-3400000J0D01*
G01*
%TO.C,C1*%
X147742800Y-114122200D02*
G75*
G03*
X147742800Y-114122200I-3400000J0D01*
G01*
%TD*%
M02*
